M48
;Layer_Color=9474304
;FILE_FORMAT=2:5
INCH,LZ
T3F00S00C0.03200
%
G90
G05
T03
G00X018875Y0008486
M15
G01X0189514Y0008803
G01X0190202Y0009263
G01X0190787Y0009848
G01X0191247Y0010536
G01X0191564Y00113
G01X0191725Y0012111
G01X0191725Y0012939
G01X0191564Y001375
G01X0191247Y0014514
G01X0190787Y0015202
G01X0190202Y0015787
G01X0189514Y0016247
G01X018875Y0016564
G01X0187939Y0016725
G01X0187111Y0016725
G01X01863Y0016564
G01X0185536Y0016247
G01X0184848Y0015787
G01X0184263Y0015202
G01X0183803Y0014514
G01X0183486Y001375
G01X0183325Y0012939
G01X0183325Y0012111
G01X0183486Y00113
G01X0183803Y0010536
G01X0184263Y0009848
G01X0184848Y0009263
G01X0185536Y0008803
G01X01863Y0008486
G01X0187111Y0008325
G01X0187939Y0008325
G01X018875Y0008486
M16
G00X018875Y0033486
M15
G01X0189514Y0033803
G01X0190202Y0034263
G01X0190787Y0034848
G01X0191247Y0035536
G01X0191564Y00363
G01X0191725Y0037111
G01X0191725Y0037939
G01X0191564Y003875
G01X0191247Y0039514
G01X0190787Y0040202
G01X0190202Y0040787
G01X0189514Y0041247
G01X018875Y0041564
G01X0187939Y0041725
G01X0187111Y0041725
G01X01863Y0041564
G01X0185536Y0041247
G01X0184848Y0040787
G01X0184263Y0040202
G01X0183803Y0039514
G01X0183486Y003875
G01X0183325Y0037939
G01X0183325Y0037111
G01X0183486Y00363
G01X0183803Y0035536
G01X0184263Y0034848
G01X0184848Y0034263
G01X0185536Y0033803
G01X01863Y0033486
G01X0187111Y0033325
G01X0187939Y0033325
G01X018875Y0033486
M16
G00X001375Y0008486
M15
G01X0014514Y0008803
G01X0015202Y0009263
G01X0015787Y0009848
G01X0016247Y0010536
G01X0016564Y00113
G01X0016725Y0012111
G01X0016725Y0012939
G01X0016564Y001375
G01X0016247Y0014514
G01X0015787Y0015202
G01X0015202Y0015787
G01X0014514Y0016247
G01X001375Y0016564
G01X0012939Y0016725
G01X0012111Y0016725
G01X00113Y0016564
G01X0010536Y0016247
G01X0009848Y0015787
G01X0009263Y0015202
G01X0008803Y0014514
G01X0008486Y001375
G01X0008325Y0012939
G01X0008325Y0012111
G01X0008486Y00113
G01X0008803Y0010536
G01X0009263Y0009848
G01X0009848Y0009263
G01X0010536Y0008803
G01X00113Y0008486
G01X0012111Y0008325
G01X0012939Y0008325
G01X001375Y0008486
M16
G00X001375Y0033486
M15
G01X0014514Y0033803
G01X0015202Y0034263
G01X0015787Y0034848
G01X0016247Y0035536
G01X0016564Y00363
G01X0016725Y0037111
G01X0016725Y0037939
G01X0016564Y003875
G01X0016247Y0039514
G01X0015787Y0040202
G01X0015202Y0040787
G01X0014514Y0041247
G01X001375Y0041564
G01X0012939Y0041725
G01X0012111Y0041725
G01X00113Y0041564
G01X0010536Y0041247
G01X0009848Y0040787
G01X0009263Y0040202
G01X0008803Y0039514
G01X0008486Y003875
G01X0008325Y0037939
G01X0008325Y0037111
G01X0008486Y00363
G01X0008803Y0035536
G01X0009263Y0034848
G01X0009848Y0034263
G01X0010536Y0033803
G01X00113Y0033486
G01X0012111Y0033325
G01X0012939Y0033325
G01X001375Y0033486
M16
G00X0200794Y-0001378
M15
G01X0201374Y-0000836
G01X0201625Y0000025
G01X0201625Y0050025
G01X0201428Y0050794
G01X0200886Y0051374
G01X0200025Y0051625
G01X0000025Y0051625
G01X-0000744Y0051428
G01X-0001324Y0050886
G01X-0001575Y0050025
G01X-0001575Y0000025
G01X-0001378Y-0000744
G01X-0000836Y-0001324
G01X0000025Y-0001575
G01X0200025Y-0001575
G01X0200794Y-0001378
M16
M17
M30
