M48
;Layer_Color=9474304
;FILE_FORMAT=2:5
INCH,LZ
;TYPE=PLATED
T1F00S00C0.02100
T2F00S00C0.03543
;TYPE=NON_PLATED
%
T01
X006Y0025025
X007Y0025
X008
X009
X01
X011
X012
X013
X014
T02
X0043872Y0040872
X0053872
X0063872
X0073872
X0083872
X0093872
X0103872
X0113872
X0123872
X0133872
X0143872
X0153872
M30
