G04*
G04 #@! TF.GenerationSoftware,Altium Limited,Altium Designer,18.1.9 (240)*
G04*
G04 Layer_Physical_Order=2*
G04 Layer_Color=16711680*
%FSLAX25Y25*%
%MOIN*%
G70*
G01*
G75*
%ADD10C,0.03000*%
%ADD11C,0.05900*%
%ADD12C,0.05906*%
%ADD13R,0.05906X0.05906*%
G36*
X200025Y25D02*
X25D01*
Y50025D01*
X135917D01*
X136746Y48025D01*
X134060Y45339D01*
X133872Y45364D01*
X132710Y45210D01*
X131627Y44762D01*
X130696Y44048D01*
X129983Y43118D01*
X129955Y43050D01*
X127790D01*
X127762Y43118D01*
X127048Y44048D01*
X126118Y44762D01*
X125035Y45210D01*
X123872Y45364D01*
X122710Y45210D01*
X121627Y44762D01*
X120696Y44048D01*
X119983Y43118D01*
X119955Y43050D01*
X117790D01*
X117762Y43118D01*
X117048Y44048D01*
X116118Y44762D01*
X115035Y45210D01*
X113872Y45364D01*
X112710Y45210D01*
X111627Y44762D01*
X110696Y44048D01*
X109983Y43118D01*
X109955Y43050D01*
X107790D01*
X107762Y43118D01*
X107048Y44048D01*
X106118Y44762D01*
X105035Y45210D01*
X103872Y45364D01*
X102710Y45210D01*
X101627Y44762D01*
X100697Y44048D01*
X99983Y43118D01*
X99955Y43050D01*
X97790D01*
X97762Y43118D01*
X97048Y44048D01*
X96118Y44762D01*
X95035Y45210D01*
X93872Y45364D01*
X92710Y45210D01*
X91627Y44762D01*
X91209Y44441D01*
X89767Y44353D01*
X88683Y44709D01*
X88244Y45244D01*
X87307Y46013D01*
X86238Y46584D01*
X85472Y46817D01*
Y40872D01*
X82272D01*
Y46817D01*
X81506Y46584D01*
X80437Y46013D01*
X79501Y45244D01*
X79062Y44709D01*
X77977Y44353D01*
X76536Y44441D01*
X76118Y44762D01*
X75035Y45210D01*
X73872Y45364D01*
X72710Y45210D01*
X71627Y44762D01*
X71209Y44441D01*
X69767Y44353D01*
X68683Y44709D01*
X68244Y45244D01*
X67307Y46013D01*
X66238Y46584D01*
X65472Y46817D01*
Y40872D01*
X62272D01*
Y46817D01*
X61506Y46584D01*
X60438Y46013D01*
X59501Y45244D01*
X59062Y44709D01*
X57977Y44353D01*
X56536Y44441D01*
X56118Y44762D01*
X55035Y45210D01*
X53872Y45364D01*
X52710Y45210D01*
X51627Y44762D01*
X51209Y44441D01*
X49767Y44353D01*
X48683Y44709D01*
X48244Y45244D01*
X47307Y46013D01*
X46238Y46584D01*
X45472Y46817D01*
Y40872D01*
X43872D01*
D01*
X45472D01*
Y34928D01*
X46238Y35160D01*
X47307Y35732D01*
X48244Y36501D01*
X48683Y37035D01*
X49767Y37391D01*
X51209Y37303D01*
X51627Y36983D01*
X52710Y36534D01*
X53872Y36381D01*
X54059Y36406D01*
X59059Y31407D01*
X58958Y30470D01*
X58441Y29196D01*
X57756Y28912D01*
X56826Y28199D01*
X56113Y27269D01*
X55664Y26187D01*
X55512Y25025D01*
X55664Y23863D01*
X56113Y22781D01*
X56826Y21851D01*
X57756Y21138D01*
X58838Y20689D01*
X60000Y20537D01*
X60185Y20561D01*
X71492Y9254D01*
X71492Y9254D01*
X72119Y8773D01*
X72848Y8471D01*
X73632Y8368D01*
X155394D01*
X156177Y8471D01*
X156906Y8773D01*
X157533Y9254D01*
X166140Y17860D01*
X166621Y18487D01*
X166923Y19217D01*
X167026Y20000D01*
Y43000D01*
X166923Y43783D01*
X166621Y44513D01*
X166140Y45140D01*
X166140Y45140D01*
X163254Y48025D01*
X164083Y50025D01*
X200025D01*
Y25D01*
D02*
G37*
G36*
X155472Y34719D02*
X160025D01*
X160974Y33113D01*
Y21253D01*
X154140Y14419D01*
X74885D01*
X70716Y18589D01*
X71008Y19949D01*
X71378Y20754D01*
X72244Y21113D01*
X72664Y21435D01*
X74106Y21521D01*
X75189Y21168D01*
X75630Y20630D01*
X76567Y19862D01*
X77635Y19291D01*
X78400Y19059D01*
Y25000D01*
X81600D01*
Y19059D01*
X82365Y19291D01*
X83433Y19862D01*
X84370Y20630D01*
X84811Y21168D01*
X85894Y21521D01*
X87336Y21435D01*
X87756Y21113D01*
X88838Y20664D01*
X90000Y20512D01*
X91162Y20664D01*
X92244Y21113D01*
X92664Y21435D01*
X94106Y21521D01*
X95189Y21168D01*
X95630Y20630D01*
X96567Y19862D01*
X97635Y19291D01*
X98400Y19059D01*
Y25000D01*
X101600D01*
Y19059D01*
X102365Y19291D01*
X103433Y19862D01*
X104370Y20630D01*
X104811Y21168D01*
X105894Y21521D01*
X107336Y21435D01*
X107756Y21113D01*
X108838Y20664D01*
X110000Y20512D01*
X111162Y20664D01*
X112244Y21113D01*
X113174Y21826D01*
X113887Y22756D01*
X113918Y22829D01*
X116082D01*
X116113Y22756D01*
X116826Y21826D01*
X117756Y21113D01*
X118838Y20664D01*
X120000Y20512D01*
X121162Y20664D01*
X122244Y21113D01*
X123174Y21826D01*
X123887Y22756D01*
X123918Y22829D01*
X126082D01*
X126113Y22756D01*
X126826Y21826D01*
X127756Y21113D01*
X128838Y20664D01*
X130000Y20512D01*
X131162Y20664D01*
X132244Y21113D01*
X133174Y21826D01*
X133887Y22756D01*
X133918Y22829D01*
X136082D01*
X136113Y22756D01*
X136826Y21826D01*
X137756Y21113D01*
X138838Y20664D01*
X140000Y20512D01*
X141162Y20664D01*
X142244Y21113D01*
X143174Y21826D01*
X143887Y22756D01*
X144335Y23838D01*
X144488Y25000D01*
X144335Y26162D01*
X143887Y27244D01*
X143174Y28174D01*
X143026Y28287D01*
Y34653D01*
X143872Y36381D01*
X145035Y36534D01*
X145720Y36818D01*
X146988Y36281D01*
X147720Y35691D01*
Y34719D01*
X152272D01*
Y40872D01*
X155472D01*
Y34719D01*
D02*
G37*
G36*
X91209Y37303D02*
X91627Y36983D01*
X92710Y36534D01*
X93872Y36381D01*
X94059Y36406D01*
X97659Y32807D01*
X97649Y31901D01*
X97174Y30463D01*
X96567Y30138D01*
X95630Y29370D01*
X95189Y28833D01*
X94106Y28479D01*
X92664Y28565D01*
X92244Y28887D01*
X91162Y29335D01*
X90000Y29488D01*
X89590Y29434D01*
X86020Y33004D01*
X86150Y34286D01*
X86534Y35318D01*
X87307Y35732D01*
X88244Y36501D01*
X88683Y37035D01*
X89767Y37391D01*
X91209Y37303D01*
D02*
G37*
G36*
X71209D02*
X71627Y36983D01*
X72710Y36534D01*
X73872Y36381D01*
X74059Y36406D01*
X77659Y32807D01*
X77649Y31901D01*
X77174Y30463D01*
X76567Y30138D01*
X75630Y29370D01*
X75189Y28833D01*
X74106Y28479D01*
X72664Y28565D01*
X72244Y28887D01*
X71162Y29335D01*
X70000Y29488D01*
X69590Y29434D01*
X66020Y33004D01*
X66150Y34286D01*
X66534Y35318D01*
X67307Y35732D01*
X68244Y36501D01*
X68683Y37035D01*
X69767Y37391D01*
X71209Y37303D01*
D02*
G37*
G36*
X136974Y35006D02*
Y28287D01*
X136826Y28174D01*
X136380Y27592D01*
X134407Y27494D01*
X134235Y27519D01*
X133026Y28801D01*
Y34475D01*
X133491Y35524D01*
X135353Y36141D01*
X136974Y35006D01*
D02*
G37*
G36*
X126974Y33491D02*
Y28287D01*
X126826Y28174D01*
X126380Y27592D01*
X124407Y27494D01*
X124235Y27519D01*
X123026Y28801D01*
Y34475D01*
X123125Y34697D01*
X123312Y34861D01*
X124940Y35525D01*
X126974Y33491D01*
D02*
G37*
G36*
X109983Y38627D02*
X110696Y37696D01*
X111627Y36983D01*
X112710Y36534D01*
X113872Y36381D01*
X114059Y36406D01*
X116974Y33491D01*
Y28287D01*
X116826Y28174D01*
X116113Y27244D01*
X116082Y27171D01*
X113918D01*
X113887Y27244D01*
X113174Y28174D01*
X112244Y28887D01*
X111162Y29335D01*
X110000Y29488D01*
X109590Y29434D01*
X104568Y34455D01*
X104884Y35862D01*
X105235Y36617D01*
X106118Y36983D01*
X107048Y37696D01*
X107762Y38627D01*
X107790Y38695D01*
X109955D01*
X109983Y38627D01*
D02*
G37*
%LPC*%
G36*
X42272Y46817D02*
X41506Y46584D01*
X40437Y46013D01*
X39501Y45244D01*
X38732Y44307D01*
X38160Y43238D01*
X37928Y42472D01*
X42272D01*
Y46817D01*
D02*
G37*
G36*
Y39272D02*
X37928D01*
X38160Y38506D01*
X38732Y37437D01*
X39501Y36501D01*
X40437Y35732D01*
X41506Y35160D01*
X42272Y34928D01*
Y39272D01*
D02*
G37*
G36*
X188096Y44854D02*
X186954D01*
X186806Y44825D01*
X186655D01*
X185535Y44602D01*
X185396Y44545D01*
X185248Y44515D01*
X184192Y44078D01*
X184067Y43994D01*
X183928Y43936D01*
X182978Y43302D01*
X182871Y43195D01*
X182746Y43112D01*
X181938Y42304D01*
X181855Y42178D01*
X181748Y42072D01*
X181114Y41122D01*
X181056Y40983D01*
X180972Y40858D01*
X180535Y39802D01*
X180506Y39654D01*
X180448Y39515D01*
X180225Y38395D01*
Y38244D01*
X180196Y38096D01*
Y36954D01*
X180225Y36806D01*
Y36655D01*
X180448Y35535D01*
X180506Y35396D01*
X180535Y35248D01*
X180972Y34192D01*
X181056Y34067D01*
X181114Y33928D01*
X181748Y32978D01*
X181855Y32871D01*
X181938Y32746D01*
X182746Y31938D01*
X182871Y31855D01*
X182978Y31748D01*
X183928Y31113D01*
X184067Y31056D01*
X184192Y30972D01*
X185248Y30535D01*
X185396Y30505D01*
X185535Y30448D01*
X186655Y30225D01*
X186806D01*
X186954Y30196D01*
X188096D01*
X188244Y30225D01*
X188395D01*
X189515Y30448D01*
X189654Y30505D01*
X189802Y30535D01*
X190858Y30972D01*
X190983Y31056D01*
X191122Y31113D01*
X192072Y31748D01*
X192178Y31855D01*
X192304Y31938D01*
X193112Y32746D01*
X193195Y32871D01*
X193302Y32978D01*
X193937Y33928D01*
X193994Y34067D01*
X194078Y34192D01*
X194515Y35248D01*
X194544Y35396D01*
X194602Y35535D01*
X194825Y36655D01*
Y36806D01*
X194854Y36954D01*
Y38096D01*
X194825Y38244D01*
Y38395D01*
X194602Y39515D01*
X194544Y39654D01*
X194515Y39802D01*
X194078Y40858D01*
X193994Y40983D01*
X193937Y41122D01*
X193302Y42072D01*
X193195Y42178D01*
X193112Y42304D01*
X192304Y43112D01*
X192178Y43195D01*
X192072Y43302D01*
X191122Y43936D01*
X190983Y43994D01*
X190858Y44078D01*
X189802Y44515D01*
X189654Y44545D01*
X189515Y44602D01*
X188395Y44825D01*
X188244D01*
X188096Y44854D01*
D02*
G37*
G36*
X13096D02*
X11954D01*
X11806Y44825D01*
X11655D01*
X10535Y44602D01*
X10396Y44545D01*
X10248Y44515D01*
X9192Y44078D01*
X9067Y43994D01*
X8928Y43936D01*
X7978Y43302D01*
X7871Y43195D01*
X7746Y43112D01*
X6938Y42304D01*
X6855Y42178D01*
X6748Y42072D01*
X6114Y41122D01*
X6056Y40983D01*
X5972Y40858D01*
X5535Y39802D01*
X5505Y39654D01*
X5448Y39515D01*
X5225Y38395D01*
Y38244D01*
X5196Y38096D01*
Y36954D01*
X5225Y36806D01*
Y36655D01*
X5448Y35535D01*
X5505Y35396D01*
X5535Y35248D01*
X5972Y34192D01*
X6056Y34067D01*
X6114Y33928D01*
X6748Y32978D01*
X6855Y32871D01*
X6938Y32746D01*
X7746Y31938D01*
X7871Y31855D01*
X7978Y31748D01*
X8928Y31113D01*
X9067Y31056D01*
X9192Y30972D01*
X10248Y30535D01*
X10396Y30505D01*
X10535Y30448D01*
X11655Y30225D01*
X11806D01*
X11954Y30196D01*
X13096D01*
X13244Y30225D01*
X13395D01*
X14515Y30448D01*
X14654Y30505D01*
X14802Y30535D01*
X15858Y30972D01*
X15983Y31056D01*
X16122Y31113D01*
X17072Y31748D01*
X17178Y31855D01*
X17304Y31938D01*
X18112Y32746D01*
X18195Y32871D01*
X18302Y32978D01*
X18936Y33928D01*
X18994Y34067D01*
X19078Y34192D01*
X19515Y35248D01*
X19545Y35396D01*
X19602Y35535D01*
X19825Y36655D01*
Y36806D01*
X19854Y36954D01*
Y38096D01*
X19825Y38244D01*
Y38395D01*
X19602Y39515D01*
X19545Y39654D01*
X19515Y39802D01*
X19078Y40858D01*
X18994Y40983D01*
X18936Y41122D01*
X18302Y42072D01*
X18195Y42178D01*
X18112Y42304D01*
X17304Y43112D01*
X17178Y43195D01*
X17072Y43302D01*
X16122Y43936D01*
X15983Y43994D01*
X15858Y44078D01*
X14802Y44515D01*
X14654Y44545D01*
X14515Y44602D01*
X13395Y44825D01*
X13244D01*
X13096Y44854D01*
D02*
G37*
G36*
X188096Y19854D02*
X186954D01*
X186806Y19825D01*
X186655D01*
X185535Y19602D01*
X185396Y19545D01*
X185248Y19515D01*
X184192Y19078D01*
X184067Y18994D01*
X183928Y18936D01*
X182978Y18302D01*
X182871Y18195D01*
X182746Y18112D01*
X181938Y17304D01*
X181855Y17178D01*
X181748Y17072D01*
X181114Y16122D01*
X181056Y15983D01*
X180972Y15858D01*
X180535Y14802D01*
X180506Y14654D01*
X180448Y14515D01*
X180225Y13395D01*
Y13244D01*
X180196Y13096D01*
Y11954D01*
X180225Y11806D01*
Y11655D01*
X180448Y10535D01*
X180506Y10396D01*
X180535Y10248D01*
X180972Y9192D01*
X181056Y9067D01*
X181114Y8928D01*
X181748Y7978D01*
X181855Y7871D01*
X181938Y7746D01*
X182746Y6938D01*
X182871Y6855D01*
X182978Y6748D01*
X183928Y6114D01*
X184067Y6056D01*
X184192Y5972D01*
X185248Y5535D01*
X185396Y5505D01*
X185535Y5448D01*
X186655Y5225D01*
X186806D01*
X186954Y5196D01*
X188096D01*
X188244Y5225D01*
X188395D01*
X189515Y5448D01*
X189654Y5505D01*
X189802Y5535D01*
X190858Y5972D01*
X190983Y6056D01*
X191122Y6114D01*
X192072Y6748D01*
X192178Y6855D01*
X192304Y6938D01*
X193112Y7746D01*
X193195Y7871D01*
X193302Y7978D01*
X193937Y8928D01*
X193994Y9067D01*
X194078Y9192D01*
X194515Y10248D01*
X194544Y10396D01*
X194602Y10535D01*
X194825Y11655D01*
Y11806D01*
X194854Y11954D01*
Y13096D01*
X194825Y13244D01*
Y13395D01*
X194602Y14515D01*
X194544Y14654D01*
X194515Y14802D01*
X194078Y15858D01*
X193994Y15983D01*
X193937Y16122D01*
X193302Y17072D01*
X193195Y17178D01*
X193112Y17304D01*
X192304Y18112D01*
X192178Y18195D01*
X192072Y18302D01*
X191122Y18936D01*
X190983Y18994D01*
X190858Y19078D01*
X189802Y19515D01*
X189654Y19545D01*
X189515Y19602D01*
X188395Y19825D01*
X188244D01*
X188096Y19854D01*
D02*
G37*
G36*
X13096D02*
X11954D01*
X11806Y19825D01*
X11655D01*
X10535Y19602D01*
X10396Y19545D01*
X10248Y19515D01*
X9192Y19078D01*
X9067Y18994D01*
X8928Y18936D01*
X7978Y18302D01*
X7871Y18195D01*
X7746Y18112D01*
X6938Y17304D01*
X6855Y17178D01*
X6748Y17072D01*
X6114Y16122D01*
X6056Y15983D01*
X5972Y15858D01*
X5535Y14802D01*
X5505Y14654D01*
X5448Y14515D01*
X5225Y13395D01*
Y13244D01*
X5196Y13096D01*
Y11954D01*
X5225Y11806D01*
Y11655D01*
X5448Y10535D01*
X5505Y10396D01*
X5535Y10248D01*
X5972Y9192D01*
X6056Y9067D01*
X6114Y8928D01*
X6748Y7978D01*
X6855Y7871D01*
X6938Y7746D01*
X7746Y6938D01*
X7871Y6855D01*
X7978Y6748D01*
X8928Y6114D01*
X9067Y6056D01*
X9192Y5972D01*
X10248Y5535D01*
X10396Y5505D01*
X10535Y5448D01*
X11655Y5225D01*
X11806D01*
X11954Y5196D01*
X13096D01*
X13244Y5225D01*
X13395D01*
X14515Y5448D01*
X14654Y5505D01*
X14802Y5535D01*
X15858Y5972D01*
X15983Y6056D01*
X16122Y6114D01*
X17072Y6748D01*
X17178Y6855D01*
X17304Y6938D01*
X18112Y7746D01*
X18195Y7871D01*
X18302Y7978D01*
X18936Y8928D01*
X18994Y9067D01*
X19078Y9192D01*
X19515Y10248D01*
X19545Y10396D01*
X19602Y10535D01*
X19825Y11655D01*
Y11806D01*
X19854Y11954D01*
Y13096D01*
X19825Y13244D01*
Y13395D01*
X19602Y14515D01*
X19545Y14654D01*
X19515Y14802D01*
X19078Y15858D01*
X18994Y15983D01*
X18936Y16122D01*
X18302Y17072D01*
X18195Y17178D01*
X18112Y17304D01*
X17304Y18112D01*
X17178Y18195D01*
X17072Y18302D01*
X16122Y18936D01*
X15983Y18994D01*
X15858Y19078D01*
X14802Y19515D01*
X14654Y19545D01*
X14515Y19602D01*
X13395Y19825D01*
X13244D01*
X13096Y19854D01*
D02*
G37*
%LPD*%
D10*
X83872Y40872D02*
X99745Y25000D01*
X100000D01*
X63872Y40872D02*
X79745Y25000D01*
X80000D01*
X155394Y11394D02*
X164000Y20000D01*
X73632Y11394D02*
X155394D01*
X60000Y25025D02*
X73632Y11394D01*
X164000Y20000D02*
Y43000D01*
X160000Y47000D02*
X164000Y43000D01*
X140000Y47000D02*
X160000D01*
X133872Y40872D02*
X140000Y47000D01*
Y37000D02*
X143872Y40872D01*
X140000Y25000D02*
Y37000D01*
X124000Y40745D02*
X130000Y34745D01*
Y25000D02*
Y34745D01*
X113872Y40872D02*
X120000Y34745D01*
X113736Y41008D02*
X113872Y40872D01*
X93872D02*
X109745Y25000D01*
X93736Y41008D02*
X93872Y40872D01*
X53872D02*
X69745Y25000D01*
X70000D01*
X73872Y40872D02*
X89745Y25000D01*
X90000D01*
X109745D02*
X110000D01*
X120000D02*
Y34745D01*
D11*
X70000Y25000D02*
D03*
X80000D02*
D03*
X90000D02*
D03*
X100000D02*
D03*
X140000D02*
D03*
X60000Y25025D02*
D03*
X130000Y25000D02*
D03*
X120000D02*
D03*
X110000D02*
D03*
D12*
X43872Y40872D02*
D03*
X53872D02*
D03*
X63872D02*
D03*
X73872D02*
D03*
X83872D02*
D03*
X93872D02*
D03*
X103872D02*
D03*
X113872D02*
D03*
X123872D02*
D03*
X133872D02*
D03*
X143872D02*
D03*
D13*
X153872D02*
D03*
M02*
