M48
;Layer_Color=9474304
;FILE_FORMAT=2:5
INCH,LZ
T2F00S00C0.03200
%
G90
G05
T02
G00X0302908Y0122068
M15
G01X0305083Y012265
G01X0307163Y0123512
G01X0309113Y0124638
G01X03109Y0126009
G01X0406196Y0221305
G01X0406879Y022171
G01X0407327Y0221774
G01X0475676Y0221774
G01X0477908Y0222068
G01X0480083Y022265
G01X0482163Y0223512
G01X0484113Y0224638
G01X04859Y0226009
G01X0487492Y0227601
G01X0488862Y0229387
G01X0489988Y0231337
G01X049085Y0233417
G01X0491433Y0235592
G01X0491726Y0237825
G01X0491726Y0240076
G01X0491433Y0242308
G01X049085Y0244483
G01X0489988Y0246564
G01X0488862Y0248514
G01X0487492Y02503
G01X04859Y0251892
G01X0484113Y0253263
G01X0482163Y0254388
G01X0480083Y025525
G01X0477908Y0255833
G01X0475676Y0256127
G01X0398706Y0256127
G01X0397027Y0255961
G01X0395371Y0255632
G01X0393756Y0255142
G01X0392197Y0254496
G01X0390709Y0253701
G01X0389306Y0252763
G01X0388001Y0251693
G01X0286608Y01503
G01X0285238Y0148514
G01X0284112Y0146564
G01X028325Y0144483
G01X0282667Y0142308
G01X0282374Y0140076
G01X0282374Y0137824
G01X0282667Y0135592
G01X028325Y0133417
G01X0284112Y0131337
G01X0285238Y0129387
G01X0286608Y0127601
G01X02882Y0126009
G01X0289987Y0124638
G01X0291937Y0123512
G01X0294017Y012265
G01X0296192Y0122068
G01X0298424Y0121774
G01X0300676Y0121774
G01X0302908Y0122068
M16
G00X0013381Y027371
M15
G01X00139Y0273925
G01X0014367Y0274237
G01X0014764Y0274634
G01X0015076Y02751
G01X001529Y0275619
G01X00154Y027617
G01X00154Y0276731
G01X001529Y0277282
G01X0015076Y02778
G01X0014764Y0278267
G01X0014367Y0278664
G01X00139Y0278976
G01X0013381Y0279191
G01X0012831Y02793
G01X0012269Y02793
G01X0011719Y0279191
G01X00112Y0278976
G01X0010733Y0278664
G01X0010336Y0278267
G01X0010024Y02778
G01X000981Y0277282
G01X00097Y0276731
G01X00097Y027617
G01X000981Y0275619
G01X0010024Y02751
G01X0010336Y0274634
G01X0010733Y0274237
G01X00112Y0273925
G01X0011719Y027371
G01X0012269Y02736
G01X0012831Y02736
G01X0013381Y027371
M16
G00X0487381Y027371
M15
G01X04879Y0273925
G01X0488367Y0274237
G01X0488764Y0274634
G01X0489076Y02751
G01X048929Y0275619
G01X04894Y027617
G01X04894Y0276731
G01X048929Y0277282
G01X0489076Y02778
G01X0488764Y0278267
G01X0488367Y0278664
G01X04879Y0278976
G01X0487381Y0279191
G01X0486831Y02793
G01X0486269Y02793
G01X0485719Y0279191
G01X04852Y0278976
G01X0484733Y0278664
G01X0484336Y0278267
G01X0484024Y02778
G01X048381Y0277282
G01X04837Y0276731
G01X04837Y027617
G01X048381Y0275619
G01X0484024Y02751
G01X0484336Y0274634
G01X0484733Y0274237
G01X04852Y0273925
G01X0485719Y027371
G01X0486269Y02736
G01X0486831Y02736
G01X0487381Y027371
M16
G00X0487381Y004871
M15
G01X04879Y0048925
G01X0488367Y0049237
G01X0488764Y0049634
G01X0489076Y00501
G01X048929Y0050619
G01X04894Y005117
G01X04894Y0051731
G01X048929Y0052282
G01X0489076Y00528
G01X0488764Y0053267
G01X0488367Y0053664
G01X04879Y0053976
G01X0487381Y0054191
G01X0486831Y00543
G01X0486269Y00543
G01X0485719Y0054191
G01X04852Y0053976
G01X0484733Y0053664
G01X0484336Y0053267
G01X0484024Y00528
G01X048381Y0052282
G01X04837Y0051731
G01X04837Y005117
G01X048381Y0050619
G01X0484024Y00501
G01X0484336Y0049634
G01X0484733Y0049237
G01X04852Y0048925
G01X0485719Y004871
G01X0486269Y00486
G01X0486831Y00486
G01X0487381Y004871
M16
G00X0013381Y004871
M15
G01X00139Y0048925
G01X0014367Y0049237
G01X0014764Y0049634
G01X0015076Y00501
G01X001529Y0050619
G01X00154Y005117
G01X00154Y0051731
G01X001529Y0052282
G01X0015076Y00528
G01X0014764Y0053267
G01X0014367Y0053664
G01X00139Y0053976
G01X0013381Y0054191
G01X0012831Y00543
G01X0012269Y00543
G01X0011719Y0054191
G01X00112Y0053976
G01X0010733Y0053664
G01X0010336Y0053267
G01X0010024Y00528
G01X000981Y0052282
G01X00097Y0051731
G01X00097Y005117
G01X000981Y0050619
G01X0010024Y00501
G01X0010336Y0049634
G01X0010733Y0049237
G01X00112Y0048925
G01X0011719Y004871
G01X0012269Y00486
G01X0012831Y00486
G01X0013381Y004871
M16
G00X049905Y0037324
M15
G01X049905Y0037343
G01X0499662Y0037443
G01X0499683Y0037452
G01X0500318Y0037928
G01X0500548Y0038318
G01X0500557Y0038338
G01X0500679Y003895
G01X0500676Y028895
G01X0500658Y028895
G01X0500557Y0289563
G01X0500548Y0289583
G01X0500072Y0290218
G01X0499683Y0290449
G01X0499662Y0290457
G01X049905Y0290579
G01X000005Y0290577
G01X000005Y0290558
G01X-0000562Y0290457
G01X-0000583Y0290449
G01X-0001218Y0289973
G01X-0001448Y0289583
G01X-0001457Y0289563
G01X-0001579Y028895
G01X-0001576Y003895
G01X-0001558Y003895
G01X-0001457Y0038338
G01X-0001448Y0038318
G01X-0000972Y0037683
G01X-0000583Y0037452
G01X-0000562Y0037443
G01X000005Y0037322
G01X049905Y0037324
M16
M17
M30
