G04*
G04 #@! TF.GenerationSoftware,Altium Limited,Altium Designer,18.1.9 (240)*
G04*
G04 Layer_Physical_Order=2*
G04 Layer_Color=16711680*
%FSLAX25Y25*%
%MOIN*%
G70*
G01*
G75*
%ADD10C,0.02500*%
%ADD11C,0.07000*%
%ADD12R,0.05906X0.05906*%
%ADD13C,0.05906*%
%ADD14R,0.05906X0.05906*%
G36*
X483604Y257830D02*
X483321Y257406D01*
X481223Y258276D01*
X481117Y258297D01*
X481021Y258344D01*
X478643Y258981D01*
X478536Y258988D01*
X478434Y259023D01*
X475994Y259344D01*
X475886Y259337D01*
X475781Y259358D01*
X439906D01*
X439727Y259858D01*
X440230Y260270D01*
X440947Y261145D01*
X440983Y261145D01*
X441447Y260791D01*
Y259947D01*
X450553D01*
Y261625D01*
X479809D01*
X483604Y257830D01*
D02*
G37*
G36*
X499065Y288973D02*
X499073Y288965D01*
X499077Y288956D01*
Y251013D01*
X498576Y250877D01*
X498209Y251356D01*
X483033Y266533D01*
X482437Y266989D01*
X481744Y267277D01*
X481000Y267375D01*
X450553D01*
Y269053D01*
X441447D01*
Y268209D01*
X440983Y267855D01*
X440947Y267855D01*
X440230Y268730D01*
X439323Y269474D01*
X438289Y270026D01*
X437500Y270266D01*
Y264500D01*
X436000D01*
Y263000D01*
X430234D01*
X430474Y262211D01*
X431027Y261177D01*
X431770Y260270D01*
X432273Y259858D01*
X432094Y259358D01*
X398628D01*
X398548Y259342D01*
X398468Y259350D01*
X396632Y259170D01*
X396554Y259146D01*
X396473D01*
X394664Y258786D01*
X394589Y258755D01*
X394509Y258747D01*
X392743Y258212D01*
X392672Y258173D01*
X392593Y258158D01*
X390888Y257452D01*
X390821Y257407D01*
X390743Y257383D01*
X389116Y256514D01*
X389054Y256462D01*
X388979Y256431D01*
X387445Y255406D01*
X387388Y255349D01*
X387316Y255311D01*
X385890Y254141D01*
X385839Y254078D01*
X385772Y254033D01*
X385120Y253381D01*
X385119Y253381D01*
X285120Y153381D01*
X284249Y152511D01*
X284189Y152421D01*
X284108Y152350D01*
X282610Y150398D01*
X282563Y150301D01*
X282492Y150220D01*
X281261Y148088D01*
X281226Y147986D01*
X281167Y147897D01*
X280225Y145623D01*
X280204Y145518D01*
X280156Y145421D01*
X279519Y143043D01*
X279512Y142936D01*
X279477Y142834D01*
X279156Y140394D01*
X279163Y140287D01*
X279142Y140181D01*
Y137720D01*
X279163Y137614D01*
X279156Y137507D01*
X279477Y135066D01*
X279512Y134965D01*
X279519Y134857D01*
X280156Y132480D01*
X280204Y132383D01*
X280225Y132278D01*
X281167Y130004D01*
X281226Y129914D01*
X281261Y129812D01*
X282492Y127681D01*
X282563Y127600D01*
X282610Y127503D01*
X284108Y125550D01*
X284189Y125479D01*
X284249Y125390D01*
X285990Y123650D01*
X286079Y123590D01*
X286150Y123509D01*
X288103Y122011D01*
X288199Y121963D01*
X288280Y121892D01*
X290412Y120661D01*
X290514Y120627D01*
X290603Y120567D01*
X292877Y119625D01*
X292983Y119604D01*
X293079Y119556D01*
X295457Y118919D01*
X295564Y118912D01*
X295666Y118878D01*
X298106Y118556D01*
X298214Y118563D01*
X298319Y118543D01*
X300781D01*
X300886Y118563D01*
X300994Y118556D01*
X303434Y118878D01*
X303536Y118912D01*
X303643Y118919D01*
X306021Y119556D01*
X306117Y119604D01*
X306223Y119625D01*
X308497Y120567D01*
X308586Y120627D01*
X308688Y120661D01*
X310820Y121892D01*
X310901Y121963D01*
X310997Y122011D01*
X312950Y123509D01*
X313021Y123590D01*
X313110Y123650D01*
X313981Y124520D01*
X313981Y124520D01*
X408003Y218543D01*
X475781D01*
X475886Y218564D01*
X475994Y218556D01*
X478434Y218878D01*
X478536Y218912D01*
X478643Y218919D01*
X481021Y219556D01*
X481117Y219604D01*
X481223Y219625D01*
X483497Y220567D01*
X483586Y220627D01*
X483688Y220661D01*
X485820Y221892D01*
X485901Y221963D01*
X485997Y222010D01*
X487950Y223509D01*
X488021Y223590D01*
X488110Y223650D01*
X489851Y225390D01*
X489911Y225480D01*
X489991Y225551D01*
X491490Y227503D01*
X491537Y227600D01*
X491608Y227681D01*
X492566Y229339D01*
X493220Y229472D01*
X493302Y229411D01*
Y106020D01*
X491238Y103956D01*
X490767Y104124D01*
X490714Y104667D01*
X490373Y105789D01*
X489820Y106823D01*
X489077Y107730D01*
X488170Y108474D01*
X487136Y109026D01*
X486347Y109266D01*
Y103500D01*
X484847D01*
Y102000D01*
X479081D01*
X479321Y101211D01*
X479874Y100177D01*
X480618Y99270D01*
X481492Y98553D01*
X481492Y98517D01*
X481138Y98053D01*
X480294D01*
Y93012D01*
X432656Y45375D01*
X252191D01*
X242425Y55141D01*
Y59728D01*
X243187Y60313D01*
X243459Y60666D01*
X243957Y60625D01*
X244119Y60322D01*
X244932Y59332D01*
X245921Y58520D01*
X247050Y57916D01*
X248050Y57613D01*
Y63950D01*
Y70288D01*
X247050Y69985D01*
X245921Y69381D01*
X244932Y68569D01*
X244119Y67579D01*
X243957Y67275D01*
X243459Y67234D01*
X243187Y67588D01*
X242122Y68405D01*
X240881Y68919D01*
X239550Y69094D01*
X238219Y68919D01*
X236978Y68405D01*
X235913Y67588D01*
X235641Y67234D01*
X235143Y67275D01*
X234981Y67579D01*
X234168Y68568D01*
X233179Y69381D01*
X232049Y69984D01*
X231050Y70288D01*
Y63950D01*
Y57613D01*
X232049Y57916D01*
X233179Y58519D01*
X234168Y59332D01*
X234981Y60321D01*
X235143Y60625D01*
X235642Y60666D01*
X235913Y60313D01*
X236675Y59728D01*
Y53950D01*
X236773Y53206D01*
X237060Y52513D01*
X237517Y51917D01*
X248967Y40467D01*
X249563Y40010D01*
X250256Y39723D01*
X251000Y39625D01*
X433847D01*
X434591Y39723D01*
X435284Y40010D01*
X435880Y40467D01*
X484360Y88947D01*
X489400D01*
Y93988D01*
X498209Y102797D01*
X498576Y103276D01*
X499077Y103139D01*
Y38945D01*
X499073Y38935D01*
X499065Y38928D01*
X499055Y38924D01*
X45D01*
X35Y38928D01*
X27Y38935D01*
X23Y38945D01*
Y288956D01*
X27Y288965D01*
X35Y288973D01*
X45Y288977D01*
X499055D01*
X499065Y288973D01*
D02*
G37*
%LPC*%
G36*
X486988Y282532D02*
X486112D01*
X485954Y282500D01*
X485793D01*
X484934Y282329D01*
X484785Y282268D01*
X484628Y282237D01*
X483818Y281901D01*
X483684Y281812D01*
X483536Y281750D01*
X482807Y281263D01*
X482693Y281150D01*
X482560Y281060D01*
X481940Y280441D01*
X481851Y280307D01*
X481737Y280193D01*
X481250Y279465D01*
X481189Y279316D01*
X481099Y279183D01*
X480764Y278373D01*
X480732Y278215D01*
X480671Y278067D01*
X480500Y277207D01*
Y277046D01*
X480469Y276889D01*
Y276012D01*
X480500Y275854D01*
Y275694D01*
X480671Y274834D01*
X480732Y274686D01*
X480764Y274528D01*
X481099Y273718D01*
X481188Y273585D01*
X481250Y273436D01*
X481737Y272707D01*
X481851Y272594D01*
X481940Y272460D01*
X482560Y271840D01*
X482693Y271751D01*
X482807Y271637D01*
X483536Y271150D01*
X483684Y271089D01*
X483818Y271000D01*
X484628Y270664D01*
X484785Y270633D01*
X484934Y270571D01*
X485793Y270400D01*
X485954D01*
X486112Y270369D01*
X486988D01*
X487146Y270400D01*
X487306D01*
X488166Y270571D01*
X488315Y270633D01*
X488472Y270664D01*
X489282Y271000D01*
X489416Y271089D01*
X489564Y271150D01*
X490293Y271637D01*
X490407Y271751D01*
X490540Y271840D01*
X491160Y272460D01*
X491249Y272594D01*
X491363Y272707D01*
X491850Y273436D01*
X491911Y273585D01*
X492001Y273718D01*
X492336Y274528D01*
X492368Y274686D01*
X492429Y274834D01*
X492600Y275694D01*
Y275854D01*
X492631Y276012D01*
Y276889D01*
X492600Y277046D01*
Y277207D01*
X492429Y278067D01*
X492368Y278215D01*
X492336Y278373D01*
X492001Y279183D01*
X491911Y279316D01*
X491850Y279465D01*
X491363Y280193D01*
X491249Y280307D01*
X491160Y280441D01*
X490540Y281060D01*
X490407Y281150D01*
X490293Y281263D01*
X489564Y281750D01*
X489416Y281812D01*
X489282Y281901D01*
X488472Y282237D01*
X488315Y282268D01*
X488166Y282329D01*
X487307Y282500D01*
X487146D01*
X486988Y282532D01*
D02*
G37*
G36*
X12988D02*
X12112D01*
X11954Y282500D01*
X11793D01*
X10934Y282329D01*
X10785Y282268D01*
X10628Y282237D01*
X9818Y281901D01*
X9684Y281812D01*
X9536Y281750D01*
X8807Y281263D01*
X8693Y281150D01*
X8560Y281060D01*
X7940Y280441D01*
X7851Y280307D01*
X7737Y280193D01*
X7250Y279465D01*
X7188Y279316D01*
X7099Y279183D01*
X6764Y278373D01*
X6733Y278215D01*
X6671Y278067D01*
X6500Y277207D01*
Y277046D01*
X6469Y276889D01*
Y276012D01*
X6500Y275854D01*
Y275694D01*
X6671Y274834D01*
X6733Y274686D01*
X6764Y274528D01*
X7099Y273718D01*
X7188Y273585D01*
X7250Y273436D01*
X7737Y272707D01*
X7851Y272594D01*
X7940Y272460D01*
X8560Y271840D01*
X8693Y271751D01*
X8807Y271637D01*
X9536Y271150D01*
X9684Y271089D01*
X9818Y271000D01*
X10628Y270664D01*
X10785Y270633D01*
X10934Y270571D01*
X11793Y270400D01*
X11954D01*
X12112Y270369D01*
X12988D01*
X13146Y270400D01*
X13307D01*
X14166Y270571D01*
X14315Y270633D01*
X14472Y270664D01*
X15282Y271000D01*
X15416Y271089D01*
X15564Y271150D01*
X16293Y271637D01*
X16407Y271751D01*
X16540Y271840D01*
X17160Y272460D01*
X17249Y272594D01*
X17363Y272707D01*
X17850Y273436D01*
X17911Y273585D01*
X18001Y273718D01*
X18336Y274528D01*
X18368Y274686D01*
X18429Y274834D01*
X18600Y275694D01*
Y275854D01*
X18631Y276012D01*
Y276889D01*
X18600Y277046D01*
Y277207D01*
X18429Y278067D01*
X18368Y278215D01*
X18336Y278373D01*
X18001Y279183D01*
X17911Y279316D01*
X17850Y279465D01*
X17363Y280193D01*
X17249Y280307D01*
X17160Y280441D01*
X16540Y281060D01*
X16407Y281150D01*
X16293Y281263D01*
X15564Y281750D01*
X15416Y281812D01*
X15282Y281901D01*
X14472Y282237D01*
X14315Y282268D01*
X14166Y282329D01*
X13307Y282500D01*
X13146D01*
X12988Y282532D01*
D02*
G37*
G36*
X272953Y274453D02*
X268500D01*
Y270000D01*
X272953D01*
Y274453D01*
D02*
G37*
G36*
X265500D02*
X261047D01*
Y270000D01*
X265500D01*
Y274453D01*
D02*
G37*
G36*
X354000Y270766D02*
Y266500D01*
X358266D01*
X358026Y267289D01*
X357473Y268323D01*
X356730Y269230D01*
X355823Y269973D01*
X354789Y270526D01*
X354000Y270766D01*
D02*
G37*
G36*
X434500Y270266D02*
X433711Y270026D01*
X432677Y269474D01*
X431770Y268730D01*
X431027Y267823D01*
X430474Y266789D01*
X430234Y266000D01*
X434500D01*
Y270266D01*
D02*
G37*
G36*
X272953Y267000D02*
X261047D01*
Y262547D01*
X262036D01*
X262250Y262095D01*
X262027Y261823D01*
X261474Y260789D01*
X261234Y260000D01*
X272766D01*
X272526Y260789D01*
X271973Y261823D01*
X271750Y262095D01*
X271964Y262547D01*
X272953D01*
Y267000D01*
D02*
G37*
G36*
X51769Y279106D02*
X39731D01*
X38987Y279008D01*
X38294Y278721D01*
X37699Y278264D01*
X12625Y253190D01*
X12168Y252595D01*
X11881Y251902D01*
X11783Y251158D01*
Y161849D01*
X2467Y152533D01*
X2011Y151937D01*
X1723Y151244D01*
X1625Y150500D01*
Y119000D01*
X1723Y118256D01*
X2011Y117563D01*
X2467Y116967D01*
X5975Y113459D01*
Y106932D01*
X5921Y106800D01*
X5823Y106056D01*
Y99303D01*
X5921Y98559D01*
X6208Y97865D01*
X6665Y97270D01*
X9947Y93988D01*
Y88947D01*
X14988D01*
X57967Y45967D01*
X58563Y45511D01*
X59256Y45223D01*
X60000Y45125D01*
X212000D01*
X212744Y45223D01*
X213437Y45511D01*
X214033Y45967D01*
X221533Y53467D01*
X221989Y54063D01*
X222277Y54756D01*
X222375Y55500D01*
Y59728D01*
X223137Y60313D01*
X223438Y60705D01*
X223936Y60664D01*
X224119Y60321D01*
X224932Y59332D01*
X225921Y58519D01*
X227050Y57916D01*
X228050Y57613D01*
Y63950D01*
Y70288D01*
X227050Y69984D01*
X225921Y69381D01*
X224932Y68568D01*
X224119Y67579D01*
X223936Y67237D01*
X223438Y67196D01*
X223137Y67588D01*
X222072Y68405D01*
X220831Y68919D01*
X219500Y69094D01*
X218169Y68919D01*
X216928Y68405D01*
X215863Y67588D01*
X215592Y67234D01*
X215093Y67275D01*
X214931Y67579D01*
X214118Y68569D01*
X213129Y69381D01*
X212000Y69985D01*
X211000Y70288D01*
Y63950D01*
Y57613D01*
X212000Y57916D01*
X213129Y58520D01*
X214118Y59332D01*
X214931Y60322D01*
X215093Y60625D01*
X215592Y60666D01*
X215863Y60313D01*
X216625Y59728D01*
Y56691D01*
X210809Y50875D01*
X61191D01*
X19053Y93012D01*
Y98053D01*
X18209D01*
X17855Y98517D01*
X17855Y98553D01*
X18730Y99270D01*
X19474Y100177D01*
X20026Y101211D01*
X20266Y102000D01*
X14500D01*
Y103500D01*
X13000D01*
Y109266D01*
X12211Y109026D01*
X12153Y108995D01*
X11725Y109253D01*
Y114650D01*
X11627Y115394D01*
X11339Y116087D01*
X10883Y116683D01*
X7375Y120191D01*
Y149309D01*
X16691Y158625D01*
X17147Y159221D01*
X17435Y159914D01*
X17533Y160658D01*
Y249967D01*
X40922Y273357D01*
X50578D01*
X53044Y270891D01*
X52876Y270420D01*
X52333Y270367D01*
X51211Y270026D01*
X50177Y269474D01*
X49270Y268730D01*
X48526Y267823D01*
X47974Y266789D01*
X47734Y266000D01*
X53500D01*
Y264500D01*
X55000D01*
Y258734D01*
X55789Y258974D01*
X56823Y259526D01*
X57730Y260270D01*
X58447Y261145D01*
X58483Y261145D01*
X58947Y260791D01*
Y259947D01*
X68053D01*
Y269053D01*
X63012D01*
X53802Y278264D01*
X53206Y278721D01*
X52513Y279008D01*
X51769Y279106D01*
D02*
G37*
G36*
X358266Y263500D02*
X354000D01*
Y259234D01*
X354789Y259474D01*
X355823Y260027D01*
X356730Y260770D01*
X357473Y261677D01*
X358026Y262711D01*
X358266Y263500D01*
D02*
G37*
G36*
X297000Y273092D02*
X295812Y272936D01*
X294704Y272477D01*
X293753Y271747D01*
X293467Y271375D01*
X290500D01*
X289756Y271277D01*
X289063Y270989D01*
X288467Y270533D01*
X284467Y266533D01*
X284011Y265937D01*
X283723Y265244D01*
X283625Y264500D01*
Y240691D01*
X248967Y206033D01*
X248511Y205437D01*
X248223Y204744D01*
X248125Y204000D01*
Y88500D01*
X248223Y87756D01*
X248370Y87403D01*
X247946Y87120D01*
X200033Y135033D01*
X199437Y135489D01*
X198744Y135777D01*
X198000Y135875D01*
X19211D01*
Y137553D01*
X18367D01*
X18013Y138017D01*
X18013Y138053D01*
X18888Y138770D01*
X19631Y139677D01*
X20184Y140711D01*
X20423Y141500D01*
X14658D01*
X8892D01*
X9132Y140711D01*
X9684Y139677D01*
X10428Y138770D01*
X11303Y138053D01*
X11303Y138017D01*
X10949Y137553D01*
X10105D01*
Y128447D01*
X19211D01*
Y130125D01*
X196809D01*
X256675Y70259D01*
Y68173D01*
X255913Y67588D01*
X255642Y67234D01*
X255143Y67275D01*
X254981Y67579D01*
X254168Y68569D01*
X253179Y69381D01*
X252049Y69985D01*
X251050Y70288D01*
Y63950D01*
Y57613D01*
X252049Y57916D01*
X253179Y58520D01*
X254168Y59332D01*
X254981Y60322D01*
X255143Y60625D01*
X255642Y60666D01*
X255913Y60313D01*
X256978Y59496D01*
X258219Y58982D01*
X259550Y58806D01*
X259619Y58815D01*
X264467Y53967D01*
X265063Y53510D01*
X265756Y53223D01*
X266500Y53125D01*
X296000D01*
X296744Y53223D01*
X297437Y53510D01*
X298033Y53967D01*
X302033Y57967D01*
X302489Y58563D01*
X302777Y59256D01*
X302875Y60000D01*
Y71809D01*
X361191Y130125D01*
X480447D01*
Y128447D01*
X489553D01*
Y137553D01*
X488709D01*
X488355Y138017D01*
X488355Y138053D01*
X489230Y138770D01*
X489973Y139677D01*
X490526Y140711D01*
X490766Y141500D01*
X485000D01*
X479234D01*
X479474Y140711D01*
X480026Y139677D01*
X480770Y138770D01*
X481645Y138053D01*
X481645Y138017D01*
X481291Y137553D01*
X480447D01*
Y135875D01*
X360000D01*
X359256Y135777D01*
X358563Y135489D01*
X357967Y135033D01*
X300000Y77065D01*
X274875Y102191D01*
Y167309D01*
X344533Y236967D01*
X344989Y237563D01*
X345277Y238256D01*
X345375Y239000D01*
Y260447D01*
X347053D01*
Y261291D01*
X347517Y261645D01*
X347553Y261645D01*
X348270Y260770D01*
X349177Y260027D01*
X350211Y259474D01*
X351000Y259234D01*
Y265000D01*
Y270766D01*
X350211Y270526D01*
X349177Y269973D01*
X348270Y269230D01*
X347553Y268355D01*
X347517Y268355D01*
X347053Y268709D01*
Y269553D01*
X337947D01*
Y260447D01*
X339625D01*
Y240191D01*
X269967Y170533D01*
X269511Y169937D01*
X269223Y169244D01*
X269125Y168500D01*
Y101000D01*
X269223Y100256D01*
X269511Y99563D01*
X269967Y98967D01*
X297125Y71809D01*
Y61191D01*
X294809Y58875D01*
X294332D01*
X294254Y59093D01*
X294203Y59375D01*
X294981Y60322D01*
X295584Y61451D01*
X295887Y62450D01*
X289550D01*
Y63950D01*
X288050D01*
Y70288D01*
X287051Y69985D01*
X285921Y69381D01*
X284932Y68569D01*
X284119Y67579D01*
X283957Y67275D01*
X283458Y67234D01*
X283187Y67587D01*
X282425Y68173D01*
Y73950D01*
X282327Y74694D01*
X282039Y75387D01*
X281583Y75983D01*
X264375Y93191D01*
Y199309D01*
X299033Y233967D01*
X299489Y234563D01*
X299777Y235256D01*
X299875Y236000D01*
Y254967D01*
X300247Y255253D01*
X300977Y256204D01*
X301436Y257312D01*
X301592Y258500D01*
X301436Y259688D01*
X300977Y260796D01*
X300247Y261747D01*
X299296Y262477D01*
X298188Y262936D01*
X297000Y263092D01*
X295812Y262936D01*
X294704Y262477D01*
X293753Y261747D01*
X293023Y260796D01*
X292564Y259688D01*
X292408Y258500D01*
X292564Y257312D01*
X293023Y256204D01*
X293753Y255253D01*
X294125Y254967D01*
Y237191D01*
X259467Y202533D01*
X259011Y201937D01*
X258723Y201244D01*
X258625Y200500D01*
Y92000D01*
X258723Y91256D01*
X259011Y90563D01*
X259467Y89967D01*
X276675Y72759D01*
Y68173D01*
X275913Y67587D01*
X275095Y66522D01*
X274821Y65859D01*
X274279D01*
X274005Y66522D01*
X273187Y67587D01*
X272425Y68173D01*
Y69950D01*
X272327Y70694D01*
X272040Y71387D01*
X271583Y71983D01*
X253875Y89691D01*
Y202809D01*
X288533Y237467D01*
X288989Y238063D01*
X289277Y238756D01*
X289375Y239500D01*
Y263309D01*
X291691Y265625D01*
X293467D01*
X293753Y265253D01*
X294704Y264523D01*
X295812Y264064D01*
X297000Y263908D01*
X298188Y264064D01*
X299296Y264523D01*
X300247Y265253D01*
X300977Y266204D01*
X301436Y267312D01*
X301592Y268500D01*
X301436Y269689D01*
X300977Y270796D01*
X300247Y271747D01*
X299296Y272477D01*
X298188Y272936D01*
X297000Y273092D01*
D02*
G37*
G36*
X52000Y263000D02*
X47734D01*
X47974Y262211D01*
X48526Y261177D01*
X49270Y260270D01*
X50177Y259526D01*
X51211Y258974D01*
X52000Y258734D01*
Y263000D01*
D02*
G37*
G36*
X272766Y257000D02*
X268500D01*
Y252734D01*
X269289Y252974D01*
X270323Y253526D01*
X271230Y254270D01*
X271973Y255177D01*
X272526Y256211D01*
X272766Y257000D01*
D02*
G37*
G36*
X265500D02*
X261234D01*
X261474Y256211D01*
X262027Y255177D01*
X262770Y254270D01*
X263677Y253526D01*
X264711Y252974D01*
X265500Y252734D01*
Y257000D01*
D02*
G37*
G36*
X486500Y148766D02*
Y144500D01*
X490766D01*
X490526Y145289D01*
X489973Y146323D01*
X489230Y147230D01*
X488323Y147974D01*
X487289Y148526D01*
X486500Y148766D01*
D02*
G37*
G36*
X16158D02*
Y144500D01*
X20423D01*
X20184Y145289D01*
X19631Y146323D01*
X18888Y147230D01*
X17981Y147974D01*
X16947Y148526D01*
X16158Y148766D01*
D02*
G37*
G36*
X483500D02*
X482711Y148526D01*
X481677Y147974D01*
X480770Y147230D01*
X480026Y146323D01*
X479474Y145289D01*
X479234Y144500D01*
X483500D01*
Y148766D01*
D02*
G37*
G36*
X13158D02*
X12369Y148526D01*
X11335Y147974D01*
X10428Y147230D01*
X9684Y146323D01*
X9132Y145289D01*
X8892Y144500D01*
X13158D01*
Y148766D01*
D02*
G37*
G36*
X483347Y109266D02*
X482558Y109026D01*
X481524Y108474D01*
X480618Y107730D01*
X479874Y106823D01*
X479321Y105789D01*
X479081Y105000D01*
X483347D01*
Y109266D01*
D02*
G37*
G36*
X16000Y109266D02*
Y105000D01*
X20266D01*
X20026Y105789D01*
X19474Y106823D01*
X18730Y107730D01*
X17823Y108474D01*
X16789Y109026D01*
X16000Y109266D01*
D02*
G37*
G36*
X291050Y70288D02*
Y65450D01*
X295887D01*
X295584Y66450D01*
X294981Y67579D01*
X294168Y68569D01*
X293179Y69381D01*
X292050Y69985D01*
X291050Y70288D01*
D02*
G37*
G36*
X208000D02*
X207000Y69985D01*
X205871Y69381D01*
X204882Y68569D01*
X204069Y67579D01*
X203466Y66450D01*
X203163Y65450D01*
X208000D01*
Y70288D01*
D02*
G37*
G36*
Y62450D02*
X203163D01*
X203466Y61451D01*
X204069Y60322D01*
X204882Y59332D01*
X205871Y58520D01*
X207000Y57916D01*
X208000Y57613D01*
Y62450D01*
D02*
G37*
G36*
X486988Y57532D02*
X486112D01*
X485954Y57500D01*
X485793D01*
X484934Y57329D01*
X484785Y57268D01*
X484628Y57236D01*
X483818Y56901D01*
X483684Y56812D01*
X483536Y56750D01*
X482807Y56263D01*
X482693Y56150D01*
X482560Y56060D01*
X481940Y55441D01*
X481851Y55307D01*
X481737Y55193D01*
X481250Y54465D01*
X481189Y54316D01*
X481099Y54182D01*
X480764Y53373D01*
X480732Y53215D01*
X480671Y53067D01*
X480500Y52207D01*
Y52046D01*
X480469Y51889D01*
Y51012D01*
X480500Y50854D01*
Y50694D01*
X480671Y49834D01*
X480732Y49686D01*
X480764Y49528D01*
X481099Y48718D01*
X481188Y48585D01*
X481250Y48436D01*
X481737Y47707D01*
X481851Y47594D01*
X481940Y47460D01*
X482560Y46840D01*
X482693Y46751D01*
X482807Y46637D01*
X483536Y46150D01*
X483684Y46089D01*
X483818Y46000D01*
X484628Y45664D01*
X484785Y45633D01*
X484934Y45571D01*
X485793Y45400D01*
X485954D01*
X486112Y45369D01*
X486988D01*
X487146Y45400D01*
X487306D01*
X488166Y45571D01*
X488315Y45633D01*
X488472Y45664D01*
X489282Y46000D01*
X489416Y46089D01*
X489564Y46150D01*
X490293Y46637D01*
X490407Y46751D01*
X490540Y46840D01*
X491160Y47460D01*
X491249Y47594D01*
X491363Y47707D01*
X491850Y48436D01*
X491911Y48585D01*
X492001Y48718D01*
X492336Y49528D01*
X492368Y49686D01*
X492429Y49834D01*
X492600Y50694D01*
Y50854D01*
X492631Y51012D01*
Y51889D01*
X492600Y52046D01*
Y52207D01*
X492429Y53067D01*
X492368Y53215D01*
X492336Y53373D01*
X492001Y54182D01*
X491911Y54316D01*
X491850Y54465D01*
X491363Y55193D01*
X491249Y55307D01*
X491160Y55441D01*
X490540Y56060D01*
X490407Y56150D01*
X490293Y56263D01*
X489564Y56750D01*
X489416Y56812D01*
X489282Y56901D01*
X488472Y57236D01*
X488315Y57268D01*
X488166Y57329D01*
X487307Y57500D01*
X487146D01*
X486988Y57532D01*
D02*
G37*
G36*
X12988D02*
X12112D01*
X11954Y57500D01*
X11793D01*
X10934Y57329D01*
X10785Y57268D01*
X10628Y57236D01*
X9818Y56901D01*
X9684Y56812D01*
X9536Y56750D01*
X8807Y56263D01*
X8693Y56150D01*
X8560Y56060D01*
X7940Y55441D01*
X7851Y55307D01*
X7737Y55193D01*
X7250Y54465D01*
X7188Y54316D01*
X7099Y54182D01*
X6764Y53373D01*
X6733Y53215D01*
X6671Y53067D01*
X6500Y52207D01*
Y52046D01*
X6469Y51889D01*
Y51012D01*
X6500Y50854D01*
Y50694D01*
X6671Y49834D01*
X6733Y49686D01*
X6764Y49528D01*
X7099Y48718D01*
X7188Y48585D01*
X7250Y48436D01*
X7737Y47707D01*
X7851Y47594D01*
X7940Y47460D01*
X8560Y46840D01*
X8693Y46751D01*
X8807Y46637D01*
X9536Y46150D01*
X9684Y46089D01*
X9818Y46000D01*
X10628Y45664D01*
X10785Y45633D01*
X10934Y45571D01*
X11793Y45400D01*
X11954D01*
X12112Y45369D01*
X12988D01*
X13146Y45400D01*
X13307D01*
X14166Y45571D01*
X14315Y45633D01*
X14472Y45664D01*
X15282Y46000D01*
X15416Y46089D01*
X15564Y46150D01*
X16293Y46637D01*
X16407Y46751D01*
X16540Y46840D01*
X17160Y47460D01*
X17249Y47594D01*
X17363Y47707D01*
X17850Y48436D01*
X17911Y48585D01*
X18001Y48718D01*
X18336Y49528D01*
X18368Y49686D01*
X18429Y49834D01*
X18600Y50694D01*
Y50854D01*
X18631Y51012D01*
Y51889D01*
X18600Y52046D01*
Y52207D01*
X18429Y53067D01*
X18368Y53215D01*
X18336Y53373D01*
X18001Y54182D01*
X17911Y54316D01*
X17850Y54465D01*
X17363Y55193D01*
X17249Y55307D01*
X17160Y55441D01*
X16540Y56060D01*
X16407Y56150D01*
X16293Y56263D01*
X15564Y56750D01*
X15416Y56812D01*
X15282Y56901D01*
X14472Y57236D01*
X14315Y57268D01*
X14166Y57329D01*
X13307Y57500D01*
X13146D01*
X12988Y57532D01*
D02*
G37*
%LPD*%
D10*
X321000Y274500D02*
X352500D01*
X273000D02*
X321000D01*
Y234500D02*
Y274500D01*
X266500Y180000D02*
X321000Y234500D01*
X266500Y96500D02*
Y180000D01*
Y96500D02*
X289550Y73450D01*
Y63950D02*
Y73450D01*
X352500Y236000D02*
Y265000D01*
X276500Y160000D02*
X352500Y236000D01*
X276500Y125000D02*
Y160000D01*
Y125000D02*
X288500Y113000D01*
X315500D01*
X345500Y143000D01*
X485000D01*
X352500Y274500D02*
X426000D01*
X352500Y265000D02*
Y274500D01*
X426000D02*
X436000Y264500D01*
X342500Y239000D02*
Y265000D01*
X485000Y143000D02*
X489250D01*
X490829Y141421D01*
Y109482D02*
Y141421D01*
X484847Y103500D02*
X490829Y109482D01*
X446000Y264500D02*
X481000D01*
X496176Y249324D01*
Y104829D02*
Y249324D01*
X484847Y93500D02*
X496176Y104829D01*
X478500Y103500D02*
X484847D01*
X422000Y47000D02*
X478500Y103500D01*
X257500Y47000D02*
X422000D01*
X249550Y54950D02*
X257500Y47000D01*
X249550Y54950D02*
Y63950D01*
X433847Y42500D02*
X484847Y93500D01*
X251000Y42500D02*
X433847D01*
X239550Y53950D02*
X251000Y42500D01*
X239550Y53950D02*
Y63950D01*
X267000Y268500D02*
X273000Y274500D01*
X272000Y101000D02*
Y168500D01*
X342500Y239000D01*
X267000Y258500D02*
Y268500D01*
X30500Y241500D02*
X53500Y264500D01*
X30500Y158842D02*
Y241500D01*
X14658Y143000D02*
X30500Y158842D01*
X51769Y276231D02*
X63500Y264500D01*
X39731Y276231D02*
X51769D01*
X14658Y251158D02*
X39731Y276231D01*
X14658Y160658D02*
Y251158D01*
X4500Y150500D02*
X14658Y160658D01*
X4500Y119000D02*
Y150500D01*
Y119000D02*
X8850Y114650D01*
Y106209D02*
Y114650D01*
X8697Y106056D02*
X8850Y106209D01*
X8697Y99303D02*
Y106056D01*
Y99303D02*
X14500Y93500D01*
X13578Y143000D02*
X14658D01*
X8855Y138277D02*
X13578Y143000D01*
X8855Y121645D02*
Y138277D01*
Y121645D02*
X14500Y116000D01*
Y103500D02*
Y116000D01*
X14658Y133000D02*
X198000D01*
X259550Y71450D01*
Y63950D02*
Y71450D01*
X266500Y56000D02*
X296000D01*
X259550Y62950D02*
X266500Y56000D01*
X259550Y62950D02*
Y63950D01*
X296000Y56000D02*
X300000Y60000D01*
X178500Y103500D02*
X209500Y72500D01*
X14500Y103500D02*
X178500D01*
X230000Y77000D02*
X246000D01*
X214000D02*
X230000D01*
X229550Y76550D02*
X230000Y77000D01*
X229550Y63950D02*
Y76550D01*
X249550Y63950D02*
Y73450D01*
X246000Y77000D02*
X249550Y73450D01*
X209500Y72500D02*
X214000Y77000D01*
X209500Y63950D02*
Y72500D01*
X14500Y93500D02*
X60000Y48000D01*
X212000D01*
X219500Y55500D01*
Y63950D01*
X300000Y73000D02*
X360000Y133000D01*
X485000D01*
X290500Y268500D02*
X297000D01*
X286500Y264500D02*
X290500Y268500D01*
X286500Y239500D02*
Y264500D01*
X251000Y204000D02*
X286500Y239500D01*
X251000Y88500D02*
Y204000D01*
X297000Y236000D02*
Y258500D01*
X261500Y200500D02*
X297000Y236000D01*
X261500Y92000D02*
Y200500D01*
Y92000D02*
X279550Y73950D01*
Y63950D02*
Y73950D01*
X251000Y88500D02*
X269550Y69950D01*
Y63950D02*
Y69950D01*
X272000Y101000D02*
X300000Y73000D01*
Y60000D02*
Y73000D01*
D11*
X289550Y63950D02*
D03*
X229550Y63950D02*
D03*
X279550D02*
D03*
X219500Y63950D02*
D03*
X239550D02*
D03*
X269550Y63950D02*
D03*
X249550Y63950D02*
D03*
X209500D02*
D03*
X259550D02*
D03*
D12*
X485000Y133000D02*
D03*
X14658D02*
D03*
X14500Y93500D02*
D03*
X484847D02*
D03*
D13*
X485000Y143000D02*
D03*
X297000Y258500D02*
D03*
Y268500D02*
D03*
X267000Y258500D02*
D03*
X53500Y264500D02*
D03*
X14658Y143000D02*
D03*
X14500Y103500D02*
D03*
X352500Y265000D02*
D03*
X436000Y264500D02*
D03*
X484847Y103500D02*
D03*
D14*
X267000Y268500D02*
D03*
X63500Y264500D02*
D03*
X342500Y265000D02*
D03*
X446000Y264500D02*
D03*
M02*
