G04*
G04 #@! TF.GenerationSoftware,Altium Limited,Altium Designer,18.1.9 (240)*
G04*
G04 Layer_Color=65535*
%FSLAX25Y25*%
%MOIN*%
G70*
G01*
G75*
%ADD10C,0.00787*%
%ADD11C,0.00984*%
%ADD12C,0.01000*%
%ADD13C,0.00800*%
%ADD14C,0.00500*%
D10*
X44463Y132913D02*
G03*
X46963Y132913I1250J0D01*
G01*
X210972Y79795D02*
G03*
X209004Y79795I-984J0D01*
G01*
X49222Y44059D02*
G03*
X46722Y44059I-1250J0D01*
G01*
X148382Y93732D02*
G03*
X146413Y93732I-984J0D01*
G01*
X148382Y67484D02*
G03*
X146413Y67484I-984J0D01*
G01*
X41205Y132913D02*
X44463D01*
X46963D02*
X50221D01*
Y112913D02*
Y132913D01*
X41205Y112913D02*
X50221D01*
X41205D02*
Y132913D01*
X469973Y26374D02*
Y44484D01*
X429028D02*
X469973D01*
X429028Y42516D02*
X469973D01*
X429028Y26374D02*
X469973D01*
X429028D02*
Y44484D01*
X213197Y79795D02*
Y99480D01*
X210972Y79795D02*
X213197D01*
X206780Y99480D02*
X213197D01*
X206780Y79795D02*
Y99480D01*
Y79795D02*
X209004D01*
X171650Y93535D02*
Y97866D01*
X52697Y44059D02*
Y79059D01*
X43248D02*
X52697D01*
X43248Y44059D02*
Y79059D01*
Y44059D02*
X46722D01*
X49222D02*
X52697D01*
X561500Y79264D02*
Y99264D01*
X531500Y79264D02*
Y99264D01*
X561500D01*
X531500Y79264D02*
X561500D01*
X542333D02*
X561500D01*
X166335Y66303D02*
X170665D01*
X7500Y170014D02*
X17500D01*
Y140014D02*
Y170014D01*
X7500Y140014D02*
X17500D01*
X7500D02*
Y170014D01*
X5500Y43264D02*
X15500D01*
Y13264D02*
Y43264D01*
X5500Y13264D02*
X15500D01*
X5500D02*
Y43264D01*
X229500Y161264D02*
Y171264D01*
X199500Y161264D02*
X229500D01*
X199500D02*
Y171264D01*
X229500D01*
X199500Y7264D02*
Y17264D01*
X229500D01*
Y7264D02*
Y17264D01*
X199500Y7264D02*
X229500D01*
X473137Y13264D02*
X493137D01*
Y23264D01*
X473137D02*
X493137D01*
X473137Y13264D02*
Y23264D01*
X480969Y27358D02*
X484118D01*
X480969D02*
Y30508D01*
Y39169D02*
X484118D01*
X480969Y36020D02*
Y39169D01*
X495500Y13264D02*
X515500D01*
Y23264D01*
X495500D02*
X515500D01*
X495500Y13264D02*
Y23264D01*
X503118Y27358D02*
X506268D01*
X503118D02*
Y30508D01*
Y39169D02*
X506268D01*
X503118Y36020D02*
Y39169D01*
X520126Y13264D02*
X540126D01*
Y23264D01*
X520126D02*
X540126D01*
X520126Y13264D02*
Y23264D01*
X527744Y27358D02*
X530894D01*
X527744D02*
Y30508D01*
Y39169D02*
X530894D01*
X527744Y36020D02*
Y39169D01*
X544314Y13524D02*
X564314D01*
Y23524D01*
X544314D02*
X564314D01*
X544314Y13524D02*
Y23524D01*
X523689Y166264D02*
X543689D01*
X523689Y156264D02*
Y166264D01*
Y156264D02*
X543689D01*
Y166264D01*
X547315D02*
X567315D01*
X547315Y156264D02*
Y166264D01*
Y156264D02*
X567315D01*
Y166264D01*
X551932Y27618D02*
X555082D01*
X551932D02*
Y30768D01*
Y39429D02*
X555082D01*
X551932Y36279D02*
Y39429D01*
X532921Y152169D02*
X536071D01*
Y149020D02*
Y152169D01*
X532921Y140358D02*
X536071D01*
Y143508D01*
X556921Y152169D02*
X560071D01*
Y149020D02*
Y152169D01*
X556921Y140358D02*
X560071D01*
Y143508D01*
X477225Y166264D02*
X497225D01*
X477225Y156264D02*
Y166264D01*
Y156264D02*
X497225D01*
Y166264D01*
X500450D02*
X520450D01*
X500450Y156264D02*
Y166264D01*
Y156264D02*
X520450D01*
Y166264D01*
X486206Y152169D02*
X489355D01*
Y149020D02*
Y152169D01*
X486206Y140358D02*
X489355D01*
Y143508D01*
X509682Y152169D02*
X512832D01*
Y149020D02*
Y152169D01*
X509682Y140358D02*
X512832D01*
Y143508D01*
X386500Y12264D02*
Y32264D01*
X376500D02*
X386500D01*
X376500Y12264D02*
Y32264D01*
Y12264D02*
X386500D01*
X289028Y52516D02*
X329972D01*
X289028Y36374D02*
Y54484D01*
X289028Y36374D02*
X329972D01*
Y54484D01*
X289028D02*
X329972D01*
X453500Y134264D02*
Y154264D01*
Y134264D02*
X463500D01*
Y154264D01*
X453500D02*
X463500D01*
X413500Y166264D02*
X473500D01*
X413500Y156264D02*
X473500D01*
Y166264D01*
X413500Y156264D02*
Y166264D01*
X408500Y146264D02*
Y166264D01*
X398500D02*
X408500D01*
X398500Y146264D02*
Y166264D01*
Y146264D02*
X408500D01*
X413500Y33264D02*
X423500D01*
X413500D02*
Y73264D01*
X423500Y33264D02*
Y73264D01*
X413500D02*
X423500D01*
X248500Y156764D02*
Y166764D01*
X368500D01*
Y156764D02*
Y166764D01*
X361000Y156764D02*
X368500D01*
X248500D02*
X361000D01*
X215500Y110098D02*
Y114429D01*
X149500Y118098D02*
Y122429D01*
X124335Y119264D02*
X128665D01*
X124335Y60264D02*
X128665D01*
X150500Y57098D02*
Y61429D01*
X215650Y66098D02*
Y70429D01*
X281256Y34280D02*
X284405D01*
Y31917D02*
Y34280D01*
X272594D02*
X275744D01*
X272594Y31917D02*
Y34280D01*
X264256D02*
X267406D01*
Y31917D02*
Y34280D01*
X255594D02*
X258744D01*
X255594Y31917D02*
Y34280D01*
X248500Y12067D02*
Y22067D01*
X368500D01*
Y12067D02*
Y22067D01*
X361000Y12067D02*
X368500D01*
X248500D02*
X361000D01*
X266256Y105581D02*
X269406D01*
Y103218D02*
Y105581D01*
X257594D02*
X260744D01*
X257594Y103218D02*
Y105581D01*
X284256D02*
X287405D01*
Y103218D02*
Y105581D01*
X275594D02*
X278744D01*
X275594Y103218D02*
Y105581D01*
X314752Y111370D02*
Y152315D01*
X298610Y152315D02*
X316721D01*
X298610Y111370D02*
Y152315D01*
Y111370D02*
X316721D01*
Y152315D01*
X65335Y87114D02*
X69665D01*
X67000Y108835D02*
Y113165D01*
X60000Y40764D02*
X75000D01*
Y5764D02*
Y40764D01*
X60000Y5764D02*
X75000D01*
X60000D02*
Y40764D01*
X76079Y154264D02*
Y169264D01*
X111079D01*
Y154264D02*
Y169264D01*
X76079Y154264D02*
X111079D01*
X90000Y9567D02*
Y24567D01*
X125000D01*
Y9567D02*
Y24567D01*
X90000Y9567D02*
X125000D01*
X148382Y93732D02*
X150606D01*
X144189D02*
X146413D01*
X144189D02*
Y113417D01*
X150606D01*
Y93732D02*
Y113417D01*
X148382Y67484D02*
X150606D01*
X144189D02*
X146413D01*
X144189D02*
Y87169D01*
X150606D01*
Y67484D02*
Y87169D01*
D11*
X432079Y28933D02*
G03*
X432079Y28933I-492J0D01*
G01*
X478902Y29917D02*
G03*
X478902Y29917I-492J0D01*
G01*
X501051D02*
G03*
X501051Y29917I-492J0D01*
G01*
X525677D02*
G03*
X525677Y29917I-492J0D01*
G01*
X549865Y30177D02*
G03*
X549865Y30177I-492J0D01*
G01*
X539122Y149610D02*
G03*
X539122Y149610I-492J0D01*
G01*
X563122D02*
G03*
X563122Y149610I-492J0D01*
G01*
X492407D02*
G03*
X492407Y149610I-492J0D01*
G01*
X515883D02*
G03*
X515883Y149610I-492J0D01*
G01*
X292079Y38933D02*
G03*
X292079Y38933I-492J0D01*
G01*
X271905Y27784D02*
G03*
X271905Y27784I-492J0D01*
G01*
X254906D02*
G03*
X254906Y27784I-492J0D01*
G01*
X256906Y99085D02*
G03*
X256906Y99085I-492J0D01*
G01*
X274905D02*
G03*
X274905Y99085I-492J0D01*
G01*
X301661Y149756D02*
G03*
X301661Y149756I-492J0D01*
G01*
D12*
X413440Y115091D02*
G03*
X413440Y115091I-1113J0D01*
G01*
X57497Y20264D02*
G03*
X57497Y20264I-16700J0D01*
G01*
X356474Y47075D02*
G03*
X356474Y47075I-11974J0D01*
G01*
X471200Y87264D02*
G03*
X471200Y87264I-16700J0D01*
G01*
X62474Y149327D02*
G03*
X62474Y149327I-11974J0D01*
G01*
X55537Y94764D02*
G03*
X55537Y94764I-11974J0D01*
G01*
X426474Y19201D02*
G03*
X426474Y19201I-11974J0D01*
G01*
X410521Y46264D02*
G03*
X410521Y46264I-11974J0D01*
G01*
X394474Y146327D02*
G03*
X394474Y146327I-11974J0D01*
G01*
X384000Y9972D02*
X385000Y8972D01*
X384000Y8000D02*
X384972Y8972D01*
X383000D02*
X384972D01*
X380000Y10264D02*
X381000Y11264D01*
Y11236D02*
X381972Y10264D01*
X381000Y9264D02*
Y11236D01*
X441500Y7413D02*
X442500Y6413D01*
X441528Y7413D02*
X442500Y8386D01*
X441528Y7413D02*
X444900D01*
X429028Y8264D02*
Y10236D01*
X430000Y9264D01*
X429028Y9972D02*
Y10000D01*
X428028Y9264D02*
X429028Y10264D01*
X243500Y76264D02*
Y84264D01*
X229500D02*
X243500D01*
X229500Y76264D02*
Y84264D01*
Y76264D02*
X243500D01*
X117437Y108221D02*
Y127905D01*
X119405Y101370D02*
Y135780D01*
X77673Y101370D02*
X119405D01*
X77673D02*
Y135780D01*
X119405D01*
X204799Y118930D02*
X224484D01*
X197949Y116962D02*
X232358D01*
X197949D02*
Y158694D01*
X232358D01*
Y116962D02*
Y158694D01*
X205823Y58925D02*
X225508D01*
X197949Y60894D02*
X232358D01*
Y19161D02*
Y60894D01*
X197949Y19161D02*
X232358D01*
X197949D02*
Y60894D01*
X117437Y49902D02*
Y69587D01*
X119405Y43051D02*
Y77461D01*
X77673Y43051D02*
X119405D01*
X77673D02*
Y77461D01*
X119405D01*
X140902Y50925D02*
X160587D01*
X133028Y52894D02*
X167437D01*
Y11161D02*
Y52894D01*
X133028Y11161D02*
X167437D01*
X133028D02*
Y52894D01*
X139878Y127905D02*
X159563D01*
X133028Y125937D02*
X167437D01*
X133028D02*
Y167669D01*
X167437D01*
Y125937D02*
Y167669D01*
X342531Y30343D02*
X346468D01*
X344500Y28374D02*
Y32311D01*
X64500Y151139D02*
Y165139D01*
X72500D01*
Y151139D02*
Y165139D01*
X64500Y151139D02*
X72500D01*
X48531Y166059D02*
X52469D01*
X50500Y164091D02*
Y168028D01*
X60295Y92795D02*
Y96732D01*
X58327Y94764D02*
X62264D01*
X19500Y67684D02*
Y81684D01*
X27500D01*
Y67684D02*
Y81684D01*
X19500Y67684D02*
X27500D01*
X509375Y92311D02*
X523375D01*
Y84311D02*
Y92311D01*
X509375Y84311D02*
X523375D01*
X509375D02*
Y92311D01*
X478125Y52524D02*
X492125D01*
Y44524D02*
Y52524D01*
X478125Y44524D02*
X492125D01*
X478125D02*
Y52524D01*
Y63524D02*
X492125D01*
Y55524D02*
Y63524D01*
X478125Y55524D02*
X492125D01*
X478125D02*
Y63524D01*
Y74524D02*
X492125D01*
Y66524D02*
Y74524D01*
X478125Y66524D02*
X492125D01*
X478125D02*
Y74524D01*
X500375Y52524D02*
X514375D01*
Y44524D02*
Y52524D01*
X500375Y44524D02*
X514375D01*
X500375D02*
Y52524D01*
Y63524D02*
X514375D01*
Y55524D02*
Y63524D01*
X500375Y55524D02*
X514375D01*
X500375D02*
Y63524D01*
Y74264D02*
X514375D01*
Y66264D02*
Y74264D01*
X500375Y66264D02*
X514375D01*
X500375D02*
Y74264D01*
X524939Y52784D02*
X538939D01*
Y44783D02*
Y52784D01*
X524939Y44783D02*
X538939D01*
X524939D02*
Y52784D01*
X525001Y63524D02*
X539001D01*
Y55524D02*
Y63524D01*
X525001Y55524D02*
X539001D01*
X525001D02*
Y63524D01*
Y74524D02*
X539001D01*
Y66524D02*
Y74524D01*
X525001Y66524D02*
X539001D01*
X525001D02*
Y74524D01*
X549189Y52784D02*
X563189D01*
Y44783D02*
Y52784D01*
X549189Y44783D02*
X563189D01*
X549189D02*
Y52784D01*
X548814Y63784D02*
X562814D01*
Y55783D02*
Y63784D01*
X548814Y55783D02*
X562814D01*
X548814D02*
Y63784D01*
Y74524D02*
X562814D01*
Y66524D02*
Y74524D01*
X548814Y66524D02*
X562814D01*
X548814D02*
Y74524D01*
X524814Y127264D02*
X538814D01*
X524814D02*
Y135264D01*
X538814D01*
Y127264D02*
Y135264D01*
X524939Y116264D02*
X538939D01*
X524939D02*
Y124264D01*
X538939D01*
Y116264D02*
Y124264D01*
X524814Y105264D02*
X538814D01*
X524814D02*
Y113264D01*
X538814D01*
Y105264D02*
Y113264D01*
X548814Y127264D02*
X562814D01*
X548814D02*
Y135264D01*
X562814D01*
Y127264D02*
Y135264D01*
X548987Y116264D02*
X562987D01*
X548987D02*
Y124264D01*
X562987D01*
Y116264D02*
Y124264D01*
X548814Y105264D02*
X562814D01*
X548814D02*
Y113264D01*
X562814D01*
Y105264D02*
Y113264D01*
X478225Y105004D02*
X492225D01*
X478225D02*
Y113004D01*
X492225D01*
Y105004D02*
Y113004D01*
X477887Y127004D02*
X491887D01*
X477887D02*
Y135004D01*
X491887D01*
Y127004D02*
Y135004D01*
X478012Y116004D02*
X492012D01*
X478012D02*
Y124004D01*
X492012D01*
Y116004D02*
Y124004D01*
X500201Y116264D02*
X514201D01*
X500201D02*
Y124264D01*
X514201D01*
Y116264D02*
Y124264D01*
X500201Y105004D02*
X514201D01*
X500201D02*
Y113004D01*
X514201D01*
Y105004D02*
Y113004D01*
X500201Y127264D02*
X514201D01*
X500201D02*
Y135264D01*
X514201D01*
Y127264D02*
Y135264D01*
X8500Y87139D02*
Y101139D01*
X16500D01*
Y87139D02*
Y101139D01*
X8500Y87139D02*
X16500D01*
X70400Y119900D02*
Y133900D01*
X62400Y119900D02*
X70400D01*
X62400D02*
Y133900D01*
X70400D01*
X8500Y120413D02*
Y134413D01*
X16500D01*
Y120413D02*
Y134413D01*
X8500Y120413D02*
X16500D01*
X8500Y103413D02*
Y117413D01*
X16500D01*
Y103413D02*
Y117413D01*
X8500Y103413D02*
X16500D01*
X20625Y149264D02*
X34625D01*
Y141264D02*
Y149264D01*
X20625Y141264D02*
X34625D01*
X20625D02*
Y149264D01*
X20500Y120413D02*
Y134413D01*
X28500D01*
Y120413D02*
Y134413D01*
X20500Y120413D02*
X28500D01*
X20500Y103413D02*
Y117413D01*
X28500D01*
Y103413D02*
Y117413D01*
X20500Y103413D02*
X28500D01*
X450625Y15264D02*
X464625D01*
X450625D02*
Y23264D01*
X464625D01*
Y15264D02*
Y23264D01*
X412532Y2468D02*
X416468D01*
X414500Y500D02*
Y4437D01*
X381815Y44295D02*
Y48232D01*
X379847Y46264D02*
X383784D01*
X433375Y23264D02*
X447375D01*
Y15264D02*
Y23264D01*
X433375Y15264D02*
X447375D01*
X433375D02*
Y23264D01*
X287500Y41139D02*
Y55139D01*
X279500Y41139D02*
X287500D01*
X279500D02*
Y55139D01*
X287500D01*
X398500Y13192D02*
Y27192D01*
X390500Y13192D02*
X398500D01*
X390500D02*
Y27192D01*
X398500D01*
X380532Y163059D02*
X384469D01*
X382500Y161091D02*
Y165028D01*
X444988Y123264D02*
X458988D01*
Y115264D02*
Y123264D01*
X444988Y115264D02*
X458988D01*
X444988D02*
Y123264D01*
X403500Y60684D02*
Y74684D01*
X411500D01*
Y60684D02*
Y74684D01*
X403500Y60684D02*
X411500D01*
X417182Y75282D02*
X431182D01*
X417182D02*
Y83282D01*
X431182D01*
Y75282D02*
Y83282D01*
X381500Y60684D02*
Y74684D01*
X389500D01*
Y60684D02*
Y74684D01*
X381500Y60684D02*
X389500D01*
X362500Y107139D02*
Y121139D01*
X354500Y107139D02*
X362500D01*
X354500D02*
Y121139D01*
X362500D01*
X428625Y123264D02*
X442625D01*
Y115264D02*
Y123264D01*
X428625Y115264D02*
X442625D01*
X428625D02*
Y123264D01*
X400500Y60684D02*
Y74684D01*
X392500Y60684D02*
X400500D01*
X392500D02*
Y74684D01*
X400500D01*
X244500Y41139D02*
Y55139D01*
X252500D01*
Y41139D02*
Y55139D01*
X244500Y41139D02*
X252500D01*
X268500D02*
Y55139D01*
X276500D01*
Y41139D02*
Y55139D01*
X268500Y41139D02*
X276500D01*
X256500D02*
Y55139D01*
X264500D01*
Y41139D02*
Y55139D01*
X256500Y41139D02*
X264500D01*
X360500Y24389D02*
Y38389D01*
X368500D01*
Y24389D02*
Y38389D01*
X360500Y24389D02*
X368500D01*
X288375Y33264D02*
X302375D01*
Y25264D02*
Y33264D01*
X288375Y25264D02*
X302375D01*
X288375D02*
Y33264D01*
X305625Y25264D02*
X319625D01*
X305625D02*
Y33264D01*
X319625D01*
Y25264D02*
Y33264D01*
X281625Y142264D02*
X295625D01*
X281625D02*
Y150264D01*
X295625D01*
Y142264D02*
Y150264D01*
X299500Y95264D02*
Y109264D01*
X307500D01*
Y95264D02*
Y109264D01*
X299500Y95264D02*
X307500D01*
X311500D02*
Y109264D01*
X319500D01*
Y95264D02*
Y109264D01*
X311500Y95264D02*
X319500D01*
X279500Y131389D02*
Y145389D01*
X271500Y131389D02*
X279500D01*
X271500D02*
Y145389D01*
X279500D01*
X290500Y118139D02*
Y132139D01*
X282500Y118139D02*
X290500D01*
X282500D02*
Y132139D01*
X290500D01*
X259500Y112139D02*
Y126139D01*
X267500D01*
Y112139D02*
Y126139D01*
X259500Y112139D02*
X267500D01*
X271500D02*
Y126139D01*
X279500D01*
Y112139D02*
Y126139D01*
X271500Y112139D02*
X279500D01*
X78500Y10139D02*
X86500D01*
Y24139D01*
X78500D02*
X86500D01*
X78500Y10139D02*
Y24139D01*
X19500Y65185D02*
X27500D01*
X19500Y51185D02*
Y65185D01*
Y51185D02*
X27500D01*
Y65185D01*
X19500Y49123D02*
X27500D01*
X19500Y35123D02*
Y49123D01*
Y35123D02*
X27500D01*
Y49123D01*
X8500Y81684D02*
X16500D01*
X8500Y67684D02*
Y81684D01*
Y67684D02*
X16500D01*
Y81684D01*
X8500Y51434D02*
X16500D01*
Y65434D01*
X8500D02*
X16500D01*
X8500Y51434D02*
Y65434D01*
X92500Y26959D02*
Y34959D01*
X78500D02*
X92500D01*
X78500Y26959D02*
Y34959D01*
Y26959D02*
X92500D01*
X180000Y168199D02*
Y170864D01*
X181333Y172197D01*
X182666Y170864D01*
Y168199D01*
Y170198D01*
X180000D01*
X183999Y170864D02*
Y168865D01*
X184665Y168199D01*
X186664D01*
Y170864D01*
X190663Y172197D02*
Y168199D01*
X188664D01*
X187997Y168865D01*
Y170198D01*
X188664Y170864D01*
X190663D01*
X191996Y168199D02*
X193329D01*
X192663D01*
Y170864D01*
X191996D01*
X195995Y168199D02*
X197328D01*
X197994Y168865D01*
Y170198D01*
X197328Y170864D01*
X195995D01*
X195328Y170198D01*
Y168865D01*
X195995Y168199D01*
X180000Y164999D02*
X181333D01*
X180666D01*
Y161000D01*
X180000D01*
X181333D01*
X183332D02*
Y163666D01*
X185332D01*
X185998Y162999D01*
Y161000D01*
X193995D02*
X191330D01*
X193995Y163666D01*
Y164332D01*
X193329Y164999D01*
X191996D01*
X191330Y164332D01*
X256000Y88048D02*
Y82050D01*
Y85049D01*
X259999D01*
Y88048D01*
Y82050D01*
X262998D02*
X264997D01*
X265997Y83049D01*
Y85049D01*
X264997Y86049D01*
X262998D01*
X261998Y85049D01*
Y83049D01*
X262998Y82050D01*
X268996Y87048D02*
Y86049D01*
X267996D01*
X269995D01*
X268996D01*
Y83049D01*
X269995Y82050D01*
X282991Y87048D02*
X281992Y88048D01*
X279992D01*
X278993Y87048D01*
Y86049D01*
X279992Y85049D01*
X281992D01*
X282991Y84049D01*
Y83049D01*
X281992Y82050D01*
X279992D01*
X278993Y83049D01*
X284991Y86049D02*
Y83049D01*
X285990Y82050D01*
X286990Y83049D01*
X287990Y82050D01*
X288989Y83049D01*
Y86049D01*
X291988D02*
X293988D01*
X294987Y85049D01*
Y82050D01*
X291988D01*
X290989Y83049D01*
X291988Y84049D01*
X294987D01*
X296987Y80050D02*
Y86049D01*
X299986D01*
X300985Y85049D01*
Y83049D01*
X299986Y82050D01*
X296987D01*
X302985Y80050D02*
Y86049D01*
X305984D01*
X306983Y85049D01*
Y83049D01*
X305984Y82050D01*
X302985D01*
X308983D02*
X310982D01*
X309982D01*
Y86049D01*
X308983D01*
X313981Y82050D02*
Y86049D01*
X316980D01*
X317980Y85049D01*
Y82050D01*
X321979Y80050D02*
X322978D01*
X323978Y81050D01*
Y86049D01*
X320979D01*
X319979Y85049D01*
Y83049D01*
X320979Y82050D01*
X323978D01*
X331975D02*
Y88048D01*
X333975Y86049D01*
X335974Y88048D01*
Y82050D01*
X338973D02*
X340972D01*
X341972Y83049D01*
Y85049D01*
X340972Y86049D01*
X338973D01*
X337973Y85049D01*
Y83049D01*
X338973Y82050D01*
X347970Y88048D02*
Y82050D01*
X344971D01*
X343971Y83049D01*
Y85049D01*
X344971Y86049D01*
X347970D01*
X349970D02*
Y83049D01*
X350969Y82050D01*
X353968D01*
Y86049D01*
X355968Y82050D02*
X357967D01*
X356967D01*
Y88048D01*
X355968D01*
X363965Y82050D02*
X361966D01*
X360966Y83049D01*
Y85049D01*
X361966Y86049D01*
X363965D01*
X364965Y85049D01*
Y84049D01*
X360966D01*
X256000Y70453D02*
Y76451D01*
X258999D01*
X259999Y75451D01*
Y73452D01*
X258999Y72452D01*
X256000D01*
X257999D02*
X259999Y70453D01*
X264997D02*
X262998D01*
X261998Y71452D01*
Y73452D01*
X262998Y74452D01*
X264997D01*
X265997Y73452D01*
Y72452D01*
X261998D01*
X267996Y74452D02*
X269995Y70453D01*
X271995Y74452D01*
X283991Y70453D02*
X279992D01*
X283991Y74452D01*
Y75451D01*
X282991Y76451D01*
X280992D01*
X279992Y75451D01*
X19000Y165462D02*
Y168128D01*
X20333Y169461D01*
X21666Y168128D01*
Y165462D01*
Y167462D01*
X19000D01*
X22999Y168128D02*
Y166129D01*
X23665Y165462D01*
X25664D01*
Y168128D01*
X29663Y169461D02*
Y165462D01*
X27664D01*
X26997Y166129D01*
Y167462D01*
X27664Y168128D01*
X29663D01*
X30996Y165462D02*
X32329D01*
X31663D01*
Y168128D01*
X30996D01*
X34995Y165462D02*
X36328D01*
X36994Y166129D01*
Y167462D01*
X36328Y168128D01*
X34995D01*
X34328Y167462D01*
Y166129D01*
X34995Y165462D01*
X20999Y162262D02*
X19667D01*
X19000Y161596D01*
Y158930D01*
X19667Y158264D01*
X20999D01*
X21666Y158930D01*
Y161596D01*
X20999Y162262D01*
X22999Y160930D02*
Y158930D01*
X23665Y158264D01*
X25664D01*
Y160930D01*
X27664Y161596D02*
Y160930D01*
X26997D01*
X28330D01*
X27664D01*
Y158930D01*
X28330Y158264D01*
X36994D02*
X34328D01*
X36994Y160930D01*
Y161596D01*
X36328Y162262D01*
X34995D01*
X34328Y161596D01*
X4000Y10198D02*
Y12864D01*
X5333Y14197D01*
X6666Y12864D01*
Y10198D01*
Y12198D01*
X4000D01*
X7999Y12864D02*
Y10865D01*
X8665Y10198D01*
X10665D01*
Y12864D01*
X14663Y14197D02*
Y10198D01*
X12664D01*
X11997Y10865D01*
Y12198D01*
X12664Y12864D01*
X14663D01*
X15996Y10198D02*
X17329D01*
X16663D01*
Y12864D01*
X15996D01*
X19995Y10198D02*
X21328D01*
X21994Y10865D01*
Y12198D01*
X21328Y12864D01*
X19995D01*
X19328Y12198D01*
Y10865D01*
X19995Y10198D01*
X5999Y6999D02*
X4666D01*
X4000Y6332D01*
Y3666D01*
X4666Y3000D01*
X5999D01*
X6666Y3666D01*
Y6332D01*
X5999Y6999D01*
X7999Y5666D02*
Y3666D01*
X8665Y3000D01*
X10665D01*
Y5666D01*
X12664Y6332D02*
Y5666D01*
X11997D01*
X13330D01*
X12664D01*
Y3666D01*
X13330Y3000D01*
X19328D02*
X20661D01*
X19995D01*
Y6999D01*
X19328Y6332D01*
X179000Y12198D02*
Y14864D01*
X180333Y16197D01*
X181666Y14864D01*
Y12198D01*
Y14198D01*
X179000D01*
X182999Y14864D02*
Y12865D01*
X183665Y12198D01*
X185664D01*
Y14864D01*
X189663Y16197D02*
Y12198D01*
X187664D01*
X186997Y12865D01*
Y14198D01*
X187664Y14864D01*
X189663D01*
X190996Y12198D02*
X192329D01*
X191663D01*
Y14864D01*
X190996D01*
X194995Y12198D02*
X196328D01*
X196994Y12865D01*
Y14198D01*
X196328Y14864D01*
X194995D01*
X194328Y14198D01*
Y12865D01*
X194995Y12198D01*
X179000Y8999D02*
X180333D01*
X179666D01*
Y5000D01*
X179000D01*
X180333D01*
X182332D02*
Y7666D01*
X184332D01*
X184998Y6999D01*
Y5000D01*
X190330D02*
X191663D01*
X190996D01*
Y8999D01*
X190330Y8332D01*
X63000Y172000D02*
Y173999D01*
X64000Y174999D01*
X64999Y173999D01*
Y172000D01*
Y173500D01*
X63000D01*
X65999Y174999D02*
Y173000D01*
X66999Y172000D01*
X67998Y173000D01*
Y174999D01*
X68998D02*
Y172000D01*
X70498D01*
X70997Y172500D01*
Y174499D01*
X70498Y174999D01*
X68998D01*
X71997D02*
Y172000D01*
X73497D01*
X73996Y172500D01*
Y174499D01*
X73497Y174999D01*
X71997D01*
X74996Y172000D02*
X76995Y173999D01*
X79994Y172000D02*
X77995D01*
X79994Y173999D01*
Y174499D01*
X79495Y174999D01*
X78495D01*
X77995Y174499D01*
X28000Y172000D02*
Y173999D01*
X29000Y174999D01*
X29999Y173999D01*
Y172000D01*
Y173500D01*
X28000D01*
X30999Y174999D02*
Y173000D01*
X31999Y172000D01*
X32998Y173000D01*
Y174999D01*
X33998D02*
Y172000D01*
X35498D01*
X35997Y172500D01*
Y174499D01*
X35498Y174999D01*
X33998D01*
X36997D02*
Y172000D01*
X38497D01*
X38996Y172500D01*
Y174499D01*
X38497Y174999D01*
X36997D01*
X447992Y7999D02*
X445993D01*
Y6499D01*
X446992Y6999D01*
X447492D01*
X447992Y6499D01*
Y5500D01*
X447492Y5000D01*
X446492D01*
X445993Y5500D01*
X448992Y7999D02*
Y6000D01*
X449991Y5000D01*
X450991Y6000D01*
Y7999D01*
X424999Y4000D02*
X423000D01*
X424999Y5999D01*
Y6499D01*
X424500Y6999D01*
X423500D01*
X423000Y6499D01*
X427498Y4000D02*
Y6999D01*
X425999Y5500D01*
X427998D01*
X428998Y6999D02*
Y5000D01*
X429998Y4000D01*
X430997Y5000D01*
Y6999D01*
X375999Y7499D02*
X375500Y7999D01*
X374500D01*
X374000Y7499D01*
Y5500D01*
X374500Y5000D01*
X375500D01*
X375999Y5500D01*
Y6499D01*
X375000D01*
X376999Y5000D02*
Y7999D01*
X378998Y5000D01*
Y7999D01*
X379998D02*
Y5000D01*
X381498D01*
X381997Y5500D01*
Y7499D01*
X381498Y7999D01*
X379998D01*
X281000Y169000D02*
Y172999D01*
X282999D01*
X283666Y172332D01*
Y170999D01*
X282999Y170333D01*
X281000D01*
X282333D02*
X283666Y169000D01*
X286998D02*
X285665D01*
X284999Y169667D01*
Y170999D01*
X285665Y171666D01*
X286998D01*
X287665Y170999D01*
Y170333D01*
X284999D01*
X291663Y171666D02*
X289664D01*
X288997Y170999D01*
Y169667D01*
X289664Y169000D01*
X291663D01*
X294995D02*
X293663D01*
X292996Y169667D01*
Y170999D01*
X293663Y171666D01*
X294995D01*
X295662Y170999D01*
Y170333D01*
X292996D01*
X296995Y169000D02*
X298328D01*
X297661D01*
Y171666D01*
X296995D01*
X300327D02*
X301660Y169000D01*
X302993Y171666D01*
X306325Y169000D02*
X304992D01*
X304326Y169667D01*
Y170999D01*
X304992Y171666D01*
X306325D01*
X306992Y170999D01*
Y170333D01*
X304326D01*
X308325Y171666D02*
Y169000D01*
Y170333D01*
X308991Y170999D01*
X309657Y171666D01*
X310324D01*
X318988Y169000D02*
X316322D01*
X318988Y171666D01*
Y172332D01*
X318321Y172999D01*
X316988D01*
X316322Y172332D01*
X430166Y170332D02*
X429499Y170999D01*
X428166D01*
X427500Y170332D01*
Y169666D01*
X428166Y168999D01*
X429499D01*
X430166Y168333D01*
Y167666D01*
X429499Y167000D01*
X428166D01*
X427500Y167666D01*
X431499Y169666D02*
Y167666D01*
X432165Y167000D01*
X432832Y167666D01*
X433498Y167000D01*
X434164Y167666D01*
Y169666D01*
X435497Y167000D02*
X436830D01*
X436164D01*
Y169666D01*
X435497D01*
X439496Y170332D02*
Y169666D01*
X438830D01*
X440163D01*
X439496D01*
Y167666D01*
X440163Y167000D01*
X444828Y169666D02*
X442828D01*
X442162Y168999D01*
Y167666D01*
X442828Y167000D01*
X444828D01*
X446161Y170999D02*
Y167000D01*
Y168999D01*
X446827Y169666D01*
X448160D01*
X448827Y168999D01*
Y167000D01*
X452159D02*
X450826D01*
X450159Y167666D01*
Y168999D01*
X450826Y169666D01*
X452159D01*
X452825Y168999D01*
Y168333D01*
X450159D01*
X454158Y167000D02*
X456157D01*
X456824Y167666D01*
X456157Y168333D01*
X454824D01*
X454158Y168999D01*
X454824Y169666D01*
X456824D01*
X304000Y6000D02*
Y9999D01*
X305999D01*
X306666Y9332D01*
Y7999D01*
X305999Y7333D01*
X304000D01*
X305333D02*
X306666Y6000D01*
X309998D02*
X308665D01*
X307999Y6667D01*
Y7999D01*
X308665Y8666D01*
X309998D01*
X310665Y7999D01*
Y7333D01*
X307999D01*
X314663Y8666D02*
X312664D01*
X311997Y7999D01*
Y6667D01*
X312664Y6000D01*
X314663D01*
X317996D02*
X316663D01*
X315996Y6667D01*
Y7999D01*
X316663Y8666D01*
X317996D01*
X318662Y7999D01*
Y7333D01*
X315996D01*
X319995Y6000D02*
X321328D01*
X320661D01*
Y8666D01*
X319995D01*
X323327D02*
X324660Y6000D01*
X325993Y8666D01*
X329325Y6000D02*
X327992D01*
X327326Y6667D01*
Y7999D01*
X327992Y8666D01*
X329325D01*
X329992Y7999D01*
Y7333D01*
X327326D01*
X331325Y8666D02*
Y6000D01*
Y7333D01*
X331991Y7999D01*
X332657Y8666D01*
X333324D01*
X339322Y6000D02*
X340655D01*
X339988D01*
Y9999D01*
X339322Y9332D01*
X424909Y68999D02*
X426242D01*
X425575D01*
Y65000D01*
X424909D01*
X426242D01*
X430907D02*
X428241D01*
X430907Y67666D01*
Y68332D01*
X430241Y68999D01*
X428908D01*
X428241Y68332D01*
X434906D02*
X434239Y68999D01*
X432906D01*
X432240Y68332D01*
Y65666D01*
X432906Y65000D01*
X434239D01*
X434906Y65666D01*
X373001Y19264D02*
Y21930D01*
X371668Y20597D02*
X374334D01*
X375000Y25928D02*
Y23262D01*
X372334Y25928D01*
X371668D01*
X371001Y25262D01*
Y23929D01*
X371668Y23262D01*
X375000Y29261D02*
X371001D01*
X373001Y27261D01*
Y29927D01*
X371001Y31260D02*
X373667D01*
X375000Y32593D01*
X373667Y33926D01*
X371001D01*
X512000Y98225D02*
Y94892D01*
X512666Y94226D01*
X513999D01*
X514666Y94892D01*
Y98225D01*
X515999Y94226D02*
Y98225D01*
X517998D01*
X518665Y97558D01*
Y96225D01*
X517998Y95559D01*
X515999D01*
X519997Y98225D02*
Y94226D01*
X521997D01*
X522663Y94892D01*
Y97558D01*
X521997Y98225D01*
X519997D01*
X523996D02*
X525329D01*
X524663D01*
Y94226D01*
X523996D01*
X525329D01*
X463000Y49999D02*
Y46666D01*
X463666Y46000D01*
X464999D01*
X465666Y46666D01*
Y49999D01*
X466999Y49332D02*
X467665Y49999D01*
X468998D01*
X469664Y49332D01*
Y48666D01*
X468998Y47999D01*
X469664Y47333D01*
Y46666D01*
X468998Y46000D01*
X467665D01*
X466999Y46666D01*
Y47333D01*
X467665Y47999D01*
X466999Y48666D01*
Y49332D01*
X467665Y47999D02*
X468998D01*
X416000Y123263D02*
Y119930D01*
X416666Y119264D01*
X417999D01*
X418666Y119930D01*
Y123263D01*
X419999Y119264D02*
X421332D01*
X420665D01*
Y123263D01*
X419999Y122596D01*
X206780Y104999D02*
Y101666D01*
X207446Y101000D01*
X208779D01*
X209445Y101666D01*
Y104999D01*
X213444Y101000D02*
X210778D01*
X213444Y103666D01*
Y104332D01*
X212778Y104999D01*
X211445D01*
X210778Y104332D01*
X233666Y89332D02*
X232999Y89999D01*
X231666D01*
X231000Y89332D01*
Y86666D01*
X231666Y86000D01*
X232999D01*
X233666Y86666D01*
X236998Y86000D02*
Y89999D01*
X234999Y87999D01*
X237665D01*
X169000Y103332D02*
X168334Y103999D01*
X167001D01*
X166335Y103332D01*
Y100666D01*
X167001Y100000D01*
X168334D01*
X169000Y100666D01*
X170333Y100000D02*
X171666D01*
X171000D01*
Y103999D01*
X170333Y103332D01*
X176331Y100000D02*
X173666D01*
X176331Y102666D01*
Y103332D01*
X175665Y103999D01*
X174332D01*
X173666Y103332D01*
X121000Y105999D02*
Y102000D01*
Y103333D01*
X123666Y105999D01*
X121667Y103999D01*
X123666Y102000D01*
X124999D02*
X126332D01*
X125665D01*
Y105999D01*
X124999Y105332D01*
X341666Y63332D02*
X340999Y63999D01*
X339666D01*
X339000Y63332D01*
Y60666D01*
X339666Y60000D01*
X340999D01*
X341666Y60666D01*
X342999Y63332D02*
X343665Y63999D01*
X344998D01*
X345665Y63332D01*
Y62666D01*
X344998Y61999D01*
X344332D01*
X344998D01*
X345665Y61333D01*
Y60666D01*
X344998Y60000D01*
X343665D01*
X342999Y60666D01*
X346997Y63332D02*
X347664Y63999D01*
X348997D01*
X349663Y63332D01*
Y60666D01*
X348997Y60000D01*
X347664D01*
X346997Y60666D01*
Y63332D01*
X121000Y76999D02*
Y73000D01*
Y74333D01*
X123666Y76999D01*
X121667Y74999D01*
X123666Y73000D01*
X126998D02*
Y76999D01*
X124999Y74999D01*
X127664D01*
X65000Y146000D02*
Y149999D01*
X66999D01*
X67666Y149332D01*
Y147999D01*
X66999Y147333D01*
X65000D01*
X66333D02*
X67666Y146000D01*
X68999Y149999D02*
X71665D01*
Y149332D01*
X68999Y146667D01*
Y146000D01*
X234000Y131904D02*
Y127905D01*
Y129238D01*
X236666Y131904D01*
X234666Y129905D01*
X236666Y127905D01*
X240665Y131904D02*
X237999D01*
Y129905D01*
X239332Y130571D01*
X239998D01*
X240665Y129905D01*
Y128572D01*
X239998Y127905D01*
X238665D01*
X237999Y128572D01*
X198000Y66263D02*
Y62264D01*
Y63597D01*
X200666Y66263D01*
X198667Y64263D01*
X200666Y62264D01*
X204664Y66263D02*
X201999D01*
Y64263D01*
X203332Y64930D01*
X203998D01*
X204664Y64263D01*
Y62930D01*
X203998Y62264D01*
X202665D01*
X201999Y62930D01*
X473000Y8000D02*
Y11999D01*
X474999D01*
X475666Y11332D01*
Y9999D01*
X474999Y9333D01*
X473000D01*
X476999Y8000D02*
X478332D01*
X477665D01*
Y11999D01*
X476999Y11332D01*
X482330Y8000D02*
Y11999D01*
X480331Y9999D01*
X482997D01*
X230922Y167000D02*
Y170999D01*
X232921D01*
X233587Y170332D01*
Y168999D01*
X232921Y168333D01*
X230922D01*
X234920Y167000D02*
X236253D01*
X235587D01*
Y170999D01*
X234920Y170332D01*
X238253D02*
X238919Y170999D01*
X240252D01*
X240918Y170332D01*
Y169666D01*
X240252Y168999D01*
X240918Y168333D01*
Y167666D01*
X240252Y167000D01*
X238919D01*
X238253Y167666D01*
Y168333D01*
X238919Y168999D01*
X238253Y169666D01*
Y170332D01*
X238919Y168999D02*
X240252D01*
X231000Y6264D02*
Y10262D01*
X232999D01*
X233666Y9596D01*
Y8263D01*
X232999Y7597D01*
X231000D01*
X234999Y6264D02*
X236332D01*
X235665D01*
Y10262D01*
X234999Y9596D01*
X238331Y10262D02*
X240997D01*
Y9596D01*
X238331Y6930D01*
Y6264D01*
X34625Y136912D02*
Y133580D01*
X35291Y132913D01*
X36624D01*
X37291Y133580D01*
Y136912D01*
X38624D02*
X41289D01*
Y136246D01*
X38624Y133580D01*
Y132913D01*
X319000Y151999D02*
Y148667D01*
X319666Y148000D01*
X320999D01*
X321666Y148667D01*
Y151999D01*
X325664D02*
X324332Y151332D01*
X322999Y149999D01*
Y148667D01*
X323665Y148000D01*
X324998D01*
X325664Y148667D01*
Y149333D01*
X324998Y149999D01*
X322999D01*
X290500Y60999D02*
Y57666D01*
X291166Y57000D01*
X292499D01*
X293166Y57666D01*
Y60999D01*
X297165D02*
X295832Y60332D01*
X294499Y58999D01*
Y57666D01*
X295165Y57000D01*
X296498D01*
X297165Y57666D01*
Y58333D01*
X296498Y58999D01*
X294499D01*
X124000Y85999D02*
Y82666D01*
X124667Y82000D01*
X125999D01*
X126666Y82666D01*
Y85999D01*
X130665D02*
X127999D01*
Y83999D01*
X129332Y84666D01*
X129998D01*
X130665Y83999D01*
Y82666D01*
X129998Y82000D01*
X128665D01*
X127999Y82666D01*
X125000Y97999D02*
Y94666D01*
X125666Y94000D01*
X126999D01*
X127666Y94666D01*
Y97999D01*
X130998Y94000D02*
Y97999D01*
X128999Y95999D01*
X131665D01*
X45000Y42999D02*
Y39666D01*
X45666Y39000D01*
X46999D01*
X47666Y39666D01*
Y42999D01*
X48999Y42332D02*
X49665Y42999D01*
X50998D01*
X51665Y42332D01*
Y41666D01*
X50998Y40999D01*
X50332D01*
X50998D01*
X51665Y40333D01*
Y39666D01*
X50998Y39000D01*
X49665D01*
X48999Y39666D01*
X523000Y127528D02*
X519001D01*
Y129527D01*
X519668Y130193D01*
X521001D01*
X521667Y129527D01*
Y127528D01*
Y128860D02*
X523000Y130193D01*
Y133526D02*
X519001D01*
X521001Y131526D01*
Y134192D01*
X519668Y135525D02*
X519001Y136191D01*
Y137524D01*
X519668Y138191D01*
X520334D01*
X521001Y137524D01*
Y136858D01*
Y137524D01*
X521667Y138191D01*
X522334D01*
X523000Y137524D01*
Y136191D01*
X522334Y135525D01*
X477000Y55783D02*
X473001D01*
Y57783D01*
X473668Y58449D01*
X475001D01*
X475667Y57783D01*
Y55783D01*
Y57116D02*
X477000Y58449D01*
Y61782D02*
X473001D01*
X475001Y59782D01*
Y62448D01*
X477000Y66447D02*
Y63781D01*
X474334Y66447D01*
X473668D01*
X473001Y65780D01*
Y64447D01*
X473668Y63781D01*
X523000Y114528D02*
X519001D01*
Y116527D01*
X519668Y117193D01*
X521001D01*
X521667Y116527D01*
Y114528D01*
Y115860D02*
X523000Y117193D01*
Y120526D02*
X519001D01*
X521001Y118526D01*
Y121192D01*
X523000Y122525D02*
Y123858D01*
Y123191D01*
X519001D01*
X519668Y122525D01*
X480000Y76264D02*
Y80263D01*
X481999D01*
X482666Y79596D01*
Y78263D01*
X481999Y77597D01*
X480000D01*
X481333D02*
X482666Y76264D01*
X485998D02*
Y80263D01*
X483999Y78263D01*
X486664D01*
X487997Y79596D02*
X488664Y80263D01*
X489997D01*
X490663Y79596D01*
Y76930D01*
X489997Y76264D01*
X488664D01*
X487997Y76930D01*
Y79596D01*
X524939Y100000D02*
Y103999D01*
X526938D01*
X527605Y103332D01*
Y101999D01*
X526938Y101333D01*
X524939D01*
X526272D02*
X527605Y100000D01*
X528938Y103332D02*
X529604Y103999D01*
X530937D01*
X531603Y103332D01*
Y102666D01*
X530937Y101999D01*
X530271D01*
X530937D01*
X531603Y101333D01*
Y100666D01*
X530937Y100000D01*
X529604D01*
X528938Y100666D01*
X532936D02*
X533603Y100000D01*
X534936D01*
X535602Y100666D01*
Y103332D01*
X534936Y103999D01*
X533603D01*
X532936Y103332D01*
Y102666D01*
X533603Y101999D01*
X535602D01*
X548000Y127528D02*
X544001D01*
Y129527D01*
X544668Y130193D01*
X546001D01*
X546667Y129527D01*
Y127528D01*
Y128860D02*
X548000Y130193D01*
X544668Y131526D02*
X544001Y132193D01*
Y133526D01*
X544668Y134192D01*
X545334D01*
X546001Y133526D01*
Y132859D01*
Y133526D01*
X546667Y134192D01*
X547334D01*
X548000Y133526D01*
Y132193D01*
X547334Y131526D01*
X544668Y135525D02*
X544001Y136191D01*
Y137524D01*
X544668Y138191D01*
X545334D01*
X546001Y137524D01*
X546667Y138191D01*
X547334D01*
X548000Y137524D01*
Y136191D01*
X547334Y135525D01*
X546667D01*
X546001Y136191D01*
X545334Y135525D01*
X544668D01*
X546001Y136191D02*
Y137524D01*
X499000Y55783D02*
X495001D01*
Y57783D01*
X495668Y58449D01*
X497001D01*
X497667Y57783D01*
Y55783D01*
Y57116D02*
X499000Y58449D01*
X495668Y59782D02*
X495001Y60449D01*
Y61782D01*
X495668Y62448D01*
X496334D01*
X497001Y61782D01*
Y61115D01*
Y61782D01*
X497667Y62448D01*
X498334D01*
X499000Y61782D01*
Y60449D01*
X498334Y59782D01*
X495001Y63781D02*
Y66447D01*
X495668D01*
X498334Y63781D01*
X499000D01*
X548000Y114000D02*
X544001D01*
Y115999D01*
X544668Y116666D01*
X546001D01*
X546667Y115999D01*
Y114000D01*
Y115333D02*
X548000Y116666D01*
X544668Y117999D02*
X544001Y118665D01*
Y119998D01*
X544668Y120665D01*
X545334D01*
X546001Y119998D01*
Y119332D01*
Y119998D01*
X546667Y120665D01*
X547334D01*
X548000Y119998D01*
Y118665D01*
X547334Y117999D01*
X544001Y124663D02*
X544668Y123330D01*
X546001Y121997D01*
X547334D01*
X548000Y122664D01*
Y123997D01*
X547334Y124663D01*
X546667D01*
X546001Y123997D01*
Y121997D01*
X7000Y105307D02*
X3001D01*
Y107306D01*
X3668Y107973D01*
X5001D01*
X5667Y107306D01*
Y105307D01*
Y106640D02*
X7000Y107973D01*
X3668Y109306D02*
X3001Y109972D01*
Y111305D01*
X3668Y111972D01*
X4334D01*
X5001Y111305D01*
Y110639D01*
Y111305D01*
X5667Y111972D01*
X6334D01*
X7000Y111305D01*
Y109972D01*
X6334Y109306D01*
X3001Y115970D02*
Y113304D01*
X5001D01*
X4334Y114637D01*
Y115304D01*
X5001Y115970D01*
X6334D01*
X7000Y115304D01*
Y113971D01*
X6334Y113304D01*
X34000Y105000D02*
X30001D01*
Y106999D01*
X30668Y107666D01*
X32001D01*
X32667Y106999D01*
Y105000D01*
Y106333D02*
X34000Y107666D01*
X30668Y108999D02*
X30001Y109665D01*
Y110998D01*
X30668Y111664D01*
X31334D01*
X32001Y110998D01*
Y110332D01*
Y110998D01*
X32667Y111664D01*
X33334D01*
X34000Y110998D01*
Y109665D01*
X33334Y108999D01*
X34000Y114997D02*
X30001D01*
X32001Y112997D01*
Y115663D01*
X7000Y122264D02*
X3001D01*
Y124263D01*
X3668Y124930D01*
X5001D01*
X5667Y124263D01*
Y122264D01*
Y123597D02*
X7000Y124930D01*
X3668Y126262D02*
X3001Y126929D01*
Y128262D01*
X3668Y128928D01*
X4334D01*
X5001Y128262D01*
Y127595D01*
Y128262D01*
X5667Y128928D01*
X6334D01*
X7000Y128262D01*
Y126929D01*
X6334Y126262D01*
X3668Y130261D02*
X3001Y130928D01*
Y132261D01*
X3668Y132927D01*
X4334D01*
X5001Y132261D01*
Y131594D01*
Y132261D01*
X5667Y132927D01*
X6334D01*
X7000Y132261D01*
Y130928D01*
X6334Y130261D01*
X20000Y136000D02*
Y139999D01*
X21999D01*
X22666Y139332D01*
Y137999D01*
X21999Y137333D01*
X20000D01*
X21333D02*
X22666Y136000D01*
X23999Y139332D02*
X24665Y139999D01*
X25998D01*
X26665Y139332D01*
Y138666D01*
X25998Y137999D01*
X25332D01*
X25998D01*
X26665Y137333D01*
Y136667D01*
X25998Y136000D01*
X24665D01*
X23999Y136667D01*
X30663Y136000D02*
X27997D01*
X30663Y138666D01*
Y139332D01*
X29997Y139999D01*
X28664D01*
X27997Y139332D01*
X503000Y75264D02*
Y79263D01*
X504999D01*
X505666Y78596D01*
Y77263D01*
X504999Y76597D01*
X503000D01*
X504333D02*
X505666Y75264D01*
X506999Y78596D02*
X507665Y79263D01*
X508998D01*
X509664Y78596D01*
Y77930D01*
X508998Y77263D01*
X508332D01*
X508998D01*
X509664Y76597D01*
Y75930D01*
X508998Y75264D01*
X507665D01*
X506999Y75930D01*
X510997Y75264D02*
X512330D01*
X511664D01*
Y79263D01*
X510997Y78596D01*
X549189Y100000D02*
Y103999D01*
X551188D01*
X551855Y103332D01*
Y101999D01*
X551188Y101333D01*
X549189D01*
X550522D02*
X551855Y100000D01*
X553188Y103332D02*
X553854Y103999D01*
X555187D01*
X555854Y103332D01*
Y102666D01*
X555187Y101999D01*
X554521D01*
X555187D01*
X555854Y101333D01*
Y100666D01*
X555187Y100000D01*
X553854D01*
X553188Y100666D01*
X557186Y103332D02*
X557853Y103999D01*
X559186D01*
X559852Y103332D01*
Y100666D01*
X559186Y100000D01*
X557853D01*
X557186Y100666D01*
Y103332D01*
X476000Y128528D02*
X472001D01*
Y130527D01*
X472668Y131193D01*
X474001D01*
X474667Y130527D01*
Y128528D01*
Y129860D02*
X476000Y131193D01*
Y135192D02*
Y132526D01*
X473334Y135192D01*
X472668D01*
X472001Y134526D01*
Y133193D01*
X472668Y132526D01*
X475334Y136525D02*
X476000Y137191D01*
Y138524D01*
X475334Y139191D01*
X472668D01*
X472001Y138524D01*
Y137191D01*
X472668Y136525D01*
X473334D01*
X474001Y137191D01*
Y139191D01*
X524000Y56000D02*
X520001D01*
Y57999D01*
X520668Y58666D01*
X522001D01*
X522667Y57999D01*
Y56000D01*
Y57333D02*
X524000Y58666D01*
Y62665D02*
Y59999D01*
X521334Y62665D01*
X520668D01*
X520001Y61998D01*
Y60665D01*
X520668Y59999D01*
Y63997D02*
X520001Y64664D01*
Y65997D01*
X520668Y66663D01*
X521334D01*
X522001Y65997D01*
X522667Y66663D01*
X523334D01*
X524000Y65997D01*
Y64664D01*
X523334Y63997D01*
X522667D01*
X522001Y64664D01*
X521334Y63997D01*
X520668D01*
X522001Y64664D02*
Y65997D01*
X476000Y114528D02*
X472001D01*
Y116527D01*
X472668Y117193D01*
X474001D01*
X474667Y116527D01*
Y114528D01*
Y115860D02*
X476000Y117193D01*
Y121192D02*
Y118526D01*
X473334Y121192D01*
X472668D01*
X472001Y120526D01*
Y119193D01*
X472668Y118526D01*
X472001Y122525D02*
Y125191D01*
X472668D01*
X475334Y122525D01*
X476000D01*
X526500Y76000D02*
Y79999D01*
X528499D01*
X529166Y79332D01*
Y77999D01*
X528499Y77333D01*
X526500D01*
X527833D02*
X529166Y76000D01*
X533165D02*
X530499D01*
X533165Y78666D01*
Y79332D01*
X532498Y79999D01*
X531165D01*
X530499Y79332D01*
X537163Y79999D02*
X535830Y79332D01*
X534497Y77999D01*
Y76666D01*
X535164Y76000D01*
X536497D01*
X537163Y76666D01*
Y77333D01*
X536497Y77999D01*
X534497D01*
X478409Y100000D02*
Y103999D01*
X480409D01*
X481075Y103332D01*
Y101999D01*
X480409Y101333D01*
X478409D01*
X479742D02*
X481075Y100000D01*
X485074D02*
X482408D01*
X485074Y102666D01*
Y103332D01*
X484408Y103999D01*
X483075D01*
X482408Y103332D01*
X489073Y103999D02*
X486407D01*
Y101999D01*
X487740Y102666D01*
X488406D01*
X489073Y101999D01*
Y100666D01*
X488406Y100000D01*
X487073D01*
X486407Y100666D01*
X477000Y43000D02*
X473001D01*
Y44999D01*
X473668Y45666D01*
X475001D01*
X475667Y44999D01*
Y43000D01*
Y44333D02*
X477000Y45666D01*
Y49665D02*
Y46999D01*
X474334Y49665D01*
X473668D01*
X473001Y48998D01*
Y47665D01*
X473668Y46999D01*
X477000Y52997D02*
X473001D01*
X475001Y50997D01*
Y53663D01*
X499000Y42516D02*
X495001D01*
Y44515D01*
X495668Y45182D01*
X497001D01*
X497667Y44515D01*
Y42516D01*
Y43849D02*
X499000Y45182D01*
Y49180D02*
Y46514D01*
X496334Y49180D01*
X495668D01*
X495001Y48514D01*
Y47181D01*
X495668Y46514D01*
Y50513D02*
X495001Y51180D01*
Y52513D01*
X495668Y53179D01*
X496334D01*
X497001Y52513D01*
Y51846D01*
Y52513D01*
X497667Y53179D01*
X498334D01*
X499000Y52513D01*
Y51180D01*
X498334Y50513D01*
X524000Y42000D02*
X520001D01*
Y43999D01*
X520668Y44666D01*
X522001D01*
X522667Y43999D01*
Y42000D01*
Y43333D02*
X524000Y44666D01*
Y48665D02*
Y45999D01*
X521334Y48665D01*
X520668D01*
X520001Y47998D01*
Y46665D01*
X520668Y45999D01*
X524000Y52663D02*
Y49997D01*
X521334Y52663D01*
X520668D01*
X520001Y51997D01*
Y50664D01*
X520668Y49997D01*
X548000Y43264D02*
X544001D01*
Y45263D01*
X544668Y45930D01*
X546001D01*
X546667Y45263D01*
Y43264D01*
Y44597D02*
X548000Y45930D01*
Y49928D02*
Y47262D01*
X545334Y49928D01*
X544668D01*
X544001Y49262D01*
Y47929D01*
X544668Y47262D01*
X548000Y51261D02*
Y52594D01*
Y51928D01*
X544001D01*
X544668Y51261D01*
X548000Y56000D02*
X544001D01*
Y57999D01*
X544668Y58666D01*
X546001D01*
X546667Y57999D01*
Y56000D01*
Y57333D02*
X548000Y58666D01*
Y62665D02*
Y59999D01*
X545334Y62665D01*
X544668D01*
X544001Y61998D01*
Y60665D01*
X544668Y59999D01*
Y63997D02*
X544001Y64664D01*
Y65997D01*
X544668Y66663D01*
X547334D01*
X548000Y65997D01*
Y64664D01*
X547334Y63997D01*
X544668D01*
X551000Y75264D02*
Y79263D01*
X552999D01*
X553666Y78596D01*
Y77263D01*
X552999Y76597D01*
X551000D01*
X552333D02*
X553666Y75264D01*
X554999D02*
X556332D01*
X555665D01*
Y79263D01*
X554999Y78596D01*
X558331Y75930D02*
X558997Y75264D01*
X560330D01*
X560997Y75930D01*
Y78596D01*
X560330Y79263D01*
X558997D01*
X558331Y78596D01*
Y77930D01*
X558997Y77263D01*
X560997D01*
X500559Y100000D02*
Y103999D01*
X502558D01*
X503225Y103332D01*
Y101999D01*
X502558Y101333D01*
X500559D01*
X501892D02*
X503225Y100000D01*
X504558D02*
X505891D01*
X505224D01*
Y103999D01*
X504558Y103332D01*
X507890D02*
X508557Y103999D01*
X509889D01*
X510556Y103332D01*
Y102666D01*
X509889Y101999D01*
X510556Y101333D01*
Y100666D01*
X509889Y100000D01*
X508557D01*
X507890Y100666D01*
Y101333D01*
X508557Y101999D01*
X507890Y102666D01*
Y103332D01*
X508557Y101999D02*
X509889D01*
X499000Y128000D02*
X495001D01*
Y129999D01*
X495668Y130666D01*
X497001D01*
X497667Y129999D01*
Y128000D01*
Y129333D02*
X499000Y130666D01*
Y131999D02*
Y133332D01*
Y132665D01*
X495001D01*
X495668Y131999D01*
X495001Y135331D02*
Y137997D01*
X495668D01*
X498334Y135331D01*
X499000D01*
Y114000D02*
X495001D01*
Y115999D01*
X495668Y116666D01*
X497001D01*
X497667Y115999D01*
Y114000D01*
Y115333D02*
X499000Y116666D01*
Y117999D02*
Y119332D01*
Y118665D01*
X495001D01*
X495668Y117999D01*
X495001Y123997D02*
X495668Y122664D01*
X497001Y121331D01*
X498334D01*
X499000Y121997D01*
Y123330D01*
X498334Y123997D01*
X497667D01*
X497001Y123330D01*
Y121331D01*
X260000Y141000D02*
Y144999D01*
X261999D01*
X262666Y144332D01*
Y142999D01*
X261999Y142333D01*
X260000D01*
X261333D02*
X262666Y141000D01*
X263999D02*
X265332D01*
X264665D01*
Y144999D01*
X263999Y144332D01*
X269997Y144999D02*
X267331D01*
Y142999D01*
X268664Y143666D01*
X269330D01*
X269997Y142999D01*
Y141666D01*
X269330Y141000D01*
X267997D01*
X267331Y141666D01*
X250000Y57000D02*
X246001D01*
Y58999D01*
X246668Y59666D01*
X248001D01*
X248667Y58999D01*
Y57000D01*
Y58333D02*
X250000Y59666D01*
Y60999D02*
Y62332D01*
Y61665D01*
X246001D01*
X246668Y60999D01*
X246001Y66997D02*
Y64331D01*
X248001D01*
X247334Y65664D01*
Y66330D01*
X248001Y66997D01*
X249334D01*
X250000Y66330D01*
Y64997D01*
X249334Y64331D01*
X248000Y121000D02*
Y124999D01*
X249999D01*
X250666Y124332D01*
Y122999D01*
X249999Y122333D01*
X248000D01*
X249333D02*
X250666Y121000D01*
X251999D02*
X253332D01*
X252665D01*
Y124999D01*
X251999Y124332D01*
X257330Y121000D02*
Y124999D01*
X255331Y122999D01*
X257997D01*
X262000Y57000D02*
X258001D01*
Y58999D01*
X258668Y59666D01*
X260001D01*
X260667Y58999D01*
Y57000D01*
Y58333D02*
X262000Y59666D01*
Y60999D02*
Y62332D01*
Y61665D01*
X258001D01*
X258668Y60999D01*
X262000Y66330D02*
X258001D01*
X260001Y64331D01*
Y66997D01*
X268000Y127000D02*
Y130999D01*
X269999D01*
X270666Y130332D01*
Y128999D01*
X269999Y128333D01*
X268000D01*
X269333D02*
X270666Y127000D01*
X271999D02*
X273332D01*
X272665D01*
Y130999D01*
X271999Y130332D01*
X275331D02*
X275997Y130999D01*
X277330D01*
X277997Y130332D01*
Y129666D01*
X277330Y128999D01*
X276664D01*
X277330D01*
X277997Y128333D01*
Y127666D01*
X277330Y127000D01*
X275997D01*
X275331Y127666D01*
X274413Y57000D02*
X270415D01*
Y58999D01*
X271081Y59666D01*
X272414D01*
X273080Y58999D01*
Y57000D01*
Y58333D02*
X274413Y59666D01*
Y60999D02*
Y62332D01*
Y61665D01*
X270415D01*
X271081Y60999D01*
Y64331D02*
X270415Y64997D01*
Y66330D01*
X271081Y66997D01*
X271748D01*
X272414Y66330D01*
Y65664D01*
Y66330D01*
X273080Y66997D01*
X273747D01*
X274413Y66330D01*
Y64997D01*
X273747Y64331D01*
X286000Y112139D02*
Y116138D01*
X287999D01*
X288666Y115471D01*
Y114138D01*
X287999Y113472D01*
X286000D01*
X287333D02*
X288666Y112139D01*
X289999D02*
X291332D01*
X290665D01*
Y116138D01*
X289999Y115471D01*
X295997Y112139D02*
X293331D01*
X295997Y114805D01*
Y115471D01*
X295330Y116138D01*
X293997D01*
X293331Y115471D01*
X285000Y57264D02*
X281001D01*
Y59263D01*
X281668Y59930D01*
X283001D01*
X283667Y59263D01*
Y57264D01*
Y58597D02*
X285000Y59930D01*
Y61263D02*
Y62595D01*
Y61929D01*
X281001D01*
X281668Y61263D01*
X285000Y67261D02*
Y64595D01*
X282334Y67261D01*
X281668D01*
X281001Y66594D01*
Y65261D01*
X281668Y64595D01*
X283100Y136900D02*
Y140899D01*
X285099D01*
X285766Y140232D01*
Y138899D01*
X285099Y138233D01*
X283100D01*
X284433D02*
X285766Y136900D01*
X287099D02*
X288432D01*
X287765D01*
Y140899D01*
X287099Y140232D01*
X290431Y136900D02*
X291764D01*
X291097D01*
Y140899D01*
X290431Y140232D01*
X322000Y27264D02*
Y31262D01*
X323999D01*
X324666Y30596D01*
Y29263D01*
X323999Y28597D01*
X322000D01*
X323333D02*
X324666Y27264D01*
X325999D02*
X327332D01*
X326665D01*
Y31262D01*
X325999Y30596D01*
X329331Y27264D02*
X330664D01*
X329997D01*
Y31262D01*
X329331Y30596D01*
X78000Y5000D02*
Y8999D01*
X79999D01*
X80666Y8332D01*
Y6999D01*
X79999Y6333D01*
X78000D01*
X79333D02*
X80666Y5000D01*
X81999D02*
X83332D01*
X82665D01*
Y8999D01*
X81999Y8332D01*
X85331D02*
X85997Y8999D01*
X87330D01*
X87997Y8332D01*
Y5666D01*
X87330Y5000D01*
X85997D01*
X85331Y5666D01*
Y8332D01*
X94000Y29864D02*
Y33863D01*
X95999D01*
X96666Y33196D01*
Y31863D01*
X95999Y31197D01*
X94000D01*
X95333D02*
X96666Y29864D01*
X97999Y30530D02*
X98665Y29864D01*
X99998D01*
X100664Y30530D01*
Y33196D01*
X99998Y33863D01*
X98665D01*
X97999Y33196D01*
Y32530D01*
X98665Y31863D01*
X100664D01*
X7000Y72000D02*
X3001D01*
Y73999D01*
X3668Y74666D01*
X5001D01*
X5667Y73999D01*
Y72000D01*
Y73333D02*
X7000Y74666D01*
X3668Y75999D02*
X3001Y76665D01*
Y77998D01*
X3668Y78664D01*
X4334D01*
X5001Y77998D01*
X5667Y78664D01*
X6334D01*
X7000Y77998D01*
Y76665D01*
X6334Y75999D01*
X5667D01*
X5001Y76665D01*
X4334Y75999D01*
X3668D01*
X5001Y76665D02*
Y77998D01*
X33340Y40209D02*
X29342D01*
Y42208D01*
X30008Y42875D01*
X31341D01*
X32008Y42208D01*
Y40209D01*
Y41542D02*
X33340Y42875D01*
X29342Y46873D02*
X30008Y45540D01*
X31341Y44207D01*
X32674D01*
X33340Y44874D01*
Y46207D01*
X32674Y46873D01*
X32008D01*
X31341Y46207D01*
Y44207D01*
X33340Y55000D02*
X29342D01*
Y56999D01*
X30008Y57666D01*
X31341D01*
X32008Y56999D01*
Y55000D01*
Y56333D02*
X33340Y57666D01*
X29342Y61664D02*
Y58999D01*
X31341D01*
X30675Y60332D01*
Y60998D01*
X31341Y61664D01*
X32674D01*
X33340Y60998D01*
Y59665D01*
X32674Y58999D01*
X32815Y72000D02*
X28816D01*
Y73999D01*
X29483Y74666D01*
X30816D01*
X31482Y73999D01*
Y72000D01*
Y73333D02*
X32815Y74666D01*
Y77998D02*
X28816D01*
X30816Y75999D01*
Y78664D01*
X7000Y55309D02*
X3001D01*
Y57308D01*
X3668Y57975D01*
X5001D01*
X5667Y57308D01*
Y55309D01*
Y56642D02*
X7000Y57975D01*
X3668Y59308D02*
X3001Y59974D01*
Y61307D01*
X3668Y61974D01*
X4334D01*
X5001Y61307D01*
Y60641D01*
Y61307D01*
X5667Y61974D01*
X6334D01*
X7000Y61307D01*
Y59974D01*
X6334Y59308D01*
X420726Y84481D02*
Y88480D01*
X422725D01*
X423392Y87814D01*
Y86481D01*
X422725Y85814D01*
X420726D01*
X422059D02*
X423392Y84481D01*
X427390D02*
X424725D01*
X427390Y87147D01*
Y87814D01*
X426724Y88480D01*
X425391D01*
X424725Y87814D01*
X405000Y76000D02*
Y79999D01*
X406999D01*
X407666Y79332D01*
Y77999D01*
X406999Y77333D01*
X405000D01*
X406333D02*
X407666Y76000D01*
X408999D02*
X410332D01*
X409665D01*
Y79999D01*
X408999Y79332D01*
X539666Y152666D02*
Y155332D01*
X538999Y155999D01*
X537666D01*
X537000Y155332D01*
Y152666D01*
X537666Y152000D01*
X538999D01*
X538333Y153333D02*
X539666Y152000D01*
X538999D02*
X539666Y152666D01*
X540999Y152000D02*
X542332D01*
X541665D01*
Y155999D01*
X540999Y155332D01*
X544331D02*
X544997Y155999D01*
X546330D01*
X546997Y155332D01*
Y152666D01*
X546330Y152000D01*
X544997D01*
X544331Y152666D01*
Y155332D01*
X563666Y151930D02*
Y154596D01*
X562999Y155262D01*
X561666D01*
X561000Y154596D01*
Y151930D01*
X561666Y151264D01*
X562999D01*
X562333Y152597D02*
X563666Y151264D01*
X562999D02*
X563666Y151930D01*
X564999D02*
X565665Y151264D01*
X566998D01*
X567664Y151930D01*
Y154596D01*
X566998Y155262D01*
X565665D01*
X564999Y154596D01*
Y153930D01*
X565665Y153263D01*
X567664D01*
X492666Y151930D02*
Y154596D01*
X491999Y155262D01*
X490666D01*
X490000Y154596D01*
Y151930D01*
X490666Y151264D01*
X491999D01*
X491333Y152597D02*
X492666Y151264D01*
X491999D02*
X492666Y151930D01*
X493999Y154596D02*
X494665Y155262D01*
X495998D01*
X496664Y154596D01*
Y153930D01*
X495998Y153263D01*
X496664Y152597D01*
Y151930D01*
X495998Y151264D01*
X494665D01*
X493999Y151930D01*
Y152597D01*
X494665Y153263D01*
X493999Y153930D01*
Y154596D01*
X494665Y153263D02*
X495998D01*
X476666Y36946D02*
Y39612D01*
X475999Y40278D01*
X474666D01*
X474000Y39612D01*
Y36946D01*
X474666Y36279D01*
X475999D01*
X475333Y37612D02*
X476666Y36279D01*
X475999D02*
X476666Y36946D01*
X477999Y40278D02*
X480664D01*
Y39612D01*
X477999Y36946D01*
Y36279D01*
X498666Y36946D02*
Y39612D01*
X497999Y40278D01*
X496666D01*
X496000Y39612D01*
Y36946D01*
X496666Y36279D01*
X497999D01*
X497333Y37612D02*
X498666Y36279D01*
X497999D02*
X498666Y36946D01*
X502665Y40278D02*
X501332Y39612D01*
X499999Y38279D01*
Y36946D01*
X500665Y36279D01*
X501998D01*
X502665Y36946D01*
Y37612D01*
X501998Y38279D01*
X499999D01*
X522666Y37666D02*
Y40332D01*
X521999Y40999D01*
X520666D01*
X520000Y40332D01*
Y37666D01*
X520666Y37000D01*
X521999D01*
X521333Y38333D02*
X522666Y37000D01*
X521999D02*
X522666Y37666D01*
X526664Y40999D02*
X523999D01*
Y38999D01*
X525332Y39666D01*
X525998D01*
X526664Y38999D01*
Y37666D01*
X525998Y37000D01*
X524665D01*
X523999Y37666D01*
X547666Y37930D02*
Y40596D01*
X546999Y41263D01*
X545666D01*
X545000Y40596D01*
Y37930D01*
X545666Y37264D01*
X546999D01*
X546333Y38597D02*
X547666Y37264D01*
X546999D02*
X547666Y37930D01*
X550998Y37264D02*
Y41263D01*
X548999Y39263D01*
X551664D01*
X515916Y151930D02*
Y154596D01*
X515249Y155262D01*
X513916D01*
X513250Y154596D01*
Y151930D01*
X513916Y151264D01*
X515249D01*
X514583Y152597D02*
X515916Y151264D01*
X515249D02*
X515916Y151930D01*
X517249Y154596D02*
X517915Y155262D01*
X519248D01*
X519914Y154596D01*
Y153930D01*
X519248Y153263D01*
X518582D01*
X519248D01*
X519914Y152597D01*
Y151930D01*
X519248Y151264D01*
X517915D01*
X517249Y151930D01*
X263410Y90930D02*
Y93596D01*
X262743Y94262D01*
X261411D01*
X260744Y93596D01*
Y90930D01*
X261411Y90264D01*
X262743D01*
X262077Y91597D02*
X263410Y90264D01*
X262743D02*
X263410Y90930D01*
X267409Y90264D02*
X264743D01*
X267409Y92930D01*
Y93596D01*
X266742Y94262D01*
X265409D01*
X264743Y93596D01*
X254666Y36666D02*
Y39332D01*
X253999Y39999D01*
X252666D01*
X252000Y39332D01*
Y36666D01*
X252666Y36000D01*
X253999D01*
X253333Y37333D02*
X254666Y36000D01*
X253999D02*
X254666Y36666D01*
X258664Y36000D02*
X255999D01*
X258664Y38666D01*
Y39332D01*
X257998Y39999D01*
X256665D01*
X255999Y39332D01*
X282666Y90666D02*
Y93332D01*
X281999Y93999D01*
X280666D01*
X280000Y93332D01*
Y90666D01*
X280666Y90000D01*
X281999D01*
X281333Y91333D02*
X282666Y90000D01*
X281999D02*
X282666Y90666D01*
X283999Y90000D02*
X285332D01*
X284665D01*
Y93999D01*
X283999Y93332D01*
X274079Y36666D02*
Y39332D01*
X273413Y39999D01*
X272080D01*
X271413Y39332D01*
Y36666D01*
X272080Y36000D01*
X273413D01*
X272746Y37333D02*
X274079Y36000D01*
X273413D02*
X274079Y36666D01*
X275412Y36000D02*
X276745D01*
X276079D01*
Y39999D01*
X275412Y39332D01*
X442200Y145390D02*
Y149389D01*
X444199D01*
X444866Y148722D01*
Y147389D01*
X444199Y146723D01*
X442200D01*
X446199Y145390D02*
X447532D01*
X446865D01*
Y149389D01*
X446199Y148722D01*
X452197Y149389D02*
X450864Y148722D01*
X449531Y147389D01*
Y146056D01*
X450197Y145390D01*
X451530D01*
X452197Y146056D01*
Y146723D01*
X451530Y147389D01*
X449531D01*
X398000Y168000D02*
Y171999D01*
X399999D01*
X400666Y171332D01*
Y169999D01*
X399999Y169333D01*
X398000D01*
X401999Y168000D02*
X403332D01*
X402665D01*
Y171999D01*
X401999Y171332D01*
X407997Y171999D02*
X405331D01*
Y169999D01*
X406664Y170666D01*
X407330D01*
X407997Y169999D01*
Y168667D01*
X407330Y168000D01*
X405997D01*
X405331Y168667D01*
X376000Y34000D02*
Y37999D01*
X377999D01*
X378666Y37332D01*
Y35999D01*
X377999Y35333D01*
X376000D01*
X379999Y34000D02*
X381332D01*
X380665D01*
Y37999D01*
X379999Y37332D01*
X383331Y34666D02*
X383997Y34000D01*
X385330D01*
X385997Y34666D01*
Y37332D01*
X385330Y37999D01*
X383997D01*
X383331Y37332D01*
Y36666D01*
X383997Y35999D01*
X385997D01*
X524814Y168000D02*
Y171999D01*
X526813D01*
X527480Y171332D01*
Y169999D01*
X526813Y169333D01*
X524814D01*
X528813Y168000D02*
X530146D01*
X529479D01*
Y171999D01*
X528813Y171332D01*
X532145D02*
X532811Y171999D01*
X534144D01*
X534811Y171332D01*
Y170666D01*
X534144Y169999D01*
X533478D01*
X534144D01*
X534811Y169333D01*
Y168667D01*
X534144Y168000D01*
X532811D01*
X532145Y168667D01*
X548000Y168000D02*
Y171999D01*
X549999D01*
X550666Y171332D01*
Y169999D01*
X549999Y169333D01*
X548000D01*
X551999Y168000D02*
X553332D01*
X552665D01*
Y171999D01*
X551999Y171332D01*
X557997Y168000D02*
X555331D01*
X557997Y170666D01*
Y171332D01*
X557330Y171999D01*
X555997D01*
X555331Y171332D01*
X477887Y168000D02*
Y171999D01*
X479886D01*
X480553Y171332D01*
Y169999D01*
X479886Y169333D01*
X477887D01*
X481885Y168000D02*
X483218D01*
X482552D01*
Y171999D01*
X481885Y171332D01*
X485218Y168000D02*
X486551D01*
X485884D01*
Y171999D01*
X485218Y171332D01*
X496000Y9000D02*
Y12999D01*
X497999D01*
X498666Y12332D01*
Y10999D01*
X497999Y10333D01*
X496000D01*
X499999Y9000D02*
X501332D01*
X500665D01*
Y12999D01*
X499999Y12332D01*
X503331D02*
X503997Y12999D01*
X505330D01*
X505997Y12332D01*
Y9667D01*
X505330Y9000D01*
X503997D01*
X503331Y9667D01*
Y12332D01*
X520000Y8000D02*
Y11999D01*
X521999D01*
X522666Y11332D01*
Y9999D01*
X521999Y9333D01*
X520000D01*
X523999Y8666D02*
X524665Y8000D01*
X525998D01*
X526664Y8666D01*
Y11332D01*
X525998Y11999D01*
X524665D01*
X523999Y11332D01*
Y10666D01*
X524665Y9999D01*
X526664D01*
X544000Y8000D02*
Y11999D01*
X545999D01*
X546666Y11332D01*
Y9999D01*
X545999Y9333D01*
X544000D01*
X547999Y11332D02*
X548665Y11999D01*
X549998D01*
X550665Y11332D01*
Y10666D01*
X549998Y9999D01*
X550665Y9333D01*
Y8666D01*
X549998Y8000D01*
X548665D01*
X547999Y8666D01*
Y9333D01*
X548665Y9999D01*
X547999Y10666D01*
Y11332D01*
X548665Y9999D02*
X549998D01*
X502000Y168000D02*
Y171999D01*
X503999D01*
X504666Y171332D01*
Y169999D01*
X503999Y169333D01*
X502000D01*
X505999Y171999D02*
X508665D01*
Y171332D01*
X505999Y168667D01*
Y168000D01*
X414000D02*
Y171999D01*
X415999D01*
X416666Y171332D01*
Y169999D01*
X415999Y169333D01*
X414000D01*
X420665Y171999D02*
X419332Y171332D01*
X417999Y169999D01*
Y168667D01*
X418665Y168000D01*
X419998D01*
X420665Y168667D01*
Y169333D01*
X419998Y169999D01*
X417999D01*
X240000Y159000D02*
Y162999D01*
X241999D01*
X242666Y162332D01*
Y160999D01*
X241999Y160333D01*
X240000D01*
X246665Y162999D02*
X243999D01*
Y160999D01*
X245332Y161666D01*
X245998D01*
X246665Y160999D01*
Y159667D01*
X245998Y159000D01*
X244665D01*
X243999Y159667D01*
X239625Y14014D02*
Y18012D01*
X241624D01*
X242291Y17346D01*
Y16013D01*
X241624Y15347D01*
X239625D01*
X246289Y18012D02*
X243624D01*
Y16013D01*
X244957Y16680D01*
X245623D01*
X246289Y16013D01*
Y14680D01*
X245623Y14014D01*
X244290D01*
X243624Y14680D01*
X425000Y57000D02*
Y60999D01*
X426999D01*
X427666Y60332D01*
Y58999D01*
X426999Y58333D01*
X425000D01*
X430998Y57000D02*
Y60999D01*
X428999Y58999D01*
X431665D01*
X563189Y77000D02*
Y80999D01*
X565188D01*
X565855Y80332D01*
Y78999D01*
X565188Y78333D01*
X563189D01*
X567188Y80332D02*
X567854Y80999D01*
X569187D01*
X569853Y80332D01*
Y79666D01*
X569187Y78999D01*
X568521D01*
X569187D01*
X569853Y78333D01*
Y77666D01*
X569187Y77000D01*
X567854D01*
X567188Y77666D01*
X7000Y45014D02*
Y49013D01*
X8999D01*
X9666Y48346D01*
Y47013D01*
X8999Y46347D01*
X7000D01*
X13665Y45014D02*
X10999D01*
X13665Y47680D01*
Y48346D01*
X12998Y49013D01*
X11665D01*
X10999Y48346D01*
X9000Y171000D02*
Y174999D01*
X10999D01*
X11666Y174332D01*
Y172999D01*
X10999Y172333D01*
X9000D01*
X12999Y171000D02*
X14332D01*
X13665D01*
Y174999D01*
X12999Y174332D01*
X133500Y58262D02*
Y54264D01*
Y55597D01*
X136166Y58262D01*
X134167Y56263D01*
X136166Y54264D01*
X137499Y57596D02*
X138165Y58262D01*
X139498D01*
X140164Y57596D01*
Y56930D01*
X139498Y56263D01*
X138832D01*
X139498D01*
X140164Y55597D01*
Y54930D01*
X139498Y54264D01*
X138165D01*
X137499Y54930D01*
X169000Y139778D02*
Y135780D01*
Y137112D01*
X171666Y139778D01*
X169667Y137779D01*
X171666Y135780D01*
X175664D02*
X172999D01*
X175664Y138445D01*
Y139112D01*
X174998Y139778D01*
X173665D01*
X172999Y139112D01*
X224666Y114332D02*
X223999Y114999D01*
X222666D01*
X222000Y114332D01*
Y111667D01*
X222666Y111000D01*
X223999D01*
X224666Y111667D01*
X225999Y114332D02*
X226665Y114999D01*
X227998D01*
X228664Y114332D01*
Y113666D01*
X227998Y112999D01*
X227332D01*
X227998D01*
X228664Y112333D01*
Y111667D01*
X227998Y111000D01*
X226665D01*
X225999Y111667D01*
X232663Y111000D02*
X229997D01*
X232663Y113666D01*
Y114332D01*
X231997Y114999D01*
X230664D01*
X229997Y114332D01*
X224666Y69691D02*
X223999Y70357D01*
X222666D01*
X222000Y69691D01*
Y67025D01*
X222666Y66358D01*
X223999D01*
X224666Y67025D01*
X225999Y69691D02*
X226665Y70357D01*
X227998D01*
X228664Y69691D01*
Y69024D01*
X227998Y68358D01*
X227332D01*
X227998D01*
X228664Y67691D01*
Y67025D01*
X227998Y66358D01*
X226665D01*
X225999Y67025D01*
X232663Y66358D02*
X229997D01*
X232663Y69024D01*
Y69691D01*
X231997Y70357D01*
X230664D01*
X229997Y69691D01*
X299666Y92860D02*
X298999Y93526D01*
X297666D01*
X297000Y92860D01*
Y90194D01*
X297666Y89528D01*
X298999D01*
X299666Y90194D01*
X300999Y92860D02*
X301665Y93526D01*
X302998D01*
X303664Y92860D01*
Y92193D01*
X302998Y91527D01*
X302332D01*
X302998D01*
X303664Y90860D01*
Y90194D01*
X302998Y89528D01*
X301665D01*
X300999Y90194D01*
X304997Y89528D02*
X306330D01*
X305664D01*
Y93526D01*
X304997Y92860D01*
X362666Y43541D02*
X361999Y44207D01*
X360666D01*
X360000Y43541D01*
Y40875D01*
X360666Y40209D01*
X361999D01*
X362666Y40875D01*
X363999Y43541D02*
X364665Y44207D01*
X365998D01*
X366665Y43541D01*
Y42875D01*
X365998Y42208D01*
X365332D01*
X365998D01*
X366665Y41542D01*
Y40875D01*
X365998Y40209D01*
X364665D01*
X363999Y40875D01*
X367997Y40209D02*
X369330D01*
X368664D01*
Y44207D01*
X367997Y43541D01*
X362666Y150332D02*
X361999Y150999D01*
X360666D01*
X360000Y150332D01*
Y147667D01*
X360666Y147000D01*
X361999D01*
X362666Y147667D01*
X363999Y150332D02*
X364665Y150999D01*
X365998D01*
X366665Y150332D01*
Y149666D01*
X365998Y148999D01*
X365332D01*
X365998D01*
X366665Y148333D01*
Y147667D01*
X365998Y147000D01*
X364665D01*
X363999Y147667D01*
X367997Y150332D02*
X368664Y150999D01*
X369997D01*
X370663Y150332D01*
Y147667D01*
X369997Y147000D01*
X368664D01*
X367997Y147667D01*
Y150332D01*
X169000Y76332D02*
X168334Y76999D01*
X167001D01*
X166335Y76332D01*
Y73666D01*
X167001Y73000D01*
X168334D01*
X169000Y73666D01*
X172999Y73000D02*
X170333D01*
X172999Y75666D01*
Y76332D01*
X172333Y76999D01*
X171000D01*
X170333Y76332D01*
X174332Y73666D02*
X174998Y73000D01*
X176331D01*
X176998Y73666D01*
Y76332D01*
X176331Y76999D01*
X174998D01*
X174332Y76332D01*
Y75666D01*
X174998Y74999D01*
X176998D01*
X158666Y121431D02*
X157999Y122097D01*
X156667D01*
X156000Y121431D01*
Y118765D01*
X156667Y118098D01*
X157999D01*
X158666Y118765D01*
X162664Y118098D02*
X159999D01*
X162664Y120764D01*
Y121431D01*
X161998Y122097D01*
X160665D01*
X159999Y121431D01*
X163997D02*
X164664Y122097D01*
X165997D01*
X166663Y121431D01*
Y120764D01*
X165997Y120098D01*
X166663Y119431D01*
Y118765D01*
X165997Y118098D01*
X164664D01*
X163997Y118765D01*
Y119431D01*
X164664Y120098D01*
X163997Y120764D01*
Y121431D01*
X164664Y120098D02*
X165997D01*
X64611Y118179D02*
X63944Y118845D01*
X62611D01*
X61945Y118179D01*
Y115513D01*
X62611Y114847D01*
X63944D01*
X64611Y115513D01*
X68609Y114847D02*
X65944D01*
X68609Y117512D01*
Y118179D01*
X67943Y118845D01*
X66610D01*
X65944Y118179D01*
X69942Y118845D02*
X72608D01*
Y118179D01*
X69942Y115513D01*
Y114847D01*
X78666Y152332D02*
X77999Y152999D01*
X76666D01*
X76000Y152332D01*
Y149667D01*
X76666Y149000D01*
X77999D01*
X78666Y149667D01*
X82665Y149000D02*
X79999D01*
X82665Y151666D01*
Y152332D01*
X81998Y152999D01*
X80665D01*
X79999Y152332D01*
X86663Y152999D02*
X85330Y152332D01*
X83997Y150999D01*
Y149667D01*
X84664Y149000D01*
X85997D01*
X86663Y149667D01*
Y150333D01*
X85997Y150999D01*
X83997D01*
X398211Y8332D02*
X397545Y8999D01*
X396212D01*
X395545Y8332D01*
Y5666D01*
X396212Y5000D01*
X397545D01*
X398211Y5666D01*
X402210Y5000D02*
X399544D01*
X402210Y7666D01*
Y8332D01*
X401543Y8999D01*
X400210D01*
X399544Y8332D01*
X406209Y8999D02*
X403543D01*
Y6999D01*
X404876Y7666D01*
X405542D01*
X406209Y6999D01*
Y5666D01*
X405542Y5000D01*
X404209D01*
X403543Y5666D01*
X456666Y13332D02*
X455999Y13999D01*
X454666D01*
X454000Y13332D01*
Y10667D01*
X454666Y10000D01*
X455999D01*
X456666Y10667D01*
X460665Y10000D02*
X457999D01*
X460665Y12666D01*
Y13332D01*
X459998Y13999D01*
X458665D01*
X457999Y13332D01*
X463997Y10000D02*
Y13999D01*
X461997Y11999D01*
X464663D01*
X441416Y14225D02*
X440749Y14891D01*
X439417D01*
X438750Y14225D01*
Y11559D01*
X439417Y10893D01*
X440749D01*
X441416Y11559D01*
X445414Y10893D02*
X442749D01*
X445414Y13558D01*
Y14225D01*
X444748Y14891D01*
X443415D01*
X442749Y14225D01*
X446747D02*
X447414Y14891D01*
X448747D01*
X449413Y14225D01*
Y13558D01*
X448747Y12892D01*
X448080D01*
X448747D01*
X449413Y12226D01*
Y11559D01*
X448747Y10893D01*
X447414D01*
X446747Y11559D01*
X59166Y102056D02*
X58499Y102722D01*
X57166D01*
X56500Y102056D01*
Y99390D01*
X57166Y98723D01*
X58499D01*
X59166Y99390D01*
X63165Y98723D02*
X60499D01*
X63165Y101389D01*
Y102056D01*
X62498Y102722D01*
X61165D01*
X60499Y102056D01*
X67163Y98723D02*
X64497D01*
X67163Y101389D01*
Y102056D01*
X66497Y102722D01*
X65164D01*
X64497Y102056D01*
X3668Y91666D02*
X3001Y90999D01*
Y89666D01*
X3668Y89000D01*
X6334D01*
X7000Y89666D01*
Y90999D01*
X6334Y91666D01*
X7000Y95665D02*
Y92999D01*
X4334Y95665D01*
X3668D01*
X3001Y94998D01*
Y93665D01*
X3668Y92999D01*
X7000Y96997D02*
Y98330D01*
Y97664D01*
X3001D01*
X3668Y96997D01*
X55134Y165096D02*
X54468Y165762D01*
X53135D01*
X52469Y165096D01*
Y162430D01*
X53135Y161764D01*
X54468D01*
X55134Y162430D01*
X59133Y161764D02*
X56467D01*
X59133Y164430D01*
Y165096D01*
X58467Y165762D01*
X57134D01*
X56467Y165096D01*
X60466D02*
X61132Y165762D01*
X62465D01*
X63132Y165096D01*
Y162430D01*
X62465Y161764D01*
X61132D01*
X60466Y162430D01*
Y165096D01*
X23666Y154596D02*
X22999Y155262D01*
X21666D01*
X21000Y154596D01*
Y151930D01*
X21666Y151264D01*
X22999D01*
X23666Y151930D01*
X24999Y151264D02*
X26332D01*
X25665D01*
Y155262D01*
X24999Y154596D01*
X28331Y151930D02*
X28997Y151264D01*
X30330D01*
X30997Y151930D01*
Y154596D01*
X30330Y155262D01*
X28997D01*
X28331Y154596D01*
Y153930D01*
X28997Y153263D01*
X30997D01*
X64066Y138944D02*
X63399Y139610D01*
X62066D01*
X61400Y138944D01*
Y136278D01*
X62066Y135612D01*
X63399D01*
X64066Y136278D01*
X65399Y135612D02*
X66732D01*
X66065D01*
Y139610D01*
X65399Y138944D01*
X68731D02*
X69397Y139610D01*
X70730D01*
X71397Y138944D01*
Y138277D01*
X70730Y137611D01*
X71397Y136944D01*
Y136278D01*
X70730Y135612D01*
X69397D01*
X68731Y136278D01*
Y136944D01*
X69397Y137611D01*
X68731Y138277D01*
Y138944D01*
X69397Y137611D02*
X70730D01*
X380666Y54332D02*
X379999Y54999D01*
X378666D01*
X378000Y54332D01*
Y51666D01*
X378666Y51000D01*
X379999D01*
X380666Y51666D01*
X381999Y51000D02*
X383332D01*
X382665D01*
Y54999D01*
X381999Y54332D01*
X385331Y54999D02*
X387997D01*
Y54332D01*
X385331Y51666D01*
Y51000D01*
X392666Y32332D02*
X391999Y32999D01*
X390666D01*
X390000Y32332D01*
Y29666D01*
X390666Y29000D01*
X391999D01*
X392666Y29666D01*
X393999Y29000D02*
X395332D01*
X394665D01*
Y32999D01*
X393999Y32332D01*
X399997Y32999D02*
X398664Y32332D01*
X397331Y30999D01*
Y29666D01*
X397997Y29000D01*
X399330D01*
X399997Y29666D01*
Y30333D01*
X399330Y30999D01*
X397331D01*
X314166Y92596D02*
X313499Y93262D01*
X312167D01*
X311500Y92596D01*
Y89930D01*
X312167Y89264D01*
X313499D01*
X314166Y89930D01*
X315499Y89264D02*
X316832D01*
X316165D01*
Y93262D01*
X315499Y92596D01*
X321497Y93262D02*
X318831D01*
Y91263D01*
X320164Y91930D01*
X320830D01*
X321497Y91263D01*
Y89930D01*
X320830Y89264D01*
X319497D01*
X318831Y89930D01*
X296666Y37722D02*
X295999Y38388D01*
X294666D01*
X294000Y37722D01*
Y35056D01*
X294666Y34390D01*
X295999D01*
X296666Y35056D01*
X297999Y34390D02*
X299332D01*
X298665D01*
Y38388D01*
X297999Y37722D01*
X303997Y38388D02*
X301331D01*
Y36389D01*
X302664Y37056D01*
X303330D01*
X303997Y36389D01*
Y35056D01*
X303330Y34390D01*
X301997D01*
X301331Y35056D01*
X133666Y64891D02*
X132999Y65558D01*
X131667D01*
X131000Y64891D01*
Y62226D01*
X131667Y61559D01*
X132999D01*
X133666Y62226D01*
X134999Y61559D02*
X136332D01*
X135665D01*
Y65558D01*
X134999Y64891D01*
X140330Y61559D02*
Y65558D01*
X138331Y63558D01*
X140997D01*
X159666Y59332D02*
X158999Y59999D01*
X157667D01*
X157000Y59332D01*
Y56666D01*
X157667Y56000D01*
X158999D01*
X159666Y56666D01*
X160999Y56000D02*
X162332D01*
X161665D01*
Y59999D01*
X160999Y59332D01*
X164331D02*
X164997Y59999D01*
X166330D01*
X166997Y59332D01*
Y58666D01*
X166330Y57999D01*
X165664D01*
X166330D01*
X166997Y57333D01*
Y56666D01*
X166330Y56000D01*
X164997D01*
X164331Y56666D01*
X124666Y129009D02*
X123999Y129676D01*
X122667D01*
X122000Y129009D01*
Y126344D01*
X122667Y125677D01*
X123999D01*
X124666Y126344D01*
X125999Y125677D02*
X127332D01*
X126665D01*
Y129676D01*
X125999Y129009D01*
X129331Y125677D02*
X130664D01*
X129997D01*
Y129676D01*
X129331Y129009D01*
X75253Y89198D02*
X75920Y89864D01*
Y91197D01*
X75253Y91864D01*
X72588D01*
X71921Y91197D01*
Y89864D01*
X72588Y89198D01*
X71921Y87865D02*
Y86532D01*
Y87199D01*
X75920D01*
X75253Y87865D01*
Y84533D02*
X75920Y83866D01*
Y82534D01*
X75253Y81867D01*
X72588D01*
X71921Y82534D01*
Y83866D01*
X72588Y84533D01*
X75253D01*
X120103Y29061D02*
X119436Y29727D01*
X118104D01*
X117437Y29061D01*
Y26395D01*
X118104Y25728D01*
X119436D01*
X120103Y26395D01*
X121436D02*
X122102Y25728D01*
X123435D01*
X124101Y26395D01*
Y29061D01*
X123435Y29727D01*
X122102D01*
X121436Y29061D01*
Y28394D01*
X122102Y27728D01*
X124101D01*
X63166Y45332D02*
X62499Y45999D01*
X61167D01*
X60500Y45332D01*
Y42666D01*
X61167Y42000D01*
X62499D01*
X63166Y42666D01*
X64499Y45332D02*
X65165Y45999D01*
X66498D01*
X67164Y45332D01*
Y44666D01*
X66498Y43999D01*
X67164Y43333D01*
Y42666D01*
X66498Y42000D01*
X65165D01*
X64499Y42666D01*
Y43333D01*
X65165Y43999D01*
X64499Y44666D01*
Y45332D01*
X65165Y43999D02*
X66498D01*
X452166Y128596D02*
X451499Y129262D01*
X450167D01*
X449500Y128596D01*
Y125930D01*
X450167Y125264D01*
X451499D01*
X452166Y125930D01*
X453499Y129262D02*
X456165D01*
Y128596D01*
X453499Y125930D01*
Y125264D01*
X384481Y79596D02*
X383814Y80263D01*
X382481D01*
X381815Y79596D01*
Y76930D01*
X382481Y76264D01*
X383814D01*
X384481Y76930D01*
X388479Y80263D02*
X387147Y79596D01*
X385814Y78263D01*
Y76930D01*
X386480Y76264D01*
X387813D01*
X388479Y76930D01*
Y77597D01*
X387813Y78263D01*
X385814D01*
X503717Y90123D02*
X503051Y90790D01*
X501718D01*
X501051Y90123D01*
Y87458D01*
X501718Y86791D01*
X503051D01*
X503717Y87458D01*
X507716Y90790D02*
X505050D01*
Y88790D01*
X506383Y89457D01*
X507049D01*
X507716Y88790D01*
Y87458D01*
X507049Y86791D01*
X505716D01*
X505050Y87458D01*
X395666Y79596D02*
X394999Y80263D01*
X393666D01*
X393000Y79596D01*
Y76930D01*
X393666Y76264D01*
X394999D01*
X395666Y76930D01*
X396999Y79596D02*
X397665Y80263D01*
X398998D01*
X399664Y79596D01*
Y78930D01*
X398998Y78263D01*
X398332D01*
X398998D01*
X399664Y77597D01*
Y76930D01*
X398998Y76264D01*
X397665D01*
X396999Y76930D01*
X357666Y126332D02*
X356999Y126999D01*
X355666D01*
X355000Y126332D01*
Y123667D01*
X355666Y123000D01*
X356999D01*
X357666Y123667D01*
X361665Y123000D02*
X358999D01*
X361665Y125666D01*
Y126332D01*
X360998Y126999D01*
X359665D01*
X358999Y126332D01*
X431693Y128332D02*
X431027Y128999D01*
X429694D01*
X429028Y128332D01*
Y125666D01*
X429694Y125000D01*
X431027D01*
X431693Y125666D01*
X433026Y125000D02*
X434359D01*
X433693D01*
Y128999D01*
X433026Y128332D01*
D13*
X413311Y118043D02*
X415279Y116075D01*
Y92453D02*
Y116075D01*
X413311Y90484D02*
X415279Y92453D01*
X389689Y118043D02*
X413311D01*
X387720Y116075D02*
X389689Y118043D01*
Y90484D02*
X413311D01*
X387720Y92453D02*
Y116075D01*
Y92453D02*
X389689Y90484D01*
X565832Y97262D02*
X564166Y96429D01*
X562500Y94763D01*
Y93097D01*
X563333Y92264D01*
X564999D01*
X565832Y93097D01*
Y93930D01*
X564999Y94763D01*
X562500D01*
X565832Y87262D02*
X562500D01*
Y84763D01*
X564166Y85596D01*
X564999D01*
X565832Y84763D01*
Y83097D01*
X564999Y82264D01*
X563333D01*
X562500Y83097D01*
X529832Y92264D02*
X526500D01*
X529832Y95596D01*
Y96429D01*
X528999Y97262D01*
X527333D01*
X526500Y96429D01*
X528500Y82264D02*
X530166D01*
X529333D01*
Y87262D01*
X528500Y86429D01*
D14*
X327666Y32779D02*
X327000Y33446D01*
Y34112D01*
X327666Y34779D01*
X328666Y32779D02*
X329666D01*
X329999Y33113D01*
X329666Y33446D01*
X328999D01*
X328666Y33779D01*
X328999Y34112D01*
X329999D01*
X330665D02*
Y33113D01*
X330999Y32779D01*
X331332Y33113D01*
X331665Y32779D01*
X331998Y33113D01*
Y34112D01*
X332998D02*
X333664D01*
X333998Y33779D01*
Y32779D01*
X332998D01*
X332665Y33113D01*
X332998Y33446D01*
X333998D01*
X334664Y32779D02*
X335331D01*
X334997D01*
Y34779D01*
X334664D01*
X336330Y32779D02*
X336997D01*
X336664D01*
Y34779D01*
X336330D01*
X338330Y32779D02*
X338996D01*
X339329Y33113D01*
Y33779D01*
X338996Y34112D01*
X338330D01*
X337996Y33779D01*
Y33113D01*
X338330Y32779D01*
X339996Y34112D02*
Y33113D01*
X340329Y32779D01*
X340662Y33113D01*
X340996Y32779D01*
X341329Y33113D01*
Y34112D01*
X341995Y32779D02*
X342662Y33446D01*
Y34112D01*
X341995Y34779D01*
X345661Y33446D02*
X346993D01*
X345661Y34112D02*
X346993D01*
X349659Y34446D02*
X349992Y34779D01*
X350659D01*
X350992Y34446D01*
Y34112D01*
X350326Y33446D01*
Y33113D02*
Y32779D01*
X323550Y33479D02*
X324050D01*
X324300Y33229D01*
Y32480D01*
X323550D01*
X323300Y32730D01*
X323550Y32979D01*
X324300D01*
X324799Y32480D02*
X325299D01*
X325049D01*
Y33479D01*
X324799D01*
X326049D02*
Y32480D01*
Y32979D01*
X326299Y33229D01*
X326549Y33479D01*
X326799D01*
X321500Y34612D02*
X322166Y33279D01*
X322833Y34612D01*
X19500Y103000D02*
Y104000D01*
X19167Y104333D01*
X18834Y104000D01*
Y103333D01*
X18500Y103000D01*
X18167Y103333D01*
Y104333D01*
Y104999D02*
X19167D01*
X19500Y105333D01*
X19167Y105666D01*
X19500Y105999D01*
X19167Y106332D01*
X18167D01*
Y107332D02*
Y107998D01*
X18500Y108332D01*
X19500D01*
Y107332D01*
X19167Y106999D01*
X18834Y107332D01*
Y108332D01*
X19500Y108998D02*
Y109664D01*
Y109331D01*
X17501D01*
Y108998D01*
X19500Y110664D02*
Y111331D01*
Y110997D01*
X17501D01*
Y110664D01*
X19500Y112663D02*
Y113330D01*
X19167Y113663D01*
X18500D01*
X18167Y113330D01*
Y112663D01*
X18500Y112330D01*
X19167D01*
X19500Y112663D01*
X18167Y114330D02*
X19167D01*
X19500Y114663D01*
X19167Y114996D01*
X19500Y115329D01*
X19167Y115663D01*
X18167D01*
X19500Y116329D02*
X19167D01*
Y116662D01*
X19500D01*
Y116329D01*
Y117995D02*
Y118662D01*
Y118328D01*
X17501D01*
Y117995D01*
X18167Y119994D02*
Y120661D01*
X18500Y120994D01*
X19500D01*
Y119994D01*
X19167Y119661D01*
X18834Y119994D01*
Y120994D01*
X17501Y122994D02*
X19500D01*
Y121994D01*
X19167Y121661D01*
X18500D01*
X18167Y121994D01*
Y122994D01*
X19500Y124660D02*
Y123993D01*
X19167Y123660D01*
X18500D01*
X18167Y123993D01*
Y124660D01*
X18500Y124993D01*
X18834D01*
Y123660D01*
X19500Y125659D02*
X18167D01*
Y126659D01*
X18500Y126992D01*
X19500D01*
X18834Y129658D02*
Y130991D01*
X18167Y129658D02*
Y130991D01*
X17834Y133657D02*
X17501Y133990D01*
Y134656D01*
X17834Y134990D01*
X19167D01*
X19500Y134656D01*
Y133990D01*
X19167Y133657D01*
X17834D01*
X541700Y39300D02*
X540367D01*
X539701Y39966D01*
X540367Y40633D01*
X541700D01*
X540700D01*
Y39300D01*
X541700Y41633D02*
X540034D01*
X540700D01*
Y41299D01*
Y41966D01*
Y41633D01*
X540034D01*
X539701Y41966D01*
X540367Y42965D02*
X541700D01*
X541034D01*
X540700Y43299D01*
X540367Y43632D01*
Y43965D01*
X541700Y44965D02*
Y45631D01*
Y45298D01*
X540367D01*
Y44965D01*
Y47964D02*
Y46964D01*
X540700Y46631D01*
X541367D01*
X541700Y46964D01*
Y47964D01*
X540367Y48963D02*
Y49630D01*
X540700Y49963D01*
X541700D01*
Y48963D01*
X541367Y48630D01*
X541034Y48963D01*
Y49963D01*
X541700Y50630D02*
X540367D01*
Y51629D01*
X540700Y51963D01*
X541700D01*
Y54962D02*
Y55628D01*
X541367Y55961D01*
X540700D01*
X540367Y55628D01*
Y54962D01*
X540700Y54628D01*
X541367D01*
X541700Y54962D01*
X540367Y56628D02*
X541700D01*
X541034D01*
X540700Y56961D01*
X540367Y57294D01*
Y57627D01*
X539701Y61959D02*
Y60626D01*
X541700D01*
Y61959D01*
X540700Y60626D02*
Y61293D01*
X540367Y62626D02*
X541367D01*
X541700Y62959D01*
Y63959D01*
X540367D01*
Y64625D02*
X541700D01*
X541034D01*
X540700Y64958D01*
X540367Y65292D01*
Y65625D01*
X541700Y66958D02*
Y67624D01*
X541367Y67957D01*
X540700D01*
X540367Y67624D01*
Y66958D01*
X540700Y66624D01*
X541367D01*
X541700Y66958D01*
X542366Y68624D02*
X540367D01*
Y69624D01*
X540700Y69957D01*
X541367D01*
X541700Y69624D01*
Y68624D01*
Y71623D02*
Y70956D01*
X541367Y70623D01*
X540700D01*
X540367Y70956D01*
Y71623D01*
X540700Y71956D01*
X541034D01*
Y70623D01*
X540367Y72956D02*
Y73622D01*
X540700Y73955D01*
X541700D01*
Y72956D01*
X541367Y72623D01*
X541034Y72956D01*
Y73955D01*
X541700Y74622D02*
X540367D01*
Y75621D01*
X540700Y75955D01*
X541700D01*
X540034Y76621D02*
X539701Y76954D01*
Y77621D01*
X540034Y77954D01*
X540367D01*
X541034Y77288D01*
X541367D02*
X541700D01*
M02*
