M48
;Layer_Color=9474304
;FILE_FORMAT=2:5
INCH,LZ
;TYPE=PLATED
T1F00S00C0.01500
T2F00S00C0.02756
T3F00S00C0.03300
T4F00S00C0.03543
T5F00S00C0.03550
T6F00S00C0.04331
%
T01
X00125Y0055309
X00235Y006131
X00375Y0061559
X00505Y0055309
X00485Y0051012
X00475Y004639
X0057Y004
Y0035264
X0076174
X0088625Y0030959
X00825Y0014014
X0105Y001325
X0136965Y0017067
Y0025728
X0136161Y0035193
X0128591
X01505Y003439
X0126563Y0085201
X0133Y0116114
X009224Y0105307
X006385Y0111
X00525Y0125264
X00465Y0125701
X0041Y0120413
X00615Y0146264
X00605Y0083965
X00505Y0076264
X00235Y0077809
X007Y005506
X00745Y0053264
X008775Y0060177
X01685Y0063153
Y0069453
X0192Y0067264
X02085Y0066358
X0218799Y0068264
X02095Y0085114
X02105Y0090264
X0204976Y0098264
X0206685Y0113264
X021865Y0112264
X024275Y0114095
X024Y0145014
X02755Y0141514
X027148Y0107217
X02695Y0090264
X02752Y0091864
X03095Y0099139
X03035Y0052264
X029225Y003
X0266953Y0037619
X0256953Y0038406
X02515Y0029524
X02485Y0045014
X02435Y0062264
X0239625Y0080264
X0233375
X01905Y0083264
X01895Y0089264
X01835Y0095701
X01685
X018025Y012175
X01635Y0144441
Y0153102
X01825Y0017264
X02135Y0033728
X02675Y0011264
X03235Y0025004
X03165Y0035264
X03645Y0050264
X0370142Y0073264
X03855Y0070809
Y0064559
X03965
X03966Y0081264
X04014Y0079825
X04115Y0077845
X04145Y0082102
X04185Y0087433
X0427927Y008871
X04275Y0096264
X04325Y0094226
X0436374Y0080264
X0436695Y0075264
Y007
X04555Y0051012
X04435Y0019264
X0384669Y0037264
X0383324Y0089257
X03735Y0102017
Y0108264
X0368089Y0107
X0368Y010048
X03585Y0111014
Y0117264
X03708Y0120164
X03825Y0121264
X0391769Y0105427
X0410358Y0114239
X04335Y0113122
X04325Y0119264
X04385
X0448863
X0453818Y0106752
X03405Y0103279
X03355Y0097553
X0330047Y0105427
X0330961Y01335
X0354587Y0138264
X0488012Y0131004
X0488137Y0120004
X0510326Y0120264
Y0131264
X0534939
X0535064Y0120264
X0559112
X0558939Y0131264
X051952Y0105327
X05195Y0088311
X051325
X051952Y0071284
X0528876Y0059524
X0528814Y0048783
X0553064
X0552689Y0059784
X050425Y0059524
Y0048524
X0482
Y0059524
X04935Y0097264
X0242331Y0157264
X0153921Y0161764
T02
X00675Y0013264
Y0033264
X00975Y0017067
X01175
X0103579Y0161764
X0083579
T03
X0039626Y0094764
X00475
X00505Y014539
Y0153264
X03825Y0150264
Y014239
X039461Y0046264
X0402484
X04145Y0023138
Y0015264
X03445Y0043138
Y0051012
T04
X00105Y0018264
Y0028264
Y0038264
X00125Y0145014
Y0155014
X02045Y0012264
X02145
X02245
X02535Y0017067
X02635
X02735
X02835
X02935
X03035
X03135
X03235
X03335
X03435
X03535
X03635
X03815Y0017264
Y0027264
X04185Y0038264
Y0048264
Y0058264
Y0068264
X04035Y0151264
X04585Y0149264
Y0139264
X05365Y0094264
Y0084264
X05465
Y0094264
X05565
Y0084264
X0559314Y0018524
X0549314
X0535126Y0018264
X0525126
X05105
X05005
X0488137
X0478137
X0482225Y0161264
X0492225
X050545
X051545
X0528689
X0538689
X0552315
X0562315
X04685
X04585
X04485
X04385
X04285
X04185
X04035
X03635Y0161764
X03535
X03435
X03335
X03235
X03135
X03035
X02935
X02835
X02735
X02635
X02535
X02245Y0166264
X02145
X02045
X00125Y0165014
T05
X038935Y001
X0429783Y0015264
X0437Y0008264
X0059Y017
X0043
T06
X02995Y0043264
X03095
X03055Y0121843
Y0131843
Y0141842
X03195Y0043264
X04395Y0033264
X04495
X04595
M30
