G04*
G04 #@! TF.GenerationSoftware,Altium Limited,Altium Designer,18.1.9 (240)*
G04*
G04 Layer_Color=255*
%FSLAX25Y25*%
%MOIN*%
G70*
G01*
G75*
%ADD61C,0.06000*%
%ADD62C,0.06693*%
%ADD63R,0.06693X0.06693*%
%ADD64R,0.05906X0.05906*%
%ADD65C,0.05906*%
%ADD66R,0.05906X0.05906*%
%ADD67R,0.06693X0.06693*%
%ADD68C,0.04724*%
D61*
X59000Y170000D02*
D03*
X43000D02*
D03*
X389350Y10000D02*
D03*
X437000Y8264D02*
D03*
X429783Y15264D02*
D03*
D62*
X459500Y33264D02*
D03*
X449500D02*
D03*
X319500Y43264D02*
D03*
X309500D02*
D03*
X305500Y121843D02*
D03*
Y131843D02*
D03*
D63*
X439500Y33264D02*
D03*
X299500Y43264D02*
D03*
D64*
X536500Y84264D02*
D03*
X47500Y94764D02*
D03*
X224500Y166264D02*
D03*
X204500Y12264D02*
D03*
X488137Y18264D02*
D03*
X510500D02*
D03*
X535126D02*
D03*
X559314Y18524D02*
D03*
X528689Y161264D02*
D03*
X552315D02*
D03*
X482225D02*
D03*
X505450D02*
D03*
X394610Y46264D02*
D03*
X468500Y161264D02*
D03*
X363500Y161764D02*
D03*
Y17067D02*
D03*
D65*
X536500Y94264D02*
D03*
X546500Y84264D02*
D03*
Y94264D02*
D03*
X556500Y84264D02*
D03*
Y94264D02*
D03*
X344500Y51012D02*
D03*
X12500Y145014D02*
D03*
Y155014D02*
D03*
X50500Y145390D02*
D03*
X39626Y94764D02*
D03*
X10500Y18264D02*
D03*
Y28264D02*
D03*
X204500Y166264D02*
D03*
X214500D02*
D03*
X224500Y12264D02*
D03*
X214500D02*
D03*
X478137Y18264D02*
D03*
X500500D02*
D03*
X525126D02*
D03*
X549314Y18524D02*
D03*
X538689Y161264D02*
D03*
X562315D02*
D03*
X492225D02*
D03*
X515450D02*
D03*
X381500Y17264D02*
D03*
X414500Y23138D02*
D03*
X402484Y46264D02*
D03*
X458500Y149264D02*
D03*
X418500Y161264D02*
D03*
X428500D02*
D03*
X438500D02*
D03*
X448500D02*
D03*
X458500D02*
D03*
X403500Y151264D02*
D03*
X382500Y142390D02*
D03*
X418500Y58264D02*
D03*
Y48264D02*
D03*
Y38264D02*
D03*
X353500Y161764D02*
D03*
X343500D02*
D03*
X333500D02*
D03*
X323500D02*
D03*
X313500D02*
D03*
X303500D02*
D03*
X293500D02*
D03*
X283500D02*
D03*
X273500D02*
D03*
X263500D02*
D03*
X253500D02*
D03*
X353500Y17067D02*
D03*
X343500D02*
D03*
X333500D02*
D03*
X323500D02*
D03*
X313500D02*
D03*
X303500D02*
D03*
X293500D02*
D03*
X283500D02*
D03*
X273500D02*
D03*
X263500D02*
D03*
X253500D02*
D03*
D66*
X344500Y43138D02*
D03*
X12500Y165014D02*
D03*
X50500Y153264D02*
D03*
X10500Y38264D02*
D03*
X381500Y27264D02*
D03*
X414500Y15264D02*
D03*
X458500Y139264D02*
D03*
X403500Y161264D02*
D03*
X382500Y150264D02*
D03*
X418500Y68264D02*
D03*
D67*
X305500Y141842D02*
D03*
D68*
X67500Y33264D02*
D03*
Y13264D02*
D03*
X83579Y161764D02*
D03*
X103579D02*
D03*
X97500Y17067D02*
D03*
X117500D02*
D03*
M02*
