G04*
G04 #@! TF.GenerationSoftware,Altium Limited,Altium Designer,18.1.9 (240)*
G04*
G04 Layer_Physical_Order=2*
G04 Layer_Color=16711680*
%FSLAX25Y25*%
%MOIN*%
G70*
G01*
G75*
%ADD15C,0.05000*%
%ADD55C,0.02500*%
%ADD56C,0.03000*%
%ADD57C,0.02000*%
%ADD58C,0.00950*%
%ADD61C,0.06000*%
%ADD62C,0.06693*%
%ADD63R,0.06693X0.06693*%
%ADD64R,0.05906X0.05906*%
%ADD65C,0.05906*%
%ADD66R,0.05906X0.05906*%
%ADD67R,0.06693X0.06693*%
%ADD68C,0.04724*%
%ADD69C,0.03000*%
%ADD70C,0.10000*%
G36*
X38696Y171264D02*
X39066Y170764D01*
X38965Y170000D01*
X39103Y168956D01*
X39506Y167983D01*
X40147Y167147D01*
X40983Y166506D01*
X41956Y166103D01*
X43000Y165965D01*
X44044Y166103D01*
X45017Y166506D01*
X45853Y167147D01*
X46494Y167983D01*
X46897Y168956D01*
X47034Y170000D01*
X46934Y170764D01*
X47304Y171264D01*
X54696D01*
X55066Y170764D01*
X54966Y170000D01*
X55103Y168956D01*
X55506Y167983D01*
X56147Y167147D01*
X56983Y166506D01*
X57956Y166103D01*
X59000Y165965D01*
X60044Y166103D01*
X61017Y166506D01*
X61853Y167147D01*
X62494Y167983D01*
X62897Y168956D01*
X63034Y170000D01*
X62934Y170764D01*
X63304Y171264D01*
X287500Y171264D01*
Y163743D01*
X287000Y163643D01*
X286953Y163757D01*
X286319Y164583D01*
X285493Y165217D01*
X284532Y165615D01*
X283500Y165751D01*
X282468Y165615D01*
X281507Y165217D01*
X280681Y164583D01*
X280047Y163757D01*
X279649Y162796D01*
X279513Y161764D01*
X279649Y160732D01*
X280047Y159770D01*
X280681Y158945D01*
X281507Y158311D01*
X282468Y157913D01*
X283500Y157777D01*
X284532Y157913D01*
X285493Y158311D01*
X286319Y158945D01*
X286953Y159770D01*
X287000Y159885D01*
X287500Y159785D01*
Y155107D01*
X287124Y154778D01*
X287000Y154794D01*
X244035D01*
X243883Y155294D01*
X244133Y155461D01*
X244686Y156288D01*
X244781Y156764D01*
X239882D01*
X239976Y156288D01*
X240529Y155461D01*
X240779Y155294D01*
X240628Y154794D01*
X200301D01*
X191335Y163760D01*
X190604Y164321D01*
X189752Y164674D01*
X188839Y164794D01*
X162032D01*
X161118Y164674D01*
X160267Y164321D01*
X159536Y163760D01*
X156841Y161066D01*
X156471Y161264D01*
X154421D01*
Y159214D01*
X154620Y158844D01*
X153384Y157608D01*
X69314D01*
X68400Y157488D01*
X67549Y157135D01*
X66818Y156574D01*
X59004Y148760D01*
X58443Y148029D01*
X58090Y147178D01*
X57970Y146264D01*
X58090Y145350D01*
X58443Y144499D01*
X59004Y143768D01*
X59735Y143207D01*
X60586Y142854D01*
X61500Y142734D01*
X62414Y142854D01*
X63265Y143207D01*
X63996Y143768D01*
X70776Y150548D01*
X154846D01*
X155760Y150668D01*
X156611Y151021D01*
X157342Y151582D01*
X163494Y157734D01*
X187376D01*
X196342Y148768D01*
X197073Y148206D01*
X197925Y147854D01*
X198839Y147734D01*
X198839Y147734D01*
X238671D01*
X238822Y147234D01*
X238198Y146816D01*
X237645Y145989D01*
X237550Y145514D01*
X242449D01*
X242355Y145989D01*
X241802Y146816D01*
X241178Y147234D01*
X241329Y147734D01*
X243500D01*
Y131264D01*
X183500D01*
Y141264D01*
X106500D01*
Y38264D01*
X183500D01*
Y48264D01*
X234750D01*
Y30911D01*
X234870Y29998D01*
X235223Y29146D01*
X235784Y28415D01*
X238500Y25699D01*
Y23264D01*
X240935D01*
X242171Y22027D01*
X242902Y21466D01*
X243754Y21114D01*
X244668Y20993D01*
X251189D01*
X251474Y20548D01*
X251472Y20493D01*
X250681Y19886D01*
X250047Y19060D01*
X249649Y18099D01*
X249579Y17567D01*
X253500D01*
X257421D01*
X257351Y18099D01*
X256953Y19060D01*
X256319Y19886D01*
X255528Y20493D01*
X255526Y20548D01*
X255810Y20993D01*
X261190D01*
X261474Y20548D01*
X261472Y20493D01*
X260681Y19886D01*
X260047Y19060D01*
X259649Y18099D01*
X259513Y17067D01*
X259649Y16035D01*
X260047Y15074D01*
X260681Y14248D01*
X261507Y13614D01*
X262468Y13216D01*
X263500Y13080D01*
X264532Y13216D01*
X265493Y13614D01*
X266319Y14248D01*
X266953Y15074D01*
X267351Y16035D01*
X267487Y17067D01*
X267351Y18099D01*
X266953Y19060D01*
X266319Y19886D01*
X265528Y20493D01*
X265526Y20548D01*
X265810Y20993D01*
X271189D01*
X271474Y20548D01*
X271472Y20493D01*
X270681Y19886D01*
X270047Y19060D01*
X269649Y18099D01*
X269579Y17567D01*
X273500D01*
X277421D01*
X277351Y18099D01*
X276953Y19060D01*
X276319Y19886D01*
X275528Y20493D01*
X275526Y20548D01*
X275811Y20993D01*
X281189D01*
X281474Y20548D01*
X281472Y20493D01*
X280681Y19886D01*
X280047Y19060D01*
X279649Y18099D01*
X279513Y17067D01*
X279649Y16035D01*
X280047Y15074D01*
X280681Y14248D01*
X281507Y13614D01*
X282468Y13216D01*
X283500Y13080D01*
X284532Y13216D01*
X285493Y13614D01*
X286319Y14248D01*
X286953Y15074D01*
X287351Y16035D01*
X287487Y17067D01*
X287351Y18099D01*
X286953Y19060D01*
X286319Y19886D01*
X285528Y20493D01*
X285526Y20548D01*
X285810Y20993D01*
X289500D01*
Y10794D01*
X278962D01*
X277030Y12726D01*
Y15261D01*
X277351Y16035D01*
X277421Y16567D01*
X273500D01*
X269579D01*
X269649Y16035D01*
X269970Y15261D01*
Y12967D01*
X269470Y12816D01*
X269302Y13066D01*
X268476Y13619D01*
X268000Y13713D01*
Y11264D01*
Y8814D01*
X268476Y8909D01*
X269302Y9461D01*
X269682Y10029D01*
X270246Y9974D01*
X270443Y9499D01*
X271004Y8767D01*
X273046Y6726D01*
X272854Y6264D01*
X3500Y6264D01*
Y171264D01*
X38696D01*
D02*
G37*
G36*
X393500Y136764D02*
X388402Y131666D01*
X385741Y134327D01*
X385253Y134653D01*
X384677Y134768D01*
X375242D01*
X355004Y155006D01*
Y158108D01*
X355493Y158311D01*
X356319Y158945D01*
X356953Y159770D01*
X357351Y160732D01*
X357487Y161764D01*
X357351Y162796D01*
X356953Y163757D01*
X356319Y164583D01*
X355493Y165217D01*
X354532Y165615D01*
X353500Y165751D01*
X352468Y165615D01*
X351507Y165217D01*
X350681Y164583D01*
X350047Y163757D01*
X349649Y162796D01*
X349513Y161764D01*
X349649Y160732D01*
X350047Y159770D01*
X350681Y158945D01*
X351507Y158311D01*
X351996Y158108D01*
Y155910D01*
X351534Y155718D01*
X347108Y160145D01*
X347351Y160732D01*
X347487Y161764D01*
X347351Y162796D01*
X346953Y163757D01*
X346319Y164583D01*
X345493Y165217D01*
X344532Y165615D01*
X343500Y165751D01*
X342468Y165615D01*
X341507Y165217D01*
X340681Y164583D01*
X340047Y163757D01*
X339649Y162796D01*
X339513Y161764D01*
X339649Y160732D01*
X340047Y159770D01*
X340681Y158945D01*
X341507Y158311D01*
X342468Y157913D01*
X342430Y157413D01*
X339977D01*
X337148Y160242D01*
X337351Y160732D01*
X337487Y161764D01*
X337351Y162796D01*
X336953Y163757D01*
X336319Y164583D01*
X335493Y165217D01*
X334532Y165615D01*
X333500Y165751D01*
X332468Y165615D01*
X331507Y165217D01*
X330681Y164583D01*
X330047Y163757D01*
X329649Y162796D01*
X329513Y161764D01*
X329649Y160732D01*
X330047Y159770D01*
X330681Y158945D01*
X331507Y158311D01*
X332468Y157913D01*
X333500Y157777D01*
X334532Y157913D01*
X335021Y158115D01*
X337396Y155741D01*
X337205Y155279D01*
X332112D01*
X327148Y160242D01*
X327351Y160732D01*
X327487Y161764D01*
X327351Y162796D01*
X326953Y163757D01*
X326319Y164583D01*
X325493Y165217D01*
X324532Y165615D01*
X323500Y165751D01*
X322468Y165615D01*
X321507Y165217D01*
X320681Y164583D01*
X320047Y163757D01*
X319649Y162796D01*
X319513Y161764D01*
X319649Y160732D01*
X320047Y159770D01*
X320681Y158945D01*
X321507Y158311D01*
X322468Y157913D01*
X323500Y157777D01*
X324532Y157913D01*
X325021Y158115D01*
X330426Y152711D01*
X330913Y152385D01*
X331489Y152271D01*
X345212D01*
X370720Y126764D01*
X370512Y126264D01*
X351000D01*
Y121009D01*
X334437Y104445D01*
X334111Y103957D01*
X333996Y103382D01*
Y99554D01*
X333698Y99355D01*
X333145Y98528D01*
X332951Y97553D01*
X333145Y96577D01*
X333698Y95750D01*
X334525Y95198D01*
X335500Y95003D01*
X336475Y95198D01*
X337302Y95750D01*
X337855Y96577D01*
X338049Y97553D01*
X337855Y98528D01*
X337302Y99355D01*
X337004Y99554D01*
Y102759D01*
X337469Y103224D01*
X337998Y103045D01*
X338145Y102304D01*
X338698Y101477D01*
X339525Y100925D01*
X340500Y100731D01*
X341476Y100925D01*
X342302Y101477D01*
X342855Y102304D01*
X343049Y103279D01*
X342855Y104255D01*
X342481Y104815D01*
X350538Y112872D01*
X351000Y112680D01*
Y83764D01*
X372777Y61987D01*
Y50683D01*
X347862Y25768D01*
X330697D01*
X330121Y25653D01*
X329633Y25327D01*
X325021Y20715D01*
X324532Y20918D01*
X323500Y21054D01*
X322468Y20918D01*
X321507Y20520D01*
X320681Y19886D01*
X320047Y19060D01*
X319649Y18099D01*
X319513Y17067D01*
X319649Y16035D01*
X320047Y15074D01*
X320681Y14248D01*
X321507Y13614D01*
X322468Y13216D01*
X323500Y13080D01*
X324532Y13216D01*
X325493Y13614D01*
X326319Y14248D01*
X326953Y15074D01*
X327351Y16035D01*
X327487Y17067D01*
X327351Y18099D01*
X327148Y18588D01*
X331320Y22760D01*
X336413D01*
X336604Y22298D01*
X335021Y20715D01*
X334532Y20918D01*
X333500Y21054D01*
X332468Y20918D01*
X331507Y20520D01*
X330681Y19886D01*
X330047Y19060D01*
X329649Y18099D01*
X329513Y17067D01*
X329649Y16035D01*
X330047Y15074D01*
X330681Y14248D01*
X331507Y13614D01*
X332468Y13216D01*
X333500Y13080D01*
X334532Y13216D01*
X335493Y13614D01*
X336319Y14248D01*
X336953Y15074D01*
X337351Y16035D01*
X337487Y17067D01*
X337351Y18099D01*
X337148Y18588D01*
X339356Y20796D01*
X341045D01*
X341215Y20296D01*
X340681Y19886D01*
X340047Y19060D01*
X339649Y18099D01*
X339513Y17067D01*
X339649Y16035D01*
X340047Y15074D01*
X340681Y14248D01*
X341507Y13614D01*
X342468Y13216D01*
X343500Y13080D01*
X344532Y13216D01*
X345493Y13614D01*
X346319Y14248D01*
X346953Y15074D01*
X347351Y16035D01*
X347487Y17067D01*
X347351Y18099D01*
X347216Y18425D01*
X347544Y18846D01*
X349509D01*
X349786Y18430D01*
X349649Y18099D01*
X349513Y17067D01*
X349649Y16035D01*
X350047Y15074D01*
X350681Y14248D01*
X351507Y13614D01*
X352468Y13216D01*
X353500Y13080D01*
X354532Y13216D01*
X355493Y13614D01*
X356319Y14248D01*
X356953Y15074D01*
X357351Y16035D01*
X357487Y17067D01*
X357351Y18099D01*
X356953Y19060D01*
X356319Y19886D01*
X355765Y20311D01*
X355692Y20945D01*
X381194Y46447D01*
X381520Y46935D01*
X381635Y47511D01*
X381635Y47511D01*
Y53764D01*
X383000D01*
Y45264D01*
X371000Y33264D01*
Y12264D01*
X291514D01*
X291512Y13161D01*
X291928Y13440D01*
X292468Y13216D01*
X293000Y13146D01*
Y17067D01*
X293500D01*
Y17567D01*
X297421D01*
X297351Y18099D01*
X296953Y19060D01*
X296319Y19886D01*
X295528Y20493D01*
X295526Y20548D01*
X295811Y20993D01*
X301189D01*
X301474Y20548D01*
X301472Y20493D01*
X300681Y19886D01*
X300047Y19060D01*
X299649Y18099D01*
X299513Y17067D01*
X299649Y16035D01*
X300047Y15074D01*
X300681Y14248D01*
X301507Y13614D01*
X302468Y13216D01*
X303500Y13080D01*
X304532Y13216D01*
X305493Y13614D01*
X306319Y14248D01*
X306953Y15074D01*
X307351Y16035D01*
X307487Y17067D01*
X307351Y18099D01*
X306953Y19060D01*
X306319Y19886D01*
X305528Y20493D01*
X305526Y20548D01*
X305810Y20993D01*
X311190D01*
X311474Y20548D01*
X311472Y20493D01*
X310681Y19886D01*
X310047Y19060D01*
X309649Y18099D01*
X309513Y17067D01*
X309649Y16035D01*
X310047Y15074D01*
X310681Y14248D01*
X311507Y13614D01*
X312468Y13216D01*
X313500Y13080D01*
X314532Y13216D01*
X315493Y13614D01*
X316319Y14248D01*
X316953Y15074D01*
X317351Y16035D01*
X317487Y17067D01*
X317351Y18099D01*
X316953Y19060D01*
X316319Y19886D01*
X315493Y20520D01*
X314921Y20757D01*
Y21298D01*
X315327Y21466D01*
X316058Y22027D01*
X320528Y26496D01*
X320937Y26461D01*
X321165Y26009D01*
X321145Y25979D01*
X321051Y25504D01*
X325950D01*
X325855Y25979D01*
X325777Y26097D01*
X326012Y26538D01*
X344304D01*
X345218Y26658D01*
X346069Y27011D01*
X346800Y27572D01*
X366996Y47767D01*
X367557Y48499D01*
X367910Y49350D01*
X368030Y50264D01*
X367910Y51178D01*
X367557Y52029D01*
X366996Y52760D01*
X366265Y53321D01*
X365414Y53674D01*
X364500Y53794D01*
X363586Y53674D01*
X362735Y53321D01*
X362004Y52760D01*
X348915Y39671D01*
X348453Y39862D01*
Y47091D01*
X346869D01*
X346534Y47535D01*
X346534Y47591D01*
X347319Y48193D01*
X347953Y49018D01*
X348351Y49980D01*
X348421Y50512D01*
X344500D01*
X340579D01*
X340649Y49980D01*
X341047Y49018D01*
X341681Y48193D01*
X342466Y47591D01*
X342466Y47535D01*
X342131Y47091D01*
X340547D01*
Y39185D01*
X347776D01*
X347967Y38723D01*
X342842Y33598D01*
X319106D01*
X318925Y33574D01*
X318661Y33999D01*
X318855Y34288D01*
X318950Y34764D01*
X314051D01*
X314145Y34288D01*
X314698Y33461D01*
X315525Y32909D01*
X316128Y32789D01*
X316293Y32246D01*
X312100Y28054D01*
X294558D01*
X294290Y28554D01*
X294605Y29024D01*
X294700Y29500D01*
X289801D01*
X289895Y29024D01*
X290210Y28554D01*
X289942Y28054D01*
X254055D01*
X253819Y28495D01*
X253855Y28548D01*
X254049Y29524D01*
X253855Y30499D01*
X253302Y31326D01*
X253011Y31521D01*
Y32784D01*
X253472Y32975D01*
X255981Y30466D01*
X256469Y30140D01*
X257044Y30026D01*
X264456D01*
X265032Y30140D01*
X265520Y30466D01*
X268016Y32963D01*
X268016Y32963D01*
X268342Y33451D01*
X268457Y34026D01*
X268457Y34026D01*
Y35617D01*
X268755Y35816D01*
X269308Y36643D01*
X269502Y37619D01*
X269308Y38594D01*
X268755Y39421D01*
X267928Y39974D01*
X266953Y40168D01*
X265977Y39974D01*
X265150Y39421D01*
X264598Y38594D01*
X264404Y37619D01*
X264598Y36643D01*
X265150Y35816D01*
X265449Y35617D01*
Y34649D01*
X263833Y33034D01*
X257667D01*
X255059Y35642D01*
X255104Y36134D01*
X255529Y36351D01*
X255977Y36051D01*
X256453Y35957D01*
Y38406D01*
Y40856D01*
X255977Y40761D01*
X255504Y40445D01*
X255004Y40712D01*
Y41466D01*
X258513Y44976D01*
X258839Y45464D01*
X258954Y46039D01*
Y83651D01*
X262113Y86810D01*
X263906D01*
X264941Y85775D01*
X265428Y85449D01*
X266004Y85335D01*
X266004Y85335D01*
X272420D01*
X272996Y85449D01*
X273484Y85775D01*
X276263Y88555D01*
X276589Y89043D01*
X276704Y89619D01*
Y89862D01*
X277002Y90061D01*
X277555Y90888D01*
X277749Y91864D01*
X277555Y92839D01*
X277002Y93666D01*
X276175Y94219D01*
X275200Y94413D01*
X274225Y94219D01*
X273398Y93666D01*
X272845Y92839D01*
X272651Y91864D01*
X272845Y90888D01*
X273398Y90061D01*
X273408Y89954D01*
X272136Y88682D01*
X272063Y88700D01*
X271842Y89268D01*
X271855Y89288D01*
X272049Y90264D01*
X271855Y91239D01*
X271302Y92066D01*
X270476Y92619D01*
X269500Y92813D01*
X268525Y92619D01*
X267698Y92066D01*
X267498Y91768D01*
X260421D01*
X259845Y91653D01*
X259358Y91327D01*
X254437Y86406D01*
X254111Y85918D01*
X253996Y85343D01*
Y47470D01*
X251515Y44989D01*
X251013Y45194D01*
X250855Y45989D01*
X250302Y46816D01*
X249476Y47369D01*
X249000Y47463D01*
Y45014D01*
Y42564D01*
X249476Y42659D01*
X249503Y42677D01*
X250003Y42410D01*
Y31530D01*
X249698Y31326D01*
X249145Y30499D01*
X248951Y29524D01*
X249145Y28548D01*
X249181Y28495D01*
X248945Y28054D01*
X246130D01*
X241810Y32373D01*
Y57264D01*
X252468D01*
Y131264D01*
X246579D01*
X246000Y131843D01*
Y147734D01*
X285538D01*
X292970Y140302D01*
Y130842D01*
X293090Y129929D01*
X293443Y129077D01*
X294004Y128346D01*
X301208Y121142D01*
X301265Y120708D01*
X301703Y119650D01*
X302400Y118743D01*
X303308Y118046D01*
X304365Y117608D01*
X304799Y117551D01*
X306668Y115682D01*
X306555Y115308D01*
X306439Y114132D01*
X306555Y112956D01*
X306898Y111825D01*
X307455Y110782D01*
X308205Y109869D01*
X313471Y104603D01*
Y46050D01*
X312971Y45880D01*
X312600Y46364D01*
X311692Y47060D01*
X310635Y47498D01*
X309500Y47648D01*
X308365Y47498D01*
X307308Y47060D01*
X306400Y46364D01*
X305703Y45456D01*
X305265Y44398D01*
X305116Y43264D01*
X305265Y42129D01*
X305703Y41072D01*
X306400Y40164D01*
X307308Y39467D01*
X308365Y39029D01*
X309500Y38880D01*
X310635Y39029D01*
X311692Y39467D01*
X312600Y40164D01*
X313297Y41072D01*
X313358Y41220D01*
X313857Y41195D01*
X313930Y40957D01*
X314487Y39914D01*
X315237Y39001D01*
X316150Y38251D01*
X316070Y37727D01*
X315525Y37619D01*
X314698Y37066D01*
X314145Y36239D01*
X314051Y35764D01*
X318950D01*
X318855Y36239D01*
X318457Y36835D01*
X318741Y37310D01*
X319500Y37235D01*
X320676Y37351D01*
X321807Y37694D01*
X322850Y38251D01*
X323763Y39001D01*
X324513Y39914D01*
X325070Y40957D01*
X325413Y42088D01*
X325529Y43264D01*
Y107100D01*
X325413Y108276D01*
X325070Y109407D01*
X324513Y110450D01*
X323763Y111363D01*
X316731Y118395D01*
X315818Y119145D01*
X314775Y119702D01*
X313644Y120045D01*
X312468Y120161D01*
X312200Y120134D01*
X309792Y122543D01*
X309735Y122977D01*
X309297Y124035D01*
X308600Y124943D01*
X307692Y125639D01*
X306635Y126077D01*
X306201Y126134D01*
X305301Y127033D01*
X305574Y127468D01*
X306635Y127608D01*
X307692Y128046D01*
X308600Y128743D01*
X309297Y129650D01*
X309735Y130708D01*
X309884Y131843D01*
X309735Y132977D01*
X309297Y134035D01*
X308600Y134942D01*
X307692Y135639D01*
X306635Y136077D01*
X305500Y136226D01*
X304365Y136077D01*
X303308Y135639D01*
X302400Y134942D01*
X301703Y134035D01*
X301265Y132977D01*
X301126Y131916D01*
X300691Y131644D01*
X300030Y132305D01*
Y141764D01*
X299910Y142677D01*
X299557Y143529D01*
X298996Y144260D01*
X289500Y153756D01*
Y159785D01*
X290000Y159885D01*
X290047Y159770D01*
X290681Y158945D01*
X291507Y158311D01*
X292468Y157913D01*
X293000Y157843D01*
Y161764D01*
Y165685D01*
X292468Y165615D01*
X291507Y165217D01*
X290681Y164583D01*
X290047Y163757D01*
X290000Y163643D01*
X289500Y163742D01*
Y171264D01*
X393500D01*
Y136764D01*
D02*
G37*
G36*
X380993Y123264D02*
X380698Y123066D01*
X380145Y122239D01*
X380050Y121764D01*
X384949D01*
X384920Y121914D01*
X385380Y122161D01*
X389461Y118080D01*
X389270Y117618D01*
X375995D01*
X375370Y118243D01*
X374883Y118569D01*
X374307Y118683D01*
X373348D01*
X373112Y119124D01*
X373155Y119188D01*
X373250Y119664D01*
X368351D01*
X368445Y119188D01*
X368488Y119124D01*
X368252Y118683D01*
X367062D01*
X362444Y123302D01*
X362635Y123764D01*
X380842D01*
X380993Y123264D01*
D02*
G37*
G36*
X356029Y117655D02*
X355951Y117264D01*
X356145Y116288D01*
X356698Y115461D01*
X357525Y114909D01*
X358500Y114715D01*
X358852Y114785D01*
X360052Y113585D01*
X359734Y113196D01*
X359475Y113369D01*
X359000Y113463D01*
Y111514D01*
X360949D01*
X360855Y111989D01*
X360683Y112247D01*
X361071Y112566D01*
X361421Y112216D01*
X361909Y111890D01*
X362484Y111776D01*
X364732D01*
X364923Y111314D01*
X361487Y107877D01*
X361161Y107389D01*
X361046Y106814D01*
Y91812D01*
X361161Y91237D01*
X361487Y90749D01*
X372777Y79459D01*
Y74721D01*
X372277Y74569D01*
X371945Y75066D01*
X371118Y75619D01*
X370642Y75713D01*
Y73264D01*
X370142D01*
Y72764D01*
X367693D01*
X367787Y72288D01*
X367998Y71973D01*
X367610Y71654D01*
X353500Y85764D01*
Y115833D01*
X355568Y117902D01*
X356029Y117655D01*
D02*
G37*
G36*
X371117Y101181D02*
X371145Y101042D01*
X371698Y100215D01*
X371996Y100015D01*
Y87904D01*
X371534Y87713D01*
X366004Y93243D01*
Y98206D01*
X366504Y98473D01*
X367024Y98125D01*
X368000Y97931D01*
X368975Y98125D01*
X369802Y98678D01*
X370355Y99505D01*
X370549Y100480D01*
X370407Y101193D01*
X370573Y101352D01*
X371117Y101181D01*
D02*
G37*
G36*
X568500Y6264D02*
X471000D01*
Y63764D01*
X437574D01*
X430578Y70760D01*
X429847Y71321D01*
X428995Y71674D01*
X428082Y71794D01*
X422453D01*
Y72216D01*
X421272D01*
X421080Y72679D01*
X437942Y89540D01*
X438384Y90202D01*
X438539Y90982D01*
Y97295D01*
X438539Y97295D01*
X438384Y98076D01*
X437942Y98737D01*
X429466Y107213D01*
Y113346D01*
X431201Y115080D01*
X431589Y114762D01*
X431536Y114683D01*
X431145Y114097D01*
X430951Y113122D01*
X431145Y112147D01*
X431698Y111320D01*
X432525Y110767D01*
X433500Y110573D01*
X434476Y110767D01*
X435302Y111320D01*
X435502Y111618D01*
X464267D01*
X479685Y96200D01*
X480172Y95874D01*
X480748Y95760D01*
X491498D01*
X491698Y95461D01*
X492525Y94909D01*
X493500Y94715D01*
X494476Y94909D01*
X495302Y95461D01*
X495855Y96288D01*
X496049Y97264D01*
X495855Y98239D01*
X495302Y99066D01*
X494476Y99619D01*
X493500Y99813D01*
X492525Y99619D01*
X491698Y99066D01*
X491498Y98768D01*
X481371D01*
X465953Y114186D01*
X465465Y114512D01*
X464890Y114626D01*
X435502D01*
X435302Y114925D01*
X434476Y115477D01*
X433500Y115671D01*
X432525Y115477D01*
X431939Y115086D01*
X431860Y115033D01*
X431542Y115422D01*
X432918Y116798D01*
X433475Y116909D01*
X434302Y117461D01*
X434855Y118288D01*
X435049Y119264D01*
X434855Y120239D01*
X434302Y121066D01*
X433475Y121619D01*
X432500Y121813D01*
X431525Y121619D01*
X430698Y121066D01*
X430145Y120239D01*
X430034Y119682D01*
X425985Y115633D01*
X425543Y114971D01*
X425388Y114191D01*
Y106368D01*
X425543Y105588D01*
X425985Y104926D01*
X428693Y102219D01*
X428501Y101757D01*
X418311D01*
X389902Y130166D01*
X396000Y136264D01*
Y171264D01*
X568500D01*
Y6264D01*
D02*
G37*
G36*
X385771Y98073D02*
X385701Y97721D01*
Y91100D01*
X385201Y90949D01*
X385127Y91060D01*
X384300Y91612D01*
X383324Y91806D01*
X382349Y91612D01*
X382076Y91430D01*
X381635Y91665D01*
Y100090D01*
X381520Y100665D01*
X381194Y101153D01*
X375995Y106352D01*
X375882Y106428D01*
X375732Y107105D01*
X375855Y107288D01*
X375868Y107353D01*
X376346Y107498D01*
X385771Y98073D01*
D02*
G37*
G36*
X416054Y97003D02*
X416541Y96677D01*
X417117Y96562D01*
X417117Y96562D01*
X424706D01*
X424951Y96264D01*
X425145Y95288D01*
X425698Y94461D01*
X426525Y93909D01*
X427500Y93715D01*
X428476Y93909D01*
X429302Y94461D01*
X429567Y94857D01*
X430038Y94662D01*
X429951Y94226D01*
X430145Y93250D01*
X430698Y92423D01*
X431525Y91871D01*
X432500Y91677D01*
X433475Y91871D01*
X433589Y91947D01*
X434130Y91707D01*
X434157Y91523D01*
X430897Y88263D01*
X430436Y88509D01*
X430476Y88710D01*
X430282Y89686D01*
X429730Y90513D01*
X428903Y91065D01*
X428427Y91160D01*
Y88710D01*
X427927D01*
Y88210D01*
X425478D01*
X425572Y87735D01*
X426125Y86908D01*
X426952Y86355D01*
X427927Y86161D01*
X428128Y86201D01*
X428375Y85741D01*
X421394Y78760D01*
X420933Y79006D01*
X420979Y79239D01*
Y86458D01*
X420917Y86770D01*
X421049Y87433D01*
X420855Y88408D01*
X420302Y89236D01*
X419476Y89788D01*
X418500Y89982D01*
X417525Y89788D01*
X416698Y89236D01*
X416145Y88408D01*
X416063Y87998D01*
X415585Y87852D01*
X415178Y88259D01*
Y97225D01*
X415640Y97416D01*
X416054Y97003D01*
D02*
G37*
G36*
X378627Y99467D02*
Y84436D01*
X378165Y84245D01*
X375004Y87406D01*
Y100015D01*
X375302Y100215D01*
X375855Y101042D01*
X375936Y101450D01*
X376479Y101615D01*
X378627Y99467D01*
D02*
G37*
G36*
X400936Y103847D02*
Y82281D01*
X400425Y82180D01*
X399835Y81786D01*
X399475Y82147D01*
X399530Y82228D01*
X399644Y82804D01*
Y104486D01*
X400106Y104677D01*
X400936Y103847D01*
D02*
G37*
G36*
X179500Y128264D02*
X249513D01*
Y59264D01*
X243795D01*
X243746Y59764D01*
X244476Y59909D01*
X245302Y60461D01*
X245855Y61288D01*
X245950Y61764D01*
X241051D01*
X241075Y61638D01*
X240615Y61392D01*
X236905Y65101D01*
Y78934D01*
X237405Y79086D01*
X237823Y78461D01*
X238650Y77909D01*
X239125Y77814D01*
Y80264D01*
Y82713D01*
X238650Y82619D01*
X237823Y82066D01*
X237277Y81249D01*
X236974Y81201D01*
X236934Y81196D01*
X236760Y81238D01*
X236432Y82029D01*
X235871Y82760D01*
X235140Y83321D01*
X234289Y83674D01*
X233375Y83794D01*
X232461Y83674D01*
X231610Y83321D01*
X230879Y82760D01*
X230318Y82029D01*
X229965Y81178D01*
X229845Y80264D01*
Y65101D01*
X226538Y61794D01*
X194413D01*
X191954Y64253D01*
X192166Y64748D01*
X192975Y64909D01*
X193802Y65461D01*
X194355Y66288D01*
X194449Y66764D01*
X192000D01*
Y67264D01*
X191500D01*
Y69713D01*
X191025Y69619D01*
X190198Y69066D01*
X189645Y68239D01*
X189484Y67430D01*
X188989Y67218D01*
X184258Y71949D01*
X183527Y72510D01*
X182676Y72863D01*
X181762Y72983D01*
X172030D01*
Y95701D01*
X171910Y96614D01*
X171557Y97466D01*
X170996Y98197D01*
X170265Y98758D01*
X169414Y99111D01*
X168500Y99231D01*
X167586Y99111D01*
X166735Y98758D01*
X166004Y98197D01*
X165443Y97466D01*
X165090Y96614D01*
X164970Y95701D01*
Y69453D01*
X165090Y68539D01*
X165443Y67688D01*
X166004Y66957D01*
X166735Y66395D01*
X167586Y66043D01*
X167623Y66038D01*
X167640Y65531D01*
X167525Y65509D01*
X166698Y64956D01*
X166145Y64129D01*
X166051Y63653D01*
X170949D01*
X170855Y64129D01*
X170302Y64956D01*
X169604Y65423D01*
X169756Y65923D01*
X180300D01*
X190455Y55768D01*
X191186Y55207D01*
X192037Y54854D01*
X192951Y54734D01*
X228000D01*
X228914Y54854D01*
X229765Y55207D01*
X230496Y55768D01*
X233375Y58646D01*
X234750Y57271D01*
Y51264D01*
X180500Y51264D01*
X180500Y40264D01*
X110500Y40264D01*
X110500Y138264D01*
X179500Y138264D01*
X179500Y128264D01*
D02*
G37*
G36*
X396636Y105389D02*
Y83843D01*
X396600Y83813D01*
X395625Y83619D01*
X394798Y83066D01*
X394245Y82239D01*
X394051Y81264D01*
X394245Y80288D01*
X394798Y79461D01*
X395625Y78909D01*
X396600Y78715D01*
X397575Y78909D01*
X398402Y79461D01*
X398411Y79474D01*
X398942Y79369D01*
X399045Y78849D01*
X399598Y78022D01*
X400425Y77470D01*
X401400Y77276D01*
X402376Y77470D01*
X403202Y78022D01*
X403755Y78849D01*
X403949Y79825D01*
X403843Y80358D01*
X403944Y80865D01*
X403944Y80865D01*
Y102944D01*
X404406Y103135D01*
X410177Y97364D01*
Y84257D01*
X410291Y83682D01*
X410617Y83194D01*
X412011Y81800D01*
X412145Y81126D01*
X412416Y80721D01*
X412115Y80271D01*
X411500Y80393D01*
X410525Y80199D01*
X409698Y79647D01*
X409145Y78820D01*
X408951Y77845D01*
X409145Y76869D01*
X409698Y76042D01*
X410525Y75489D01*
X411500Y75296D01*
X412475Y75489D01*
X413302Y76042D01*
X413350Y76113D01*
X413500Y76098D01*
X413687Y75577D01*
X410617Y72508D01*
X410291Y72020D01*
X410177Y71445D01*
Y61365D01*
X410291Y60789D01*
X410617Y60301D01*
X413719Y57200D01*
X413719Y57200D01*
X414206Y56874D01*
X414782Y56760D01*
X414845D01*
X415047Y56270D01*
X415681Y55445D01*
X416507Y54811D01*
X417468Y54413D01*
X418500Y54277D01*
X419532Y54413D01*
X420493Y54811D01*
X421319Y55445D01*
X421953Y56270D01*
X422351Y57232D01*
X422487Y58264D01*
X422351Y59296D01*
X421953Y60257D01*
X421319Y61083D01*
X420493Y61717D01*
X419532Y62115D01*
X418500Y62251D01*
X417468Y62115D01*
X416507Y61717D01*
X415681Y61083D01*
X415297Y60583D01*
X414642Y60530D01*
X413185Y61988D01*
Y70822D01*
X414085Y71722D01*
X414547Y71531D01*
Y64311D01*
X422453D01*
Y64734D01*
X426619D01*
X427127Y64226D01*
X426936Y63764D01*
X423500D01*
Y33264D01*
X414000D01*
X413500Y33764D01*
Y56264D01*
X383000D01*
X381635Y57629D01*
Y86849D01*
X382076Y87085D01*
X382349Y86902D01*
X383324Y86708D01*
X384300Y86902D01*
X385127Y87455D01*
X385201Y87566D01*
X385701Y87414D01*
Y74615D01*
X383698Y72611D01*
X383145Y71785D01*
X382951Y70809D01*
X383145Y69834D01*
X383698Y69007D01*
X384525Y68454D01*
X385500Y68260D01*
X386475Y68454D01*
X387302Y69007D01*
X390052Y71757D01*
X390605Y72584D01*
X390799Y73559D01*
Y89264D01*
Y97721D01*
X390605Y98697D01*
X390052Y99524D01*
X389226Y100076D01*
X388250Y100270D01*
X387898Y100200D01*
X375900Y112198D01*
X376091Y112660D01*
X389365D01*
X396636Y105389D01*
D02*
G37*
G36*
X468500Y6264D02*
X440951D01*
X440673Y6679D01*
X440897Y7220D01*
X441035Y8264D01*
X440897Y9308D01*
X440494Y10281D01*
X439853Y11117D01*
X439017Y11758D01*
X438044Y12161D01*
X437000Y12298D01*
X435956Y12161D01*
X434983Y11758D01*
X434147Y11117D01*
X433506Y10281D01*
X433103Y9308D01*
X432966Y8264D01*
X433103Y7220D01*
X433327Y6679D01*
X433049Y6264D01*
X391873D01*
X391703Y6764D01*
X392203Y7147D01*
X392844Y7983D01*
X393247Y8956D01*
X393319Y9500D01*
X385381D01*
X385453Y8956D01*
X385856Y7983D01*
X386497Y7147D01*
X386997Y6764D01*
X386827Y6264D01*
X376146D01*
X375954Y6726D01*
X382719Y13490D01*
X383493Y13811D01*
X384319Y14445D01*
X384953Y15270D01*
X385351Y16232D01*
X385421Y16764D01*
X381500D01*
Y17264D01*
X381000D01*
Y21185D01*
X380468Y21115D01*
X379507Y20717D01*
X378681Y20083D01*
X378047Y19257D01*
X377727Y18483D01*
X373962Y14718D01*
X373500Y14909D01*
Y31264D01*
X381031Y38795D01*
X381455Y38512D01*
X381353Y38264D01*
X381233Y37351D01*
X381353Y36437D01*
X381705Y35585D01*
X382266Y34854D01*
X385404Y31716D01*
X385197Y31217D01*
X385059Y31216D01*
X377547D01*
Y23311D01*
X385453D01*
Y30819D01*
X385453Y30961D01*
X385670Y31051D01*
X385953Y31168D01*
X404353Y12767D01*
X405084Y12207D01*
X405936Y11854D01*
X406849Y11734D01*
X410547D01*
Y11311D01*
X418453D01*
Y19217D01*
X416869D01*
X416534Y19661D01*
X416534Y19716D01*
X417319Y20319D01*
X417953Y21144D01*
X418351Y22106D01*
X418421Y22638D01*
X414500D01*
Y23138D01*
D01*
Y22638D01*
X410579D01*
X410649Y22106D01*
X411047Y21144D01*
X411681Y20319D01*
X412466Y19716D01*
X412466Y19661D01*
X412131Y19217D01*
X410547D01*
Y18794D01*
X408312D01*
X387259Y39847D01*
X386528Y40408D01*
X385676Y40760D01*
X384763Y40881D01*
X383849Y40760D01*
X383601Y40658D01*
X383318Y41082D01*
X386000Y43764D01*
X386487D01*
Y53764D01*
X411000D01*
Y31264D01*
X426000D01*
Y61083D01*
X430270D01*
X455788Y35566D01*
X455703Y35456D01*
X455265Y34398D01*
X455116Y33264D01*
X455265Y32129D01*
X455703Y31072D01*
X456400Y30164D01*
X457308Y29467D01*
X458365Y29029D01*
X459500Y28880D01*
X460635Y29029D01*
X461692Y29467D01*
X462600Y30164D01*
X463297Y31072D01*
X463735Y32129D01*
X463884Y33264D01*
X463735Y34398D01*
X463297Y35456D01*
X463030Y35803D01*
Y36845D01*
X462910Y37759D01*
X462557Y38611D01*
X461996Y39342D01*
X440717Y60621D01*
X440908Y61083D01*
X468500D01*
Y6264D01*
D02*
G37*
%LPC*%
G36*
X228453Y170217D02*
X225000D01*
Y166764D01*
X228453D01*
Y170217D01*
D02*
G37*
G36*
X205000Y170185D02*
Y166764D01*
X208421D01*
X208351Y167296D01*
X207953Y168257D01*
X207319Y169083D01*
X206493Y169717D01*
X205532Y170115D01*
X205000Y170185D01*
D02*
G37*
G36*
X204000Y170185D02*
X203468Y170115D01*
X202507Y169717D01*
X201681Y169083D01*
X201047Y168257D01*
X200649Y167296D01*
X200579Y166764D01*
X204000D01*
Y170185D01*
D02*
G37*
G36*
X224000Y170217D02*
X220547D01*
Y166764D01*
X224000D01*
Y170217D01*
D02*
G37*
G36*
X16453Y168966D02*
X13000D01*
Y165514D01*
X16453D01*
Y168966D01*
D02*
G37*
G36*
X12000D02*
X8547D01*
Y165514D01*
X12000D01*
Y168966D01*
D02*
G37*
G36*
X204000Y165764D02*
X200579D01*
X200649Y165232D01*
X201047Y164270D01*
X201681Y163445D01*
X202507Y162811D01*
X203468Y162413D01*
X204000Y162343D01*
Y165764D01*
D02*
G37*
G36*
X208421D02*
X205000D01*
Y162343D01*
X205532Y162413D01*
X206493Y162811D01*
X207319Y163445D01*
X207953Y164270D01*
X208351Y165232D01*
X208421Y165764D01*
D02*
G37*
G36*
X228453D02*
X225000D01*
Y162311D01*
X228453D01*
Y165764D01*
D02*
G37*
G36*
X224000D02*
X220547D01*
Y162311D01*
X224000D01*
Y165764D01*
D02*
G37*
G36*
X214500Y170251D02*
X213468Y170115D01*
X212507Y169717D01*
X211681Y169083D01*
X211047Y168257D01*
X210649Y167296D01*
X210513Y166264D01*
X210649Y165232D01*
X211047Y164270D01*
X211681Y163445D01*
X212507Y162811D01*
X213468Y162413D01*
X214500Y162277D01*
X215532Y162413D01*
X216493Y162811D01*
X217319Y163445D01*
X217953Y164270D01*
X218351Y165232D01*
X218487Y166264D01*
X218351Y167296D01*
X217953Y168257D01*
X217319Y169083D01*
X216493Y169717D01*
X215532Y170115D01*
X214500Y170251D01*
D02*
G37*
G36*
X254000Y165685D02*
Y162264D01*
X257421D01*
X257351Y162796D01*
X256953Y163757D01*
X256319Y164583D01*
X255493Y165217D01*
X254532Y165615D01*
X254000Y165685D01*
D02*
G37*
G36*
X274000D02*
Y162264D01*
X277421D01*
X277351Y162796D01*
X276953Y163757D01*
X276319Y164583D01*
X275493Y165217D01*
X274532Y165615D01*
X274000Y165685D01*
D02*
G37*
G36*
X154421Y164213D02*
Y162264D01*
X156371D01*
X156276Y162739D01*
X155724Y163566D01*
X154897Y164119D01*
X154421Y164213D01*
D02*
G37*
G36*
X153421D02*
X152946Y164119D01*
X152119Y163566D01*
X151567Y162739D01*
X151472Y162264D01*
X153421D01*
Y164213D01*
D02*
G37*
G36*
X253000Y165685D02*
X252468Y165615D01*
X251507Y165217D01*
X250681Y164583D01*
X250047Y163757D01*
X249649Y162796D01*
X249579Y162264D01*
X253000D01*
Y165685D01*
D02*
G37*
G36*
X273000D02*
X272468Y165615D01*
X271507Y165217D01*
X270681Y164583D01*
X270047Y163757D01*
X269649Y162796D01*
X269579Y162264D01*
X273000D01*
Y165685D01*
D02*
G37*
G36*
X16453Y164514D02*
X13000D01*
Y161061D01*
X16453D01*
Y164514D01*
D02*
G37*
G36*
X12000D02*
X8547D01*
Y161061D01*
X12000D01*
Y164514D01*
D02*
G37*
G36*
X153421Y161264D02*
X151472D01*
X151567Y160788D01*
X152119Y159961D01*
X152946Y159409D01*
X153421Y159314D01*
Y161264D01*
D02*
G37*
G36*
X103579Y165155D02*
X102701Y165039D01*
X101883Y164701D01*
X101181Y164162D01*
X100642Y163459D01*
X100303Y162642D01*
X100188Y161764D01*
X100303Y160886D01*
X100642Y160068D01*
X101181Y159366D01*
X101883Y158827D01*
X102701Y158488D01*
X103579Y158373D01*
X104456Y158488D01*
X105274Y158827D01*
X105977Y159366D01*
X106516Y160068D01*
X106854Y160886D01*
X106970Y161764D01*
X106854Y162642D01*
X106516Y163459D01*
X105977Y164162D01*
X105274Y164701D01*
X104456Y165039D01*
X103579Y165155D01*
D02*
G37*
G36*
X83579D02*
X82701Y165039D01*
X81883Y164701D01*
X81181Y164162D01*
X80642Y163459D01*
X80303Y162642D01*
X80187Y161764D01*
X80303Y160886D01*
X80642Y160068D01*
X81181Y159366D01*
X81883Y158827D01*
X82701Y158488D01*
X83579Y158373D01*
X84456Y158488D01*
X85274Y158827D01*
X85977Y159366D01*
X86516Y160068D01*
X86854Y160886D01*
X86970Y161764D01*
X86854Y162642D01*
X86516Y163459D01*
X85977Y164162D01*
X85274Y164701D01*
X84456Y165039D01*
X83579Y165155D01*
D02*
G37*
G36*
X273000Y161264D02*
X269579D01*
X269649Y160732D01*
X270047Y159770D01*
X270681Y158945D01*
X271507Y158311D01*
X272468Y157913D01*
X273000Y157843D01*
Y161264D01*
D02*
G37*
G36*
X253000D02*
X249579D01*
X249649Y160732D01*
X250047Y159770D01*
X250681Y158945D01*
X251507Y158311D01*
X252468Y157913D01*
X253000Y157843D01*
Y161264D01*
D02*
G37*
G36*
X277421D02*
X274000D01*
Y157843D01*
X274532Y157913D01*
X275493Y158311D01*
X276319Y158945D01*
X276953Y159770D01*
X277351Y160732D01*
X277421Y161264D01*
D02*
G37*
G36*
X257421D02*
X254000D01*
Y157843D01*
X254532Y157913D01*
X255493Y158311D01*
X256319Y158945D01*
X256953Y159770D01*
X257351Y160732D01*
X257421Y161264D01*
D02*
G37*
G36*
X263500Y165751D02*
X262468Y165615D01*
X261507Y165217D01*
X260681Y164583D01*
X260047Y163757D01*
X259649Y162796D01*
X259513Y161764D01*
X259649Y160732D01*
X260047Y159770D01*
X260681Y158945D01*
X261507Y158311D01*
X262468Y157913D01*
X263500Y157777D01*
X264532Y157913D01*
X265493Y158311D01*
X266319Y158945D01*
X266953Y159770D01*
X267351Y160732D01*
X267487Y161764D01*
X267351Y162796D01*
X266953Y163757D01*
X266319Y164583D01*
X265493Y165217D01*
X264532Y165615D01*
X263500Y165751D01*
D02*
G37*
G36*
X242831Y159713D02*
Y157764D01*
X244781D01*
X244686Y158239D01*
X244133Y159066D01*
X243306Y159619D01*
X242831Y159713D01*
D02*
G37*
G36*
X241831D02*
X241356Y159619D01*
X240529Y159066D01*
X239976Y158239D01*
X239882Y157764D01*
X241831D01*
Y159713D01*
D02*
G37*
G36*
X164000Y155552D02*
Y153602D01*
X165949D01*
X165855Y154078D01*
X165302Y154905D01*
X164476Y155457D01*
X164000Y155552D01*
D02*
G37*
G36*
X163000D02*
X162525Y155457D01*
X161698Y154905D01*
X161145Y154078D01*
X161050Y153602D01*
X163000D01*
Y155552D01*
D02*
G37*
G36*
X165949Y152602D02*
X164000D01*
Y150653D01*
X164476Y150747D01*
X165302Y151300D01*
X165855Y152127D01*
X165949Y152602D01*
D02*
G37*
G36*
X163000D02*
X161050D01*
X161145Y152127D01*
X161698Y151300D01*
X162525Y150747D01*
X163000Y150653D01*
Y152602D01*
D02*
G37*
G36*
X54453Y157217D02*
X46547D01*
Y149311D01*
X48131D01*
X48466Y148867D01*
X48466Y148811D01*
X47681Y148209D01*
X47047Y147383D01*
X46649Y146422D01*
X46579Y145890D01*
X50500D01*
X54421D01*
X54351Y146422D01*
X53953Y147383D01*
X53319Y148209D01*
X52534Y148811D01*
X52534Y148867D01*
X52869Y149311D01*
X54453D01*
Y157217D01*
D02*
G37*
G36*
X13000Y148935D02*
Y145514D01*
X16421D01*
X16351Y146046D01*
X15953Y147007D01*
X15319Y147833D01*
X14493Y148467D01*
X13532Y148865D01*
X13000Y148935D01*
D02*
G37*
G36*
X12000D02*
X11468Y148865D01*
X10507Y148467D01*
X9681Y147833D01*
X9047Y147007D01*
X8649Y146046D01*
X8579Y145514D01*
X12000D01*
Y148935D01*
D02*
G37*
G36*
X164000Y146890D02*
Y144941D01*
X165949D01*
X165855Y145416D01*
X165302Y146243D01*
X164476Y146796D01*
X164000Y146890D01*
D02*
G37*
G36*
X163000D02*
X162525Y146796D01*
X161698Y146243D01*
X161145Y145416D01*
X161050Y144941D01*
X163000D01*
Y146890D01*
D02*
G37*
G36*
X242449Y144514D02*
X240500D01*
Y142564D01*
X240975Y142659D01*
X241802Y143211D01*
X242355Y144038D01*
X242449Y144514D01*
D02*
G37*
G36*
X239500D02*
X237550D01*
X237645Y144038D01*
X238198Y143211D01*
X239025Y142659D01*
X239500Y142564D01*
Y144514D01*
D02*
G37*
G36*
X165949Y143941D02*
X164000D01*
Y141991D01*
X164476Y142086D01*
X165302Y142639D01*
X165855Y143465D01*
X165949Y143941D01*
D02*
G37*
G36*
X163000D02*
X161050D01*
X161145Y143465D01*
X161698Y142639D01*
X162525Y142086D01*
X163000Y141991D01*
Y143941D01*
D02*
G37*
G36*
X54421Y144890D02*
X51000D01*
Y141469D01*
X51532Y141539D01*
X52493Y141937D01*
X53319Y142571D01*
X53953Y143396D01*
X54351Y144358D01*
X54421Y144890D01*
D02*
G37*
G36*
X50000D02*
X46579D01*
X46649Y144358D01*
X47047Y143396D01*
X47681Y142571D01*
X48507Y141937D01*
X49468Y141539D01*
X50000Y141469D01*
Y144890D01*
D02*
G37*
G36*
X16421Y144514D02*
X13000D01*
Y141093D01*
X13532Y141163D01*
X14493Y141561D01*
X15319Y142195D01*
X15953Y143020D01*
X16351Y143982D01*
X16421Y144514D01*
D02*
G37*
G36*
X12000D02*
X8579D01*
X8649Y143982D01*
X9047Y143020D01*
X9681Y142195D01*
X10507Y141561D01*
X11468Y141163D01*
X12000Y141093D01*
Y144514D01*
D02*
G37*
G36*
X53000Y127713D02*
Y125764D01*
X54949D01*
X54855Y126239D01*
X54302Y127066D01*
X53475Y127619D01*
X53000Y127713D01*
D02*
G37*
G36*
X52000D02*
X51525Y127619D01*
X50698Y127066D01*
X50145Y126239D01*
X50050Y125764D01*
X52000D01*
Y127713D01*
D02*
G37*
G36*
X54949Y124764D02*
X53000D01*
Y122814D01*
X53475Y122909D01*
X54302Y123461D01*
X54855Y124288D01*
X54949Y124764D01*
D02*
G37*
G36*
X52000D02*
X50050D01*
X50145Y124288D01*
X50698Y123461D01*
X51525Y122909D01*
X52000Y122814D01*
Y124764D01*
D02*
G37*
G36*
X40500Y122863D02*
X40025Y122768D01*
X39198Y122216D01*
X38645Y121389D01*
X38550Y120913D01*
X40500D01*
Y122863D01*
D02*
G37*
G36*
X46500Y128250D02*
X45525Y128056D01*
X44698Y127504D01*
X44145Y126677D01*
X43951Y125701D01*
Y120955D01*
X43451Y120906D01*
X43355Y121389D01*
X42802Y122216D01*
X41976Y122768D01*
X41500Y122863D01*
Y120413D01*
Y117964D01*
X41976Y118058D01*
X42802Y118611D01*
X43355Y119438D01*
X43451Y119921D01*
X43951Y119872D01*
Y117296D01*
X44145Y116320D01*
X44698Y115493D01*
X57951Y102240D01*
Y83965D01*
X58145Y82989D01*
X58698Y82162D01*
X59525Y81610D01*
X60500Y81416D01*
X61475Y81610D01*
X62302Y82162D01*
X62855Y82989D01*
X63049Y83965D01*
Y103296D01*
X62855Y104271D01*
X62302Y105098D01*
X49049Y118351D01*
Y125701D01*
X48855Y126677D01*
X48302Y127504D01*
X47475Y128056D01*
X46500Y128250D01*
D02*
G37*
G36*
X40500Y119913D02*
X38550D01*
X38645Y119438D01*
X39198Y118611D01*
X40025Y118058D01*
X40500Y117964D01*
Y119913D01*
D02*
G37*
G36*
X64350Y113450D02*
Y111500D01*
X66300D01*
X66205Y111976D01*
X65653Y112802D01*
X64826Y113355D01*
X64350Y113450D01*
D02*
G37*
G36*
X63350D02*
X62875Y113355D01*
X62048Y112802D01*
X61496Y111976D01*
X61401Y111500D01*
X63350D01*
Y113450D01*
D02*
G37*
G36*
X66300Y110500D02*
X64350D01*
Y108551D01*
X64826Y108645D01*
X65653Y109198D01*
X66205Y110024D01*
X66300Y110500D01*
D02*
G37*
G36*
X63350D02*
X61401D01*
X61496Y110024D01*
X62048Y109198D01*
X62875Y108645D01*
X63350Y108551D01*
Y110500D01*
D02*
G37*
G36*
X12500Y159001D02*
X11468Y158865D01*
X10507Y158466D01*
X9681Y157833D01*
X9047Y157007D01*
X8649Y156046D01*
X8513Y155014D01*
X8649Y153982D01*
X9047Y153020D01*
X9681Y152195D01*
X10507Y151561D01*
X11468Y151163D01*
X12500Y151027D01*
X13532Y151163D01*
X14493Y151561D01*
X15319Y152195D01*
X15526Y152465D01*
X20320D01*
X39324Y133461D01*
X40151Y132909D01*
X41126Y132715D01*
X69594D01*
X89691Y112617D01*
Y105307D01*
X89885Y104332D01*
X90438Y103505D01*
X91265Y102952D01*
X92240Y102758D01*
X93216Y102952D01*
X94043Y103505D01*
X94595Y104332D01*
X94789Y105307D01*
Y113673D01*
X94595Y114649D01*
X94043Y115476D01*
X72452Y137066D01*
X71625Y137619D01*
X70650Y137813D01*
X42182D01*
X23178Y156816D01*
X22352Y157369D01*
X21376Y157563D01*
X15526D01*
X15319Y157833D01*
X14493Y158466D01*
X13532Y158865D01*
X12500Y159001D01*
D02*
G37*
G36*
X51453Y98716D02*
X43547D01*
Y97133D01*
X43103Y96798D01*
X43047Y96798D01*
X42445Y97583D01*
X41619Y98216D01*
X40658Y98615D01*
X40126Y98685D01*
Y94764D01*
Y90843D01*
X40658Y90913D01*
X41619Y91311D01*
X42445Y91945D01*
X43047Y92729D01*
X43103Y92730D01*
X43547Y92395D01*
Y90811D01*
X48206D01*
Y77330D01*
X48145Y77239D01*
X47951Y76264D01*
X48145Y75288D01*
X48698Y74461D01*
X49525Y73909D01*
X50500Y73715D01*
X51476Y73909D01*
X52302Y74461D01*
X52855Y75288D01*
X53049Y76264D01*
X52855Y77239D01*
X52794Y77330D01*
Y91764D01*
X52619Y92642D01*
X52122Y93386D01*
X51453Y94055D01*
Y98716D01*
D02*
G37*
G36*
X39126Y98685D02*
X38594Y98615D01*
X37633Y98216D01*
X36807Y97583D01*
X36173Y96757D01*
X35775Y95796D01*
X35705Y95264D01*
X39126D01*
Y98685D01*
D02*
G37*
G36*
Y94264D02*
X35705D01*
X35775Y93732D01*
X36173Y92770D01*
X36807Y91945D01*
X37633Y91311D01*
X38594Y90913D01*
X39126Y90843D01*
Y94264D01*
D02*
G37*
G36*
X38000Y64009D02*
Y62059D01*
X39950D01*
X39855Y62534D01*
X39302Y63362D01*
X38475Y63914D01*
X38000Y64009D01*
D02*
G37*
G36*
X37000D02*
X36525Y63914D01*
X35698Y63362D01*
X35145Y62534D01*
X35050Y62059D01*
X37000D01*
Y64009D01*
D02*
G37*
G36*
X88250Y62627D02*
Y60677D01*
X90200D01*
X90105Y61153D01*
X89552Y61980D01*
X88726Y62532D01*
X88250Y62627D01*
D02*
G37*
G36*
X87250D02*
X86774Y62532D01*
X85948Y61980D01*
X85395Y61153D01*
X85300Y60677D01*
X87250D01*
Y62627D01*
D02*
G37*
G36*
X39950Y61059D02*
X38000D01*
Y59109D01*
X38475Y59204D01*
X39302Y59757D01*
X39855Y60584D01*
X39950Y61059D01*
D02*
G37*
G36*
X37000D02*
X35050D01*
X35145Y60584D01*
X35698Y59757D01*
X36525Y59204D01*
X37000Y59109D01*
Y61059D01*
D02*
G37*
G36*
X23500Y80358D02*
X22525Y80164D01*
X21698Y79611D01*
X21145Y78785D01*
X20951Y77809D01*
Y61310D01*
X21145Y60335D01*
X21698Y59508D01*
X22525Y58955D01*
X23500Y58761D01*
X24475Y58955D01*
X25302Y59508D01*
X25855Y60335D01*
X26049Y61310D01*
Y77809D01*
X25855Y78785D01*
X25302Y79611D01*
X24475Y80164D01*
X23500Y80358D01*
D02*
G37*
G36*
X90200Y59677D02*
X88250D01*
Y57728D01*
X88726Y57823D01*
X89552Y58375D01*
X90105Y59202D01*
X90200Y59677D01*
D02*
G37*
G36*
X87250D02*
X85300D01*
X85395Y59202D01*
X85948Y58375D01*
X86774Y57823D01*
X87250Y57728D01*
Y59677D01*
D02*
G37*
G36*
X69500Y57510D02*
X69024Y57415D01*
X68198Y56862D01*
X67645Y56036D01*
X67550Y55560D01*
X69500D01*
Y57510D01*
D02*
G37*
G36*
X50500Y57858D02*
X49525Y57664D01*
X48698Y57112D01*
X48145Y56284D01*
X47951Y55309D01*
X48145Y54334D01*
X48342Y54039D01*
X48112Y53484D01*
X47525Y53367D01*
X46698Y52814D01*
X46145Y51987D01*
X45951Y51012D01*
X46145Y50036D01*
X46651Y49280D01*
X46553Y48750D01*
X46525Y48745D01*
X45698Y48192D01*
X45145Y47365D01*
X44951Y46390D01*
X45067Y45808D01*
X44606Y45562D01*
X33056Y57112D01*
X32229Y57664D01*
X31254Y57858D01*
X12500D01*
X11525Y57664D01*
X10698Y57112D01*
X10145Y56284D01*
X9951Y55309D01*
X10145Y54334D01*
X10698Y53507D01*
X11525Y52954D01*
X12500Y52760D01*
X30198D01*
X44761Y38198D01*
X45588Y37645D01*
X46563Y37451D01*
X54942D01*
X55121Y36951D01*
X54645Y36239D01*
X54550Y35764D01*
X57000D01*
Y35264D01*
X57500D01*
Y32814D01*
X57976Y32909D01*
X58802Y33461D01*
X59152Y33984D01*
X59652Y33833D01*
Y30003D01*
X59846Y29028D01*
X60398Y28201D01*
X64951Y23648D01*
Y15465D01*
X64563Y14959D01*
X64224Y14141D01*
X64109Y13264D01*
X64224Y12386D01*
X64563Y11568D01*
X65102Y10866D01*
X65804Y10327D01*
X66622Y9988D01*
X67500Y9873D01*
X68378Y9988D01*
X69196Y10327D01*
X69898Y10866D01*
X70437Y11568D01*
X70776Y12386D01*
X70891Y13264D01*
X70776Y14141D01*
X70437Y14959D01*
X70049Y15465D01*
Y24704D01*
X69855Y25679D01*
X69302Y26506D01*
X66177Y29631D01*
X66461Y30055D01*
X66622Y29988D01*
X67500Y29873D01*
X68378Y29988D01*
X69196Y30327D01*
X69898Y30866D01*
X70437Y31568D01*
X70776Y32386D01*
X70891Y33264D01*
X70776Y34141D01*
X70437Y34959D01*
X69898Y35662D01*
X69196Y36201D01*
X68378Y36539D01*
X67500Y36655D01*
X66622Y36539D01*
X65804Y36201D01*
X65250Y35775D01*
X64750Y35976D01*
Y43063D01*
X65250Y43270D01*
X73716Y34803D01*
X73819Y34288D01*
X74371Y33461D01*
X75198Y32909D01*
X75773Y32794D01*
X76372Y32394D01*
X77250Y32220D01*
X78128Y32394D01*
X78872Y32892D01*
X79369Y33636D01*
X79444Y34008D01*
X79986Y34173D01*
X85002Y29157D01*
X85829Y28604D01*
X86804Y28410D01*
X90444D01*
X94951Y23904D01*
Y19268D01*
X94563Y18763D01*
X94224Y17945D01*
X94109Y17067D01*
X94224Y16189D01*
X94563Y15371D01*
X95102Y14669D01*
X95804Y14130D01*
X96622Y13791D01*
X97500Y13676D01*
X98378Y13791D01*
X99196Y14130D01*
X99898Y14669D01*
X100437Y15371D01*
X100776Y16189D01*
X100891Y17067D01*
X100776Y17945D01*
X100437Y18763D01*
X100049Y19268D01*
Y24959D01*
X99855Y25935D01*
X99302Y26762D01*
X93302Y32762D01*
X92475Y33314D01*
X91500Y33508D01*
X87860D01*
X79302Y42066D01*
X69210Y52158D01*
X69456Y52619D01*
X69500Y52610D01*
Y54560D01*
X67550D01*
X67559Y54517D01*
X67098Y54270D01*
X66302Y55066D01*
X65475Y55619D01*
X64500Y55813D01*
X53601D01*
X52302Y57112D01*
X51476Y57664D01*
X50500Y57858D01*
D02*
G37*
G36*
X14453Y42217D02*
X11000D01*
Y38764D01*
X14453D01*
Y42217D01*
D02*
G37*
G36*
X10000D02*
X6547D01*
Y38764D01*
X10000D01*
Y42217D01*
D02*
G37*
G36*
X136661Y37642D02*
Y35693D01*
X138611D01*
X138516Y36168D01*
X137964Y36995D01*
X137137Y37548D01*
X136661Y37642D01*
D02*
G37*
G36*
X135661D02*
X135186Y37548D01*
X134359Y36995D01*
X133807Y36168D01*
X133712Y35693D01*
X135661D01*
Y37642D01*
D02*
G37*
G36*
X129091D02*
Y35693D01*
X131040D01*
X130946Y36168D01*
X130393Y36995D01*
X129566Y37548D01*
X129091Y37642D01*
D02*
G37*
G36*
X128091D02*
X127615Y37548D01*
X126788Y36995D01*
X126236Y36168D01*
X126141Y35693D01*
X128091D01*
Y37642D01*
D02*
G37*
G36*
X14453Y37764D02*
X11000D01*
Y34311D01*
X14453D01*
Y37764D01*
D02*
G37*
G36*
X10000D02*
X6547D01*
Y34311D01*
X10000D01*
Y37764D01*
D02*
G37*
G36*
X56500Y34764D02*
X54550D01*
X54645Y34288D01*
X55198Y33461D01*
X56024Y32909D01*
X56500Y32814D01*
Y34764D01*
D02*
G37*
G36*
X70500Y57510D02*
Y55060D01*
Y52610D01*
X70976Y52705D01*
X71485Y53045D01*
X72040Y52815D01*
X72145Y52288D01*
X72698Y51461D01*
X73525Y50909D01*
X74500Y50715D01*
X79444D01*
X101776Y28383D01*
X102603Y27830D01*
X103579Y27636D01*
X103975Y27715D01*
X114951D01*
Y19268D01*
X114563Y18763D01*
X114224Y17945D01*
X114109Y17067D01*
X114224Y16189D01*
X114563Y15371D01*
X115102Y14669D01*
X115804Y14130D01*
X116622Y13791D01*
X117500Y13676D01*
X118378Y13791D01*
X119196Y14130D01*
X119898Y14669D01*
X120437Y15371D01*
X120776Y16189D01*
X120891Y17067D01*
X120776Y17945D01*
X120437Y18763D01*
X120049Y19268D01*
Y27715D01*
X134684D01*
X134951Y27215D01*
X134610Y26704D01*
X134515Y26228D01*
X139414D01*
X139320Y26704D01*
X138978Y27215D01*
X139245Y27715D01*
X146374D01*
X147350Y27909D01*
X148176Y28461D01*
X152302Y32587D01*
X152855Y33414D01*
X153049Y34390D01*
X152855Y35365D01*
X152302Y36192D01*
X151476Y36745D01*
X150500Y36939D01*
X149525Y36745D01*
X148698Y36192D01*
X145318Y32813D01*
X137999D01*
X137847Y33313D01*
X137964Y33391D01*
X138516Y34218D01*
X138611Y34693D01*
X133712D01*
X133807Y34218D01*
X134359Y33391D01*
X134475Y33313D01*
X134324Y32813D01*
X130428D01*
X130277Y33313D01*
X130393Y33391D01*
X130946Y34218D01*
X131040Y34693D01*
X126141D01*
X126236Y34218D01*
X126788Y33391D01*
X126904Y33313D01*
X126753Y32813D01*
X104556D01*
X82302Y55066D01*
X81476Y55619D01*
X80500Y55813D01*
X74500D01*
X73525Y55619D01*
X73015Y55278D01*
X72460Y55509D01*
X72355Y56036D01*
X71802Y56862D01*
X70976Y57415D01*
X70500Y57510D01*
D02*
G37*
G36*
X10500Y32251D02*
X9468Y32115D01*
X8507Y31716D01*
X7681Y31083D01*
X7047Y30257D01*
X6649Y29296D01*
X6513Y28264D01*
X6649Y27232D01*
X7047Y26270D01*
X7681Y25445D01*
X8507Y24811D01*
X9468Y24413D01*
X10500Y24277D01*
X11532Y24413D01*
X12493Y24811D01*
X13319Y25445D01*
X13953Y26270D01*
X14351Y27232D01*
X14487Y28264D01*
X14351Y29296D01*
X13953Y30257D01*
X13319Y31083D01*
X12493Y31716D01*
X11532Y32115D01*
X10500Y32251D01*
D02*
G37*
G36*
X139414Y25228D02*
X137465D01*
Y23279D01*
X137940Y23373D01*
X138767Y23926D01*
X139320Y24753D01*
X139414Y25228D01*
D02*
G37*
G36*
X136465D02*
X134515D01*
X134610Y24753D01*
X135162Y23926D01*
X135989Y23373D01*
X136465Y23279D01*
Y25228D01*
D02*
G37*
G36*
X11000Y22185D02*
Y18764D01*
X14421D01*
X14351Y19296D01*
X13953Y20257D01*
X13319Y21083D01*
X12493Y21716D01*
X11532Y22115D01*
X11000Y22185D01*
D02*
G37*
G36*
X10000D02*
X9468Y22115D01*
X8507Y21716D01*
X7681Y21083D01*
X7047Y20257D01*
X6649Y19296D01*
X6579Y18764D01*
X10000D01*
Y22185D01*
D02*
G37*
G36*
X137465Y19516D02*
Y17567D01*
X139414D01*
X139320Y18042D01*
X138767Y18869D01*
X137940Y19422D01*
X137465Y19516D01*
D02*
G37*
G36*
X136465D02*
X135989Y19422D01*
X135162Y18869D01*
X134610Y18042D01*
X134515Y17567D01*
X136465D01*
Y19516D01*
D02*
G37*
G36*
X139414Y16567D02*
X137465D01*
Y14617D01*
X137940Y14712D01*
X138767Y15265D01*
X139320Y16092D01*
X139414Y16567D01*
D02*
G37*
G36*
X136465D02*
X134515D01*
X134610Y16092D01*
X135162Y15265D01*
X135989Y14712D01*
X136465Y14617D01*
Y16567D01*
D02*
G37*
G36*
X213500Y36277D02*
X202012D01*
X201036Y36083D01*
X200209Y35531D01*
X184491Y19813D01*
X182500D01*
X181525Y19619D01*
X180698Y19066D01*
X180145Y18239D01*
X179951Y17264D01*
X180145Y16288D01*
X180698Y15461D01*
X181525Y14909D01*
X182500Y14715D01*
X184371D01*
X184375Y14712D01*
X185350Y14518D01*
X186326Y14712D01*
X187153Y15265D01*
X203068Y31179D01*
X213500D01*
X214475Y31373D01*
X215302Y31926D01*
X215855Y32753D01*
X216049Y33728D01*
X215855Y34704D01*
X215302Y35531D01*
X214475Y36083D01*
X213500Y36277D01*
D02*
G37*
G36*
X83000Y16463D02*
Y14514D01*
X84949D01*
X84855Y14989D01*
X84302Y15816D01*
X83476Y16369D01*
X83000Y16463D01*
D02*
G37*
G36*
X82000D02*
X81525Y16369D01*
X80698Y15816D01*
X80145Y14989D01*
X80050Y14514D01*
X82000D01*
Y16463D01*
D02*
G37*
G36*
X14421Y17764D02*
X11000D01*
Y14343D01*
X11532Y14413D01*
X12493Y14811D01*
X13319Y15445D01*
X13953Y16270D01*
X14351Y17232D01*
X14421Y17764D01*
D02*
G37*
G36*
X10000D02*
X6579D01*
X6649Y17232D01*
X7047Y16270D01*
X7681Y15445D01*
X8507Y14811D01*
X9468Y14413D01*
X10000Y14343D01*
Y17764D01*
D02*
G37*
G36*
X105500Y15699D02*
Y13750D01*
X107449D01*
X107355Y14225D01*
X106802Y15052D01*
X105975Y15605D01*
X105500Y15699D01*
D02*
G37*
G36*
X104500D02*
X104025Y15605D01*
X103198Y15052D01*
X102645Y14225D01*
X102550Y13750D01*
X104500D01*
Y15699D01*
D02*
G37*
G36*
X253000Y16567D02*
X249579D01*
X249649Y16035D01*
X250047Y15074D01*
X250681Y14248D01*
X251507Y13614D01*
X252468Y13216D01*
X253000Y13146D01*
Y16567D01*
D02*
G37*
G36*
X257421D02*
X254000D01*
Y13146D01*
X254532Y13216D01*
X255493Y13614D01*
X256319Y14248D01*
X256953Y15074D01*
X257351Y16035D01*
X257421Y16567D01*
D02*
G37*
G36*
X225000Y16185D02*
Y12764D01*
X228421D01*
X228351Y13296D01*
X227953Y14257D01*
X227319Y15083D01*
X226493Y15717D01*
X225532Y16115D01*
X225000Y16185D01*
D02*
G37*
G36*
X224000D02*
X223468Y16115D01*
X222507Y15717D01*
X221681Y15083D01*
X221047Y14257D01*
X220649Y13296D01*
X220579Y12764D01*
X224000D01*
Y16185D01*
D02*
G37*
G36*
X208453Y16217D02*
X205000D01*
Y12764D01*
X208453D01*
Y16217D01*
D02*
G37*
G36*
X204000D02*
X200547D01*
Y12764D01*
X204000D01*
Y16217D01*
D02*
G37*
G36*
X267000Y13713D02*
X266525Y13619D01*
X265698Y13066D01*
X265145Y12239D01*
X265051Y11764D01*
X267000D01*
Y13713D01*
D02*
G37*
G36*
X84949Y13514D02*
X83000D01*
Y11564D01*
X83476Y11659D01*
X84302Y12211D01*
X84855Y13038D01*
X84949Y13514D01*
D02*
G37*
G36*
X82000D02*
X80050D01*
X80145Y13038D01*
X80698Y12211D01*
X81525Y11659D01*
X82000Y11564D01*
Y13514D01*
D02*
G37*
G36*
X107449Y12750D02*
X105500D01*
Y10801D01*
X105975Y10895D01*
X106802Y11448D01*
X107355Y12275D01*
X107449Y12750D01*
D02*
G37*
G36*
X104500D02*
X102550D01*
X102645Y12275D01*
X103198Y11448D01*
X104025Y10895D01*
X104500Y10801D01*
Y12750D01*
D02*
G37*
G36*
X41743Y30883D02*
X39852D01*
X39753Y30864D01*
X39653D01*
X37798Y30495D01*
X37705Y30456D01*
X37607Y30437D01*
X35860Y29713D01*
X35776Y29657D01*
X35684Y29619D01*
X34111Y28568D01*
X34040Y28497D01*
X33957Y28442D01*
X32620Y27104D01*
X32564Y27021D01*
X32493Y26950D01*
X31442Y25378D01*
X31404Y25285D01*
X31348Y25201D01*
X30624Y23454D01*
X30605Y23356D01*
X30566Y23263D01*
X30197Y21408D01*
Y21308D01*
X30178Y21209D01*
Y19318D01*
X30197Y19220D01*
Y19119D01*
X30566Y17265D01*
X30605Y17172D01*
X30624Y17073D01*
X31348Y15326D01*
X31404Y15243D01*
X31442Y15150D01*
X32493Y13578D01*
X32564Y13507D01*
X32620Y13423D01*
X33957Y12086D01*
X34040Y12030D01*
X34111Y11959D01*
X35684Y10909D01*
X35776Y10870D01*
X35860Y10814D01*
X37607Y10091D01*
X37705Y10071D01*
X37798Y10033D01*
X39653Y9664D01*
X39753D01*
X39852Y9644D01*
X41743D01*
X41841Y9664D01*
X41942D01*
X43796Y10033D01*
X43889Y10071D01*
X43988Y10091D01*
X45735Y10814D01*
X45818Y10870D01*
X45911Y10909D01*
X47483Y11959D01*
X47554Y12030D01*
X47638Y12086D01*
X48975Y13423D01*
X49031Y13507D01*
X49102Y13578D01*
X50152Y15150D01*
X50191Y15243D01*
X50247Y15326D01*
X50970Y17073D01*
X50990Y17172D01*
X51028Y17265D01*
X51397Y19119D01*
Y19220D01*
X51417Y19318D01*
Y21209D01*
X51397Y21308D01*
Y21408D01*
X51028Y23263D01*
X50990Y23356D01*
X50970Y23454D01*
X50247Y25201D01*
X50191Y25285D01*
X50152Y25378D01*
X49102Y26950D01*
X49031Y27021D01*
X48975Y27104D01*
X47638Y28442D01*
X47554Y28497D01*
X47483Y28568D01*
X45911Y29619D01*
X45818Y29657D01*
X45735Y29713D01*
X43988Y30437D01*
X43889Y30456D01*
X43796Y30495D01*
X41942Y30864D01*
X41841D01*
X41743Y30883D01*
D02*
G37*
G36*
X267000Y10764D02*
X265051D01*
X265145Y10288D01*
X265698Y9461D01*
X266525Y8909D01*
X267000Y8814D01*
Y10764D01*
D02*
G37*
G36*
X228421Y11764D02*
X225000D01*
Y8343D01*
X225532Y8413D01*
X226493Y8811D01*
X227319Y9445D01*
X227953Y10270D01*
X228351Y11232D01*
X228421Y11764D01*
D02*
G37*
G36*
X224000D02*
X220579D01*
X220649Y11232D01*
X221047Y10270D01*
X221681Y9445D01*
X222507Y8811D01*
X223468Y8413D01*
X224000Y8343D01*
Y11764D01*
D02*
G37*
G36*
X208453D02*
X205000D01*
Y8311D01*
X208453D01*
Y11764D01*
D02*
G37*
G36*
X204000D02*
X200547D01*
Y8311D01*
X204000D01*
Y11764D01*
D02*
G37*
G36*
X214500Y16251D02*
X213468Y16115D01*
X212507Y15717D01*
X211681Y15083D01*
X211047Y14257D01*
X210649Y13296D01*
X210513Y12264D01*
X210649Y11232D01*
X211047Y10270D01*
X211681Y9445D01*
X212507Y8811D01*
X213468Y8413D01*
X214500Y8277D01*
X215532Y8413D01*
X216493Y8811D01*
X217319Y9445D01*
X217953Y10270D01*
X218351Y11232D01*
X218487Y12264D01*
X218351Y13296D01*
X217953Y14257D01*
X217319Y15083D01*
X216493Y15717D01*
X215532Y16115D01*
X214500Y16251D01*
D02*
G37*
G36*
X367453Y165717D02*
X364000D01*
Y162264D01*
X367453D01*
Y165717D01*
D02*
G37*
G36*
X294000Y165685D02*
Y162264D01*
X297421D01*
X297351Y162796D01*
X296953Y163757D01*
X296319Y164583D01*
X295493Y165217D01*
X294532Y165615D01*
X294000Y165685D01*
D02*
G37*
G36*
X363000Y165717D02*
X359547D01*
Y162264D01*
X363000D01*
Y165717D01*
D02*
G37*
G36*
X297421Y161264D02*
X294000D01*
Y157843D01*
X294532Y157913D01*
X295493Y158311D01*
X296319Y158945D01*
X296953Y159770D01*
X297351Y160732D01*
X297421Y161264D01*
D02*
G37*
G36*
X367453D02*
X364000D01*
Y157811D01*
X367453D01*
Y161264D01*
D02*
G37*
G36*
X363000D02*
X359547D01*
Y157811D01*
X363000D01*
Y161264D01*
D02*
G37*
G36*
X313500Y165751D02*
X312468Y165615D01*
X311507Y165217D01*
X310681Y164583D01*
X310047Y163757D01*
X309649Y162796D01*
X309513Y161764D01*
X309649Y160732D01*
X310047Y159770D01*
X310681Y158945D01*
X311507Y158311D01*
X312468Y157913D01*
X313500Y157777D01*
X314532Y157913D01*
X315493Y158311D01*
X316319Y158945D01*
X316953Y159770D01*
X317351Y160732D01*
X317487Y161764D01*
X317351Y162796D01*
X316953Y163757D01*
X316319Y164583D01*
X315493Y165217D01*
X314532Y165615D01*
X313500Y165751D01*
D02*
G37*
G36*
X303500D02*
X302468Y165615D01*
X301507Y165217D01*
X300681Y164583D01*
X300047Y163757D01*
X299649Y162796D01*
X299513Y161764D01*
X299649Y160732D01*
X300047Y159770D01*
X300681Y158945D01*
X301507Y158311D01*
X302468Y157913D01*
X303500Y157777D01*
X304532Y157913D01*
X305493Y158311D01*
X306319Y158945D01*
X306953Y159770D01*
X307351Y160732D01*
X307487Y161764D01*
X307351Y162796D01*
X306953Y163757D01*
X306319Y164583D01*
X305493Y165217D01*
X304532Y165615D01*
X303500Y165751D01*
D02*
G37*
G36*
X386453Y154217D02*
X378547D01*
Y146311D01*
X380131D01*
X380466Y145867D01*
X380466Y145811D01*
X379681Y145209D01*
X379047Y144383D01*
X378649Y143422D01*
X378579Y142890D01*
X382500D01*
X386421D01*
X386351Y143422D01*
X385953Y144383D01*
X385319Y145209D01*
X384534Y145811D01*
X384534Y145867D01*
X384869Y146311D01*
X386453D01*
Y154217D01*
D02*
G37*
G36*
X276000Y143963D02*
Y142014D01*
X277950D01*
X277855Y142489D01*
X277302Y143316D01*
X276476Y143869D01*
X276000Y143963D01*
D02*
G37*
G36*
X275000D02*
X274525Y143869D01*
X273698Y143316D01*
X273145Y142489D01*
X273050Y142014D01*
X275000D01*
Y143963D01*
D02*
G37*
G36*
X277950Y141014D02*
X276000D01*
Y139064D01*
X276476Y139159D01*
X277302Y139711D01*
X277855Y140538D01*
X277950Y141014D01*
D02*
G37*
G36*
X275000D02*
X273050D01*
X273145Y140538D01*
X273698Y139711D01*
X274525Y139159D01*
X275000Y139064D01*
Y141014D01*
D02*
G37*
G36*
X355087Y140713D02*
Y138764D01*
X357036D01*
X356942Y139239D01*
X356389Y140066D01*
X355562Y140619D01*
X355087Y140713D01*
D02*
G37*
G36*
X354087D02*
X353611Y140619D01*
X352785Y140066D01*
X352232Y139239D01*
X352137Y138764D01*
X354087D01*
Y140713D01*
D02*
G37*
G36*
X382000Y141890D02*
X378579D01*
X378649Y141358D01*
X379047Y140396D01*
X379681Y139571D01*
X380507Y138937D01*
X381468Y138539D01*
X382000Y138469D01*
Y141890D01*
D02*
G37*
G36*
X386421D02*
X383000D01*
Y138469D01*
X383532Y138539D01*
X384493Y138937D01*
X385319Y139571D01*
X385953Y140396D01*
X386351Y141358D01*
X386421Y141890D01*
D02*
G37*
G36*
X309846Y146189D02*
X301154D01*
Y137496D01*
X309846D01*
Y146189D01*
D02*
G37*
G36*
X357036Y137764D02*
X355087D01*
Y135814D01*
X355562Y135909D01*
X356389Y136461D01*
X356942Y137288D01*
X357036Y137764D01*
D02*
G37*
G36*
X354087D02*
X352137D01*
X352232Y137288D01*
X352785Y136461D01*
X353611Y135909D01*
X354087Y135814D01*
Y137764D01*
D02*
G37*
G36*
X331461Y135950D02*
Y134000D01*
X333411D01*
X333316Y134476D01*
X332763Y135302D01*
X331936Y135855D01*
X331461Y135950D01*
D02*
G37*
G36*
X330461D02*
X329985Y135855D01*
X329159Y135302D01*
X328606Y134476D01*
X328512Y134000D01*
X330461D01*
Y135950D01*
D02*
G37*
G36*
X333411Y133000D02*
X331461D01*
Y131051D01*
X331936Y131145D01*
X332763Y131698D01*
X333316Y132525D01*
X333411Y133000D01*
D02*
G37*
G36*
X330461D02*
X328512D01*
X328606Y132525D01*
X329159Y131698D01*
X329985Y131145D01*
X330461Y131051D01*
Y133000D01*
D02*
G37*
G36*
X271980Y109666D02*
Y107717D01*
X273930D01*
X273835Y108192D01*
X273283Y109019D01*
X272456Y109572D01*
X271980Y109666D01*
D02*
G37*
G36*
X270980D02*
X270505Y109572D01*
X269678Y109019D01*
X269125Y108192D01*
X269031Y107717D01*
X270980D01*
Y109666D01*
D02*
G37*
G36*
X330547Y107876D02*
Y105927D01*
X332497D01*
X332402Y106402D01*
X331850Y107229D01*
X331023Y107782D01*
X330547Y107876D01*
D02*
G37*
G36*
X329547D02*
X329072Y107782D01*
X328245Y107229D01*
X327692Y106402D01*
X327598Y105927D01*
X329547D01*
Y107876D01*
D02*
G37*
G36*
X273930Y106717D02*
X271980D01*
Y104767D01*
X272456Y104862D01*
X273283Y105414D01*
X273835Y106241D01*
X273930Y106717D01*
D02*
G37*
G36*
X270980D02*
X269031D01*
X269125Y106241D01*
X269678Y105414D01*
X270505Y104862D01*
X270980Y104767D01*
Y106717D01*
D02*
G37*
G36*
X332497Y104927D02*
X330547D01*
Y102977D01*
X331023Y103072D01*
X331850Y103624D01*
X332402Y104451D01*
X332497Y104927D01*
D02*
G37*
G36*
X329547D02*
X327598D01*
X327692Y104451D01*
X328245Y103624D01*
X329072Y103072D01*
X329547Y102977D01*
Y104927D01*
D02*
G37*
G36*
X310000Y101588D02*
Y99639D01*
X311949D01*
X311855Y100114D01*
X311302Y100941D01*
X310475Y101494D01*
X310000Y101588D01*
D02*
G37*
G36*
X309000D02*
X308525Y101494D01*
X307698Y100941D01*
X307145Y100114D01*
X307050Y99639D01*
X309000D01*
Y101588D01*
D02*
G37*
G36*
X311949Y98639D02*
X310000D01*
Y96689D01*
X310475Y96784D01*
X311302Y97336D01*
X311855Y98163D01*
X311949Y98639D01*
D02*
G37*
G36*
X309000D02*
X307050D01*
X307145Y98163D01*
X307698Y97336D01*
X308525Y96784D01*
X309000Y96689D01*
Y98639D01*
D02*
G37*
G36*
X304000Y54713D02*
Y52764D01*
X305949D01*
X305855Y53239D01*
X305302Y54066D01*
X304475Y54619D01*
X304000Y54713D01*
D02*
G37*
G36*
X303000D02*
X302525Y54619D01*
X301698Y54066D01*
X301145Y53239D01*
X301050Y52764D01*
X303000D01*
Y54713D01*
D02*
G37*
G36*
X345000Y54933D02*
Y51512D01*
X348421D01*
X348351Y52044D01*
X347953Y53005D01*
X347319Y53831D01*
X346493Y54465D01*
X345532Y54863D01*
X345000Y54933D01*
D02*
G37*
G36*
X344000D02*
X343468Y54863D01*
X342507Y54465D01*
X341681Y53831D01*
X341047Y53005D01*
X340649Y52044D01*
X340579Y51512D01*
X344000D01*
Y54933D01*
D02*
G37*
G36*
X305949Y51764D02*
X304000D01*
Y49814D01*
X304475Y49909D01*
X305302Y50461D01*
X305855Y51288D01*
X305949Y51764D01*
D02*
G37*
G36*
X303000D02*
X301050D01*
X301145Y51288D01*
X301698Y50461D01*
X302525Y49909D01*
X303000Y49814D01*
Y51764D01*
D02*
G37*
G36*
X248000Y47463D02*
X247525Y47369D01*
X246698Y46816D01*
X246145Y45989D01*
X246051Y45514D01*
X248000D01*
Y47463D01*
D02*
G37*
G36*
Y44514D02*
X246051D01*
X246145Y44038D01*
X246698Y43211D01*
X247525Y42659D01*
X248000Y42564D01*
Y44514D01*
D02*
G37*
G36*
X303847Y47610D02*
X295154D01*
Y38917D01*
X303847D01*
Y47610D01*
D02*
G37*
G36*
X257453Y40856D02*
Y38906D01*
X259402D01*
X259308Y39382D01*
X258755Y40209D01*
X257928Y40761D01*
X257453Y40856D01*
D02*
G37*
G36*
X259402Y37906D02*
X257453D01*
Y35957D01*
X257928Y36051D01*
X258755Y36604D01*
X259308Y37431D01*
X259402Y37906D01*
D02*
G37*
G36*
X292750Y32449D02*
Y30500D01*
X294700D01*
X294605Y30975D01*
X294052Y31802D01*
X293226Y32355D01*
X292750Y32449D01*
D02*
G37*
G36*
X291750D02*
X291275Y32355D01*
X290448Y31802D01*
X289895Y30975D01*
X289801Y30500D01*
X291750D01*
Y32449D01*
D02*
G37*
G36*
X325950Y24504D02*
X324000D01*
Y22554D01*
X324476Y22649D01*
X325302Y23201D01*
X325855Y24028D01*
X325950Y24504D01*
D02*
G37*
G36*
X323000D02*
X321051D01*
X321145Y24028D01*
X321698Y23201D01*
X322525Y22649D01*
X323000Y22554D01*
Y24504D01*
D02*
G37*
G36*
X367453Y21020D02*
X364000D01*
Y17567D01*
X367453D01*
Y21020D01*
D02*
G37*
G36*
X363000D02*
X359547D01*
Y17567D01*
X363000D01*
Y21020D01*
D02*
G37*
G36*
X297421Y16567D02*
X294000D01*
Y13146D01*
X294532Y13216D01*
X295493Y13614D01*
X296319Y14248D01*
X296953Y15074D01*
X297351Y16035D01*
X297421Y16567D01*
D02*
G37*
G36*
X367453D02*
X364000D01*
Y13114D01*
X367453D01*
Y16567D01*
D02*
G37*
G36*
X363000D02*
X359547D01*
Y13114D01*
X363000D01*
Y16567D01*
D02*
G37*
G36*
X371300Y122613D02*
Y120664D01*
X373250D01*
X373155Y121139D01*
X372602Y121966D01*
X371776Y122519D01*
X371300Y122613D01*
D02*
G37*
G36*
X370300D02*
X369825Y122519D01*
X368998Y121966D01*
X368445Y121139D01*
X368351Y120664D01*
X370300D01*
Y122613D01*
D02*
G37*
G36*
X384949Y120764D02*
X383000D01*
Y118814D01*
X383475Y118909D01*
X384302Y119461D01*
X384855Y120288D01*
X384949Y120764D01*
D02*
G37*
G36*
X382000D02*
X380050D01*
X380145Y120288D01*
X380698Y119461D01*
X381525Y118909D01*
X382000Y118814D01*
Y120764D01*
D02*
G37*
G36*
X358000Y113463D02*
X357525Y113369D01*
X356698Y112816D01*
X356145Y111989D01*
X356050Y111514D01*
X358000D01*
Y113463D01*
D02*
G37*
G36*
X360949Y110514D02*
X359000D01*
Y108564D01*
X359475Y108659D01*
X360302Y109211D01*
X360855Y110038D01*
X360949Y110514D01*
D02*
G37*
G36*
X358000D02*
X356050D01*
X356145Y110038D01*
X356698Y109211D01*
X357525Y108659D01*
X358000Y108564D01*
Y110514D01*
D02*
G37*
G36*
X369642Y75713D02*
X369167Y75619D01*
X368340Y75066D01*
X367787Y74239D01*
X367693Y73764D01*
X369642D01*
Y75713D01*
D02*
G37*
G36*
X419000Y165185D02*
Y161764D01*
X422421D01*
X422351Y162296D01*
X421953Y163257D01*
X421319Y164083D01*
X420493Y164716D01*
X419532Y165115D01*
X419000Y165185D01*
D02*
G37*
G36*
X472453Y165217D02*
X469000D01*
Y161764D01*
X472453D01*
Y165217D01*
D02*
G37*
G36*
X418000Y165185D02*
X417468Y165115D01*
X416507Y164716D01*
X415681Y164083D01*
X415047Y163257D01*
X414649Y162296D01*
X414579Y161764D01*
X418000D01*
Y165185D01*
D02*
G37*
G36*
X468000Y165217D02*
X464547D01*
Y161764D01*
X468000D01*
Y165217D01*
D02*
G37*
G36*
X418000Y160764D02*
X414579D01*
X414649Y160232D01*
X415047Y159270D01*
X415681Y158445D01*
X416507Y157811D01*
X417468Y157413D01*
X418000Y157343D01*
Y160764D01*
D02*
G37*
G36*
X422421D02*
X419000D01*
Y157343D01*
X419532Y157413D01*
X420493Y157811D01*
X421319Y158445D01*
X421953Y159270D01*
X422351Y160232D01*
X422421Y160764D01*
D02*
G37*
G36*
X556268Y165217D02*
X548362D01*
Y157311D01*
X556268D01*
Y165217D01*
D02*
G37*
G36*
X532642D02*
X524736D01*
Y157311D01*
X532642D01*
Y165217D01*
D02*
G37*
G36*
X509403D02*
X501497D01*
Y157311D01*
X509403D01*
Y165217D01*
D02*
G37*
G36*
X486178D02*
X478273D01*
Y157311D01*
X486178D01*
Y165217D01*
D02*
G37*
G36*
X472453Y160764D02*
X469000D01*
Y157311D01*
X472453D01*
Y160764D01*
D02*
G37*
G36*
X468000D02*
X464547D01*
Y157311D01*
X468000D01*
Y160764D01*
D02*
G37*
G36*
X407453Y165217D02*
X399547D01*
Y157311D01*
X407453D01*
Y165217D01*
D02*
G37*
G36*
X562315Y165251D02*
X561283Y165115D01*
X560322Y164716D01*
X559496Y164083D01*
X558862Y163257D01*
X558464Y162296D01*
X558328Y161264D01*
X558464Y160232D01*
X558862Y159270D01*
X559496Y158445D01*
X560322Y157811D01*
X561283Y157413D01*
X562315Y157277D01*
X563347Y157413D01*
X564308Y157811D01*
X565134Y158445D01*
X565768Y159270D01*
X566166Y160232D01*
X566302Y161264D01*
X566166Y162296D01*
X565768Y163257D01*
X565134Y164083D01*
X564308Y164716D01*
X563347Y165115D01*
X562315Y165251D01*
D02*
G37*
G36*
X538689D02*
X537657Y165115D01*
X536696Y164716D01*
X535870Y164083D01*
X535236Y163257D01*
X534838Y162296D01*
X534702Y161264D01*
X534838Y160232D01*
X535236Y159270D01*
X535870Y158445D01*
X536696Y157811D01*
X537657Y157413D01*
X538689Y157277D01*
X539721Y157413D01*
X540682Y157811D01*
X541508Y158445D01*
X542142Y159270D01*
X542540Y160232D01*
X542676Y161264D01*
X542540Y162296D01*
X542142Y163257D01*
X541508Y164083D01*
X540682Y164716D01*
X539721Y165115D01*
X538689Y165251D01*
D02*
G37*
G36*
X515450D02*
X514418Y165115D01*
X513456Y164716D01*
X512631Y164083D01*
X511997Y163257D01*
X511599Y162296D01*
X511463Y161264D01*
X511599Y160232D01*
X511997Y159270D01*
X512631Y158445D01*
X513456Y157811D01*
X514418Y157413D01*
X515450Y157277D01*
X516482Y157413D01*
X517443Y157811D01*
X518269Y158445D01*
X518902Y159270D01*
X519301Y160232D01*
X519437Y161264D01*
X519301Y162296D01*
X518902Y163257D01*
X518269Y164083D01*
X517443Y164716D01*
X516482Y165115D01*
X515450Y165251D01*
D02*
G37*
G36*
X492225D02*
X491193Y165115D01*
X490232Y164716D01*
X489406Y164083D01*
X488773Y163257D01*
X488374Y162296D01*
X488238Y161264D01*
X488374Y160232D01*
X488773Y159270D01*
X489406Y158445D01*
X490232Y157811D01*
X491193Y157413D01*
X492225Y157277D01*
X493257Y157413D01*
X494219Y157811D01*
X495045Y158445D01*
X495678Y159270D01*
X496076Y160232D01*
X496212Y161264D01*
X496076Y162296D01*
X495678Y163257D01*
X495045Y164083D01*
X494219Y164716D01*
X493257Y165115D01*
X492225Y165251D01*
D02*
G37*
G36*
X458500D02*
X457468Y165115D01*
X456507Y164716D01*
X455681Y164083D01*
X455047Y163257D01*
X454649Y162296D01*
X454513Y161264D01*
X454649Y160232D01*
X455047Y159270D01*
X455681Y158445D01*
X456507Y157811D01*
X457468Y157413D01*
X458500Y157277D01*
X459532Y157413D01*
X460493Y157811D01*
X461319Y158445D01*
X461953Y159270D01*
X462351Y160232D01*
X462487Y161264D01*
X462351Y162296D01*
X461953Y163257D01*
X461319Y164083D01*
X460493Y164716D01*
X459532Y165115D01*
X458500Y165251D01*
D02*
G37*
G36*
X448500D02*
X447468Y165115D01*
X446507Y164716D01*
X445681Y164083D01*
X445047Y163257D01*
X444649Y162296D01*
X444513Y161264D01*
X444649Y160232D01*
X445047Y159270D01*
X445681Y158445D01*
X446507Y157811D01*
X447468Y157413D01*
X448500Y157277D01*
X449532Y157413D01*
X450493Y157811D01*
X451319Y158445D01*
X451953Y159270D01*
X452351Y160232D01*
X452487Y161264D01*
X452351Y162296D01*
X451953Y163257D01*
X451319Y164083D01*
X450493Y164716D01*
X449532Y165115D01*
X448500Y165251D01*
D02*
G37*
G36*
X438500D02*
X437468Y165115D01*
X436507Y164716D01*
X435681Y164083D01*
X435047Y163257D01*
X434649Y162296D01*
X434513Y161264D01*
X434649Y160232D01*
X435047Y159270D01*
X435681Y158445D01*
X436507Y157811D01*
X437468Y157413D01*
X438500Y157277D01*
X439532Y157413D01*
X440493Y157811D01*
X441319Y158445D01*
X441953Y159270D01*
X442351Y160232D01*
X442487Y161264D01*
X442351Y162296D01*
X441953Y163257D01*
X441319Y164083D01*
X440493Y164716D01*
X439532Y165115D01*
X438500Y165251D01*
D02*
G37*
G36*
X428500D02*
X427468Y165115D01*
X426507Y164716D01*
X425681Y164083D01*
X425047Y163257D01*
X424649Y162296D01*
X424513Y161264D01*
X424649Y160232D01*
X425047Y159270D01*
X425681Y158445D01*
X426507Y157811D01*
X427468Y157413D01*
X428500Y157277D01*
X429532Y157413D01*
X430493Y157811D01*
X431319Y158445D01*
X431953Y159270D01*
X432351Y160232D01*
X432487Y161264D01*
X432351Y162296D01*
X431953Y163257D01*
X431319Y164083D01*
X430493Y164716D01*
X429532Y165115D01*
X428500Y165251D01*
D02*
G37*
G36*
X403500Y155251D02*
X402468Y155115D01*
X401507Y154717D01*
X400681Y154083D01*
X400047Y153257D01*
X399649Y152296D01*
X399513Y151264D01*
X399649Y150232D01*
X400047Y149270D01*
X400681Y148445D01*
X401507Y147811D01*
X402468Y147413D01*
X403500Y147277D01*
X404532Y147413D01*
X405493Y147811D01*
X406319Y148445D01*
X406953Y149270D01*
X407351Y150232D01*
X407487Y151264D01*
X407351Y152296D01*
X406953Y153257D01*
X406319Y154083D01*
X405493Y154717D01*
X404532Y155115D01*
X403500Y155251D01*
D02*
G37*
G36*
X458500Y153251D02*
X457468Y153115D01*
X456507Y152717D01*
X455681Y152083D01*
X455047Y151257D01*
X454649Y150296D01*
X454513Y149264D01*
X454649Y148232D01*
X455047Y147270D01*
X455681Y146445D01*
X456507Y145811D01*
X457468Y145413D01*
X458500Y145277D01*
X459532Y145413D01*
X460493Y145811D01*
X461319Y146445D01*
X461953Y147270D01*
X462351Y148232D01*
X462487Y149264D01*
X462351Y150296D01*
X461953Y151257D01*
X461319Y152083D01*
X460493Y152717D01*
X459532Y153115D01*
X458500Y153251D01*
D02*
G37*
G36*
X462453Y143217D02*
X454547D01*
Y135311D01*
X462453D01*
Y143217D01*
D02*
G37*
G36*
X559439Y133713D02*
Y131764D01*
X561388D01*
X561294Y132239D01*
X560741Y133066D01*
X559914Y133619D01*
X559439Y133713D01*
D02*
G37*
G36*
X558439D02*
X557964Y133619D01*
X557137Y133066D01*
X556584Y132239D01*
X556490Y131764D01*
X558439D01*
Y133713D01*
D02*
G37*
G36*
X535439D02*
Y131764D01*
X537389D01*
X537294Y132239D01*
X536741Y133066D01*
X535914Y133619D01*
X535439Y133713D01*
D02*
G37*
G36*
X534439D02*
X533963Y133619D01*
X533137Y133066D01*
X532584Y132239D01*
X532489Y131764D01*
X534439D01*
Y133713D01*
D02*
G37*
G36*
X510826D02*
Y131764D01*
X512775D01*
X512681Y132239D01*
X512128Y133066D01*
X511301Y133619D01*
X510826Y133713D01*
D02*
G37*
G36*
X509826D02*
X509350Y133619D01*
X508523Y133066D01*
X507971Y132239D01*
X507876Y131764D01*
X509826D01*
Y133713D01*
D02*
G37*
G36*
X488512Y133453D02*
Y131504D01*
X490461D01*
X490367Y131979D01*
X489814Y132806D01*
X488987Y133359D01*
X488512Y133453D01*
D02*
G37*
G36*
X487512D02*
X487036Y133359D01*
X486209Y132806D01*
X485657Y131979D01*
X485562Y131504D01*
X487512D01*
Y133453D01*
D02*
G37*
G36*
X561388Y130764D02*
X559439D01*
Y128814D01*
X559914Y128909D01*
X560741Y129461D01*
X561294Y130288D01*
X561388Y130764D01*
D02*
G37*
G36*
X558439D02*
X556490D01*
X556584Y130288D01*
X557137Y129461D01*
X557964Y128909D01*
X558439Y128814D01*
Y130764D01*
D02*
G37*
G36*
X537389D02*
X535439D01*
Y128814D01*
X535914Y128909D01*
X536741Y129461D01*
X537294Y130288D01*
X537389Y130764D01*
D02*
G37*
G36*
X534439D02*
X532489D01*
X532584Y130288D01*
X533137Y129461D01*
X533963Y128909D01*
X534439Y128814D01*
Y130764D01*
D02*
G37*
G36*
X512775D02*
X510826D01*
Y128814D01*
X511301Y128909D01*
X512128Y129461D01*
X512681Y130288D01*
X512775Y130764D01*
D02*
G37*
G36*
X509826D02*
X507876D01*
X507971Y130288D01*
X508523Y129461D01*
X509350Y128909D01*
X509826Y128814D01*
Y130764D01*
D02*
G37*
G36*
X490461Y130504D02*
X488512D01*
Y128554D01*
X488987Y128649D01*
X489814Y129201D01*
X490367Y130028D01*
X490461Y130504D01*
D02*
G37*
G36*
X487512D02*
X485562D01*
X485657Y130028D01*
X486209Y129201D01*
X487036Y128649D01*
X487512Y128554D01*
Y130504D01*
D02*
G37*
G36*
X559612Y122713D02*
Y120764D01*
X561562D01*
X561467Y121239D01*
X560915Y122066D01*
X560088Y122619D01*
X559612Y122713D01*
D02*
G37*
G36*
X558612D02*
X558137Y122619D01*
X557310Y122066D01*
X556757Y121239D01*
X556663Y120764D01*
X558612D01*
Y122713D01*
D02*
G37*
G36*
X535564D02*
Y120764D01*
X537513D01*
X537419Y121239D01*
X536866Y122066D01*
X536039Y122619D01*
X535564Y122713D01*
D02*
G37*
G36*
X534564D02*
X534089Y122619D01*
X533262Y122066D01*
X532709Y121239D01*
X532615Y120764D01*
X534564D01*
Y122713D01*
D02*
G37*
G36*
X510826D02*
Y120764D01*
X512775D01*
X512681Y121239D01*
X512128Y122066D01*
X511301Y122619D01*
X510826Y122713D01*
D02*
G37*
G36*
X509826D02*
X509350Y122619D01*
X508523Y122066D01*
X507971Y121239D01*
X507876Y120764D01*
X509826D01*
Y122713D01*
D02*
G37*
G36*
X488637Y122453D02*
Y120504D01*
X490586D01*
X490492Y120979D01*
X489939Y121806D01*
X489112Y122359D01*
X488637Y122453D01*
D02*
G37*
G36*
X487637D02*
X487161Y122359D01*
X486334Y121806D01*
X485782Y120979D01*
X485687Y120504D01*
X487637D01*
Y122453D01*
D02*
G37*
G36*
X449363Y121713D02*
Y119764D01*
X451312D01*
X451218Y120239D01*
X450665Y121066D01*
X449838Y121619D01*
X449363Y121713D01*
D02*
G37*
G36*
X448363D02*
X447887Y121619D01*
X447060Y121066D01*
X446508Y120239D01*
X446413Y119764D01*
X448363D01*
Y121713D01*
D02*
G37*
G36*
X439000D02*
Y119764D01*
X440949D01*
X440855Y120239D01*
X440302Y121066D01*
X439475Y121619D01*
X439000Y121713D01*
D02*
G37*
G36*
X438000D02*
X437525Y121619D01*
X436698Y121066D01*
X436145Y120239D01*
X436051Y119764D01*
X438000D01*
Y121713D01*
D02*
G37*
G36*
X561562Y119764D02*
X559612D01*
Y117814D01*
X560088Y117909D01*
X560915Y118461D01*
X561467Y119288D01*
X561562Y119764D01*
D02*
G37*
G36*
X558612D02*
X556663D01*
X556757Y119288D01*
X557310Y118461D01*
X558137Y117909D01*
X558612Y117814D01*
Y119764D01*
D02*
G37*
G36*
X537513D02*
X535564D01*
Y117814D01*
X536039Y117909D01*
X536866Y118461D01*
X537419Y119288D01*
X537513Y119764D01*
D02*
G37*
G36*
X534564D02*
X532615D01*
X532709Y119288D01*
X533262Y118461D01*
X534089Y117909D01*
X534564Y117814D01*
Y119764D01*
D02*
G37*
G36*
X512775D02*
X510826D01*
Y117814D01*
X511301Y117909D01*
X512128Y118461D01*
X512681Y119288D01*
X512775Y119764D01*
D02*
G37*
G36*
X509826D02*
X507876D01*
X507971Y119288D01*
X508523Y118461D01*
X509350Y117909D01*
X509826Y117814D01*
Y119764D01*
D02*
G37*
G36*
X490586Y119504D02*
X488637D01*
Y117554D01*
X489112Y117649D01*
X489939Y118201D01*
X490492Y119028D01*
X490586Y119504D01*
D02*
G37*
G36*
X487637D02*
X485687D01*
X485782Y119028D01*
X486334Y118201D01*
X487161Y117649D01*
X487637Y117554D01*
Y119504D01*
D02*
G37*
G36*
X451312Y118764D02*
X449363D01*
Y116814D01*
X449838Y116909D01*
X450665Y117461D01*
X451218Y118288D01*
X451312Y118764D01*
D02*
G37*
G36*
X448363D02*
X446413D01*
X446508Y118288D01*
X447060Y117461D01*
X447887Y116909D01*
X448363Y116814D01*
Y118764D01*
D02*
G37*
G36*
X440949D02*
X439000D01*
Y116814D01*
X439475Y116909D01*
X440302Y117461D01*
X440855Y118288D01*
X440949Y118764D01*
D02*
G37*
G36*
X438000D02*
X436051D01*
X436145Y118288D01*
X436698Y117461D01*
X437525Y116909D01*
X438000Y116814D01*
Y118764D01*
D02*
G37*
G36*
X410858Y116688D02*
Y114739D01*
X412808D01*
X412713Y115214D01*
X412161Y116041D01*
X411334Y116594D01*
X410858Y116688D01*
D02*
G37*
G36*
X409858D02*
X409383Y116594D01*
X408556Y116041D01*
X408003Y115214D01*
X407909Y114739D01*
X409858D01*
Y116688D01*
D02*
G37*
G36*
X412808Y113739D02*
X410858D01*
Y111789D01*
X411334Y111884D01*
X412161Y112436D01*
X412713Y113263D01*
X412808Y113739D01*
D02*
G37*
G36*
X409858D02*
X407909D01*
X408003Y113263D01*
X408556Y112436D01*
X409383Y111884D01*
X409858Y111789D01*
Y113739D01*
D02*
G37*
G36*
X454318Y109201D02*
Y107252D01*
X456268D01*
X456173Y107727D01*
X455620Y108554D01*
X454794Y109107D01*
X454318Y109201D01*
D02*
G37*
G36*
X453318D02*
X452843Y109107D01*
X452016Y108554D01*
X451463Y107727D01*
X451369Y107252D01*
X453318D01*
Y109201D01*
D02*
G37*
G36*
X456268Y106252D02*
X454318D01*
Y104302D01*
X454794Y104397D01*
X455620Y104949D01*
X456173Y105777D01*
X456268Y106252D01*
D02*
G37*
G36*
X453318D02*
X451369D01*
X451463Y105777D01*
X452016Y104949D01*
X452843Y104397D01*
X453318Y104302D01*
Y106252D01*
D02*
G37*
G36*
X557000Y98185D02*
Y94764D01*
X560421D01*
X560351Y95296D01*
X559953Y96257D01*
X559319Y97083D01*
X558493Y97716D01*
X557532Y98115D01*
X557000Y98185D01*
D02*
G37*
G36*
X556000D02*
X555468Y98115D01*
X554507Y97716D01*
X553681Y97083D01*
X553047Y96257D01*
X552649Y95296D01*
X552579Y94764D01*
X556000D01*
Y98185D01*
D02*
G37*
G36*
X560421Y93764D02*
X557000D01*
Y90343D01*
X557532Y90413D01*
X558493Y90811D01*
X559319Y91445D01*
X559953Y92270D01*
X560351Y93232D01*
X560421Y93764D01*
D02*
G37*
G36*
X556000D02*
X552579D01*
X552649Y93232D01*
X553047Y92270D01*
X553681Y91445D01*
X554507Y90811D01*
X555468Y90413D01*
X556000Y90343D01*
Y93764D01*
D02*
G37*
G36*
X546500Y98251D02*
X545468Y98115D01*
X544507Y97716D01*
X543681Y97083D01*
X543047Y96257D01*
X542649Y95296D01*
X542513Y94264D01*
X542649Y93232D01*
X543047Y92270D01*
X543681Y91445D01*
X544507Y90811D01*
X545468Y90413D01*
X546500Y90277D01*
X547532Y90413D01*
X548493Y90811D01*
X549319Y91445D01*
X549953Y92270D01*
X550351Y93232D01*
X550487Y94264D01*
X550351Y95296D01*
X549953Y96257D01*
X549319Y97083D01*
X548493Y97716D01*
X547532Y98115D01*
X546500Y98251D01*
D02*
G37*
G36*
X536500D02*
X535468Y98115D01*
X534507Y97716D01*
X533681Y97083D01*
X533047Y96257D01*
X532649Y95296D01*
X532513Y94264D01*
X532649Y93232D01*
X533047Y92270D01*
X533681Y91445D01*
X534507Y90811D01*
X535468Y90413D01*
X536500Y90277D01*
X537532Y90413D01*
X538493Y90811D01*
X539319Y91445D01*
X539953Y92270D01*
X540351Y93232D01*
X540487Y94264D01*
X540351Y95296D01*
X539953Y96257D01*
X539319Y97083D01*
X538493Y97716D01*
X537532Y98115D01*
X536500Y98251D01*
D02*
G37*
G36*
X519520Y108857D02*
X518606Y108737D01*
X517755Y108384D01*
X517024Y107823D01*
X516462Y107092D01*
X516110Y106240D01*
X515989Y105327D01*
Y89611D01*
X515489Y89459D01*
X515052Y90113D01*
X514225Y90666D01*
X513750Y90760D01*
Y88311D01*
Y85861D01*
X514225Y85956D01*
X515052Y86509D01*
X515470Y87133D01*
X515970Y86982D01*
Y71303D01*
X516090Y70389D01*
X516443Y69538D01*
X517004Y68807D01*
X517024Y68787D01*
X517755Y68226D01*
X518606Y67874D01*
X519520Y67753D01*
X520433Y67874D01*
X521285Y68226D01*
X522016Y68787D01*
X522577Y69518D01*
X522930Y70370D01*
X523050Y71284D01*
X523030Y71433D01*
Y88181D01*
X523050Y88331D01*
Y105327D01*
X522930Y106240D01*
X522577Y107092D01*
X522016Y107823D01*
X521285Y108384D01*
X520433Y108737D01*
X519520Y108857D01*
D02*
G37*
G36*
X512750Y90760D02*
X512275Y90666D01*
X511448Y90113D01*
X510895Y89287D01*
X510801Y88811D01*
X512750D01*
Y90760D01*
D02*
G37*
G36*
Y87811D02*
X510801D01*
X510895Y87336D01*
X511448Y86509D01*
X512275Y85956D01*
X512750Y85861D01*
Y87811D01*
D02*
G37*
G36*
X436874Y82713D02*
Y80764D01*
X438823D01*
X438729Y81239D01*
X438176Y82066D01*
X437349Y82619D01*
X436874Y82713D01*
D02*
G37*
G36*
X435874D02*
X435398Y82619D01*
X434571Y82066D01*
X434019Y81239D01*
X433924Y80764D01*
X435874D01*
Y82713D01*
D02*
G37*
G36*
X540453Y88217D02*
X532547D01*
Y80311D01*
X540453D01*
Y88217D01*
D02*
G37*
G36*
X556500Y88251D02*
X555468Y88115D01*
X554507Y87717D01*
X553681Y87083D01*
X553047Y86257D01*
X552649Y85296D01*
X552513Y84264D01*
X552649Y83232D01*
X553047Y82270D01*
X553681Y81445D01*
X554507Y80811D01*
X555468Y80413D01*
X556500Y80277D01*
X557532Y80413D01*
X558493Y80811D01*
X559319Y81445D01*
X559953Y82270D01*
X560351Y83232D01*
X560487Y84264D01*
X560351Y85296D01*
X559953Y86257D01*
X559319Y87083D01*
X558493Y87717D01*
X557532Y88115D01*
X556500Y88251D01*
D02*
G37*
G36*
X546500D02*
X545468Y88115D01*
X544507Y87717D01*
X543681Y87083D01*
X543047Y86257D01*
X542649Y85296D01*
X542513Y84264D01*
X542649Y83232D01*
X543047Y82270D01*
X543681Y81445D01*
X544507Y80811D01*
X545468Y80413D01*
X546500Y80277D01*
X547532Y80413D01*
X548493Y80811D01*
X549319Y81445D01*
X549953Y82270D01*
X550351Y83232D01*
X550487Y84264D01*
X550351Y85296D01*
X549953Y86257D01*
X549319Y87083D01*
X548493Y87717D01*
X547532Y88115D01*
X546500Y88251D01*
D02*
G37*
G36*
X455445Y97883D02*
X453554D01*
X453456Y97864D01*
X453356D01*
X451501Y97495D01*
X451408Y97456D01*
X451310Y97437D01*
X449563Y96713D01*
X449479Y96657D01*
X449386Y96619D01*
X447814Y95568D01*
X447743Y95497D01*
X447659Y95442D01*
X446322Y94104D01*
X446267Y94021D01*
X446195Y93950D01*
X445145Y92378D01*
X445106Y92285D01*
X445051Y92201D01*
X444327Y90454D01*
X444307Y90356D01*
X444269Y90263D01*
X443900Y88408D01*
Y88308D01*
X443880Y88209D01*
Y86318D01*
X443900Y86220D01*
Y86119D01*
X444269Y84265D01*
X444307Y84172D01*
X444327Y84073D01*
X445051Y82326D01*
X445106Y82243D01*
X445145Y82150D01*
X446195Y80578D01*
X446266Y80507D01*
X446322Y80423D01*
X447659Y79086D01*
X447743Y79030D01*
X447814Y78959D01*
X449386Y77909D01*
X449479Y77870D01*
X449563Y77814D01*
X451310Y77091D01*
X451408Y77071D01*
X451501Y77033D01*
X453356Y76664D01*
X453456D01*
X453554Y76644D01*
X455445D01*
X455544Y76664D01*
X455644D01*
X457499Y77033D01*
X457592Y77071D01*
X457690Y77091D01*
X459438Y77814D01*
X459521Y77870D01*
X459614Y77909D01*
X461186Y78959D01*
X461257Y79030D01*
X461341Y79086D01*
X462678Y80423D01*
X462734Y80507D01*
X462805Y80578D01*
X463855Y82150D01*
X463894Y82243D01*
X463949Y82326D01*
X464673Y84073D01*
X464693Y84172D01*
X464731Y84265D01*
X465100Y86119D01*
Y86220D01*
X465120Y86318D01*
Y88209D01*
X465100Y88308D01*
Y88408D01*
X464731Y90263D01*
X464693Y90356D01*
X464673Y90454D01*
X463949Y92201D01*
X463894Y92285D01*
X463855Y92378D01*
X462805Y93950D01*
X462734Y94021D01*
X462678Y94104D01*
X461341Y95442D01*
X461257Y95497D01*
X461186Y95568D01*
X459614Y96619D01*
X459521Y96657D01*
X459438Y96713D01*
X457690Y97437D01*
X457592Y97456D01*
X457499Y97495D01*
X455644Y97864D01*
X455544D01*
X455445Y97883D01*
D02*
G37*
G36*
X438823Y79764D02*
X433924D01*
X434019Y79288D01*
X434571Y78461D01*
X435326Y77957D01*
X435395Y77630D01*
X435392Y77400D01*
X434893Y77066D01*
X434340Y76239D01*
X434245Y75764D01*
X439144D01*
X439050Y76239D01*
X438497Y77066D01*
X437743Y77570D01*
X437674Y77898D01*
X437676Y78127D01*
X438176Y78461D01*
X438729Y79288D01*
X438823Y79764D01*
D02*
G37*
G36*
X439144Y74764D02*
X434245D01*
X434340Y74288D01*
X434893Y73461D01*
X435719Y72909D01*
X435830Y72887D01*
Y72377D01*
X435719Y72355D01*
X434893Y71802D01*
X434340Y70976D01*
X434245Y70500D01*
X439144D01*
X439050Y70976D01*
X438497Y71802D01*
X437670Y72355D01*
X437560Y72377D01*
Y72887D01*
X437670Y72909D01*
X438497Y73461D01*
X439050Y74288D01*
X439144Y74764D01*
D02*
G37*
G36*
Y69500D02*
X437195D01*
Y67550D01*
X437670Y67645D01*
X438497Y68198D01*
X439050Y69024D01*
X439144Y69500D01*
D02*
G37*
G36*
X436195D02*
X434245D01*
X434340Y69024D01*
X434893Y68198D01*
X435719Y67645D01*
X436195Y67550D01*
Y69500D01*
D02*
G37*
G36*
X553189Y62233D02*
Y60283D01*
X555138D01*
X555044Y60759D01*
X554491Y61586D01*
X553664Y62138D01*
X553189Y62233D01*
D02*
G37*
G36*
X552189D02*
X551714Y62138D01*
X550887Y61586D01*
X550334Y60759D01*
X550240Y60283D01*
X552189D01*
Y62233D01*
D02*
G37*
G36*
X529376Y61973D02*
Y60024D01*
X531325D01*
X531231Y60499D01*
X530678Y61326D01*
X529851Y61879D01*
X529376Y61973D01*
D02*
G37*
G36*
X528376D02*
X527901Y61879D01*
X527074Y61326D01*
X526521Y60499D01*
X526427Y60024D01*
X528376D01*
Y61973D01*
D02*
G37*
G36*
X504750D02*
Y60024D01*
X506700D01*
X506605Y60499D01*
X506052Y61326D01*
X505226Y61879D01*
X504750Y61973D01*
D02*
G37*
G36*
X503750D02*
X503275Y61879D01*
X502448Y61326D01*
X501895Y60499D01*
X501800Y60024D01*
X503750D01*
Y61973D01*
D02*
G37*
G36*
X482500D02*
Y60024D01*
X484449D01*
X484355Y60499D01*
X483802Y61326D01*
X482975Y61879D01*
X482500Y61973D01*
D02*
G37*
G36*
X481500D02*
X481025Y61879D01*
X480198Y61326D01*
X479645Y60499D01*
X479551Y60024D01*
X481500D01*
Y61973D01*
D02*
G37*
G36*
X555138Y59284D02*
X553189D01*
Y57334D01*
X553664Y57428D01*
X554491Y57981D01*
X555044Y58808D01*
X555138Y59284D01*
D02*
G37*
G36*
X552189D02*
X550240D01*
X550334Y58808D01*
X550887Y57981D01*
X551714Y57428D01*
X552189Y57334D01*
Y59284D01*
D02*
G37*
G36*
X531325Y59024D02*
X529376D01*
Y57074D01*
X529851Y57169D01*
X530678Y57721D01*
X531231Y58548D01*
X531325Y59024D01*
D02*
G37*
G36*
X528376D02*
X526427D01*
X526521Y58548D01*
X527074Y57721D01*
X527901Y57169D01*
X528376Y57074D01*
Y59024D01*
D02*
G37*
G36*
X506700D02*
X504750D01*
Y57074D01*
X505226Y57169D01*
X506052Y57721D01*
X506605Y58548D01*
X506700Y59024D01*
D02*
G37*
G36*
X503750D02*
X501800D01*
X501895Y58548D01*
X502448Y57721D01*
X503275Y57169D01*
X503750Y57074D01*
Y59024D01*
D02*
G37*
G36*
X484449D02*
X482500D01*
Y57074D01*
X482975Y57169D01*
X483802Y57721D01*
X484355Y58548D01*
X484449Y59024D01*
D02*
G37*
G36*
X481500D02*
X479551D01*
X479645Y58548D01*
X480198Y57721D01*
X481025Y57169D01*
X481500Y57074D01*
Y59024D01*
D02*
G37*
G36*
X553564Y51233D02*
Y49283D01*
X555513D01*
X555419Y49759D01*
X554866Y50586D01*
X554039Y51138D01*
X553564Y51233D01*
D02*
G37*
G36*
X552564D02*
X552088Y51138D01*
X551262Y50586D01*
X550709Y49759D01*
X550615Y49283D01*
X552564D01*
Y51233D01*
D02*
G37*
G36*
X529314D02*
Y49283D01*
X531263D01*
X531169Y49759D01*
X530616Y50586D01*
X529789Y51138D01*
X529314Y51233D01*
D02*
G37*
G36*
X528314D02*
X527839Y51138D01*
X527012Y50586D01*
X526459Y49759D01*
X526365Y49283D01*
X528314D01*
Y51233D01*
D02*
G37*
G36*
X504750Y50973D02*
Y49024D01*
X506700D01*
X506605Y49499D01*
X506052Y50326D01*
X505226Y50879D01*
X504750Y50973D01*
D02*
G37*
G36*
X503750D02*
X503275Y50879D01*
X502448Y50326D01*
X501895Y49499D01*
X501800Y49024D01*
X503750D01*
Y50973D01*
D02*
G37*
G36*
X482500D02*
Y49024D01*
X484449D01*
X484355Y49499D01*
X483802Y50326D01*
X482975Y50879D01*
X482500Y50973D01*
D02*
G37*
G36*
X481500D02*
X481025Y50879D01*
X480198Y50326D01*
X479645Y49499D01*
X479551Y49024D01*
X481500D01*
Y50973D01*
D02*
G37*
G36*
X555513Y48283D02*
X553564D01*
Y46334D01*
X554039Y46428D01*
X554866Y46981D01*
X555419Y47808D01*
X555513Y48283D01*
D02*
G37*
G36*
X552564D02*
X550615D01*
X550709Y47808D01*
X551262Y46981D01*
X552088Y46428D01*
X552564Y46334D01*
Y48283D01*
D02*
G37*
G36*
X531263D02*
X529314D01*
Y46334D01*
X529789Y46428D01*
X530616Y46981D01*
X531169Y47808D01*
X531263Y48283D01*
D02*
G37*
G36*
X528314D02*
X526365D01*
X526459Y47808D01*
X527012Y46981D01*
X527839Y46428D01*
X528314Y46334D01*
Y48283D01*
D02*
G37*
G36*
X506700Y48024D02*
X504750D01*
Y46074D01*
X505226Y46169D01*
X506052Y46721D01*
X506605Y47548D01*
X506700Y48024D01*
D02*
G37*
G36*
X503750D02*
X501800D01*
X501895Y47548D01*
X502448Y46721D01*
X503275Y46169D01*
X503750Y46074D01*
Y48024D01*
D02*
G37*
G36*
X484449D02*
X482500D01*
Y46074D01*
X482975Y46169D01*
X483802Y46721D01*
X484355Y47548D01*
X484449Y48024D01*
D02*
G37*
G36*
X481500D02*
X479551D01*
X479645Y47548D01*
X480198Y46721D01*
X481025Y46169D01*
X481500Y46074D01*
Y48024D01*
D02*
G37*
G36*
X563267Y22476D02*
X555361D01*
Y14571D01*
X563267D01*
Y22476D01*
D02*
G37*
G36*
X549314Y22511D02*
X548282Y22375D01*
X547321Y21976D01*
X546495Y21343D01*
X545861Y20517D01*
X545463Y19556D01*
X545327Y18524D01*
X545463Y17492D01*
X545861Y16530D01*
X546495Y15705D01*
X547321Y15071D01*
X548282Y14673D01*
X549314Y14537D01*
X550346Y14673D01*
X551307Y15071D01*
X552133Y15705D01*
X552767Y16530D01*
X553165Y17492D01*
X553301Y18524D01*
X553165Y19556D01*
X552767Y20517D01*
X552133Y21343D01*
X551307Y21976D01*
X550346Y22375D01*
X549314Y22511D01*
D02*
G37*
G36*
X539079Y22217D02*
X531173D01*
Y14311D01*
X539079D01*
Y22217D01*
D02*
G37*
G36*
X514453D02*
X506547D01*
Y14311D01*
X514453D01*
Y22217D01*
D02*
G37*
G36*
X492090D02*
X484184D01*
Y14311D01*
X492090D01*
Y22217D01*
D02*
G37*
G36*
X525126Y22251D02*
X524094Y22115D01*
X523133Y21716D01*
X522307Y21083D01*
X521673Y20257D01*
X521275Y19296D01*
X521139Y18264D01*
X521275Y17232D01*
X521673Y16270D01*
X522307Y15445D01*
X523133Y14811D01*
X524094Y14413D01*
X525126Y14277D01*
X526158Y14413D01*
X527119Y14811D01*
X527945Y15445D01*
X528579Y16270D01*
X528977Y17232D01*
X529113Y18264D01*
X528977Y19296D01*
X528579Y20257D01*
X527945Y21083D01*
X527119Y21716D01*
X526158Y22115D01*
X525126Y22251D01*
D02*
G37*
G36*
X500500D02*
X499468Y22115D01*
X498507Y21716D01*
X497681Y21083D01*
X497047Y20257D01*
X496649Y19296D01*
X496513Y18264D01*
X496649Y17232D01*
X497047Y16270D01*
X497681Y15445D01*
X498507Y14811D01*
X499468Y14413D01*
X500500Y14277D01*
X501532Y14413D01*
X502493Y14811D01*
X503319Y15445D01*
X503953Y16270D01*
X504351Y17232D01*
X504487Y18264D01*
X504351Y19296D01*
X503953Y20257D01*
X503319Y21083D01*
X502493Y21716D01*
X501532Y22115D01*
X500500Y22251D01*
D02*
G37*
G36*
X478137D02*
X477105Y22115D01*
X476143Y21716D01*
X475318Y21083D01*
X474684Y20257D01*
X474286Y19296D01*
X474150Y18264D01*
X474286Y17232D01*
X474684Y16270D01*
X475318Y15445D01*
X476143Y14811D01*
X477105Y14413D01*
X478137Y14277D01*
X479169Y14413D01*
X480130Y14811D01*
X480956Y15445D01*
X481590Y16270D01*
X481988Y17232D01*
X482124Y18264D01*
X481988Y19296D01*
X481590Y20257D01*
X480956Y21083D01*
X480130Y21716D01*
X479169Y22115D01*
X478137Y22251D01*
D02*
G37*
G36*
X427427Y91160D02*
X426952Y91065D01*
X426125Y90513D01*
X425572Y89686D01*
X425478Y89210D01*
X427427D01*
Y91160D01*
D02*
G37*
G36*
X180750Y124199D02*
Y122250D01*
X182700D01*
X182605Y122725D01*
X182052Y123552D01*
X181226Y124105D01*
X180750Y124199D01*
D02*
G37*
G36*
X179750D02*
X179274Y124105D01*
X178448Y123552D01*
X177895Y122725D01*
X177801Y122250D01*
X179750D01*
Y124199D01*
D02*
G37*
G36*
X182700Y121250D02*
X180750D01*
Y119300D01*
X181226Y119395D01*
X182052Y119948D01*
X182605Y120774D01*
X182700Y121250D01*
D02*
G37*
G36*
X179750D02*
X177801D01*
X177895Y120774D01*
X178448Y119948D01*
X179274Y119395D01*
X179750Y119300D01*
Y121250D01*
D02*
G37*
G36*
X133500Y118564D02*
Y116614D01*
X135450D01*
X135355Y117090D01*
X134802Y117917D01*
X133976Y118469D01*
X133500Y118564D01*
D02*
G37*
G36*
X132500D02*
X132025Y118469D01*
X131198Y117917D01*
X130645Y117090D01*
X130551Y116614D01*
X132500D01*
Y118564D01*
D02*
G37*
G36*
X243250Y116544D02*
Y114595D01*
X245199D01*
X245105Y115070D01*
X244552Y115897D01*
X243725Y116449D01*
X243250Y116544D01*
D02*
G37*
G36*
X242250D02*
X241775Y116449D01*
X240948Y115897D01*
X240395Y115070D01*
X240300Y114595D01*
X242250D01*
Y116544D01*
D02*
G37*
G36*
X135450Y115614D02*
X133500D01*
Y113665D01*
X133976Y113759D01*
X134802Y114312D01*
X135355Y115139D01*
X135450Y115614D01*
D02*
G37*
G36*
X132500D02*
X130551D01*
X130645Y115139D01*
X131198Y114312D01*
X132025Y113759D01*
X132500Y113665D01*
Y115614D01*
D02*
G37*
G36*
X245199Y113595D02*
X243250D01*
Y111645D01*
X243725Y111740D01*
X244552Y112292D01*
X245105Y113119D01*
X245199Y113595D01*
D02*
G37*
G36*
X242250D02*
X240300D01*
X240395Y113119D01*
X240948Y112292D01*
X241775Y111740D01*
X242250Y111645D01*
Y113595D01*
D02*
G37*
G36*
X205476Y100713D02*
Y98764D01*
X207426D01*
X207331Y99239D01*
X206779Y100066D01*
X205952Y100619D01*
X205476Y100713D01*
D02*
G37*
G36*
X204476D02*
X204001Y100619D01*
X203174Y100066D01*
X202621Y99239D01*
X202527Y98764D01*
X204476D01*
Y100713D01*
D02*
G37*
G36*
X184000Y98150D02*
Y96201D01*
X185950D01*
X185855Y96676D01*
X185302Y97503D01*
X184476Y98056D01*
X184000Y98150D01*
D02*
G37*
G36*
X183000D02*
X182525Y98056D01*
X181698Y97503D01*
X181145Y96676D01*
X181051Y96201D01*
X183000D01*
Y98150D01*
D02*
G37*
G36*
X207426Y97764D02*
X205476D01*
Y95814D01*
X205952Y95909D01*
X206779Y96461D01*
X207331Y97288D01*
X207426Y97764D01*
D02*
G37*
G36*
X204476D02*
X202527D01*
X202621Y97288D01*
X203174Y96461D01*
X204001Y95909D01*
X204476Y95814D01*
Y97764D01*
D02*
G37*
G36*
X185950Y95201D02*
X184000D01*
Y93251D01*
X184476Y93346D01*
X185302Y93898D01*
X185855Y94725D01*
X185950Y95201D01*
D02*
G37*
G36*
X183000D02*
X181051D01*
X181145Y94725D01*
X181698Y93898D01*
X182525Y93346D01*
X183000Y93251D01*
Y95201D01*
D02*
G37*
G36*
X127063Y87650D02*
Y85701D01*
X129013D01*
X128918Y86176D01*
X128365Y87003D01*
X127538Y87556D01*
X127063Y87650D01*
D02*
G37*
G36*
X126063D02*
X125588Y87556D01*
X124761Y87003D01*
X124208Y86176D01*
X124114Y85701D01*
X126063D01*
Y87650D01*
D02*
G37*
G36*
X129013Y84701D02*
X127063D01*
Y82751D01*
X127538Y82846D01*
X128365Y83398D01*
X128918Y84225D01*
X129013Y84701D01*
D02*
G37*
G36*
X126063D02*
X124114D01*
X124208Y84225D01*
X124761Y83398D01*
X125588Y82846D01*
X126063Y82751D01*
Y84701D01*
D02*
G37*
G36*
X240125Y82713D02*
Y80764D01*
X242074D01*
X241980Y81239D01*
X241427Y82066D01*
X240600Y82619D01*
X240125Y82713D01*
D02*
G37*
G36*
X206685Y115813D02*
X205710Y115619D01*
X205619Y115558D01*
X203500D01*
X202622Y115383D01*
X201878Y114886D01*
X187878Y100886D01*
X187381Y100142D01*
X187206Y99264D01*
Y90330D01*
X187145Y90239D01*
X186951Y89264D01*
X187145Y88288D01*
X187698Y87461D01*
X188525Y86909D01*
X189500Y86715D01*
X190124Y86839D01*
X190370Y86378D01*
X189632Y85640D01*
X189525Y85619D01*
X188698Y85066D01*
X188145Y84239D01*
X187951Y83264D01*
X188145Y82288D01*
X188698Y81461D01*
X189525Y80909D01*
X190500Y80715D01*
X191475Y80909D01*
X192302Y81461D01*
X192855Y82288D01*
X192876Y82396D01*
X194872Y84392D01*
X195370Y85136D01*
X195544Y86014D01*
Y96064D01*
X203751Y104271D01*
X216801D01*
X217679Y104445D01*
X218423Y104943D01*
X220272Y106791D01*
X220769Y107536D01*
X220944Y108413D01*
Y111197D01*
X221005Y111288D01*
X221199Y112264D01*
X221005Y113239D01*
X220452Y114066D01*
X219625Y114619D01*
X218650Y114813D01*
X217674Y114619D01*
X216847Y114066D01*
X216295Y113239D01*
X216101Y112264D01*
X216295Y111288D01*
X216355Y111197D01*
Y109364D01*
X215851Y108859D01*
X203047D01*
X202839Y109359D01*
X204450Y110970D01*
X205619D01*
X205710Y110909D01*
X206685Y110715D01*
X207661Y110909D01*
X208488Y111461D01*
X209040Y112288D01*
X209234Y113264D01*
X209040Y114239D01*
X208488Y115066D01*
X207661Y115619D01*
X206685Y115813D01*
D02*
G37*
G36*
X242074Y79764D02*
X240125D01*
Y77814D01*
X240600Y77909D01*
X241427Y78461D01*
X241980Y79288D01*
X242074Y79764D01*
D02*
G37*
G36*
X192500Y69713D02*
Y67764D01*
X194449D01*
X194355Y68239D01*
X193802Y69066D01*
X192975Y69619D01*
X192500Y69713D01*
D02*
G37*
G36*
X210500Y92813D02*
X209525Y92619D01*
X208698Y92066D01*
X208145Y91239D01*
X207951Y90264D01*
X208145Y89288D01*
X208698Y88461D01*
X209214Y88116D01*
X209109Y87585D01*
X208525Y87469D01*
X207698Y86917D01*
X207145Y86090D01*
X206951Y85114D01*
X207145Y84139D01*
X207206Y84048D01*
Y68500D01*
X206698Y68161D01*
X206145Y67334D01*
X205951Y66358D01*
X206145Y65383D01*
X206698Y64556D01*
X207525Y64003D01*
X208500Y63809D01*
X209475Y64003D01*
X210302Y64556D01*
X210855Y65383D01*
X210876Y65490D01*
X211122Y65736D01*
X211619Y66480D01*
X211794Y67358D01*
Y84048D01*
X211855Y84139D01*
X211991Y84822D01*
X212533Y84986D01*
X216505Y81014D01*
Y69330D01*
X216444Y69239D01*
X216250Y68264D01*
X216444Y67288D01*
X216997Y66461D01*
X217824Y65909D01*
X218799Y65715D01*
X219775Y65909D01*
X220602Y66461D01*
X221154Y67288D01*
X221348Y68264D01*
X221154Y69239D01*
X221093Y69330D01*
Y81965D01*
X220919Y82842D01*
X220421Y83587D01*
X212876Y91132D01*
X212855Y91239D01*
X212302Y92066D01*
X211475Y92619D01*
X210500Y92813D01*
D02*
G37*
G36*
X244000Y64713D02*
Y62764D01*
X245950D01*
X245855Y63239D01*
X245302Y64066D01*
X244476Y64619D01*
X244000Y64713D01*
D02*
G37*
G36*
X243000D02*
X242525Y64619D01*
X241698Y64066D01*
X241145Y63239D01*
X241051Y62764D01*
X243000D01*
Y64713D01*
D02*
G37*
G36*
X170949Y62653D02*
X169000D01*
Y60704D01*
X169475Y60799D01*
X170302Y61351D01*
X170855Y62178D01*
X170949Y62653D01*
D02*
G37*
G36*
X168000D02*
X166051D01*
X166145Y62178D01*
X166698Y61351D01*
X167525Y60799D01*
X168000Y60704D01*
Y62653D01*
D02*
G37*
G36*
X392269Y107876D02*
Y105927D01*
X394219D01*
X394124Y106402D01*
X393572Y107229D01*
X392745Y107782D01*
X392269Y107876D01*
D02*
G37*
G36*
X391269D02*
X390794Y107782D01*
X389967Y107229D01*
X389414Y106402D01*
X389320Y105927D01*
X391269D01*
Y107876D01*
D02*
G37*
G36*
X394219Y104927D02*
X392269D01*
Y102977D01*
X392745Y103072D01*
X393572Y103624D01*
X394124Y104451D01*
X394219Y104927D01*
D02*
G37*
G36*
X391269D02*
X389320D01*
X389414Y104451D01*
X389967Y103624D01*
X390794Y103072D01*
X391269Y102977D01*
Y104927D01*
D02*
G37*
G36*
X397000Y67009D02*
Y65059D01*
X398950D01*
X398855Y65535D01*
X398302Y66361D01*
X397476Y66914D01*
X397000Y67009D01*
D02*
G37*
G36*
X396000D02*
X395525Y66914D01*
X394698Y66361D01*
X394145Y65535D01*
X394051Y65059D01*
X396000D01*
Y67009D01*
D02*
G37*
G36*
X386000D02*
Y65059D01*
X387949D01*
X387855Y65535D01*
X387302Y66361D01*
X386475Y66914D01*
X386000Y67009D01*
D02*
G37*
G36*
X385000D02*
X384525Y66914D01*
X383698Y66361D01*
X383145Y65535D01*
X383050Y65059D01*
X385000D01*
Y67009D01*
D02*
G37*
G36*
X398950Y64059D02*
X397000D01*
Y62110D01*
X397476Y62204D01*
X398302Y62757D01*
X398855Y63584D01*
X398950Y64059D01*
D02*
G37*
G36*
X396000D02*
X394051D01*
X394145Y63584D01*
X394698Y62757D01*
X395525Y62204D01*
X396000Y62110D01*
Y64059D01*
D02*
G37*
G36*
X387949D02*
X386000D01*
Y62110D01*
X386475Y62204D01*
X387302Y62757D01*
X387855Y63584D01*
X387949Y64059D01*
D02*
G37*
G36*
X385000D02*
X383050D01*
X383145Y63584D01*
X383698Y62757D01*
X384525Y62204D01*
X385000Y62110D01*
Y64059D01*
D02*
G37*
G36*
X418500Y52251D02*
X417468Y52115D01*
X416507Y51717D01*
X415681Y51083D01*
X415047Y50257D01*
X414649Y49296D01*
X414513Y48264D01*
X414649Y47232D01*
X415047Y46270D01*
X415681Y45445D01*
X416507Y44811D01*
X417468Y44413D01*
X418500Y44277D01*
X419532Y44413D01*
X420493Y44811D01*
X421319Y45445D01*
X421953Y46270D01*
X422351Y47232D01*
X422487Y48264D01*
X422351Y49296D01*
X421953Y50257D01*
X421319Y51083D01*
X420493Y51717D01*
X419532Y52115D01*
X418500Y52251D01*
D02*
G37*
G36*
X419000Y42185D02*
Y38764D01*
X422421D01*
X422351Y39296D01*
X421953Y40257D01*
X421319Y41083D01*
X420493Y41717D01*
X419532Y42115D01*
X419000Y42185D01*
D02*
G37*
G36*
X418000D02*
X417468Y42115D01*
X416507Y41717D01*
X415681Y41083D01*
X415047Y40257D01*
X414649Y39296D01*
X414579Y38764D01*
X418000D01*
Y42185D01*
D02*
G37*
G36*
Y37764D02*
X414579D01*
X414649Y37232D01*
X415047Y36270D01*
X415681Y35445D01*
X416507Y34811D01*
X417468Y34413D01*
X418000Y34343D01*
Y37764D01*
D02*
G37*
G36*
X422421D02*
X419000D01*
Y34343D01*
X419532Y34413D01*
X420493Y34811D01*
X421319Y35445D01*
X421953Y36270D01*
X422351Y37232D01*
X422421Y37764D01*
D02*
G37*
G36*
X456000Y53461D02*
Y51512D01*
X457949D01*
X457855Y51987D01*
X457302Y52814D01*
X456475Y53367D01*
X456000Y53461D01*
D02*
G37*
G36*
X455000D02*
X454525Y53367D01*
X453698Y52814D01*
X453145Y51987D01*
X453051Y51512D01*
X455000D01*
Y53461D01*
D02*
G37*
G36*
X457949Y50512D02*
X456000D01*
Y48562D01*
X456475Y48657D01*
X457302Y49209D01*
X457855Y50036D01*
X457949Y50512D01*
D02*
G37*
G36*
X455000D02*
X453051D01*
X453145Y50036D01*
X453698Y49209D01*
X454525Y48657D01*
X455000Y48562D01*
Y50512D01*
D02*
G37*
G36*
X402984Y50185D02*
Y46764D01*
X406405D01*
X406335Y47296D01*
X405937Y48257D01*
X405303Y49083D01*
X404478Y49716D01*
X403516Y50115D01*
X402984Y50185D01*
D02*
G37*
G36*
X398563Y50217D02*
X390657D01*
Y42311D01*
X398563D01*
Y43895D01*
X399007Y44230D01*
X399063Y44229D01*
X399665Y43445D01*
X400491Y42811D01*
X401452Y42413D01*
X401984Y42343D01*
Y46264D01*
X402484D01*
D01*
X401984D01*
Y50185D01*
X401452Y50115D01*
X400491Y49716D01*
X399665Y49083D01*
X399063Y48298D01*
X399007Y48298D01*
X398563Y48633D01*
Y50217D01*
D02*
G37*
G36*
X406405Y45764D02*
X402984D01*
Y42343D01*
X403516Y42413D01*
X404478Y42811D01*
X405303Y43445D01*
X405937Y44270D01*
X406335Y45232D01*
X406405Y45764D01*
D02*
G37*
G36*
X450000Y37582D02*
Y33764D01*
X453818D01*
X453735Y34398D01*
X453297Y35456D01*
X452600Y36364D01*
X451692Y37060D01*
X450635Y37498D01*
X450000Y37582D01*
D02*
G37*
G36*
X449000D02*
X448365Y37498D01*
X447308Y37060D01*
X446400Y36364D01*
X445703Y35456D01*
X445265Y34398D01*
X445182Y33764D01*
X449000D01*
Y37582D01*
D02*
G37*
G36*
X453818Y32764D02*
X450000D01*
Y28946D01*
X450635Y29029D01*
X451692Y29467D01*
X452600Y30164D01*
X453297Y31072D01*
X453735Y32129D01*
X453818Y32764D01*
D02*
G37*
G36*
X449000D02*
X445182D01*
X445265Y32129D01*
X445703Y31072D01*
X446400Y30164D01*
X447308Y29467D01*
X448365Y29029D01*
X449000Y28946D01*
Y32764D01*
D02*
G37*
G36*
X443847Y37610D02*
X435154D01*
Y28917D01*
X443847D01*
Y37610D01*
D02*
G37*
G36*
X415000Y27059D02*
Y23638D01*
X418421D01*
X418351Y24170D01*
X417953Y25131D01*
X417319Y25957D01*
X416493Y26590D01*
X415532Y26989D01*
X415000Y27059D01*
D02*
G37*
G36*
X414000D02*
X413468Y26989D01*
X412507Y26590D01*
X411681Y25957D01*
X411047Y25131D01*
X410649Y24170D01*
X410579Y23638D01*
X414000D01*
Y27059D01*
D02*
G37*
G36*
X444000Y21713D02*
Y19764D01*
X445950D01*
X445855Y20239D01*
X445302Y21066D01*
X444476Y21619D01*
X444000Y21713D01*
D02*
G37*
G36*
X443000D02*
X442525Y21619D01*
X441698Y21066D01*
X441145Y20239D01*
X441050Y19764D01*
X443000D01*
Y21713D01*
D02*
G37*
G36*
X382000Y21185D02*
Y17764D01*
X385421D01*
X385351Y18296D01*
X384953Y19257D01*
X384319Y20083D01*
X383493Y20717D01*
X382532Y21115D01*
X382000Y21185D01*
D02*
G37*
G36*
X445950Y18764D02*
X444000D01*
Y16814D01*
X444476Y16909D01*
X445302Y17461D01*
X445855Y18288D01*
X445950Y18764D01*
D02*
G37*
G36*
X443000D02*
X441050D01*
X441145Y18288D01*
X441698Y17461D01*
X442525Y16909D01*
X443000Y16814D01*
Y18764D01*
D02*
G37*
G36*
X429783Y19298D02*
X428739Y19161D01*
X427766Y18758D01*
X426930Y18117D01*
X426289Y17281D01*
X425886Y16308D01*
X425748Y15264D01*
X425886Y14220D01*
X426289Y13247D01*
X426930Y12411D01*
X427766Y11770D01*
X428739Y11367D01*
X429783Y11229D01*
X430827Y11367D01*
X431800Y11770D01*
X432636Y12411D01*
X433277Y13247D01*
X433680Y14220D01*
X433818Y15264D01*
X433680Y16308D01*
X433277Y17281D01*
X432636Y18117D01*
X431800Y18758D01*
X430827Y19161D01*
X429783Y19298D01*
D02*
G37*
G36*
X389850Y13969D02*
Y10500D01*
X393319D01*
X393247Y11044D01*
X392844Y12017D01*
X392203Y12853D01*
X391367Y13494D01*
X390394Y13897D01*
X389850Y13969D01*
D02*
G37*
G36*
X388850D02*
X388306Y13897D01*
X387333Y13494D01*
X386497Y12853D01*
X385856Y12017D01*
X385453Y11044D01*
X385381Y10500D01*
X388850D01*
Y13969D01*
D02*
G37*
%LPD*%
D15*
X428082Y68264D02*
X459500Y36845D01*
X418500Y68264D02*
X428082D01*
X459500Y33264D02*
Y36845D01*
X277500Y7264D02*
X371500Y7264D01*
X273500Y11264D02*
X277500Y7264D01*
X371500Y7264D02*
X381500Y17264D01*
X273500Y11264D02*
Y17067D01*
X344304Y30068D02*
X364500Y50264D01*
X319106Y30068D02*
X344304D01*
X313562Y24524D02*
X319106Y30068D01*
X244668Y24524D02*
X313562D01*
X233375Y63639D02*
X238280Y58734D01*
Y30911D02*
Y58734D01*
Y30911D02*
X244668Y24524D01*
X228000Y58264D02*
X233375Y63639D01*
X287000Y151264D02*
X296500Y141764D01*
X198839Y151264D02*
X287000D01*
X188839Y161264D02*
X198839Y151264D01*
X384763Y37351D02*
X406849Y15264D01*
X414500D01*
X233375Y63639D02*
Y80264D01*
X192951Y58264D02*
X228000D01*
X181762Y69453D02*
X192951Y58264D01*
X168500Y69453D02*
X181762D01*
X168500D02*
Y95701D01*
X312468Y114132D02*
Y114874D01*
X296500Y130842D02*
X305500Y121843D01*
X296500Y130842D02*
Y141764D01*
X162032Y161264D02*
X188839D01*
X154846Y154078D02*
X162032Y161264D01*
X69314Y154078D02*
X154846D01*
X61500Y146264D02*
X69314Y154078D01*
X305500Y121843D02*
X312468Y114874D01*
X519500Y88311D02*
X519520Y88331D01*
Y105327D01*
X519500Y71303D02*
X519520Y71284D01*
X519500Y71303D02*
Y88311D01*
X39500Y94638D02*
X39626Y94764D01*
D55*
X216801Y106565D02*
X218650Y108413D01*
X202801Y106565D02*
X216801D01*
X193250Y97014D02*
X202801Y106565D01*
X218650Y108413D02*
Y112264D01*
X210500Y90264D02*
X218799Y81965D01*
Y68264D02*
Y81965D01*
X63206Y48558D02*
X77250Y34514D01*
X50954Y48558D02*
X63206D01*
X48500Y51012D02*
X50954Y48558D01*
X47500Y94764D02*
X50500Y91764D01*
Y76264D02*
Y91764D01*
X193250Y86014D02*
Y97014D01*
X190500Y83264D02*
X193250Y86014D01*
X203500Y113264D02*
X206685D01*
X189500Y99264D02*
X203500Y113264D01*
X189500Y89264D02*
Y99264D01*
X208500Y66358D02*
X209500Y67358D01*
Y85114D01*
D56*
X12500Y55309D02*
X31254D01*
X46563Y40000D01*
X57000D01*
X21376Y155014D02*
X41126Y135264D01*
X12500Y155014D02*
X21376D01*
X41126Y135264D02*
X70650D01*
X86804Y30959D02*
X88625D01*
X91500D01*
X97500Y24959D01*
X146374Y30264D02*
X150500Y34390D01*
X117500Y30264D02*
X146374D01*
X117500Y17067D02*
Y30264D01*
X62201Y30003D02*
Y43563D01*
X60956Y44808D02*
X62201Y43563D01*
X49401Y44808D02*
X60956D01*
X67500Y13264D02*
Y24704D01*
X62201Y30003D02*
X67500Y24704D01*
X47819Y46390D02*
X49401Y44808D01*
X47500Y46390D02*
X47819D01*
X64500Y53264D02*
X77500Y40264D01*
X52545Y53264D02*
X64500D01*
X50500Y55309D02*
X52545Y53264D01*
X97500Y17067D02*
Y24959D01*
X103500Y30264D02*
X117500D01*
X77500Y40264D02*
X86804Y30959D01*
X388250Y89264D02*
Y97721D01*
Y73559D02*
Y89264D01*
X385500Y70809D02*
X388250Y73559D01*
X80500Y53264D02*
X103500Y30264D01*
X74500Y53264D02*
X80500D01*
X70650Y135264D02*
X92240Y113673D01*
Y105307D02*
Y113673D01*
X46500Y117296D02*
Y125701D01*
Y117296D02*
X60500Y103296D01*
Y83965D02*
Y103296D01*
X23500Y61310D02*
Y77809D01*
X103500Y30264D02*
X103579Y30185D01*
X182500Y17264D02*
X185154D01*
X185350Y17067D01*
X202012Y33728D01*
X213500D01*
D57*
X427427Y114191D02*
X432500Y119264D01*
X427427Y106368D02*
Y114191D01*
Y106368D02*
X436500Y97295D01*
Y90982D02*
Y97295D01*
X418500Y68264D02*
Y72982D01*
X436500Y90982D01*
D58*
X364500Y103411D02*
X368084Y106995D01*
X364500Y92620D02*
Y103411D01*
X368078Y107000D02*
X368089D01*
X371984Y105289D02*
X374932D01*
X368000Y101304D02*
X371984Y105289D01*
X368000Y100480D02*
Y101304D01*
X413674Y87636D02*
X417475Y83835D01*
X415323Y77845D02*
X417475Y79997D01*
Y83835D01*
X413836Y82102D02*
X414500D01*
X411681Y84257D02*
X413836Y82102D01*
X413674Y87636D02*
Y98751D01*
X411500Y77845D02*
X415323D01*
X257044Y31530D02*
X264456D01*
X253500Y35074D02*
X257044Y31530D01*
X253500Y35074D02*
Y42089D01*
X266953Y34026D02*
Y37619D01*
X264456Y31530D02*
X266953Y34026D01*
X330697Y24264D02*
X348485D01*
X338733Y22300D02*
X349278D01*
X333500Y17067D02*
X338733Y22300D01*
X433500Y113122D02*
X464890D01*
X480748Y97264D02*
X493500D01*
X464890Y113122D02*
X480748Y97264D01*
X388244Y89257D02*
X388250Y89264D01*
X383324Y89257D02*
X388244D01*
X382254Y127414D02*
X411681Y97987D01*
Y84257D02*
Y97987D01*
X383062Y129364D02*
X413674Y98751D01*
X366439Y117180D02*
X374307D01*
X365632Y115229D02*
X373499D01*
X372691Y113279D02*
X388250Y97721D01*
X362484Y113279D02*
X372691D01*
X371876Y111267D02*
X373500Y109643D01*
X367003Y111267D02*
X371876D01*
X362550Y106814D02*
X367003Y111267D01*
X358500Y117264D02*
X362484Y113279D01*
X374307Y117180D02*
X375372Y116114D01*
X360355Y123264D02*
X366439Y117180D01*
X373499Y115229D02*
X374565Y114164D01*
X359547Y121314D02*
X365632Y115229D01*
X375372Y116114D02*
X390796D01*
X355382Y123264D02*
X360355D01*
X356854Y121314D02*
X359547D01*
X340500Y104960D02*
X356854Y121314D01*
X374565Y114164D02*
X389988D01*
X335500Y103382D02*
X355382Y123264D01*
X340500Y103279D02*
Y104960D01*
X390796Y116114D02*
X402440Y104470D01*
X425698Y98066D02*
X427500Y96264D01*
X417117Y98066D02*
X425698D01*
X383870Y131314D02*
X417117Y98066D01*
X432500Y94226D02*
Y97100D01*
X429347Y100253D02*
X432500Y97100D01*
X417688Y100253D02*
X429347D01*
X384677Y133264D02*
X417688Y100253D01*
X374619Y133264D02*
X384677D01*
X374932Y105289D02*
X380131Y100090D01*
Y47511D02*
Y100090D01*
X373500Y86783D02*
Y102017D01*
Y86783D02*
X378181Y82102D01*
Y48445D02*
Y82102D01*
X373500Y108264D02*
Y109643D01*
X362550Y91812D02*
Y106814D01*
Y91812D02*
X374281Y80081D01*
Y50060D02*
Y80081D01*
X376231Y49252D02*
Y80889D01*
X364500Y92620D02*
X376231Y80889D01*
X348485Y24264D02*
X374281Y50060D01*
X349278Y22300D02*
X376231Y49252D01*
X350086Y20350D02*
X378181Y48445D01*
X353500Y20880D02*
X380131Y47511D01*
X389988Y114164D02*
X398140Y106012D01*
X335500Y97553D02*
Y103382D01*
X396600Y81264D02*
X398140Y82804D01*
X401400Y79825D02*
X402440Y80865D01*
X410629Y77845D02*
X411500D01*
X402440Y80865D02*
Y104470D01*
X418500Y87433D02*
X419476Y86458D01*
Y79239D02*
Y86458D01*
X411681Y71445D02*
X419476Y79239D01*
X411681Y61365D02*
Y71445D01*
X372196Y127414D02*
X382254D01*
X373004Y129364D02*
X383062D01*
X373812Y131314D02*
X383870D01*
X257450Y84274D02*
X261490Y88314D01*
X257450Y46039D02*
Y84274D01*
X253500Y42089D02*
X257450Y46039D01*
X255500Y46847D02*
Y85343D01*
X251507Y42854D02*
X255500Y46847D01*
X251507Y29713D02*
Y42854D01*
X414782Y58264D02*
X418500D01*
X411681Y61365D02*
X414782Y58264D01*
X323500Y161764D02*
X331489Y153775D01*
X345835D01*
X372196Y127414D01*
X398140Y82804D02*
Y106012D01*
X333500Y161764D02*
X339354Y155910D01*
X346458D01*
X373004Y129364D01*
X343500Y161626D02*
X373812Y131314D01*
X343500Y161626D02*
Y161764D01*
X353500Y154383D02*
Y161764D01*
Y154383D02*
X374619Y133264D01*
X255500Y85343D02*
X260421Y90264D01*
X261490Y88314D02*
X264529D01*
X266004Y86839D01*
X272420D01*
X275200Y89619D01*
Y91864D01*
X260421Y90264D02*
X269500D01*
X323500Y17067D02*
X330697Y24264D01*
X343500Y17067D02*
X343500D01*
X346783Y20350D01*
X350086D01*
X353500Y17067D02*
Y20880D01*
D61*
X59000Y170000D02*
D03*
X43000D02*
D03*
X389350Y10000D02*
D03*
X437000Y8264D02*
D03*
X429783Y15264D02*
D03*
D62*
X459500Y33264D02*
D03*
X449500D02*
D03*
X319500Y43264D02*
D03*
X309500D02*
D03*
X305500Y121843D02*
D03*
Y131843D02*
D03*
D63*
X439500Y33264D02*
D03*
X299500Y43264D02*
D03*
D64*
X536500Y84264D02*
D03*
X47500Y94764D02*
D03*
X224500Y166264D02*
D03*
X204500Y12264D02*
D03*
X488137Y18264D02*
D03*
X510500D02*
D03*
X535126D02*
D03*
X559314Y18524D02*
D03*
X528689Y161264D02*
D03*
X552315D02*
D03*
X482225D02*
D03*
X505450D02*
D03*
X394610Y46264D02*
D03*
X468500Y161264D02*
D03*
X363500Y161764D02*
D03*
Y17067D02*
D03*
D65*
X536500Y94264D02*
D03*
X546500Y84264D02*
D03*
Y94264D02*
D03*
X556500Y84264D02*
D03*
Y94264D02*
D03*
X344500Y51012D02*
D03*
X12500Y145014D02*
D03*
Y155014D02*
D03*
X50500Y145390D02*
D03*
X39626Y94764D02*
D03*
X10500Y18264D02*
D03*
Y28264D02*
D03*
X204500Y166264D02*
D03*
X214500D02*
D03*
X224500Y12264D02*
D03*
X214500D02*
D03*
X478137Y18264D02*
D03*
X500500D02*
D03*
X525126D02*
D03*
X549314Y18524D02*
D03*
X538689Y161264D02*
D03*
X562315D02*
D03*
X492225D02*
D03*
X515450D02*
D03*
X381500Y17264D02*
D03*
X414500Y23138D02*
D03*
X402484Y46264D02*
D03*
X458500Y149264D02*
D03*
X418500Y161264D02*
D03*
X428500D02*
D03*
X438500D02*
D03*
X448500D02*
D03*
X458500D02*
D03*
X403500Y151264D02*
D03*
X382500Y142390D02*
D03*
X418500Y58264D02*
D03*
Y48264D02*
D03*
Y38264D02*
D03*
X353500Y161764D02*
D03*
X343500D02*
D03*
X333500D02*
D03*
X323500D02*
D03*
X313500D02*
D03*
X303500D02*
D03*
X293500D02*
D03*
X283500D02*
D03*
X273500D02*
D03*
X263500D02*
D03*
X253500D02*
D03*
X353500Y17067D02*
D03*
X343500D02*
D03*
X333500D02*
D03*
X323500D02*
D03*
X313500D02*
D03*
X303500D02*
D03*
X293500D02*
D03*
X283500D02*
D03*
X273500D02*
D03*
X263500D02*
D03*
X253500D02*
D03*
D66*
X344500Y43138D02*
D03*
X12500Y165014D02*
D03*
X50500Y153264D02*
D03*
X10500Y38264D02*
D03*
X381500Y27264D02*
D03*
X414500Y15264D02*
D03*
X458500Y139264D02*
D03*
X403500Y161264D02*
D03*
X382500Y150264D02*
D03*
X418500Y68264D02*
D03*
D67*
X305500Y141842D02*
D03*
D68*
X67500Y33264D02*
D03*
Y13264D02*
D03*
X83579Y161764D02*
D03*
X103579D02*
D03*
X97500Y17067D02*
D03*
X117500D02*
D03*
D69*
X453818Y106752D02*
D03*
X330961Y133500D02*
D03*
X242750Y114095D02*
D03*
X180250Y121750D02*
D03*
X105000Y13250D02*
D03*
X87750Y60177D02*
D03*
X133000Y116114D02*
D03*
X436695Y70000D02*
D03*
X37500Y61559D02*
D03*
X76174Y35264D02*
D03*
X368089Y107000D02*
D03*
X368000Y100480D02*
D03*
X414500Y82102D02*
D03*
X553064Y48783D02*
D03*
X528814D02*
D03*
X504250Y48524D02*
D03*
X482000D02*
D03*
X552689Y59784D02*
D03*
X528876Y59524D02*
D03*
X504250D02*
D03*
X482000D02*
D03*
X559112Y120264D02*
D03*
X558939Y131264D02*
D03*
X535064Y120264D02*
D03*
X488137Y120004D02*
D03*
X488012Y131004D02*
D03*
X510326Y131264D02*
D03*
X256953Y38406D02*
D03*
X292250Y30000D02*
D03*
X57000Y35264D02*
D03*
X218650Y112264D02*
D03*
X218799Y68264D02*
D03*
X443500Y19264D02*
D03*
X41000Y120413D02*
D03*
X63850Y111000D02*
D03*
X70000Y55060D02*
D03*
X12500Y55309D02*
D03*
X57000Y40000D02*
D03*
X88625Y30959D02*
D03*
X150500Y34390D02*
D03*
X316500Y35264D02*
D03*
X323500Y25004D02*
D03*
X303500Y52264D02*
D03*
X47500Y46390D02*
D03*
X48500Y51012D02*
D03*
X82500Y14014D02*
D03*
X438500Y119264D02*
D03*
X432500D02*
D03*
X436695Y75264D02*
D03*
X436374Y80264D02*
D03*
X455500Y51012D02*
D03*
X493500Y97264D02*
D03*
X396500Y64559D02*
D03*
X385500D02*
D03*
X163500Y144441D02*
D03*
X136965Y17067D02*
D03*
X136161Y35193D02*
D03*
X385500Y70809D02*
D03*
X433500Y113122D02*
D03*
X410358Y114239D02*
D03*
X391769Y105427D02*
D03*
X370800Y120164D02*
D03*
X382500Y121264D02*
D03*
X383324Y89257D02*
D03*
X358500Y117264D02*
D03*
X432500Y94226D02*
D03*
X427500Y96264D02*
D03*
X373500Y108264D02*
D03*
X354587Y138264D02*
D03*
X358500Y111014D02*
D03*
X396600Y81264D02*
D03*
X401400Y79825D02*
D03*
X411500Y77845D02*
D03*
X427927Y88710D02*
D03*
X370142Y73264D02*
D03*
X275500Y141514D02*
D03*
X267500Y11264D02*
D03*
X204976Y98264D02*
D03*
X128591Y35193D02*
D03*
X192000Y67264D02*
D03*
X242331Y157264D02*
D03*
X240000Y145014D02*
D03*
X153921Y161764D02*
D03*
X52500Y125264D02*
D03*
X418500Y87433D02*
D03*
X364500Y50264D02*
D03*
X384669Y37264D02*
D03*
X233375Y80264D02*
D03*
X168500Y95701D02*
D03*
Y69453D02*
D03*
X251500Y29524D02*
D03*
X266953Y37619D02*
D03*
X269500Y90264D02*
D03*
X275200Y91864D02*
D03*
X340500Y103279D02*
D03*
X335500Y97553D02*
D03*
X309500Y99139D02*
D03*
X330047Y105427D02*
D03*
X373500Y102017D02*
D03*
X61500Y146264D02*
D03*
X92240Y105307D02*
D03*
X60500Y83965D02*
D03*
X46500Y125701D02*
D03*
X23500Y61310D02*
D03*
Y77809D02*
D03*
X50500Y76264D02*
D03*
Y55309D02*
D03*
X74500Y53264D02*
D03*
X163500Y153102D02*
D03*
X182500Y17264D02*
D03*
X136965Y25728D02*
D03*
X213500Y33728D02*
D03*
X448863Y119264D02*
D03*
X519520Y105327D02*
D03*
X519500Y88311D02*
D03*
X519520Y71284D02*
D03*
X513250Y88311D02*
D03*
X534939Y131264D02*
D03*
X510326Y120264D02*
D03*
X271480Y107217D02*
D03*
X248500Y45014D02*
D03*
X243500Y62264D02*
D03*
X239625Y80264D02*
D03*
X126563Y85201D02*
D03*
X168500Y63153D02*
D03*
X183500Y95701D02*
D03*
X210500Y90264D02*
D03*
X209500Y85114D02*
D03*
X208500Y66358D02*
D03*
X206685Y113264D02*
D03*
X190500Y83264D02*
D03*
X189500Y89264D02*
D03*
D70*
X319500Y43264D02*
Y107100D01*
X312468Y114132D02*
X319500Y107100D01*
M02*
