G04*
G04 #@! TF.GenerationSoftware,Altium Limited,Altium Designer,18.1.9 (240)*
G04*
G04 Layer_Color=16711935*
%FSLAX25Y25*%
%MOIN*%
G70*
G01*
G75*
%ADD31C,0.06800*%
%ADD32C,0.07493*%
%ADD33R,0.07493X0.07493*%
%ADD34R,0.06706X0.06706*%
%ADD35C,0.06706*%
%ADD36R,0.06706X0.06706*%
%ADD37R,0.07493X0.07493*%
%ADD38C,0.05524*%
%ADD39C,0.03800*%
D31*
X59000Y170000D02*
D03*
X43000D02*
D03*
X389350Y10000D02*
D03*
X437000Y8264D02*
D03*
X429783Y15264D02*
D03*
D32*
X459500Y33264D02*
D03*
X449500D02*
D03*
X319500Y43264D02*
D03*
X309500D02*
D03*
X305500Y121843D02*
D03*
Y131843D02*
D03*
D33*
X439500Y33264D02*
D03*
X299500Y43264D02*
D03*
D34*
X536500Y84264D02*
D03*
X47500Y94764D02*
D03*
X224500Y166264D02*
D03*
X204500Y12264D02*
D03*
X488137Y18264D02*
D03*
X510500D02*
D03*
X535126D02*
D03*
X559314Y18524D02*
D03*
X528689Y161264D02*
D03*
X552315D02*
D03*
X482225D02*
D03*
X505450D02*
D03*
X394610Y46264D02*
D03*
X468500Y161264D02*
D03*
X363500Y161764D02*
D03*
Y17067D02*
D03*
D35*
X536500Y94264D02*
D03*
X546500Y84264D02*
D03*
Y94264D02*
D03*
X556500Y84264D02*
D03*
Y94264D02*
D03*
X344500Y51012D02*
D03*
X12500Y145014D02*
D03*
Y155014D02*
D03*
X50500Y145390D02*
D03*
X39626Y94764D02*
D03*
X10500Y18264D02*
D03*
Y28264D02*
D03*
X204500Y166264D02*
D03*
X214500D02*
D03*
X224500Y12264D02*
D03*
X214500D02*
D03*
X478137Y18264D02*
D03*
X500500D02*
D03*
X525126D02*
D03*
X549314Y18524D02*
D03*
X538689Y161264D02*
D03*
X562315D02*
D03*
X492225D02*
D03*
X515450D02*
D03*
X381500Y17264D02*
D03*
X414500Y23138D02*
D03*
X402484Y46264D02*
D03*
X458500Y149264D02*
D03*
X418500Y161264D02*
D03*
X428500D02*
D03*
X438500D02*
D03*
X448500D02*
D03*
X458500D02*
D03*
X403500Y151264D02*
D03*
X382500Y142390D02*
D03*
X418500Y58264D02*
D03*
Y48264D02*
D03*
Y38264D02*
D03*
X353500Y161764D02*
D03*
X343500D02*
D03*
X333500D02*
D03*
X323500D02*
D03*
X313500D02*
D03*
X303500D02*
D03*
X293500D02*
D03*
X283500D02*
D03*
X273500D02*
D03*
X263500D02*
D03*
X253500D02*
D03*
X353500Y17067D02*
D03*
X343500D02*
D03*
X333500D02*
D03*
X323500D02*
D03*
X313500D02*
D03*
X303500D02*
D03*
X293500D02*
D03*
X283500D02*
D03*
X273500D02*
D03*
X263500D02*
D03*
X253500D02*
D03*
D36*
X344500Y43138D02*
D03*
X12500Y165014D02*
D03*
X50500Y153264D02*
D03*
X10500Y38264D02*
D03*
X381500Y27264D02*
D03*
X414500Y15264D02*
D03*
X458500Y139264D02*
D03*
X403500Y161264D02*
D03*
X382500Y150264D02*
D03*
X418500Y68264D02*
D03*
D37*
X305500Y141842D02*
D03*
D38*
X67500Y33264D02*
D03*
Y13264D02*
D03*
X83579Y161764D02*
D03*
X103579D02*
D03*
X97500Y17067D02*
D03*
X117500D02*
D03*
D39*
X453818Y106752D02*
D03*
X330961Y133500D02*
D03*
X242750Y114095D02*
D03*
X180250Y121750D02*
D03*
X105000Y13250D02*
D03*
X87750Y60177D02*
D03*
X133000Y116114D02*
D03*
X436695Y70000D02*
D03*
X37500Y61559D02*
D03*
X76174Y35264D02*
D03*
X368089Y107000D02*
D03*
X368000Y100480D02*
D03*
X414500Y82102D02*
D03*
X553064Y48783D02*
D03*
X528814D02*
D03*
X504250Y48524D02*
D03*
X482000D02*
D03*
X552689Y59784D02*
D03*
X528876Y59524D02*
D03*
X504250D02*
D03*
X482000D02*
D03*
X559112Y120264D02*
D03*
X558939Y131264D02*
D03*
X535064Y120264D02*
D03*
X488137Y120004D02*
D03*
X488012Y131004D02*
D03*
X510326Y131264D02*
D03*
X256953Y38406D02*
D03*
X292250Y30000D02*
D03*
X57000Y35264D02*
D03*
X218650Y112264D02*
D03*
X218799Y68264D02*
D03*
X443500Y19264D02*
D03*
X41000Y120413D02*
D03*
X63850Y111000D02*
D03*
X70000Y55060D02*
D03*
X12500Y55309D02*
D03*
X57000Y40000D02*
D03*
X88625Y30959D02*
D03*
X150500Y34390D02*
D03*
X316500Y35264D02*
D03*
X323500Y25004D02*
D03*
X303500Y52264D02*
D03*
X47500Y46390D02*
D03*
X48500Y51012D02*
D03*
X82500Y14014D02*
D03*
X438500Y119264D02*
D03*
X432500D02*
D03*
X436695Y75264D02*
D03*
X436374Y80264D02*
D03*
X455500Y51012D02*
D03*
X493500Y97264D02*
D03*
X396500Y64559D02*
D03*
X385500D02*
D03*
X163500Y144441D02*
D03*
X136965Y17067D02*
D03*
X136161Y35193D02*
D03*
X385500Y70809D02*
D03*
X433500Y113122D02*
D03*
X410358Y114239D02*
D03*
X391769Y105427D02*
D03*
X370800Y120164D02*
D03*
X382500Y121264D02*
D03*
X383324Y89257D02*
D03*
X358500Y117264D02*
D03*
X432500Y94226D02*
D03*
X427500Y96264D02*
D03*
X373500Y108264D02*
D03*
X354587Y138264D02*
D03*
X358500Y111014D02*
D03*
X396600Y81264D02*
D03*
X401400Y79825D02*
D03*
X411500Y77845D02*
D03*
X427927Y88710D02*
D03*
X370142Y73264D02*
D03*
X275500Y141514D02*
D03*
X267500Y11264D02*
D03*
X204976Y98264D02*
D03*
X128591Y35193D02*
D03*
X192000Y67264D02*
D03*
X242331Y157264D02*
D03*
X240000Y145014D02*
D03*
X153921Y161764D02*
D03*
X52500Y125264D02*
D03*
X418500Y87433D02*
D03*
X364500Y50264D02*
D03*
X384669Y37264D02*
D03*
X233375Y80264D02*
D03*
X168500Y95701D02*
D03*
Y69453D02*
D03*
X251500Y29524D02*
D03*
X266953Y37619D02*
D03*
X269500Y90264D02*
D03*
X275200Y91864D02*
D03*
X340500Y103279D02*
D03*
X335500Y97553D02*
D03*
X309500Y99139D02*
D03*
X330047Y105427D02*
D03*
X373500Y102017D02*
D03*
X61500Y146264D02*
D03*
X92240Y105307D02*
D03*
X60500Y83965D02*
D03*
X46500Y125701D02*
D03*
X23500Y61310D02*
D03*
Y77809D02*
D03*
X50500Y76264D02*
D03*
Y55309D02*
D03*
X74500Y53264D02*
D03*
X163500Y153102D02*
D03*
X182500Y17264D02*
D03*
X136965Y25728D02*
D03*
X213500Y33728D02*
D03*
X448863Y119264D02*
D03*
X519520Y105327D02*
D03*
X519500Y88311D02*
D03*
X519520Y71284D02*
D03*
X513250Y88311D02*
D03*
X534939Y131264D02*
D03*
X510326Y120264D02*
D03*
X271480Y107217D02*
D03*
X248500Y45014D02*
D03*
X243500Y62264D02*
D03*
X239625Y80264D02*
D03*
X126563Y85201D02*
D03*
X168500Y63153D02*
D03*
X183500Y95701D02*
D03*
X210500Y90264D02*
D03*
X209500Y85114D02*
D03*
X208500Y66358D02*
D03*
X206685Y113264D02*
D03*
X190500Y83264D02*
D03*
X189500Y89264D02*
D03*
M02*
