G04*
G04 #@! TF.GenerationSoftware,Altium Limited,Altium Designer,18.1.9 (240)*
G04*
G04 Layer_Color=255*
%FSLAX25Y25*%
%MOIN*%
G70*
G01*
G75*
%ADD40R,0.07874X0.02362*%
%ADD41O,0.07874X0.02362*%
%ADD42R,0.05000X0.00950*%
%ADD43R,0.00950X0.05000*%
%ADD44O,0.03937X0.03937*%
%ADD45O,0.07874X0.02284*%
%ADD46R,0.07874X0.02284*%
%ADD47R,0.04250X0.05200*%
%ADD48R,0.03937X0.05118*%
%ADD49R,0.03937X0.15748*%
%ADD50R,0.15748X0.03937*%
%ADD51R,0.05200X0.04250*%
%ADD52R,0.05118X0.03937*%
%ADD53R,0.05709X0.02362*%
%ADD54R,0.02362X0.05512*%
%ADD61C,0.06000*%
%ADD62C,0.06693*%
%ADD63R,0.06693X0.06693*%
%ADD64R,0.05906X0.05906*%
%ADD65C,0.05906*%
%ADD66R,0.05906X0.05906*%
%ADD67R,0.06693X0.06693*%
%ADD68C,0.04724*%
D40*
X34925Y130413D02*
D03*
D41*
Y125413D02*
D03*
Y120413D02*
D03*
Y115413D02*
D03*
X56500Y130413D02*
D03*
Y125413D02*
D03*
Y120413D02*
D03*
Y115413D02*
D03*
D42*
X418331Y115091D02*
D03*
Y113122D02*
D03*
Y111153D02*
D03*
Y107217D02*
D03*
Y109185D02*
D03*
Y105248D02*
D03*
Y103279D02*
D03*
Y99343D02*
D03*
Y101311D02*
D03*
Y97374D02*
D03*
Y95406D02*
D03*
Y93437D02*
D03*
X384669Y113122D02*
D03*
Y115091D02*
D03*
Y109185D02*
D03*
Y111153D02*
D03*
Y107217D02*
D03*
Y105248D02*
D03*
Y101311D02*
D03*
Y99343D02*
D03*
Y103279D02*
D03*
Y97374D02*
D03*
Y95406D02*
D03*
Y93437D02*
D03*
D43*
X412327Y121095D02*
D03*
X410358D02*
D03*
X406421D02*
D03*
X408390D02*
D03*
X402484D02*
D03*
X404453D02*
D03*
X410358Y87433D02*
D03*
X412327D02*
D03*
X408390D02*
D03*
X406421D02*
D03*
X404453D02*
D03*
X402484D02*
D03*
X398547Y121095D02*
D03*
X400516D02*
D03*
X392642D02*
D03*
X394610D02*
D03*
X390673D02*
D03*
X396579D02*
D03*
X400516Y87433D02*
D03*
X398547D02*
D03*
X396579D02*
D03*
X390673D02*
D03*
X394610D02*
D03*
X392642D02*
D03*
D44*
X401500Y104264D02*
D03*
D45*
X220421Y89638D02*
D03*
Y85701D02*
D03*
Y97512D02*
D03*
Y93575D02*
D03*
X199555Y97512D02*
D03*
Y93575D02*
D03*
Y89638D02*
D03*
Y85701D02*
D03*
Y81764D02*
D03*
X37500Y76559D02*
D03*
Y71559D02*
D03*
Y66559D02*
D03*
Y61559D02*
D03*
Y56559D02*
D03*
Y51559D02*
D03*
Y46559D02*
D03*
X58445Y76559D02*
D03*
Y71559D02*
D03*
Y66559D02*
D03*
Y61559D02*
D03*
Y56559D02*
D03*
Y51559D02*
D03*
X157831Y99638D02*
D03*
Y103575D02*
D03*
Y107512D02*
D03*
Y111449D02*
D03*
X136965Y95701D02*
D03*
Y99638D02*
D03*
Y103575D02*
D03*
Y107512D02*
D03*
Y111449D02*
D03*
X157831Y73390D02*
D03*
Y77327D02*
D03*
Y81264D02*
D03*
Y85201D02*
D03*
X136965Y69453D02*
D03*
Y73390D02*
D03*
Y77327D02*
D03*
Y81264D02*
D03*
Y85201D02*
D03*
D46*
X220421Y81764D02*
D03*
X58445Y46559D02*
D03*
X157831Y95701D02*
D03*
Y69453D02*
D03*
D47*
X239625Y80264D02*
D03*
X233375D02*
D03*
X519500Y88311D02*
D03*
X513250D02*
D03*
X488250Y48524D02*
D03*
X482000D02*
D03*
X488250Y59524D02*
D03*
X482000D02*
D03*
X488250Y70524D02*
D03*
X482000D02*
D03*
X510500Y48524D02*
D03*
X504250D02*
D03*
X510500Y59524D02*
D03*
X504250D02*
D03*
X510500Y70264D02*
D03*
X504250D02*
D03*
X535064Y48783D02*
D03*
X528814D02*
D03*
X535126Y59524D02*
D03*
X528876D02*
D03*
X535126Y70524D02*
D03*
X528876D02*
D03*
X559314Y48783D02*
D03*
X553064D02*
D03*
X558939Y59784D02*
D03*
X552689D02*
D03*
X558939Y70524D02*
D03*
X552689D02*
D03*
X528689Y131264D02*
D03*
X534939D02*
D03*
X528814Y120264D02*
D03*
X535064D02*
D03*
X528689Y109264D02*
D03*
X534939D02*
D03*
X552689Y131264D02*
D03*
X558939D02*
D03*
X552862Y120264D02*
D03*
X559112D02*
D03*
X552689Y109264D02*
D03*
X558939D02*
D03*
X482100Y109004D02*
D03*
X488350D02*
D03*
X481762Y131004D02*
D03*
X488012D02*
D03*
X481887Y120004D02*
D03*
X488137D02*
D03*
X504076Y120264D02*
D03*
X510326D02*
D03*
X504076Y109004D02*
D03*
X510326D02*
D03*
X504076Y131264D02*
D03*
X510326D02*
D03*
X30750Y145264D02*
D03*
X24500D02*
D03*
X454500Y19264D02*
D03*
X460750D02*
D03*
X443500D02*
D03*
X437250D02*
D03*
X455113Y119264D02*
D03*
X448863D02*
D03*
X421057Y79282D02*
D03*
X427307D02*
D03*
X438750Y119264D02*
D03*
X432500D02*
D03*
X298500Y29264D02*
D03*
X292250D02*
D03*
X309500D02*
D03*
X315750D02*
D03*
X285500Y146264D02*
D03*
X291750D02*
D03*
X88625Y30959D02*
D03*
X82375D02*
D03*
D48*
X174799Y95701D02*
D03*
X168500D02*
D03*
X212350Y112264D02*
D03*
X218650D02*
D03*
X146350Y120264D02*
D03*
X152650D02*
D03*
X153650Y59264D02*
D03*
X147350D02*
D03*
X218799Y68264D02*
D03*
X212500D02*
D03*
X70150Y111000D02*
D03*
X63850D02*
D03*
D49*
X113500Y131843D02*
D03*
X100902D02*
D03*
X92240D02*
D03*
X83579D02*
D03*
Y105307D02*
D03*
X92240D02*
D03*
X100902D02*
D03*
X113500D02*
D03*
Y73524D02*
D03*
X100902D02*
D03*
X92240D02*
D03*
X83579D02*
D03*
Y46988D02*
D03*
X92240D02*
D03*
X100902D02*
D03*
X113500D02*
D03*
D50*
X228421Y122867D02*
D03*
Y135466D02*
D03*
Y144127D02*
D03*
Y152788D02*
D03*
X201886D02*
D03*
Y144127D02*
D03*
Y135466D02*
D03*
Y122867D02*
D03*
Y54988D02*
D03*
Y42390D02*
D03*
Y33728D02*
D03*
Y25067D02*
D03*
X228421D02*
D03*
Y33728D02*
D03*
Y42390D02*
D03*
Y54988D02*
D03*
X136965Y46988D02*
D03*
Y34390D02*
D03*
Y25728D02*
D03*
Y17067D02*
D03*
X163500D02*
D03*
Y25728D02*
D03*
Y34390D02*
D03*
Y46988D02*
D03*
Y131843D02*
D03*
Y144441D02*
D03*
Y153102D02*
D03*
Y161764D02*
D03*
X136965D02*
D03*
Y153102D02*
D03*
Y144441D02*
D03*
Y131843D02*
D03*
D51*
X68500Y161264D02*
D03*
Y155014D02*
D03*
X23500Y77809D02*
D03*
Y71559D02*
D03*
X12500Y97264D02*
D03*
Y91014D02*
D03*
X66400Y123775D02*
D03*
Y130025D02*
D03*
X12500Y130538D02*
D03*
Y124288D02*
D03*
Y113538D02*
D03*
Y107288D02*
D03*
X24500Y130538D02*
D03*
Y124288D02*
D03*
Y113538D02*
D03*
Y107288D02*
D03*
X283500Y45014D02*
D03*
Y51264D02*
D03*
X394500Y17067D02*
D03*
Y23317D02*
D03*
X407500Y70809D02*
D03*
Y64559D02*
D03*
X385500Y70809D02*
D03*
Y64559D02*
D03*
X358500Y111014D02*
D03*
Y117264D02*
D03*
X396500Y64559D02*
D03*
Y70809D02*
D03*
X248500Y51264D02*
D03*
Y45014D02*
D03*
X272500Y51264D02*
D03*
Y45014D02*
D03*
X260500Y51264D02*
D03*
Y45014D02*
D03*
X364500Y34514D02*
D03*
Y28264D02*
D03*
X303500Y105389D02*
D03*
Y99139D02*
D03*
X315500Y105389D02*
D03*
Y99139D02*
D03*
X275500Y135264D02*
D03*
Y141514D02*
D03*
X286500Y122014D02*
D03*
Y128264D02*
D03*
X263500Y122264D02*
D03*
Y116014D02*
D03*
X275500Y122264D02*
D03*
Y116014D02*
D03*
X82500Y14014D02*
D03*
Y20264D02*
D03*
X23500Y61310D02*
D03*
Y55060D02*
D03*
Y45248D02*
D03*
Y38998D02*
D03*
X12500Y77809D02*
D03*
Y71559D02*
D03*
Y55309D02*
D03*
Y61559D02*
D03*
D52*
X168500Y63153D02*
D03*
Y69453D02*
D03*
X126500Y116114D02*
D03*
Y122413D02*
D03*
Y57114D02*
D03*
Y63413D02*
D03*
X67500Y83965D02*
D03*
Y90264D02*
D03*
D53*
X488350Y29524D02*
D03*
Y37004D02*
D03*
X479098Y33264D02*
D03*
X510500Y29524D02*
D03*
Y37004D02*
D03*
X501248Y33264D02*
D03*
X535126Y29524D02*
D03*
Y37004D02*
D03*
X525874Y33264D02*
D03*
X559314Y29783D02*
D03*
Y37264D02*
D03*
X550062Y33524D02*
D03*
X528689Y150004D02*
D03*
Y142524D02*
D03*
X537941Y146264D02*
D03*
X552689Y150004D02*
D03*
Y142524D02*
D03*
X561941Y146264D02*
D03*
X481973Y150004D02*
D03*
Y142524D02*
D03*
X491225Y146264D02*
D03*
X505450Y150004D02*
D03*
Y142524D02*
D03*
X514702Y146264D02*
D03*
D54*
X278500Y35264D02*
D03*
X282240Y27784D02*
D03*
X274760D02*
D03*
X261500Y35264D02*
D03*
X265240Y27784D02*
D03*
X257760D02*
D03*
X263500Y106565D02*
D03*
X267240Y99085D02*
D03*
X259760D02*
D03*
X281500Y106565D02*
D03*
X285240Y99085D02*
D03*
X277760D02*
D03*
D61*
X59000Y170000D02*
D03*
X43000D02*
D03*
X389350Y10000D02*
D03*
X437000Y8264D02*
D03*
X429783Y15264D02*
D03*
D62*
X459500Y33264D02*
D03*
X449500D02*
D03*
X319500Y43264D02*
D03*
X309500D02*
D03*
X305500Y121843D02*
D03*
Y131843D02*
D03*
D63*
X439500Y33264D02*
D03*
X299500Y43264D02*
D03*
D64*
X536500Y84264D02*
D03*
X47500Y94764D02*
D03*
X224500Y166264D02*
D03*
X204500Y12264D02*
D03*
X488137Y18264D02*
D03*
X510500D02*
D03*
X535126D02*
D03*
X559314Y18524D02*
D03*
X528689Y161264D02*
D03*
X552315D02*
D03*
X482225D02*
D03*
X505450D02*
D03*
X394610Y46264D02*
D03*
X468500Y161264D02*
D03*
X363500Y161764D02*
D03*
Y17067D02*
D03*
D65*
X536500Y94264D02*
D03*
X546500Y84264D02*
D03*
Y94264D02*
D03*
X556500Y84264D02*
D03*
Y94264D02*
D03*
X344500Y51012D02*
D03*
X12500Y145014D02*
D03*
Y155014D02*
D03*
X50500Y145390D02*
D03*
X39626Y94764D02*
D03*
X10500Y18264D02*
D03*
Y28264D02*
D03*
X204500Y166264D02*
D03*
X214500D02*
D03*
X224500Y12264D02*
D03*
X214500D02*
D03*
X478137Y18264D02*
D03*
X500500D02*
D03*
X525126D02*
D03*
X549314Y18524D02*
D03*
X538689Y161264D02*
D03*
X562315D02*
D03*
X492225D02*
D03*
X515450D02*
D03*
X381500Y17264D02*
D03*
X414500Y23138D02*
D03*
X402484Y46264D02*
D03*
X458500Y149264D02*
D03*
X418500Y161264D02*
D03*
X428500D02*
D03*
X438500D02*
D03*
X448500D02*
D03*
X458500D02*
D03*
X403500Y151264D02*
D03*
X382500Y142390D02*
D03*
X418500Y58264D02*
D03*
Y48264D02*
D03*
Y38264D02*
D03*
X353500Y161764D02*
D03*
X343500D02*
D03*
X333500D02*
D03*
X323500D02*
D03*
X313500D02*
D03*
X303500D02*
D03*
X293500D02*
D03*
X283500D02*
D03*
X273500D02*
D03*
X263500D02*
D03*
X253500D02*
D03*
X353500Y17067D02*
D03*
X343500D02*
D03*
X333500D02*
D03*
X323500D02*
D03*
X313500D02*
D03*
X303500D02*
D03*
X293500D02*
D03*
X283500D02*
D03*
X273500D02*
D03*
X263500D02*
D03*
X253500D02*
D03*
D66*
X344500Y43138D02*
D03*
X12500Y165014D02*
D03*
X50500Y153264D02*
D03*
X10500Y38264D02*
D03*
X381500Y27264D02*
D03*
X414500Y15264D02*
D03*
X458500Y139264D02*
D03*
X403500Y161264D02*
D03*
X382500Y150264D02*
D03*
X418500Y68264D02*
D03*
D67*
X305500Y141842D02*
D03*
D68*
X67500Y33264D02*
D03*
Y13264D02*
D03*
X83579Y161764D02*
D03*
X103579D02*
D03*
X97500Y17067D02*
D03*
X117500D02*
D03*
M02*
