G04*
G04 #@! TF.GenerationSoftware,Altium Limited,Altium Designer,18.1.9 (240)*
G04*
G04 Layer_Physical_Order=1*
G04 Layer_Color=255*
%FSLAX25Y25*%
%MOIN*%
G70*
G01*
G75*
%ADD12C,0.01000*%
%ADD15C,0.05000*%
%ADD40R,0.07874X0.02362*%
%ADD41O,0.07874X0.02362*%
%ADD42R,0.05000X0.00950*%
%ADD43R,0.00950X0.05000*%
%ADD44O,0.03937X0.03937*%
%ADD45O,0.07874X0.02284*%
%ADD46R,0.07874X0.02284*%
%ADD47R,0.04250X0.05200*%
%ADD48R,0.03937X0.05118*%
%ADD49R,0.03937X0.15748*%
%ADD50R,0.15748X0.03937*%
%ADD51R,0.05200X0.04250*%
%ADD52R,0.05118X0.03937*%
%ADD53R,0.05709X0.02362*%
%ADD54R,0.02362X0.05512*%
%ADD55C,0.02500*%
%ADD56C,0.03000*%
%ADD57C,0.02000*%
%ADD58C,0.00950*%
%ADD59C,0.04000*%
%ADD60C,0.01500*%
%ADD61C,0.06000*%
%ADD62C,0.06693*%
%ADD63R,0.06693X0.06693*%
%ADD64R,0.05906X0.05906*%
%ADD65C,0.05906*%
%ADD66R,0.05906X0.05906*%
%ADD67R,0.06693X0.06693*%
%ADD68C,0.04724*%
%ADD69C,0.03000*%
G36*
X153035Y170750D02*
X152375Y170619D01*
X151548Y170066D01*
X146104Y164622D01*
X145839Y164732D01*
Y164732D01*
X128091D01*
Y164313D01*
X116056D01*
X111302Y169066D01*
X110476Y169619D01*
X109500Y169813D01*
X97909D01*
X96934Y169619D01*
X96107Y169066D01*
X95555Y168239D01*
X95533Y168132D01*
X78187Y150785D01*
X77709Y150889D01*
X77653Y150959D01*
X77299Y151488D01*
Y155458D01*
X81056Y159215D01*
X81378D01*
X81883Y158827D01*
X82701Y158488D01*
X83579Y158373D01*
X84456Y158488D01*
X85274Y158827D01*
X85977Y159366D01*
X86516Y160068D01*
X86854Y160886D01*
X86970Y161764D01*
X86854Y162642D01*
X86516Y163459D01*
X85977Y164162D01*
X85274Y164701D01*
X84456Y165039D01*
X83579Y165155D01*
X82701Y165039D01*
X81883Y164701D01*
X81378Y164313D01*
X80000D01*
X79025Y164119D01*
X78198Y163566D01*
X75155Y160523D01*
X72611Y163066D01*
X72100Y163408D01*
Y164389D01*
X64900D01*
Y157308D01*
X62950D01*
X61294Y158964D01*
Y166718D01*
X61853Y167147D01*
X62494Y167983D01*
X62897Y168956D01*
X63034Y170000D01*
X62936Y170750D01*
X63312Y171250D01*
X152986D01*
X153035Y170750D01*
D02*
G37*
G36*
X287500Y163743D02*
X287000Y163643D01*
X286953Y163757D01*
X286319Y164583D01*
X285493Y165217D01*
X284532Y165615D01*
X283500Y165751D01*
X282468Y165615D01*
X281507Y165217D01*
X280681Y164583D01*
X280047Y163757D01*
X279649Y162796D01*
X279513Y161764D01*
X279558Y161426D01*
X277293Y159162D01*
X277136Y159188D01*
X276922Y159730D01*
X276953Y159770D01*
X277351Y160732D01*
X277421Y161264D01*
X273500D01*
X269579D01*
X269649Y160732D01*
X270047Y159770D01*
X270362Y159360D01*
X270116Y158860D01*
X266884D01*
X266638Y159360D01*
X266953Y159770D01*
X267351Y160732D01*
X267487Y161764D01*
X267351Y162796D01*
X266953Y163757D01*
X266319Y164583D01*
X265493Y165217D01*
X264532Y165615D01*
X263500Y165751D01*
X263162Y165706D01*
X259802Y169066D01*
X258976Y169619D01*
X258000Y169813D01*
X237375D01*
X236400Y169619D01*
X235573Y169066D01*
X228953Y162446D01*
X228453Y162653D01*
Y165764D01*
X225000D01*
Y162311D01*
X228110D01*
X228317Y161811D01*
X227319Y160813D01*
X220500D01*
X219525Y160619D01*
X218698Y160066D01*
X213969Y155337D01*
X212165D01*
X212116Y155837D01*
X212475Y155909D01*
X213302Y156461D01*
X216302Y159461D01*
X216855Y160288D01*
X217049Y161264D01*
Y163237D01*
X217319Y163445D01*
X217953Y164270D01*
X218351Y165232D01*
X218487Y166264D01*
X218351Y167296D01*
X217953Y168257D01*
X217319Y169083D01*
X216493Y169717D01*
X215532Y170115D01*
X214500Y170251D01*
X213468Y170115D01*
X212507Y169717D01*
X211681Y169083D01*
X211047Y168257D01*
X210649Y167296D01*
X210513Y166264D01*
X210649Y165232D01*
X211047Y164270D01*
X211681Y163445D01*
X211951Y163237D01*
Y162320D01*
X210444Y160813D01*
X191500D01*
X190525Y160619D01*
X189698Y160066D01*
X188001Y158370D01*
X187448Y157543D01*
X187254Y156567D01*
Y151461D01*
X187366Y150899D01*
X186905Y150652D01*
X183049Y154509D01*
Y162264D01*
X182855Y163239D01*
X182302Y164066D01*
X176302Y170066D01*
X175476Y170619D01*
X174815Y170750D01*
X174865Y171250D01*
X287500D01*
Y163743D01*
D02*
G37*
G36*
X304506Y170875D02*
X301698Y168066D01*
X301145Y167239D01*
X300951Y166264D01*
Y164790D01*
X300681Y164583D01*
X300047Y163757D01*
X299649Y162796D01*
X299513Y161764D01*
X299649Y160732D01*
X300047Y159770D01*
X300635Y159004D01*
X299869Y158238D01*
X296219D01*
X296050Y158738D01*
X296319Y158945D01*
X296953Y159770D01*
X297351Y160732D01*
X297421Y161264D01*
X293500D01*
Y161764D01*
X293000D01*
Y165685D01*
X292468Y165615D01*
X291507Y165217D01*
X290681Y164583D01*
X290250Y164021D01*
X289750Y164191D01*
Y171250D01*
X289802Y171375D01*
X304299D01*
X304506Y170875D01*
D02*
G37*
G36*
X568500Y6250D02*
X550132D01*
X549941Y6712D01*
X551810Y8581D01*
X552371Y9313D01*
X552724Y10164D01*
X552844Y11078D01*
Y16717D01*
X553165Y17492D01*
X553301Y18524D01*
X553165Y19556D01*
X552767Y20517D01*
X552133Y21343D01*
X551307Y21976D01*
X550346Y22375D01*
X549314Y22511D01*
X548282Y22375D01*
X547321Y21976D01*
X546495Y21343D01*
X545861Y20517D01*
X545463Y19556D01*
X545327Y18524D01*
X545463Y17492D01*
X545784Y16717D01*
Y12540D01*
X545038Y11794D01*
X528656D01*
Y16457D01*
X528977Y17232D01*
X529113Y18264D01*
X528977Y19296D01*
X528656Y20070D01*
Y25027D01*
X528656Y25027D01*
X528536Y25940D01*
X528183Y26792D01*
X527622Y27523D01*
X524524Y30621D01*
X524716Y31083D01*
X529728D01*
Y35445D01*
X527913D01*
Y38126D01*
X530138Y40351D01*
X532626D01*
X533406Y40506D01*
X534068Y40948D01*
X536506Y43386D01*
X536948Y44047D01*
X537103Y44828D01*
Y45184D01*
X538189D01*
X538461Y44796D01*
Y39919D01*
X537726Y39185D01*
X531272D01*
Y34823D01*
X538980D01*
Y35074D01*
X539210Y35120D01*
X539871Y35562D01*
X541942Y37633D01*
X542384Y38295D01*
X542539Y39075D01*
X542539Y39075D01*
Y54150D01*
X542384Y54930D01*
X541942Y55591D01*
X538251Y59282D01*
Y63124D01*
X537165D01*
Y66924D01*
X538251D01*
Y74124D01*
X527403D01*
X523229Y78298D01*
X523420Y78760D01*
X524940D01*
X528500Y75200D01*
X528500Y75200D01*
X528988Y74874D01*
X529563Y74760D01*
X546326D01*
X549564Y71522D01*
Y66924D01*
X556900D01*
Y63384D01*
X553189D01*
Y59784D01*
X552689D01*
Y59284D01*
X549564D01*
Y56183D01*
X550770D01*
Y52384D01*
X549939D01*
Y49283D01*
X553064D01*
Y48783D01*
X553564D01*
Y45184D01*
X555757D01*
X555948Y44721D01*
X555529Y44303D01*
X553355D01*
X552575Y44148D01*
X551913Y43706D01*
X548620Y40412D01*
X548178Y39751D01*
X548023Y38971D01*
Y35705D01*
X546208D01*
Y31343D01*
X553916D01*
Y35705D01*
X552101D01*
Y38126D01*
X554200Y40225D01*
X556374D01*
X557154Y40380D01*
X557816Y40822D01*
X560756Y43762D01*
X561198Y44423D01*
X561349Y45184D01*
X562439D01*
X562461Y44693D01*
Y39849D01*
X562057Y39445D01*
X555460D01*
Y35083D01*
X563168D01*
Y35306D01*
X563540Y35380D01*
X564202Y35822D01*
X565942Y37562D01*
X566384Y38224D01*
X566539Y39004D01*
Y54223D01*
X566384Y55003D01*
X565942Y55664D01*
X562064Y59542D01*
Y63384D01*
X560978D01*
Y66924D01*
X562064D01*
Y74124D01*
X551216D01*
X548012Y77327D01*
X547524Y77653D01*
X546949Y77768D01*
X530186D01*
X527357Y80597D01*
X527467Y81193D01*
X527735Y81372D01*
X529123Y82760D01*
X532547D01*
Y80311D01*
X540453D01*
Y88217D01*
X532547D01*
Y85768D01*
X528500D01*
X528500Y85768D01*
X527924Y85653D01*
X527437Y85327D01*
X526049Y83939D01*
X508951D01*
X495979Y96912D01*
X496049Y97264D01*
X495855Y98239D01*
X495802Y98319D01*
X496037Y98760D01*
X530189D01*
X530764Y98874D01*
X531252Y99200D01*
X534474Y102422D01*
X535599Y101297D01*
X536260Y100855D01*
X537041Y100700D01*
X537041Y100700D01*
X555664D01*
X556444Y100855D01*
X557106Y101297D01*
X560381Y104572D01*
X560823Y105233D01*
X560909Y105664D01*
X562064D01*
Y112864D01*
X554728D01*
Y116664D01*
X558612D01*
Y120264D01*
X559112D01*
Y120764D01*
X562237D01*
Y123864D01*
X561406D01*
Y127664D01*
X562064D01*
Y130764D01*
X558939D01*
Y131264D01*
X558439D01*
Y134864D01*
X555637D01*
X555446Y135326D01*
X556345Y136225D01*
X559500D01*
X560280Y136380D01*
X560942Y136822D01*
X563383Y139263D01*
X563825Y139924D01*
X563980Y140705D01*
Y144083D01*
X565795D01*
Y148445D01*
X558087D01*
Y144083D01*
X559902D01*
Y141549D01*
X558655Y140303D01*
X557027D01*
X556543Y140342D01*
Y144705D01*
X548835D01*
Y144430D01*
X548720Y144408D01*
X548058Y143966D01*
X546058Y141966D01*
X545616Y141304D01*
X545461Y140524D01*
Y125626D01*
X545616Y124846D01*
X546058Y124184D01*
X549737Y120505D01*
Y116664D01*
X550650D01*
Y112864D01*
X549564D01*
Y105664D01*
X555052D01*
X555243Y105202D01*
X554819Y104778D01*
X537885D01*
X537462Y105202D01*
X537653Y105664D01*
X538064D01*
Y112864D01*
X530728D01*
Y116664D01*
X534564D01*
Y120264D01*
X535064D01*
Y120764D01*
X538189D01*
Y123864D01*
X537358D01*
Y127664D01*
X538064D01*
Y130764D01*
X534939D01*
Y131264D01*
X534439D01*
Y134864D01*
X531637D01*
X531446Y135326D01*
X532345Y136225D01*
X534611D01*
X535391Y136380D01*
X536053Y136822D01*
X539383Y140152D01*
X539383Y140152D01*
X539825Y140814D01*
X539980Y141594D01*
X539980Y141594D01*
Y144083D01*
X541795D01*
Y148445D01*
X534087D01*
Y144083D01*
X535902D01*
Y142439D01*
X533766Y140303D01*
X533027D01*
X532543Y140342D01*
Y144705D01*
X524835D01*
X524586Y145102D01*
Y147426D01*
X524835Y147823D01*
X525086Y147823D01*
X532543D01*
Y152185D01*
X530728D01*
Y157311D01*
X532642D01*
Y165217D01*
X524736D01*
Y157311D01*
X526650D01*
Y152185D01*
X524835Y152185D01*
X524586Y152582D01*
Y152727D01*
X524586Y152727D01*
X524466Y153641D01*
X524113Y154492D01*
X523552Y155224D01*
X519079Y159697D01*
X519301Y160232D01*
X519437Y161264D01*
X519301Y162296D01*
X518980Y163070D01*
Y165734D01*
X535159D01*
Y163070D01*
X534838Y162296D01*
X534702Y161264D01*
X534838Y160232D01*
X535236Y159270D01*
X535870Y158445D01*
X536696Y157811D01*
X537657Y157413D01*
X538689Y157277D01*
X539721Y157413D01*
X540682Y157811D01*
X541508Y158445D01*
X542142Y159270D01*
X542540Y160232D01*
X542676Y161264D01*
X542540Y162296D01*
X542219Y163070D01*
Y165734D01*
X556788D01*
X558785Y163737D01*
Y163070D01*
X558464Y162296D01*
X558328Y161264D01*
X558464Y160232D01*
X558862Y159270D01*
X559496Y158445D01*
X560322Y157811D01*
X561283Y157413D01*
X562315Y157277D01*
X563347Y157413D01*
X564308Y157811D01*
X565134Y158445D01*
X565768Y159270D01*
X566166Y160232D01*
X566302Y161264D01*
X566166Y162296D01*
X565845Y163070D01*
Y165199D01*
X565725Y166112D01*
X565372Y166964D01*
X564811Y167695D01*
X561718Y170788D01*
X561909Y171250D01*
X568500D01*
Y6250D01*
D02*
G37*
G36*
X493032Y170788D02*
X489729Y167485D01*
X489168Y166754D01*
X488815Y165903D01*
X488695Y164989D01*
Y163070D01*
X488374Y162296D01*
X488238Y161264D01*
X488374Y160232D01*
X488773Y159270D01*
X489406Y158445D01*
X490232Y157811D01*
X491193Y157413D01*
X492225Y157277D01*
X493257Y157413D01*
X494219Y157811D01*
X495045Y158445D01*
X495678Y159270D01*
X496076Y160232D01*
X496212Y161264D01*
X496076Y162296D01*
X495756Y163070D01*
Y163527D01*
X497962Y165734D01*
X511920D01*
Y163070D01*
X511599Y162296D01*
X511463Y161264D01*
X511599Y160232D01*
X511920Y159457D01*
Y158334D01*
X512040Y157420D01*
X512393Y156569D01*
X512954Y155837D01*
X517526Y151265D01*
Y148445D01*
X510848D01*
Y144083D01*
X512663D01*
Y142108D01*
X510857Y140303D01*
X509788D01*
X509304Y140342D01*
Y144705D01*
X501595D01*
Y144325D01*
X501058Y143966D01*
X498058Y140966D01*
X497616Y140304D01*
X497461Y139524D01*
Y124840D01*
X497616Y124059D01*
X498058Y123398D01*
X500951Y120505D01*
Y116664D01*
X502037D01*
Y112604D01*
X500951D01*
Y105404D01*
X507135D01*
X507396Y104904D01*
X507308Y104778D01*
X491490D01*
X491402Y104904D01*
X491475Y105404D01*
X491475D01*
Y112604D01*
X484140D01*
Y116404D01*
X487637D01*
Y120004D01*
X488137D01*
Y120504D01*
X491262D01*
Y123604D01*
X490306D01*
Y127404D01*
X491137D01*
Y130504D01*
X488012D01*
Y131004D01*
X487512D01*
Y134604D01*
X484431D01*
X484224Y135104D01*
X485345Y136225D01*
X488336D01*
X489116Y136380D01*
X489778Y136822D01*
X492667Y139711D01*
X493109Y140373D01*
X493265Y141153D01*
Y144083D01*
X495080D01*
Y148445D01*
X487371D01*
Y144083D01*
X489186D01*
Y141998D01*
X487491Y140303D01*
X486311D01*
X485828Y140342D01*
Y144705D01*
X478119D01*
Y143767D01*
X475058Y140706D01*
X474616Y140044D01*
X474461Y139264D01*
Y125391D01*
X474524Y125074D01*
X474063Y124828D01*
X464563Y134327D01*
X464076Y134653D01*
X463500Y134768D01*
X423542D01*
X423350Y135230D01*
X425881Y137760D01*
X454547D01*
Y135311D01*
X462453D01*
Y143217D01*
X454547D01*
Y140768D01*
X426784D01*
X426593Y141230D01*
X431111Y145748D01*
X456489D01*
X456603Y145771D01*
X457468Y145413D01*
X458500Y145277D01*
X459532Y145413D01*
X460493Y145811D01*
X461319Y146445D01*
X461953Y147270D01*
X462351Y148232D01*
X462487Y149264D01*
X462351Y150296D01*
X461953Y151257D01*
X461319Y152083D01*
X460493Y152717D01*
X459532Y153115D01*
X458500Y153251D01*
X457468Y153115D01*
X456507Y152717D01*
X455681Y152083D01*
X455047Y151257D01*
X454649Y150296D01*
X454513Y149264D01*
X454530Y149132D01*
X454201Y148756D01*
X448773D01*
X448581Y149218D01*
X456979Y157615D01*
X457468Y157413D01*
X458500Y157277D01*
X459532Y157413D01*
X460493Y157811D01*
X461319Y158445D01*
X461953Y159270D01*
X462351Y160232D01*
X462487Y161264D01*
X462351Y162296D01*
X461953Y163257D01*
X461319Y164083D01*
X460493Y164716D01*
X459532Y165115D01*
X458500Y165251D01*
X457468Y165115D01*
X456507Y164716D01*
X455681Y164083D01*
X455047Y163257D01*
X454649Y162296D01*
X454513Y161264D01*
X454649Y160232D01*
X454852Y159742D01*
X445816Y150706D01*
X440723D01*
X440531Y151168D01*
X446979Y157615D01*
X447468Y157413D01*
X448500Y157277D01*
X449532Y157413D01*
X450493Y157811D01*
X451319Y158445D01*
X451953Y159270D01*
X452351Y160232D01*
X452487Y161264D01*
X452351Y162296D01*
X451953Y163257D01*
X451319Y164083D01*
X450493Y164716D01*
X449532Y165115D01*
X448500Y165251D01*
X447468Y165115D01*
X446507Y164716D01*
X445681Y164083D01*
X445047Y163257D01*
X444649Y162296D01*
X444513Y161264D01*
X444649Y160232D01*
X444852Y159742D01*
X437766Y152656D01*
X432673D01*
X432481Y153118D01*
X436979Y157615D01*
X437468Y157413D01*
X438500Y157277D01*
X439532Y157413D01*
X440493Y157811D01*
X441319Y158445D01*
X441953Y159270D01*
X442351Y160232D01*
X442487Y161264D01*
X442351Y162296D01*
X441953Y163257D01*
X441319Y164083D01*
X440493Y164716D01*
X439532Y165115D01*
X438500Y165251D01*
X437468Y165115D01*
X436507Y164716D01*
X435681Y164083D01*
X435047Y163257D01*
X434649Y162296D01*
X434513Y161264D01*
X434649Y160232D01*
X434852Y159742D01*
X429716Y154606D01*
X429044D01*
X428853Y155068D01*
X429563Y155779D01*
X429563Y155779D01*
X429889Y156267D01*
X430004Y156843D01*
X430004Y156843D01*
Y157608D01*
X430493Y157811D01*
X431319Y158445D01*
X431953Y159270D01*
X432351Y160232D01*
X432487Y161264D01*
X432351Y162296D01*
X431953Y163257D01*
X431319Y164083D01*
X430493Y164716D01*
X429532Y165115D01*
X428500Y165251D01*
X427468Y165115D01*
X426507Y164716D01*
X425681Y164083D01*
X425047Y163257D01*
X424649Y162296D01*
X424513Y161264D01*
X424649Y160232D01*
X425047Y159270D01*
X425681Y158445D01*
X426507Y157811D01*
X426597Y157774D01*
X426714Y157184D01*
X400513Y130982D01*
X400051Y131174D01*
Y131688D01*
X409563Y141200D01*
X409889Y141688D01*
X410004Y142264D01*
Y156264D01*
X409889Y156839D01*
X409563Y157327D01*
X407453Y159438D01*
Y165217D01*
X399547D01*
Y157311D01*
X405326D01*
X406996Y155641D01*
Y154022D01*
X406496Y153852D01*
X406319Y154083D01*
X405493Y154717D01*
X404532Y155115D01*
X403500Y155251D01*
X402468Y155115D01*
X401507Y154717D01*
X400681Y154083D01*
X400047Y153257D01*
X399649Y152296D01*
X399513Y151264D01*
X399649Y150232D01*
X400047Y149270D01*
X400681Y148445D01*
X401507Y147811D01*
X401996Y147608D01*
Y140644D01*
X395534Y134182D01*
X395208Y133694D01*
X395093Y133119D01*
Y127827D01*
X394631Y127636D01*
X391025Y131243D01*
X396000Y136218D01*
Y171250D01*
X492840D01*
X493032Y170788D01*
D02*
G37*
G36*
X177951Y161208D02*
Y153453D01*
X178145Y152477D01*
X178698Y151650D01*
X188023Y142325D01*
X188850Y141772D01*
X189826Y141578D01*
X193012D01*
Y141158D01*
X210760D01*
Y146164D01*
X212995D01*
X216834Y142325D01*
X217661Y141772D01*
X218637Y141578D01*
X219547D01*
Y141158D01*
X237295D01*
Y142047D01*
X237795Y142294D01*
X238235Y141956D01*
X239086Y141604D01*
X240000Y141484D01*
X240914Y141604D01*
X241765Y141956D01*
X242496Y142518D01*
X243000Y143174D01*
X243283Y143141D01*
X243500Y143038D01*
Y131250D01*
X183500D01*
Y141250D01*
X172782D01*
X172374Y141472D01*
Y143941D01*
X163500D01*
X154626D01*
Y141472D01*
X154218Y141250D01*
X146247D01*
X145839Y141472D01*
Y147409D01*
X128091D01*
Y146990D01*
X97417D01*
X96442Y146796D01*
X96147Y146599D01*
X95828Y146987D01*
X99394Y150553D01*
X128091D01*
Y150134D01*
X145839D01*
Y156071D01*
X128091D01*
Y155651D01*
X98339D01*
X98165Y155617D01*
X97919Y156078D01*
X101056Y159215D01*
X101378D01*
X101883Y158827D01*
X102701Y158488D01*
X103579Y158373D01*
X104456Y158488D01*
X105274Y158827D01*
X105977Y159366D01*
X106516Y160068D01*
X106854Y160886D01*
X106970Y161764D01*
X106854Y162642D01*
X106516Y163459D01*
X105977Y164162D01*
X105907Y164215D01*
X106077Y164715D01*
X108444D01*
X113198Y159961D01*
X114024Y159409D01*
X115000Y159215D01*
X128091D01*
Y158795D01*
X145839D01*
Y159215D01*
X146850D01*
X147826Y159409D01*
X148653Y159961D01*
X149999Y161308D01*
X150472Y161147D01*
X150512Y160850D01*
X150864Y159999D01*
X151425Y159268D01*
X152156Y158706D01*
X153008Y158354D01*
X153921Y158234D01*
X159970D01*
Y156071D01*
X154626D01*
Y153602D01*
X163500D01*
X172374D01*
Y156071D01*
X167030D01*
Y158795D01*
X172374D01*
Y161264D01*
X163500D01*
Y162264D01*
X172374D01*
Y164732D01*
X165381D01*
X165265Y164821D01*
X164414Y165174D01*
X164101Y165215D01*
X164134Y165715D01*
X173444D01*
X177951Y161208D01*
D02*
G37*
G36*
X46547Y149311D02*
X48131D01*
X48466Y148867D01*
X48466Y148811D01*
X47681Y148209D01*
X47181Y147558D01*
X33875D01*
Y148864D01*
X31250D01*
Y145264D01*
Y141664D01*
X33875D01*
Y142970D01*
X47375D01*
X47681Y142571D01*
X48461Y141972D01*
Y128052D01*
X47961Y127845D01*
X43590Y132216D01*
X42763Y132768D01*
X41788Y132962D01*
X35429D01*
X34800Y133087D01*
X28100D01*
Y133663D01*
X27049D01*
Y141664D01*
X30250D01*
Y145264D01*
Y148864D01*
X28358D01*
X28167Y149326D01*
X29556Y150715D01*
X46547D01*
Y149311D01*
D02*
G37*
G36*
X219547Y153053D02*
Y149820D01*
X236470D01*
Y147096D01*
X219547D01*
X219547Y147096D01*
Y147096D01*
X219107Y147262D01*
X216322Y150047D01*
X216342Y150632D01*
X216375Y150684D01*
X216827Y150986D01*
X219085Y153244D01*
X219547Y153053D01*
D02*
G37*
G36*
X393500Y171250D02*
Y136801D01*
X389483Y132784D01*
X388893Y133374D01*
X388405Y133700D01*
X387830Y133815D01*
X350716D01*
X350140Y133700D01*
X349653Y133374D01*
X342437Y126158D01*
X342111Y125671D01*
X341996Y125095D01*
Y105817D01*
X341555Y105581D01*
X341476Y105634D01*
X340500Y105828D01*
X339525Y105634D01*
X338698Y105082D01*
X338498Y104783D01*
X335345D01*
X334770Y104669D01*
X334282Y104343D01*
X333678Y103739D01*
X333254Y104022D01*
X333457Y104513D01*
X333577Y105427D01*
X333457Y106341D01*
X333104Y107192D01*
X332543Y107923D01*
X331812Y108484D01*
X330961Y108837D01*
X330047Y108957D01*
X326663D01*
X325749Y108837D01*
X324898Y108484D01*
X324167Y107923D01*
X319562Y103318D01*
X319100Y103509D01*
Y108514D01*
X318049D01*
Y127219D01*
X317855Y128195D01*
X317302Y129022D01*
X314482Y131843D01*
X315302Y132663D01*
X315855Y133490D01*
X316049Y134466D01*
Y146264D01*
X315855Y147239D01*
X315302Y148066D01*
X313877Y149491D01*
X313050Y150044D01*
X312075Y150238D01*
X306992D01*
X306801Y150700D01*
X313935Y157834D01*
X314532Y157913D01*
X315493Y158311D01*
X316319Y158945D01*
X316953Y159770D01*
X317351Y160732D01*
X317487Y161764D01*
X317351Y162796D01*
X316953Y163757D01*
X316319Y164583D01*
X315493Y165217D01*
X314532Y165615D01*
X313500Y165751D01*
X312468Y165615D01*
X311507Y165217D01*
X310681Y164583D01*
X310047Y163757D01*
X309649Y162796D01*
X309513Y161764D01*
X309646Y160755D01*
X306411Y157519D01*
X305950Y157766D01*
X306049Y158264D01*
Y158737D01*
X306319Y158945D01*
X306953Y159770D01*
X307351Y160732D01*
X307487Y161764D01*
X307351Y162796D01*
X306953Y163757D01*
X306319Y164583D01*
X306119Y164737D01*
X306097Y165256D01*
X307556Y166715D01*
X370103D01*
X379951Y156867D01*
Y154217D01*
X378547D01*
Y146311D01*
X378284Y145920D01*
X369647D01*
X368733Y145800D01*
X367882Y145447D01*
X367151Y144886D01*
X364059Y141794D01*
X354587D01*
X353673Y141674D01*
X352822Y141321D01*
X352091Y140760D01*
X351530Y140029D01*
X351177Y139178D01*
X351057Y138264D01*
X351177Y137350D01*
X351530Y136499D01*
X352091Y135768D01*
X352822Y135206D01*
X353673Y134854D01*
X354587Y134734D01*
X365521D01*
X366435Y134854D01*
X367286Y135206D01*
X368017Y135768D01*
X371109Y138860D01*
X380694D01*
X381468Y138539D01*
X382000Y138469D01*
Y142390D01*
X382500D01*
Y142890D01*
X386421D01*
X386351Y143422D01*
X385953Y144383D01*
X385319Y145209D01*
X384534Y145811D01*
X384534Y145867D01*
X384869Y146311D01*
X386453D01*
Y154217D01*
X385049D01*
Y157922D01*
X384855Y158898D01*
X384302Y159725D01*
X373152Y170875D01*
X373359Y171375D01*
X393375D01*
X393500Y171250D01*
D02*
G37*
G36*
X55064Y170750D02*
X54966Y170000D01*
X55103Y168956D01*
X55506Y167983D01*
X56147Y167147D01*
X56706Y166718D01*
Y158014D01*
X56881Y157136D01*
X57378Y156392D01*
X60378Y153392D01*
X61122Y152894D01*
X62000Y152720D01*
X64900D01*
Y151889D01*
X66206D01*
Y150063D01*
X66381Y149185D01*
X66878Y148441D01*
X69265Y146054D01*
Y133150D01*
X68049D01*
Y135264D01*
X67855Y136239D01*
X67302Y137066D01*
X64049Y140320D01*
Y146264D01*
X63855Y147239D01*
X63302Y148066D01*
X62476Y148619D01*
X61500Y148813D01*
X60525Y148619D01*
X59698Y148066D01*
X59145Y147239D01*
X58951Y146264D01*
Y139264D01*
X59145Y138288D01*
X59698Y137461D01*
X62951Y134208D01*
Y133150D01*
X62800D01*
Y132962D01*
X56500D01*
X55525Y132768D01*
X55328Y132637D01*
X53744D01*
X53039Y132497D01*
X52539Y132787D01*
Y141972D01*
X53319Y142571D01*
X53953Y143396D01*
X54351Y144358D01*
X54421Y144890D01*
X50500D01*
Y145890D01*
X54421D01*
X54351Y146422D01*
X53953Y147383D01*
X53319Y148209D01*
X52534Y148811D01*
X52534Y148867D01*
X52869Y149311D01*
X54453D01*
Y157217D01*
X46547D01*
Y155813D01*
X45549D01*
Y166914D01*
X45853Y167147D01*
X46494Y167983D01*
X46897Y168956D01*
X47034Y170000D01*
X46936Y170750D01*
X47312Y171250D01*
X54688D01*
X55064Y170750D01*
D02*
G37*
G36*
X39064D02*
X38965Y170000D01*
X39103Y168956D01*
X39506Y167983D01*
X40147Y167147D01*
X40451Y166914D01*
Y155813D01*
X28500D01*
X27525Y155619D01*
X26698Y155066D01*
X22698Y151066D01*
X22145Y150239D01*
X21951Y149264D01*
Y148864D01*
X21375D01*
Y141664D01*
X21951D01*
Y133663D01*
X20900D01*
Y133087D01*
X16100D01*
Y133663D01*
X8900D01*
Y127413D01*
Y121163D01*
X9951D01*
Y116663D01*
X8900D01*
Y115832D01*
X7916D01*
X7039Y115658D01*
X6294Y115161D01*
X4878Y113744D01*
X4381Y113000D01*
X4206Y112122D01*
Y92264D01*
X4381Y91386D01*
X4878Y90642D01*
X6128Y89392D01*
X6872Y88894D01*
X7750Y88720D01*
X8900D01*
Y87889D01*
X16100D01*
Y88720D01*
X31966D01*
X33997Y86689D01*
X34560Y86313D01*
X34408Y85813D01*
X17992D01*
X17017Y85619D01*
X16190Y85066D01*
X12058Y80934D01*
X8900D01*
Y74684D01*
Y68434D01*
X9951D01*
Y64684D01*
X8900D01*
Y58434D01*
Y52184D01*
X16100D01*
Y58434D01*
Y64684D01*
X15049D01*
Y68434D01*
X16100D01*
Y69010D01*
X19900D01*
Y68434D01*
X27100D01*
Y69010D01*
X32218D01*
X32370Y68510D01*
X31878Y68181D01*
X28878Y65181D01*
X28381Y64437D01*
X28206Y63559D01*
Y59264D01*
X28381Y58386D01*
X28878Y57642D01*
X31583Y54937D01*
X32075Y54608D01*
X31923Y54108D01*
X27100D01*
Y58185D01*
Y64435D01*
X19900D01*
Y58185D01*
Y51935D01*
X20951D01*
Y48373D01*
X19900D01*
Y42123D01*
Y35873D01*
X25229D01*
X25420Y35411D01*
X20821Y30813D01*
X13526D01*
X13319Y31083D01*
X12493Y31716D01*
X11532Y32115D01*
X10500Y32251D01*
X9468Y32115D01*
X8507Y31716D01*
X7681Y31083D01*
X7047Y30257D01*
X6649Y29296D01*
X6513Y28264D01*
X6649Y27232D01*
X7047Y26270D01*
X7681Y25445D01*
X8507Y24811D01*
X9468Y24413D01*
X10500Y24277D01*
X11532Y24413D01*
X12493Y24811D01*
X13319Y25445D01*
X13526Y25715D01*
X21877D01*
X22853Y25909D01*
X23680Y26461D01*
X33669Y36451D01*
X47584D01*
X50457Y33579D01*
X50645Y32631D01*
X51198Y31804D01*
X53541Y29461D01*
X54368Y28909D01*
X55315Y28720D01*
X66994Y17041D01*
X66834Y16567D01*
X66622Y16539D01*
X65804Y16201D01*
X65102Y15662D01*
X64563Y14959D01*
X64224Y14141D01*
X64109Y13264D01*
X64224Y12386D01*
X64563Y11568D01*
X65102Y10866D01*
X65804Y10327D01*
X66622Y9988D01*
X67500Y9873D01*
X68378Y9988D01*
X69196Y10327D01*
X69898Y10866D01*
X70200Y11260D01*
X70847Y11312D01*
X75409Y6750D01*
X75202Y6250D01*
X3500D01*
Y171250D01*
X38688D01*
X39064Y170750D01*
D02*
G37*
G36*
X279566Y152591D02*
X273698Y146723D01*
X273145Y145896D01*
X272951Y144921D01*
Y144639D01*
X271900D01*
Y142014D01*
X275500D01*
X279100D01*
Y144639D01*
X279100Y144639D01*
X279100D01*
X279264Y145080D01*
X281913Y147729D01*
X282375Y147538D01*
Y142664D01*
X282951D01*
Y142264D01*
X283145Y141288D01*
X283698Y140461D01*
X286572Y137587D01*
X287399Y137035D01*
X288374Y136841D01*
X294500D01*
X294873Y136915D01*
X295119Y136454D01*
X290459Y131794D01*
X279457D01*
X279100Y132139D01*
Y138389D01*
Y141014D01*
X275500D01*
X271900D01*
Y138389D01*
Y132139D01*
X271970D01*
Y128264D01*
Y125794D01*
X263500D01*
X262586Y125674D01*
X261898Y125389D01*
X259900D01*
Y119139D01*
Y112889D01*
X261206D01*
Y106565D01*
X261319Y105997D01*
Y102840D01*
X257579D01*
Y95329D01*
X261941D01*
Y95581D01*
X262403Y95772D01*
X264385Y93790D01*
X264385Y93790D01*
X264873Y93464D01*
X265448Y93350D01*
X265448Y93350D01*
X272656D01*
X272892Y92909D01*
X272845Y92839D01*
X272651Y91864D01*
X272845Y90888D01*
X273146Y90438D01*
X272879Y89938D01*
X272317D01*
X272049Y90264D01*
X271855Y91239D01*
X271302Y92066D01*
X270476Y92619D01*
X269500Y92813D01*
X268525Y92619D01*
X267698Y92066D01*
X267145Y91239D01*
X266951Y90264D01*
X267145Y89288D01*
X267680Y88488D01*
X267621Y88209D01*
X267554Y87988D01*
X264081D01*
X252500Y99569D01*
Y131250D01*
X246000Y131264D01*
Y152974D01*
X246191Y153053D01*
X279374D01*
X279566Y152591D01*
D02*
G37*
G36*
X97933Y140645D02*
Y123389D01*
X95209D01*
Y138628D01*
X97529Y140948D01*
X97933Y140645D01*
D02*
G37*
G36*
X66900Y120650D02*
X69265D01*
Y115163D01*
X68661Y114559D01*
X67181D01*
Y114559D01*
X66819D01*
Y114559D01*
X64350D01*
Y111000D01*
Y107441D01*
X66819D01*
Y107441D01*
X67181D01*
Y107441D01*
X67856D01*
Y106864D01*
X65878Y104886D01*
X65381Y104142D01*
X65206Y103264D01*
Y97058D01*
X51453D01*
Y98716D01*
X43547D01*
Y97133D01*
X43103Y96798D01*
X43047Y96798D01*
X42445Y97583D01*
X41619Y98216D01*
X40658Y98615D01*
X40126Y98685D01*
Y94764D01*
X39626D01*
Y94264D01*
X35705D01*
X35775Y93732D01*
X36173Y92770D01*
X36807Y91945D01*
X37633Y91311D01*
X38130Y91105D01*
X38030Y90605D01*
X36569D01*
X34538Y92636D01*
X33794Y93133D01*
X32916Y93308D01*
X16100D01*
Y96764D01*
X12500D01*
Y97764D01*
X16100D01*
Y100389D01*
X14794D01*
Y104163D01*
X16100D01*
Y104994D01*
X20900D01*
Y104163D01*
X24000D01*
Y107288D01*
X25000D01*
Y104163D01*
X28100D01*
Y104994D01*
X33372D01*
Y98723D01*
X33547Y97846D01*
X34044Y97101D01*
X35726Y95420D01*
X35705Y95264D01*
X39126D01*
Y98685D01*
X38970Y98664D01*
X37960Y99674D01*
Y106338D01*
X45122Y113500D01*
X45619Y114244D01*
X45794Y115122D01*
Y118119D01*
X53605D01*
X53654Y117619D01*
X52893Y117468D01*
X52172Y116986D01*
X51689Y116264D01*
X51620Y115913D01*
X61380D01*
X61310Y116264D01*
X60828Y116986D01*
X60107Y117468D01*
X59256Y117637D01*
X58794D01*
Y118190D01*
X59256D01*
X60107Y118359D01*
X60828Y118841D01*
X61310Y119562D01*
X61380Y119913D01*
X56500D01*
Y120913D01*
X61380D01*
X61310Y121264D01*
X60828Y121986D01*
X60107Y122468D01*
X59346Y122619D01*
X59395Y123119D01*
X62800D01*
Y120650D01*
X65900D01*
Y123775D01*
X66900D01*
Y120650D01*
D02*
G37*
G36*
X31426Y127489D02*
X31318Y127468D01*
X30597Y126986D01*
X30115Y126264D01*
X30045Y125913D01*
X34925D01*
Y124913D01*
X30045D01*
X30115Y124562D01*
X30597Y123841D01*
X31318Y123359D01*
X32169Y123190D01*
X32631D01*
Y122637D01*
X32169D01*
X31318Y122468D01*
X30597Y121986D01*
X30115Y121264D01*
X30045Y120913D01*
X34925D01*
Y119913D01*
X30045D01*
X30115Y119562D01*
X30597Y118841D01*
X31163Y118462D01*
X31012Y117962D01*
X27049D01*
Y121163D01*
X28100D01*
Y127989D01*
X31377D01*
X31426Y127489D01*
D02*
G37*
G36*
X37829Y112913D02*
X37905Y112771D01*
X34716Y109582D01*
X28100D01*
Y112864D01*
X34925D01*
X35901Y113058D01*
X36097Y113190D01*
X37616D01*
X37829Y112913D01*
D02*
G37*
G36*
X20900Y127413D02*
Y121163D01*
X21951D01*
Y116663D01*
X20900D01*
Y110413D01*
Y109582D01*
X16100D01*
Y110413D01*
Y116663D01*
X15049D01*
Y121163D01*
X16100D01*
Y127413D01*
Y127989D01*
X20900D01*
Y127413D01*
D02*
G37*
G36*
X362223Y123113D02*
X359498Y120389D01*
X354900D01*
Y114139D01*
Y111514D01*
X358500D01*
Y111014D01*
X359000D01*
Y107889D01*
X362100D01*
Y108606D01*
X362367Y108659D01*
X363194Y109211D01*
X367174Y113191D01*
X367726Y114018D01*
X367920Y114994D01*
Y117379D01*
X368156Y117615D01*
X370300D01*
Y120164D01*
X371300D01*
Y117714D01*
X371675Y117789D01*
X376049Y113415D01*
X375858Y112953D01*
X372177D01*
X371601Y112838D01*
X371113Y112512D01*
X368140Y109539D01*
X368089Y109549D01*
X367113Y109355D01*
X366286Y108802D01*
X365734Y107975D01*
X365540Y107000D01*
X365734Y106025D01*
X366286Y105198D01*
X367113Y104645D01*
X368089Y104451D01*
X368368Y104507D01*
X368615Y104046D01*
X367498Y102929D01*
X367024Y102835D01*
X366198Y102283D01*
X365645Y101456D01*
X365451Y100480D01*
X365645Y99505D01*
X366198Y98678D01*
X367024Y98125D01*
X368000Y97931D01*
X368975Y98125D01*
X369802Y98678D01*
X370355Y99505D01*
X370549Y100480D01*
X370407Y101193D01*
X370573Y101352D01*
X371117Y101181D01*
X371145Y101042D01*
X371698Y100215D01*
X372525Y99662D01*
X373331Y99502D01*
X373541Y99005D01*
X370725Y96189D01*
X360504D01*
X360376Y96215D01*
X359791Y96098D01*
X359295Y95767D01*
X354135Y90608D01*
X353673Y90799D01*
Y122777D01*
X354471Y123575D01*
X362031D01*
X362223Y123113D01*
D02*
G37*
G36*
X122941Y123980D02*
Y119583D01*
X122941Y119445D01*
X122941D01*
Y119083D01*
X122941D01*
Y115056D01*
X116969Y109083D01*
X116469Y109290D01*
Y114181D01*
X110561D01*
X110540Y122615D01*
X110893Y122968D01*
X116469D01*
Y128312D01*
X118609D01*
X122941Y123980D01*
D02*
G37*
G36*
X416863Y125278D02*
X416827Y125094D01*
Y116566D01*
X414831D01*
Y111647D01*
Y106752D01*
X414139D01*
X411862Y109028D01*
Y112237D01*
X412161Y112436D01*
X412713Y113263D01*
X412808Y113739D01*
X410358D01*
Y114239D01*
X409858D01*
Y116688D01*
X409383Y116594D01*
X408556Y116041D01*
X408373Y115768D01*
X391251D01*
X389886Y117132D01*
X390078Y117595D01*
X413802D01*
Y120949D01*
X413831Y121095D01*
Y122952D01*
X416402Y125524D01*
X416863Y125278D01*
D02*
G37*
G36*
X408556Y112436D02*
X408854Y112237D01*
Y108405D01*
X408969Y107830D01*
X409295Y107342D01*
X412452Y104185D01*
X412940Y103859D01*
X413516Y103744D01*
X414831D01*
Y99836D01*
Y95899D01*
Y91962D01*
X418185D01*
X418331Y91933D01*
X420785D01*
X423077Y89641D01*
Y86240D01*
X423191Y85665D01*
X423517Y85177D01*
X425313Y83382D01*
X425105Y82882D01*
X417932D01*
Y81149D01*
X416004Y79221D01*
X415443Y78490D01*
X415090Y77639D01*
X414970Y76725D01*
Y74339D01*
X407826D01*
X407600Y74839D01*
X407811Y75155D01*
X407925Y75730D01*
Y80559D01*
X408387Y80750D01*
X409615Y79523D01*
X409145Y78820D01*
X408951Y77845D01*
X409145Y76869D01*
X409698Y76042D01*
X410525Y75489D01*
X411500Y75296D01*
X412475Y75489D01*
X413302Y76042D01*
X413855Y76869D01*
X414049Y77845D01*
X413855Y78820D01*
X413584Y79225D01*
X413885Y79675D01*
X414500Y79553D01*
X415476Y79747D01*
X416302Y80300D01*
X416855Y81126D01*
X417049Y82102D01*
X416855Y83077D01*
X416302Y83904D01*
X415476Y84457D01*
X414500Y84651D01*
X414188Y84589D01*
X413802Y84906D01*
Y85929D01*
X416498D01*
X416698Y85631D01*
X417525Y85078D01*
X418500Y84884D01*
X419476Y85078D01*
X420302Y85631D01*
X420855Y86458D01*
X421049Y87433D01*
X420855Y88408D01*
X420302Y89236D01*
X419476Y89788D01*
X418500Y89982D01*
X417525Y89788D01*
X416698Y89236D01*
X416498Y88937D01*
X413802D01*
Y90933D01*
X400051D01*
Y92505D01*
X399937Y93081D01*
X399611Y93569D01*
X393273Y99906D01*
Y103425D01*
X393572Y103624D01*
X394124Y104451D01*
X394219Y104927D01*
X389320D01*
X389414Y104451D01*
X389967Y103624D01*
X390265Y103425D01*
Y99283D01*
X390380Y98708D01*
X390706Y98220D01*
X395058Y93868D01*
X394851Y93368D01*
X389350D01*
X389350Y93368D01*
X388774Y93253D01*
X388669Y93183D01*
X388169Y93450D01*
Y95899D01*
Y99836D01*
Y103773D01*
Y108332D01*
X388631Y108523D01*
X389950Y107204D01*
X389414Y106402D01*
X389320Y105927D01*
X394219D01*
X394124Y106402D01*
X393572Y107229D01*
X393273Y107429D01*
Y107512D01*
X393159Y108087D01*
X392833Y108575D01*
X390254Y111153D01*
X391681Y112580D01*
X391681Y112580D01*
X391767Y112709D01*
X408373D01*
X408556Y112436D01*
D02*
G37*
G36*
X179486Y138250D02*
X179500Y138244D01*
Y128264D01*
X249495D01*
X249579Y128180D01*
Y103143D01*
X249117Y102952D01*
X243412Y108656D01*
X242916Y108988D01*
X242331Y109104D01*
X224429D01*
X224259Y109604D01*
X224472Y109768D01*
X230918Y116213D01*
X231479Y116945D01*
X231831Y117796D01*
X231951Y118710D01*
Y119899D01*
X237295D01*
Y125836D01*
X230302D01*
X230186Y125924D01*
X229335Y126277D01*
X228421Y126397D01*
X227508Y126277D01*
X226656Y125924D01*
X226540Y125836D01*
X219547D01*
Y119899D01*
X223965D01*
X224156Y119437D01*
X220542Y115823D01*
X215681D01*
Y115823D01*
X215319D01*
Y115823D01*
X209382D01*
X209382Y115823D01*
Y115823D01*
X209382Y115823D01*
X208951Y115990D01*
X205543Y119399D01*
X205722Y119899D01*
X210760D01*
Y125836D01*
X203767D01*
X203651Y125924D01*
X202800Y126277D01*
X201886Y126397D01*
X200972Y126277D01*
X200121Y125924D01*
X200005Y125836D01*
X193012D01*
Y119899D01*
X198356D01*
Y118063D01*
X198476Y117149D01*
X198829Y116298D01*
X199390Y115567D01*
X204189Y110768D01*
X205189Y109768D01*
X205402Y109604D01*
X205232Y109104D01*
X171241D01*
X167815Y112530D01*
X167319Y112862D01*
X166734Y112978D01*
X162180D01*
X162170Y112993D01*
X161462Y113466D01*
X160626Y113633D01*
X155150D01*
X154994Y113768D01*
X154915Y113865D01*
X154795Y114095D01*
X154944Y114841D01*
Y116705D01*
X155618D01*
Y116734D01*
X156260D01*
X157174Y116854D01*
X158025Y117207D01*
X158756Y117768D01*
X165996Y125008D01*
X166557Y125739D01*
X166910Y126590D01*
X167030Y127504D01*
Y128874D01*
X172374D01*
Y134811D01*
X165381D01*
X165265Y134900D01*
X164414Y135252D01*
X163500Y135373D01*
X162586Y135252D01*
X161735Y134900D01*
X161619Y134811D01*
X154626D01*
Y128874D01*
X159224D01*
X159416Y128412D01*
X154826Y123823D01*
X149681D01*
Y123823D01*
X149319D01*
Y123823D01*
X145083D01*
X140532Y128374D01*
X140584Y128874D01*
X145839D01*
Y134811D01*
X138845D01*
X138730Y134900D01*
X137878Y135252D01*
X136965Y135373D01*
X136051Y135252D01*
X135199Y134900D01*
X135084Y134811D01*
X128091D01*
Y129522D01*
X127591Y129315D01*
X122567Y134339D01*
X121836Y134900D01*
X120985Y135252D01*
X120071Y135373D01*
X116469D01*
Y138250D01*
X179486D01*
D02*
G37*
G36*
X312951Y126164D02*
Y108514D01*
X311900D01*
Y102669D01*
X307100D01*
Y103996D01*
X307996Y104893D01*
X308557Y105624D01*
X308910Y106475D01*
X309030Y107389D01*
Y119303D01*
X309297Y119650D01*
X309735Y120708D01*
X309884Y121843D01*
X309735Y122977D01*
X309297Y124035D01*
X308600Y124943D01*
X307692Y125639D01*
X306635Y126077D01*
X305574Y126217D01*
X305301Y126652D01*
X306201Y127551D01*
X306635Y127608D01*
X307692Y128046D01*
X308600Y128743D01*
X309023Y129294D01*
X309821D01*
X312951Y126164D01*
D02*
G37*
G36*
X282900Y118889D02*
X284898D01*
X285586Y118604D01*
X286500Y118484D01*
X295671D01*
X296585Y118604D01*
X297436Y118956D01*
X298167Y119518D01*
X300691Y122041D01*
X301126Y121769D01*
X301265Y120708D01*
X301703Y119650D01*
X301970Y119303D01*
Y108851D01*
X301632Y108514D01*
X299900D01*
Y102615D01*
X287421D01*
Y102840D01*
X285740D01*
Y99085D01*
X284740D01*
Y102840D01*
X283681D01*
Y105997D01*
X283794Y106565D01*
Y110014D01*
X283619Y110892D01*
X283122Y111636D01*
X279100Y115658D01*
Y119139D01*
Y124734D01*
X282900D01*
Y118889D01*
D02*
G37*
G36*
X525689Y120505D02*
Y116664D01*
X526650D01*
Y112864D01*
X525564D01*
Y105664D01*
X532900D01*
Y105101D01*
X529566Y101768D01*
X521380D01*
X521280Y102268D01*
X521285Y102269D01*
X522016Y102831D01*
X522577Y103562D01*
X522930Y104413D01*
X523050Y105327D01*
Y122437D01*
X523550Y122644D01*
X525689Y120505D01*
D02*
G37*
G36*
X515989Y139014D02*
Y105327D01*
X516110Y104413D01*
X516462Y103562D01*
X517024Y102831D01*
X517755Y102269D01*
X517759Y102268D01*
X517660Y101768D01*
X511028D01*
X510837Y102230D01*
X511768Y103160D01*
X512210Y103822D01*
X512365Y104602D01*
Y105404D01*
X513451D01*
Y112604D01*
X506115D01*
Y116664D01*
X509826D01*
Y120264D01*
X510326D01*
Y120764D01*
X513451D01*
Y123864D01*
X512875D01*
Y127664D01*
X513451D01*
Y130764D01*
X510326D01*
Y131264D01*
X509826D01*
Y134864D01*
X506691D01*
X506484Y135364D01*
X507345Y136225D01*
X511702D01*
X512482Y136380D01*
X513144Y136822D01*
X515527Y139206D01*
X515989Y139014D01*
D02*
G37*
G36*
X271900Y112889D02*
X275381D01*
X279206Y109063D01*
Y106565D01*
X279319Y105997D01*
Y102840D01*
X275579D01*
Y96358D01*
X271403D01*
X271252Y96858D01*
X271887Y97282D01*
X273283Y98678D01*
X273835Y99505D01*
X274029Y100480D01*
Y106717D01*
X268931D01*
Y102840D01*
X267740D01*
Y99085D01*
X266740D01*
Y102840D01*
X265681D01*
Y105997D01*
X265794Y106565D01*
Y112889D01*
X267100D01*
Y118734D01*
X271900D01*
Y112889D01*
D02*
G37*
G36*
X72760Y104941D02*
Y96129D01*
X71698Y95066D01*
X71145Y94239D01*
X70951Y93264D01*
X70474Y93232D01*
X69794D01*
Y94764D01*
Y102313D01*
X71772Y104291D01*
X72269Y105035D01*
X72760Y104941D01*
D02*
G37*
G36*
X465246Y115602D02*
Y102225D01*
X465361Y101650D01*
X465687Y101162D01*
X480496Y86352D01*
Y74124D01*
X478875D01*
Y66924D01*
X486211D01*
Y63124D01*
X482500D01*
Y59524D01*
X482000D01*
Y59024D01*
X478875D01*
Y55924D01*
X479706D01*
Y52124D01*
X478875D01*
Y49024D01*
X482000D01*
Y48524D01*
X482500D01*
Y44924D01*
X484497D01*
X484688Y44462D01*
X483529Y43303D01*
X480766D01*
X479985Y43148D01*
X479324Y42706D01*
X477657Y41038D01*
X477214Y40377D01*
X477059Y39596D01*
Y35445D01*
X475244D01*
Y31083D01*
X482953D01*
Y35445D01*
X481138D01*
Y38752D01*
X481610Y39225D01*
X484013D01*
X484382Y39194D01*
X484496Y38739D01*
Y34823D01*
X492205D01*
Y34965D01*
X492225D01*
X493006Y35120D01*
X493667Y35562D01*
X494942Y36837D01*
X495384Y37498D01*
X495539Y38278D01*
Y54274D01*
X495384Y55054D01*
X494942Y55716D01*
X491375Y59282D01*
Y63124D01*
X490289D01*
Y66924D01*
X491375D01*
Y74124D01*
X483504D01*
Y85449D01*
X483966Y85640D01*
X494306Y75300D01*
X494794Y74974D01*
X495369Y74860D01*
X497527D01*
X501125Y71262D01*
Y66664D01*
X508461D01*
Y63124D01*
X504750D01*
Y59524D01*
X504250D01*
Y59024D01*
X501125D01*
Y55924D01*
X501956D01*
Y52124D01*
X501125D01*
Y49024D01*
X504250D01*
Y48524D01*
X504750D01*
Y44924D01*
X506585D01*
X506776Y44462D01*
X505618Y43303D01*
X503500D01*
X503500Y43303D01*
X502720Y43148D01*
X502058Y42706D01*
X499806Y40454D01*
X499364Y39792D01*
X499209Y39012D01*
Y35445D01*
X497394D01*
Y31083D01*
X505102D01*
Y35445D01*
X503287D01*
Y38167D01*
X504345Y39225D01*
X506162D01*
X506472Y39199D01*
X506646Y38751D01*
Y34823D01*
X514354D01*
Y35169D01*
X514942Y35562D01*
X515527Y36148D01*
X515989Y35956D01*
Y30633D01*
X516110Y29719D01*
X516462Y28868D01*
X517024Y28137D01*
X521596Y23564D01*
Y20070D01*
X521275Y19296D01*
X521139Y18264D01*
X521275Y17232D01*
X521596Y16457D01*
Y11794D01*
X504030D01*
Y16457D01*
X504351Y17232D01*
X504487Y18264D01*
X504351Y19296D01*
X503953Y20257D01*
X503319Y21083D01*
X502493Y21716D01*
X501532Y22115D01*
X500500Y22251D01*
X499468Y22115D01*
X498507Y21716D01*
X497681Y21083D01*
X497047Y20257D01*
X496649Y19296D01*
X496513Y18264D01*
X496649Y17232D01*
X496970Y16457D01*
Y10794D01*
X483228D01*
X481667Y12355D01*
Y16457D01*
X481988Y17232D01*
X482124Y18264D01*
X481988Y19296D01*
X481590Y20257D01*
X480956Y21083D01*
X480130Y21716D01*
X479169Y22115D01*
X478137Y22251D01*
X477105Y22115D01*
X476330Y21794D01*
X471000D01*
Y63750D01*
X440225D01*
Y70000D01*
Y75264D01*
Y80264D01*
X440105Y81178D01*
X439752Y82029D01*
X439191Y82760D01*
X438460Y83321D01*
X437609Y83674D01*
X436695Y83794D01*
X436448D01*
X429805Y90437D01*
X429912Y90937D01*
X430715D01*
X431291Y91052D01*
X431779Y91378D01*
X432148Y91747D01*
X432500Y91677D01*
X433475Y91871D01*
X434302Y92423D01*
X434855Y93250D01*
X435049Y94226D01*
X434855Y95201D01*
X434302Y96028D01*
X433475Y96581D01*
X432500Y96775D01*
X431525Y96581D01*
X430698Y96028D01*
X430433Y95632D01*
X429962Y95828D01*
X430049Y96264D01*
X429855Y97239D01*
X429302Y98066D01*
X428476Y98619D01*
X427619Y98789D01*
X427450Y99129D01*
X427422Y99299D01*
X440158Y112034D01*
X453051D01*
X453626Y112149D01*
X454114Y112475D01*
X456176Y114537D01*
X456502Y115025D01*
X456617Y115600D01*
Y115664D01*
X458238D01*
Y121960D01*
X458888D01*
X465246Y115602D01*
D02*
G37*
G36*
X130988Y105890D02*
X131732Y105392D01*
X132151Y105309D01*
X132381Y104753D01*
X132152Y104411D01*
X131986Y103575D01*
X132152Y102739D01*
X132625Y102031D01*
X132886Y101856D01*
Y101356D01*
X132625Y101182D01*
X132152Y100473D01*
X131986Y99638D01*
X132152Y98802D01*
X132625Y98094D01*
X132886Y97919D01*
Y97419D01*
X132625Y97245D01*
X132152Y96536D01*
X131986Y95701D01*
X132152Y94865D01*
X132625Y94157D01*
X133334Y93683D01*
X134169Y93517D01*
X136410D01*
X136965Y93407D01*
X145287D01*
X146165Y93581D01*
X146910Y94079D01*
X152363Y99532D01*
X152770Y99464D01*
X152902Y99384D01*
X153018Y98802D01*
X153325Y98343D01*
X153058Y97843D01*
X152894D01*
Y93559D01*
X157065D01*
X157831Y93407D01*
X165532D01*
Y92142D01*
X171468D01*
Y92142D01*
X171831D01*
Y92142D01*
X174299D01*
Y95701D01*
X175299D01*
Y92142D01*
X177768D01*
Y93407D01*
X182433D01*
X182525Y93346D01*
X183000Y93251D01*
Y95701D01*
X184000D01*
Y93251D01*
X184476Y93346D01*
X184567Y93407D01*
X185689D01*
X186567Y93581D01*
X187311Y94079D01*
X188450Y95218D01*
X194680D01*
X194948Y94718D01*
X194742Y94411D01*
X194576Y93575D01*
X194742Y92739D01*
X195216Y92031D01*
X195477Y91856D01*
Y91356D01*
X195216Y91182D01*
X194742Y90474D01*
X194576Y89638D01*
X194742Y88802D01*
X194890Y88581D01*
X194664Y88129D01*
X194225Y88086D01*
X191426Y90886D01*
X191421Y90889D01*
X191302Y91066D01*
X190475Y91619D01*
X189500Y91813D01*
X188525Y91619D01*
X187698Y91066D01*
X187145Y90239D01*
X186951Y89264D01*
X187145Y88288D01*
X187698Y87461D01*
X188525Y86909D01*
X189011Y86812D01*
X189681Y86142D01*
X189577Y85664D01*
X189508Y85608D01*
X188698Y85066D01*
X188145Y84239D01*
X187951Y83264D01*
X188145Y82288D01*
X188698Y81461D01*
X189462Y80951D01*
X189461Y80709D01*
X189379Y80451D01*
X172428D01*
X166597Y86282D01*
X166100Y86614D01*
X165515Y86730D01*
X162180D01*
X162170Y86745D01*
X161462Y87218D01*
X160626Y87384D01*
X155035D01*
X154200Y87218D01*
X153491Y86745D01*
X153018Y86036D01*
X152852Y85201D01*
X153018Y84365D01*
X153491Y83657D01*
X153752Y83482D01*
Y82982D01*
X153491Y82808D01*
X153018Y82099D01*
X152852Y81264D01*
X153018Y80428D01*
X153491Y79720D01*
X153752Y79545D01*
Y79045D01*
X153491Y78871D01*
X153018Y78162D01*
X152852Y77327D01*
X153018Y76491D01*
X153491Y75783D01*
X153609Y75704D01*
X153624Y75163D01*
X153455Y75029D01*
X153396Y75030D01*
X152910Y75126D01*
X152473Y75781D01*
X145804Y82449D01*
X145060Y82946D01*
X144182Y83121D01*
X141402D01*
X141250Y83621D01*
X141304Y83657D01*
X141777Y84365D01*
X141844Y84701D01*
X136965D01*
Y85701D01*
X141844D01*
X141777Y86036D01*
X141304Y86745D01*
X140595Y87218D01*
X139760Y87384D01*
X137520D01*
X136965Y87495D01*
X127629D01*
X127538Y87556D01*
X127063Y87650D01*
Y85201D01*
Y82751D01*
X127538Y82846D01*
X127629Y82907D01*
X132090D01*
X132357Y82407D01*
X132152Y82099D01*
X131986Y81264D01*
X132152Y80428D01*
X132625Y79720D01*
X132886Y79545D01*
Y79045D01*
X132625Y78871D01*
X132152Y78162D01*
X131986Y77327D01*
X132152Y76491D01*
X132625Y75783D01*
X132886Y75608D01*
Y75108D01*
X132625Y74934D01*
X132152Y74225D01*
X131986Y73390D01*
X132152Y72554D01*
X132373Y72224D01*
X132143Y71668D01*
X131661Y71572D01*
X130917Y71075D01*
X128799Y68957D01*
X121736Y76020D01*
X121005Y76581D01*
X120154Y76933D01*
X119240Y77054D01*
X116469D01*
Y82398D01*
X110643D01*
X110608Y96079D01*
X110961Y96433D01*
X116469D01*
Y101777D01*
X118185D01*
X119099Y101897D01*
X119950Y102250D01*
X120681Y102811D01*
X127374Y109504D01*
X130988Y105890D01*
D02*
G37*
G36*
X350818Y95028D02*
X351000Y94909D01*
Y87472D01*
X347516Y83988D01*
X340040D01*
X339849Y84450D01*
X350500Y95101D01*
X350818Y95028D01*
D02*
G37*
G36*
X216349Y99234D02*
X216082Y99056D01*
X215609Y98348D01*
X215442Y97512D01*
X215609Y96676D01*
X216082Y95968D01*
X216343Y95793D01*
Y95293D01*
X216082Y95119D01*
X215609Y94411D01*
X215442Y93575D01*
X215609Y92739D01*
X216082Y92031D01*
X216343Y91856D01*
Y91356D01*
X216082Y91182D01*
X215609Y90474D01*
X215442Y89638D01*
X215609Y88802D01*
X216082Y88094D01*
X216343Y87919D01*
Y87419D01*
X216082Y87245D01*
X215609Y86537D01*
X215442Y85701D01*
X215609Y84865D01*
X215916Y84405D01*
X215648Y83906D01*
X215484D01*
Y80451D01*
X204625D01*
X204366Y80862D01*
X204372Y80951D01*
X204534Y81764D01*
X204368Y82599D01*
X203894Y83308D01*
X203633Y83482D01*
Y83982D01*
X203894Y84157D01*
X204368Y84865D01*
X204534Y85701D01*
X204428Y86235D01*
X204889Y86481D01*
X207124Y84246D01*
X207145Y84139D01*
X207698Y83312D01*
X208525Y82759D01*
X209500Y82565D01*
X210475Y82759D01*
X211302Y83312D01*
X211855Y84139D01*
X212049Y85114D01*
X211855Y86090D01*
X211302Y86917D01*
X210786Y87262D01*
X210891Y87793D01*
X211475Y87909D01*
X212302Y88461D01*
X212855Y89288D01*
X213049Y90264D01*
X212855Y91239D01*
X212302Y92066D01*
X211475Y92619D01*
X211368Y92640D01*
X208811Y95197D01*
X208067Y95694D01*
X207189Y95869D01*
X206792D01*
X206640Y96369D01*
X206779Y96461D01*
X207331Y97288D01*
X207426Y97764D01*
X204976D01*
Y98764D01*
X207426D01*
X207331Y99239D01*
X207295Y99293D01*
X207531Y99734D01*
X216197D01*
X216349Y99234D01*
D02*
G37*
G36*
X491198Y98319D02*
X491145Y98239D01*
X490951Y97264D01*
X491145Y96288D01*
X491698Y95461D01*
X492525Y94909D01*
X493500Y94715D01*
X493852Y94785D01*
X506407Y82230D01*
X506216Y81768D01*
X497608D01*
X481077Y98298D01*
X481269Y98760D01*
X490963D01*
X491198Y98319D01*
D02*
G37*
G36*
X53781Y77618D02*
X53632Y77395D01*
X53466Y76559D01*
X52993Y76547D01*
X52855Y77239D01*
X52302Y78066D01*
X51476Y78619D01*
X50500Y78813D01*
X49525Y78619D01*
X48698Y78066D01*
X48145Y77239D01*
X47951Y76264D01*
X48145Y75288D01*
X48206Y75197D01*
Y73214D01*
X43845Y68853D01*
X39450D01*
X39198Y69353D01*
X39214Y69375D01*
X40295D01*
X41131Y69542D01*
X41839Y70015D01*
X42313Y70723D01*
X42479Y71559D01*
X42313Y72395D01*
X41839Y73103D01*
X41131Y73576D01*
X40295Y73743D01*
X39171D01*
X39037Y73875D01*
X39242Y74375D01*
X40295D01*
X41131Y74542D01*
X41839Y75015D01*
X42313Y75723D01*
X42479Y76559D01*
X42313Y77395D01*
X41839Y78103D01*
X41131Y78576D01*
X40295Y78743D01*
X38921D01*
X38052Y79611D01*
X37225Y80164D01*
X36970Y80215D01*
X37019Y80715D01*
X50684D01*
X53781Y77618D01*
D02*
G37*
G36*
X249579Y78022D02*
Y74089D01*
X232383D01*
X230308Y76164D01*
X230515Y76664D01*
X239125D01*
Y80264D01*
X239625D01*
Y80764D01*
X242750D01*
Y83864D01*
X243123Y84171D01*
X243429D01*
X249579Y78022D01*
D02*
G37*
G36*
X390941Y74801D02*
X390750Y74339D01*
X385500D01*
X384586Y74219D01*
X383898Y73934D01*
X381900D01*
Y68089D01*
X380309D01*
X373679Y74719D01*
X373871Y75181D01*
X390562D01*
X390941Y74801D01*
D02*
G37*
G36*
X224891Y59380D02*
Y57957D01*
X219547D01*
Y52020D01*
X226540D01*
X226656Y51931D01*
X227093Y51750D01*
X226994Y51250D01*
X203314D01*
X203214Y51750D01*
X203651Y51931D01*
X203767Y52020D01*
X210760D01*
Y57957D01*
X205892D01*
X205685Y58457D01*
X211933Y64705D01*
X215469D01*
Y64705D01*
X215831D01*
Y64705D01*
X219567D01*
X224891Y59380D01*
D02*
G37*
G36*
X424758Y63750D02*
X423250D01*
X423566Y63434D01*
Y61137D01*
X424758Y61133D01*
Y58126D01*
X423566Y56935D01*
X418838Y52206D01*
X418500Y52251D01*
X417468Y52115D01*
X416507Y51717D01*
X415681Y51083D01*
X415047Y50257D01*
X414649Y49296D01*
X414513Y48264D01*
X414649Y47232D01*
X415047Y46270D01*
X415681Y45445D01*
X416507Y44811D01*
X417468Y44413D01*
X418500Y44277D01*
X419532Y44413D01*
X420493Y44811D01*
X421319Y45445D01*
X421953Y46270D01*
X422351Y47232D01*
X422487Y48264D01*
X422442Y48601D01*
X423104Y49264D01*
X429109Y55268D01*
X429662Y56095D01*
X429856Y57070D01*
Y60764D01*
X430210Y61117D01*
X433165Y61108D01*
Y57157D01*
X427287Y51279D01*
X426726Y50548D01*
X426373Y49697D01*
X426253Y48783D01*
Y44600D01*
X423447Y41794D01*
X420306D01*
X419532Y42115D01*
X419000Y42185D01*
Y38264D01*
Y34343D01*
X419532Y34413D01*
X420306Y34734D01*
X424909D01*
X425823Y34854D01*
X426674Y35206D01*
X427405Y35767D01*
X432279Y40642D01*
X432519Y40954D01*
X441524D01*
X443711Y38767D01*
X445970Y36508D01*
Y35803D01*
X445703Y35456D01*
X445265Y34398D01*
X445182Y33764D01*
X453818D01*
X453735Y34398D01*
X453297Y35456D01*
X453030Y35803D01*
Y37971D01*
X452910Y38884D01*
X452557Y39736D01*
X451996Y40467D01*
X450972Y41491D01*
X457996Y48516D01*
X458557Y49247D01*
X458910Y50098D01*
X459030Y51012D01*
X458910Y51925D01*
X458557Y52777D01*
X457996Y53508D01*
X457265Y54069D01*
X456414Y54422D01*
X455500Y54542D01*
X454586Y54422D01*
X453735Y54069D01*
X453004Y53508D01*
X445979Y46484D01*
X445482Y46981D01*
X444751Y47541D01*
X443900Y47894D01*
X442986Y48014D01*
X434660D01*
X434469Y48476D01*
X439191Y53199D01*
X439752Y53930D01*
X440105Y54781D01*
X440225Y55695D01*
Y60732D01*
X440579Y61085D01*
X468500Y61000D01*
Y21794D01*
X464280D01*
Y32014D01*
X464160Y32928D01*
X463820Y33747D01*
X463735Y34398D01*
X463297Y35456D01*
X462600Y36364D01*
X461692Y37060D01*
X460635Y37498D01*
X459500Y37648D01*
X458365Y37498D01*
X457308Y37060D01*
X456400Y36364D01*
X455703Y35456D01*
X455265Y34398D01*
X455116Y33264D01*
X455265Y32129D01*
X455703Y31072D01*
X456400Y30164D01*
X457220Y29535D01*
Y22864D01*
X455000D01*
Y19264D01*
Y15664D01*
X457220D01*
Y14856D01*
X454157Y11794D01*
X438930D01*
X438044Y12161D01*
X437000Y12298D01*
X435956Y12161D01*
X435070Y11794D01*
X432610D01*
X432449Y12267D01*
X432636Y12411D01*
X433277Y13247D01*
X433644Y14132D01*
X435176Y15664D01*
X443000D01*
Y19264D01*
Y22864D01*
X440780D01*
Y28917D01*
X443847D01*
Y37610D01*
X435154D01*
Y33910D01*
X434557Y33314D01*
X406520D01*
X406520Y33314D01*
X405606Y33193D01*
X404755Y32841D01*
X404024Y32280D01*
X403538Y31794D01*
X398140D01*
Y42311D01*
X398563D01*
Y43895D01*
X399007Y44230D01*
X399063Y44229D01*
X399665Y43445D01*
X400491Y42811D01*
X401265Y42490D01*
X407988Y35767D01*
X408719Y35206D01*
X409571Y34854D01*
X410484Y34734D01*
X416694D01*
X417468Y34413D01*
X418000Y34343D01*
Y38264D01*
Y42185D01*
X417468Y42115D01*
X416694Y41794D01*
X411946D01*
X406258Y47483D01*
X406014Y48070D01*
Y51325D01*
X405894Y52239D01*
X405542Y53090D01*
X404981Y53821D01*
X402802Y56000D01*
X400030Y58771D01*
Y60854D01*
Y61434D01*
X400100D01*
Y64059D01*
X396500D01*
Y65059D01*
X400100D01*
Y67279D01*
X403900D01*
Y61434D01*
X407020D01*
X407268Y61186D01*
X411993Y56461D01*
X412820Y55909D01*
X413795Y55715D01*
X415474D01*
X415681Y55445D01*
X416507Y54811D01*
X417468Y54413D01*
X418500Y54277D01*
X419532Y54413D01*
X420493Y54811D01*
X421319Y55445D01*
X421953Y56270D01*
X422351Y57232D01*
X422487Y58264D01*
X422351Y59296D01*
X421953Y60257D01*
X421319Y61083D01*
X420493Y61717D01*
X419532Y62115D01*
X418500Y62251D01*
X417468Y62115D01*
X416507Y61717D01*
X415681Y61083D01*
X415474Y60813D01*
X414851D01*
X411100Y64564D01*
Y67279D01*
X414547D01*
Y64311D01*
X422453D01*
Y72216D01*
X422030D01*
Y75263D01*
X422449Y75682D01*
X424758D01*
Y63750D01*
D02*
G37*
G36*
X63941Y87295D02*
X63941D01*
Y87014D01*
X63747Y86514D01*
X60500D01*
X59525Y86320D01*
X58698Y85767D01*
X58145Y84940D01*
X57951Y83965D01*
X58145Y82989D01*
X58698Y82162D01*
X59525Y81610D01*
X60500Y81416D01*
X63941D01*
Y80996D01*
X64951D01*
Y66469D01*
X62744Y64263D01*
X62611Y64298D01*
X62520Y64838D01*
X62784Y65015D01*
X63258Y65723D01*
X63424Y66559D01*
X63258Y67395D01*
X62784Y68103D01*
X62076Y68577D01*
X61240Y68743D01*
X60186D01*
X59981Y69243D01*
X60116Y69375D01*
X61240D01*
X62076Y69542D01*
X62784Y70015D01*
X63258Y70723D01*
X63424Y71559D01*
X63258Y72395D01*
X62784Y73103D01*
X62076Y73576D01*
X61240Y73743D01*
X60994D01*
Y74375D01*
X61240D01*
X62076Y74542D01*
X62784Y75015D01*
X63258Y75723D01*
X63424Y76559D01*
X63258Y77395D01*
X62784Y78103D01*
X62076Y78576D01*
X61240Y78743D01*
X59866D01*
X53543Y85066D01*
X52716Y85619D01*
X51740Y85813D01*
X46008D01*
X45856Y86313D01*
X46419Y86689D01*
X49122Y89392D01*
X49619Y90136D01*
X49754Y90811D01*
X51453D01*
Y92470D01*
X63941D01*
Y87295D01*
D02*
G37*
G36*
X432855Y80178D02*
X432964Y79350D01*
X433165Y78865D01*
Y75264D01*
Y70000D01*
Y63750D01*
X429856D01*
Y75682D01*
X430432D01*
Y81948D01*
X430894Y82139D01*
X432855Y80178D01*
D02*
G37*
G36*
X372456Y62294D02*
X372249Y61794D01*
X252500Y61794D01*
Y62740D01*
X355415D01*
X356001Y62856D01*
X356497Y63188D01*
X364030Y70720D01*
X372456Y62294D01*
D02*
G37*
G36*
X240827Y64530D02*
X240443Y64029D01*
X240090Y63178D01*
X239970Y62264D01*
X240037Y61750D01*
X239615Y61250D01*
X235060D01*
X235000Y61310D01*
Y57957D01*
X231951D01*
Y60843D01*
X231831Y61756D01*
X231479Y62608D01*
X230918Y63339D01*
X229689Y64568D01*
X229880Y65030D01*
X240581D01*
X240827Y64530D01*
D02*
G37*
G36*
X208176Y70892D02*
X208004Y70760D01*
X199390Y62146D01*
X198829Y61415D01*
X198476Y60563D01*
X198356Y59650D01*
Y57957D01*
X193012D01*
Y52020D01*
X200005D01*
X200121Y51931D01*
X200558Y51750D01*
X200458Y51250D01*
X180500D01*
Y40250D01*
X116469D01*
Y43458D01*
X118929D01*
X119843Y43578D01*
X120694Y43931D01*
X121425Y44492D01*
X128996Y52063D01*
X129557Y52794D01*
X129910Y53645D01*
X129976Y54146D01*
X130059D01*
Y55389D01*
X130213Y55492D01*
X136190Y61470D01*
X138867D01*
X139745Y61644D01*
X140490Y62142D01*
X144556Y66208D01*
X145056Y66001D01*
Y62823D01*
X144382D01*
Y62794D01*
X144000D01*
X143086Y62674D01*
X142235Y62321D01*
X141504Y61760D01*
X134468Y54725D01*
X133907Y53993D01*
X133555Y53142D01*
X133434Y52228D01*
Y49957D01*
X128091D01*
Y44020D01*
X135084D01*
X135199Y43931D01*
X136051Y43578D01*
X136965Y43458D01*
X137878Y43578D01*
X138730Y43931D01*
X138845Y44020D01*
X145839D01*
Y49957D01*
X140495D01*
Y50766D01*
X145433Y55705D01*
X150319D01*
Y55705D01*
X150681D01*
Y55705D01*
X154067D01*
X159353Y50419D01*
X159161Y49957D01*
X154626D01*
Y44020D01*
X161619D01*
X161735Y43931D01*
X162586Y43578D01*
X163500Y43458D01*
X164414Y43578D01*
X165265Y43931D01*
X165381Y44020D01*
X172374D01*
Y49957D01*
X167030D01*
Y51264D01*
X166910Y52178D01*
X166557Y53029D01*
X165996Y53760D01*
X157996Y61760D01*
X157265Y62321D01*
X156618Y62589D01*
Y62823D01*
X155944D01*
Y63559D01*
X155769Y64437D01*
X155272Y65181D01*
X153642Y66811D01*
X153849Y67311D01*
X157065D01*
X157831Y67159D01*
X164941D01*
Y66484D01*
X164941Y66484D01*
Y66122D01*
X164941D01*
X164941Y65984D01*
Y63653D01*
X168500D01*
Y62653D01*
X164941D01*
Y60185D01*
X166619D01*
X166735Y60096D01*
X167586Y59744D01*
X168500Y59623D01*
X187890D01*
X188803Y59744D01*
X189655Y60096D01*
X190386Y60657D01*
X194496Y64768D01*
X195057Y65499D01*
X195410Y66350D01*
X195530Y67264D01*
X195410Y68177D01*
X195057Y69029D01*
X194496Y69760D01*
X193765Y70321D01*
X192914Y70674D01*
X192000Y70794D01*
X191086Y70674D01*
X190235Y70321D01*
X189504Y69760D01*
X186427Y66684D01*
X172059D01*
Y71392D01*
X208006D01*
X208176Y70892D01*
D02*
G37*
G36*
X53632Y75723D02*
X54106Y75015D01*
X54814Y74542D01*
X55650Y74375D01*
X55896D01*
Y73743D01*
X55650D01*
X54814Y73576D01*
X54106Y73103D01*
X53632Y72395D01*
X53466Y71559D01*
X53632Y70723D01*
X54106Y70015D01*
X54715Y69608D01*
X54651Y69145D01*
X54650Y69143D01*
X54635Y69106D01*
X53670Y68914D01*
X52843Y68362D01*
X48698Y64216D01*
X48145Y63389D01*
X47951Y62413D01*
Y55512D01*
X47454Y55302D01*
X44575Y58181D01*
X43831Y58679D01*
X42953Y58853D01*
X39450D01*
X39198Y59353D01*
X39214Y59375D01*
X40295D01*
X41131Y59542D01*
X41839Y60015D01*
X42313Y60723D01*
X42380Y61059D01*
X37500D01*
Y62059D01*
X42380D01*
X42313Y62395D01*
X41839Y63103D01*
X41131Y63577D01*
X40295Y63743D01*
X39214D01*
X39198Y63765D01*
X39450Y64265D01*
X44795D01*
X45673Y64440D01*
X46417Y64937D01*
X52122Y70642D01*
X52619Y71386D01*
X52794Y72264D01*
Y75197D01*
X52855Y75288D01*
X53049Y76264D01*
X53522Y76275D01*
X53632Y75723D01*
D02*
G37*
G36*
X372750Y54111D02*
X372250Y53717D01*
X371669Y53794D01*
X364500D01*
X363586Y53674D01*
X362735Y53321D01*
X362004Y52760D01*
X361443Y52029D01*
X361090Y51178D01*
X360970Y50264D01*
X361090Y49350D01*
X361443Y48499D01*
X362004Y47767D01*
X362735Y47207D01*
X363586Y46854D01*
X364500Y46734D01*
X370207D01*
X372750Y44191D01*
Y37453D01*
X372250Y37207D01*
X371775Y37571D01*
X370923Y37924D01*
X370010Y38044D01*
X334447D01*
X333015Y39476D01*
X333298Y39899D01*
X333712Y39728D01*
X334626Y39608D01*
X340547D01*
Y39185D01*
X348453D01*
Y47091D01*
X346869D01*
X346534Y47535D01*
X346534Y47591D01*
X347319Y48193D01*
X347953Y49018D01*
X348351Y49980D01*
X348421Y50512D01*
X344500D01*
X340579D01*
X340649Y49980D01*
X341047Y49018D01*
X341681Y48193D01*
X342466Y47591D01*
X342466Y47535D01*
X342131Y47091D01*
X340547D01*
Y46668D01*
X336088D01*
X330484Y52272D01*
X330675Y52734D01*
X340415D01*
X340752Y52291D01*
X340649Y52044D01*
X340579Y51512D01*
X344500D01*
X348421D01*
X348351Y52044D01*
X347953Y53005D01*
X347319Y53831D01*
X346795Y54234D01*
X346964Y54734D01*
X372750D01*
Y54111D01*
D02*
G37*
G36*
X80610Y53549D02*
Y49537D01*
X79224D01*
X78249Y49343D01*
X77422Y48791D01*
X70491Y41859D01*
X70049Y42125D01*
Y51504D01*
X71502Y52957D01*
X72045Y52793D01*
X72145Y52288D01*
X72698Y51461D01*
X73525Y50909D01*
X74500Y50715D01*
X75476Y50909D01*
X76302Y51461D01*
X76855Y52288D01*
X77049Y53264D01*
Y56457D01*
X77511Y56648D01*
X80610Y53549D01*
D02*
G37*
G36*
X122941Y64830D02*
Y60445D01*
X122941D01*
Y60083D01*
X122941D01*
Y55993D01*
X117467Y50518D01*
X116469D01*
Y55862D01*
X110710D01*
X110689Y64296D01*
X111042Y64650D01*
X116469D01*
Y69993D01*
X117778D01*
X122941Y64830D01*
D02*
G37*
G36*
X53632Y55723D02*
X54106Y55015D01*
X54814Y54542D01*
X55650Y54375D01*
X56703D01*
X56908Y53875D01*
X56774Y53743D01*
X55650D01*
X54814Y53576D01*
X54106Y53103D01*
X53632Y52395D01*
X53466Y51559D01*
X53632Y50723D01*
X54106Y50015D01*
X54814Y49542D01*
X55650Y49375D01*
X55896D01*
Y48701D01*
X53508D01*
Y44417D01*
X55896D01*
Y42501D01*
X55198Y41802D01*
X54645Y40975D01*
X54451Y40000D01*
X54645Y39024D01*
X55198Y38198D01*
X55594Y37933D01*
Y37331D01*
X55198Y37066D01*
X55008Y36783D01*
X54511Y36734D01*
X50442Y40802D01*
X49615Y41355D01*
X48640Y41549D01*
X32614D01*
X32367Y41500D01*
X32121Y41961D01*
X34170Y44010D01*
X36818D01*
X37669Y43841D01*
X47500D01*
X48476Y44035D01*
X49302Y44587D01*
X49855Y45414D01*
X50049Y46390D01*
X49855Y47365D01*
X49349Y48122D01*
X49447Y48651D01*
X49475Y48657D01*
X50302Y49209D01*
X50855Y50036D01*
X51049Y51012D01*
X50855Y51987D01*
X50658Y52282D01*
X50888Y52837D01*
X51476Y52954D01*
X52302Y53507D01*
X52855Y54334D01*
X53049Y55309D01*
Y56092D01*
X53549Y56141D01*
X53632Y55723D01*
D02*
G37*
G36*
X106250Y90256D02*
Y40575D01*
X105788Y40384D01*
X103870Y42302D01*
Y55862D01*
X98865D01*
Y60422D01*
X98926Y60513D01*
X99120Y61488D01*
X98926Y62464D01*
X98373Y63291D01*
X95209Y66455D01*
Y82398D01*
X95178D01*
X94971Y82898D01*
X98782Y86708D01*
X100994D01*
X101969Y86902D01*
X102796Y87455D01*
X105788Y90447D01*
X106250Y90256D01*
D02*
G37*
G36*
X295154Y44005D02*
Y39794D01*
X290962D01*
X287100Y43656D01*
Y48139D01*
Y48715D01*
X290444D01*
X295154Y44005D01*
D02*
G37*
G36*
X245004Y55768D02*
X245735Y55207D01*
X246586Y54854D01*
X246468Y54389D01*
X244900D01*
Y48139D01*
Y45514D01*
X248500D01*
X252100D01*
Y48139D01*
Y48715D01*
X256900D01*
Y48139D01*
Y41889D01*
X260020D01*
X260070Y41839D01*
Y39020D01*
X259380D01*
X259308Y39382D01*
X258755Y40209D01*
X257928Y40761D01*
X257453Y40856D01*
Y38406D01*
Y35957D01*
X257928Y36051D01*
X258442Y36395D01*
X259100Y36299D01*
X259113Y36288D01*
X259145Y36239D01*
X258951Y35264D01*
X259145Y34288D01*
X259319Y34028D01*
Y31539D01*
X255579D01*
Y29287D01*
X254243D01*
X254049Y29524D01*
X253855Y30499D01*
X253302Y31326D01*
X252476Y31879D01*
X251500Y32073D01*
X250525Y31879D01*
X249698Y31326D01*
X249145Y30499D01*
X248951Y29524D01*
X249145Y28548D01*
X249698Y27721D01*
X250525Y27169D01*
X251373Y27000D01*
X251323Y26500D01*
X241750D01*
Y56864D01*
X242136Y57250D01*
X243521D01*
X245004Y55768D01*
D02*
G37*
G36*
X88047Y119472D02*
X88791Y118975D01*
X89669Y118800D01*
X97719D01*
X98607Y117912D01*
Y114181D01*
X97933D01*
Y96433D01*
X102951D01*
Y94820D01*
X99938Y91806D01*
X97726D01*
X96750Y91612D01*
X95923Y91060D01*
X90438Y85574D01*
X89885Y84747D01*
X89691Y83772D01*
Y82398D01*
X89272D01*
Y64650D01*
X90015D01*
X90438Y64016D01*
X94277Y60177D01*
Y55862D01*
X89272D01*
Y38114D01*
X89946D01*
Y37524D01*
X90121Y36646D01*
X90618Y35901D01*
X91206Y35313D01*
Y34559D01*
X80378D01*
X78188Y36749D01*
X77976Y37066D01*
X77149Y37619D01*
X76174Y37813D01*
X75198Y37619D01*
X74371Y37066D01*
X73819Y36239D01*
X73625Y35264D01*
X73819Y34288D01*
X74371Y33461D01*
X75198Y32909D01*
X75625Y32824D01*
X79111Y29337D01*
X79250Y29245D01*
Y27359D01*
X91206D01*
Y23039D01*
X88698Y20531D01*
X88145Y19704D01*
X87951Y18728D01*
Y11720D01*
X87044Y10813D01*
X86568D01*
X86100Y10889D01*
Y13514D01*
X82500D01*
X78900D01*
Y11176D01*
X78400Y10969D01*
X74911Y14457D01*
Y15278D01*
X74717Y16253D01*
X74165Y17080D01*
X58992Y32253D01*
X59183Y32715D01*
X60764D01*
X61739Y32909D01*
X62566Y33461D01*
X63992Y34887D01*
X64416Y34604D01*
X64224Y34141D01*
X64109Y33264D01*
X64224Y32386D01*
X64563Y31568D01*
X64951Y31063D01*
Y28938D01*
X65145Y27962D01*
X65698Y27135D01*
X74371Y18461D01*
X75198Y17909D01*
X76174Y17715D01*
X78900D01*
Y14514D01*
X82500D01*
X86100D01*
Y17139D01*
Y23389D01*
X78900D01*
Y22813D01*
X77230D01*
X70049Y29993D01*
Y31063D01*
X70437Y31568D01*
X70776Y32386D01*
X70891Y33264D01*
X70776Y34141D01*
X70543Y34702D01*
X80110Y44269D01*
X80610Y44062D01*
Y38114D01*
X86547D01*
Y55862D01*
X85465D01*
X85381Y55987D01*
X81049Y60320D01*
Y64650D01*
X86547D01*
Y82398D01*
X86547D01*
X86378Y82898D01*
X89532Y86051D01*
X90029Y86795D01*
X90203Y87673D01*
Y96433D01*
X95209D01*
Y114181D01*
X90203D01*
Y114854D01*
X90029Y115732D01*
X89532Y116477D01*
X85873Y120135D01*
Y121026D01*
X86373Y121147D01*
X88047Y119472D01*
D02*
G37*
G36*
X268900Y41889D02*
X269951D01*
Y37923D01*
X269451Y37874D01*
X269308Y38594D01*
X268755Y39421D01*
X267928Y39974D01*
X266953Y40168D01*
X265977Y39974D01*
X265609Y39727D01*
X265168Y39963D01*
Y42895D01*
X264974Y43870D01*
X264421Y44697D01*
X264100Y45019D01*
Y48715D01*
X268900D01*
Y41889D01*
D02*
G37*
G36*
X65144Y53598D02*
X65140Y53510D01*
X64951Y52560D01*
Y43056D01*
X59708Y37813D01*
X59080D01*
X58918Y38313D01*
X60247Y39643D01*
X60800Y40469D01*
X60994Y41445D01*
Y44417D01*
X63382D01*
Y48701D01*
X60994D01*
Y49375D01*
X61240D01*
X62076Y49542D01*
X62784Y50015D01*
X63258Y50723D01*
X63424Y51559D01*
X63258Y52395D01*
X62784Y53103D01*
X62175Y53510D01*
X62264Y54010D01*
X64887D01*
X65144Y53598D01*
D02*
G37*
G36*
X525751Y71522D02*
Y66924D01*
X533087D01*
Y63124D01*
X529376D01*
Y59524D01*
X528876D01*
Y59024D01*
X525751D01*
Y55924D01*
X526582D01*
Y52384D01*
X525689D01*
Y49283D01*
X528814D01*
Y48783D01*
X529314D01*
Y45184D01*
X531723D01*
X531934Y44705D01*
X531713Y44429D01*
X529293D01*
X528513Y44274D01*
X527851Y43832D01*
X524432Y40412D01*
X523990Y39751D01*
X523835Y38971D01*
Y35445D01*
X523050D01*
Y71284D01*
X522930Y72197D01*
X522577Y73049D01*
X522016Y73780D01*
X521285Y74341D01*
X520433Y74693D01*
X519520Y74814D01*
X518606Y74693D01*
X517755Y74341D01*
X517024Y73780D01*
X516462Y73049D01*
X516110Y72197D01*
X515989Y71284D01*
Y57571D01*
X515527Y57380D01*
X513625Y59282D01*
Y63124D01*
X512539D01*
Y66664D01*
X513625D01*
Y73864D01*
X502777D01*
X500293Y76348D01*
X500484Y76810D01*
X520463D01*
X525751Y71522D01*
D02*
G37*
G36*
X398100Y50717D02*
X397893Y50217D01*
X390657D01*
Y42311D01*
X391080D01*
Y30794D01*
X385453D01*
Y31216D01*
X378300D01*
X373750Y35766D01*
Y42537D01*
X374212Y42729D01*
X382173Y34767D01*
X382904Y34207D01*
X383756Y33854D01*
X384669Y33734D01*
X385583Y33854D01*
X386434Y34207D01*
X387165Y34767D01*
X387726Y35499D01*
X388079Y36350D01*
X388199Y37264D01*
X388079Y38177D01*
X387726Y39029D01*
X387165Y39760D01*
X374166Y52760D01*
X373750Y53079D01*
Y54734D01*
X394083D01*
X398100Y50717D01*
D02*
G37*
G36*
X301948Y54234D02*
X301698Y54066D01*
X301145Y53239D01*
X301050Y52764D01*
X303500D01*
Y52264D01*
X304000D01*
Y49814D01*
X304475Y49909D01*
X305302Y50461D01*
X305855Y51288D01*
X306049Y52264D01*
X306048Y52270D01*
X306441Y52734D01*
X310577D01*
X310768Y52272D01*
X307004Y48508D01*
X306443Y47777D01*
X306090Y46926D01*
X305970Y46012D01*
Y45803D01*
X305703Y45456D01*
X305265Y44398D01*
X305116Y43264D01*
X305265Y42129D01*
X305703Y41072D01*
X305970Y40725D01*
Y32794D01*
X302030D01*
Y33264D01*
X301910Y34178D01*
X301557Y35029D01*
X300996Y35760D01*
X298339Y38417D01*
X298546Y38917D01*
X303847D01*
Y47610D01*
X298758D01*
X293302Y53066D01*
X292476Y53619D01*
X291500Y53813D01*
X287454D01*
X287297Y53970D01*
X287301Y54583D01*
X287457Y54734D01*
X301797D01*
X301948Y54234D01*
D02*
G37*
G36*
X279900Y41889D02*
X280019D01*
X280090Y41350D01*
X280443Y40499D01*
X281004Y39768D01*
X287004Y33768D01*
X287735Y33206D01*
X288586Y32854D01*
X289125Y32783D01*
Y31602D01*
X289001Y31303D01*
X285764D01*
X284983Y31148D01*
X284921Y31106D01*
X284421Y31357D01*
Y31539D01*
X282740D01*
Y27784D01*
X281740D01*
Y31539D01*
X280681D01*
Y34028D01*
X280855Y34288D01*
X281049Y35264D01*
X280855Y36239D01*
X280681Y36499D01*
Y39020D01*
X276319D01*
Y37813D01*
X275816D01*
X275049Y38579D01*
Y41889D01*
X276100D01*
Y48715D01*
X279900D01*
Y41889D01*
D02*
G37*
G36*
X330488Y32017D02*
X331219Y31457D01*
X332071Y31104D01*
X332984Y30984D01*
X360900D01*
Y28656D01*
X360778Y28534D01*
X327030D01*
Y33264D01*
X326910Y34178D01*
X326557Y35029D01*
X325996Y35760D01*
X323896Y37860D01*
X323165Y38421D01*
X322314Y38774D01*
X321563Y38873D01*
X321495Y39386D01*
X321692Y39467D01*
X322039Y39734D01*
X322772D01*
X330488Y32017D01*
D02*
G37*
G36*
X238250Y23826D02*
X237750Y23619D01*
X237295Y24073D01*
Y28035D01*
X219547D01*
Y23975D01*
X219085Y23783D01*
X215999Y26869D01*
X215172Y27422D01*
X214197Y27616D01*
X210760D01*
Y28035D01*
X193471D01*
X193264Y28535D01*
X194927Y30198D01*
X201886D01*
X202800Y30318D01*
X203651Y30671D01*
X203767Y30760D01*
X210760D01*
Y32429D01*
X211260Y32581D01*
X211698Y31926D01*
X212525Y31373D01*
X213500Y31179D01*
X219547D01*
Y30760D01*
X237295D01*
Y36697D01*
X219547D01*
Y36277D01*
X213500D01*
X212525Y36083D01*
X211698Y35531D01*
X211260Y34876D01*
X210760Y35027D01*
Y36697D01*
X203767D01*
X203651Y36786D01*
X202800Y37138D01*
X201886Y37259D01*
X193465D01*
X192551Y37138D01*
X191700Y36786D01*
X190968Y36225D01*
X186004Y31260D01*
X185443Y30529D01*
X185090Y29678D01*
X184970Y28764D01*
Y21264D01*
X185090Y20350D01*
X185443Y19499D01*
X186004Y18767D01*
X188004Y16768D01*
X188735Y16206D01*
X189586Y15854D01*
X190500Y15734D01*
X200547D01*
Y12764D01*
X208453D01*
Y15734D01*
X210841D01*
X210970Y15605D01*
Y14070D01*
X210649Y13296D01*
X210513Y12264D01*
X210649Y11232D01*
X211047Y10270D01*
X211681Y9445D01*
X212507Y8811D01*
X213468Y8413D01*
X214500Y8277D01*
X215532Y8413D01*
X216493Y8811D01*
X217319Y9445D01*
X217953Y10270D01*
X218351Y11232D01*
X218487Y12264D01*
X218351Y13296D01*
X218030Y14070D01*
Y16922D01*
X218486Y17173D01*
X219198Y16461D01*
X220025Y15909D01*
X221000Y15715D01*
X221727D01*
X221887Y15241D01*
X221681Y15083D01*
X221047Y14257D01*
X220649Y13296D01*
X220579Y12764D01*
X228421D01*
X228351Y13296D01*
X227953Y14257D01*
X227319Y15083D01*
X227113Y15241D01*
X227273Y15715D01*
X227819D01*
X236822Y6712D01*
X236631Y6250D01*
X163744D01*
X163553Y6712D01*
X165302Y8461D01*
X165855Y9288D01*
X166049Y10264D01*
Y14098D01*
X172374D01*
Y14715D01*
X182500D01*
X183475Y14909D01*
X184302Y15461D01*
X184855Y16288D01*
X185049Y17264D01*
X184855Y18239D01*
X184302Y19066D01*
X183475Y19619D01*
X182500Y19813D01*
X172374D01*
Y20035D01*
X156530D01*
X156338Y20497D01*
X158601Y22760D01*
X172374D01*
Y28697D01*
X154626D01*
Y25995D01*
X149698Y21066D01*
X149145Y20239D01*
X148951Y19264D01*
Y15398D01*
X148169Y14616D01*
X145839D01*
Y16567D01*
X136965D01*
X128091D01*
Y14684D01*
X127591Y14644D01*
X127049Y15186D01*
Y25264D01*
X126855Y26239D01*
X126302Y27066D01*
X117052Y36316D01*
X116226Y36869D01*
X115250Y37063D01*
X109109D01*
X108441Y37731D01*
X108632Y38193D01*
X110531D01*
Y38114D01*
X116469D01*
Y38193D01*
X125973D01*
X126134Y37719D01*
X126094Y37689D01*
X125533Y36958D01*
X125181Y36107D01*
X125060Y35193D01*
X125181Y34279D01*
X125533Y33428D01*
X126094Y32697D01*
X126825Y32136D01*
X127677Y31783D01*
X128091Y31729D01*
Y31421D01*
X133434D01*
Y28697D01*
X128091D01*
Y26228D01*
X136965D01*
X145839D01*
Y28697D01*
X140495D01*
Y31421D01*
X145839D01*
Y33890D01*
X136965D01*
Y34890D01*
X145839D01*
Y37358D01*
X138988D01*
X138658Y37689D01*
X138618Y37719D01*
X138779Y38193D01*
X183500D01*
X183500Y38193D01*
Y48000D01*
X238250D01*
Y23826D01*
D02*
G37*
G36*
X374764Y24768D02*
X375495Y24206D01*
X376346Y23854D01*
X377260Y23734D01*
X377547D01*
Y23311D01*
X385453D01*
Y23734D01*
X390900D01*
Y20794D01*
X383306D01*
X382532Y21115D01*
X382000Y21185D01*
Y17264D01*
Y13343D01*
X382532Y13413D01*
X383306Y13734D01*
X386958D01*
X386993Y13234D01*
X386497Y12853D01*
X385856Y12017D01*
X385453Y11044D01*
X385381Y10500D01*
X393319D01*
X393247Y11044D01*
X392844Y12017D01*
X392203Y12853D01*
X391707Y13234D01*
X391742Y13734D01*
X393402D01*
X393586Y13657D01*
X394500Y13537D01*
X404303D01*
X405217Y13657D01*
X406068Y14010D01*
X406799Y14571D01*
X410085Y17857D01*
X410547Y17665D01*
Y11311D01*
X413460D01*
X418521Y6250D01*
X418314Y5750D01*
X390849D01*
X390749Y6250D01*
X391367Y6506D01*
X392203Y7147D01*
X392844Y7983D01*
X393247Y8956D01*
X393319Y9500D01*
X385381D01*
X385453Y8956D01*
X385856Y7983D01*
X386497Y7147D01*
X387333Y6506D01*
X387951Y6250D01*
X387851Y5750D01*
X373750D01*
Y13734D01*
X379694D01*
X380468Y13413D01*
X381000Y13343D01*
Y17264D01*
Y21185D01*
X380468Y21115D01*
X379694Y20794D01*
X373750D01*
Y25128D01*
X374212Y25319D01*
X374764Y24768D01*
D02*
G37*
G36*
X371000Y28531D02*
Y20794D01*
X368030D01*
Y25139D01*
X368100D01*
Y27764D01*
X364500D01*
Y28764D01*
X368100D01*
Y30857D01*
X368600Y30931D01*
X371000Y28531D01*
D02*
G37*
G36*
X407048Y24804D02*
X402841Y20597D01*
X398100D01*
Y22957D01*
X398140Y23264D01*
Y24734D01*
X405000D01*
X405914Y24854D01*
X406765Y25207D01*
X407048Y24804D01*
D02*
G37*
G36*
X288720Y18317D02*
X288840Y17403D01*
X289193Y16552D01*
X289500Y16151D01*
Y6250D01*
X282744D01*
X282553Y6712D01*
X285302Y9461D01*
X285855Y10288D01*
X286049Y11264D01*
Y14040D01*
X286319Y14248D01*
X286953Y15074D01*
X287351Y16035D01*
X287487Y17067D01*
X287351Y18099D01*
X286953Y19060D01*
X286319Y19886D01*
X285493Y20520D01*
X284532Y20918D01*
X283500Y21054D01*
X282468Y20918D01*
X281507Y20520D01*
X280681Y19886D01*
X280047Y19060D01*
X279649Y18099D01*
X279513Y17067D01*
X279649Y16035D01*
X280047Y15074D01*
X280681Y14248D01*
X280951Y14040D01*
Y12320D01*
X278444Y9813D01*
X270197D01*
X269990Y10313D01*
X272844Y13167D01*
X273000Y13146D01*
Y16567D01*
X269579D01*
X269600Y16411D01*
X266878Y13689D01*
X266525Y13619D01*
X265698Y13066D01*
X265145Y12239D01*
X265051Y11764D01*
X267500D01*
Y10764D01*
X265051D01*
X265140Y10313D01*
X265145Y10225D01*
X264888Y9813D01*
X260504D01*
X260313Y10275D01*
X263162Y13125D01*
X263500Y13080D01*
X264532Y13216D01*
X265493Y13614D01*
X266319Y14248D01*
X266953Y15074D01*
X267351Y16035D01*
X267487Y17067D01*
X267351Y18099D01*
X266953Y19060D01*
X266319Y19886D01*
X265493Y20520D01*
X264532Y20918D01*
X263500Y21054D01*
X262468Y20918D01*
X261507Y20520D01*
X260681Y19886D01*
X260047Y19060D01*
X259649Y18099D01*
X259513Y17067D01*
X259558Y16729D01*
X256933Y14105D01*
X256856Y14127D01*
X256666Y14700D01*
X256953Y15074D01*
X257351Y16035D01*
X257421Y16567D01*
X253500D01*
X249579D01*
X249649Y16035D01*
X250047Y15074D01*
X250631Y14313D01*
X250511Y13813D01*
X247556D01*
X238619Y22750D01*
X238826Y23250D01*
X264630D01*
X266294Y21586D01*
X266956Y21144D01*
X267736Y20988D01*
X267736Y20988D01*
X271133D01*
X271466Y20544D01*
X271466Y20488D01*
X270681Y19886D01*
X270047Y19060D01*
X269649Y18099D01*
X269579Y17567D01*
X273500D01*
X277421D01*
X277351Y18099D01*
X276953Y19060D01*
X276319Y19886D01*
X275534Y20488D01*
X275534Y20544D01*
X275867Y20988D01*
X280264D01*
X281044Y21144D01*
X281706Y21586D01*
X283370Y23250D01*
X288720D01*
Y18317D01*
D02*
G37*
G36*
X106251Y32711D02*
X107078Y32159D01*
X108053Y31965D01*
X114194D01*
X121951Y24208D01*
Y14130D01*
X122145Y13155D01*
X122698Y12327D01*
X124761Y10265D01*
X125588Y9712D01*
X126563Y9518D01*
X149224D01*
X150200Y9712D01*
X151027Y10265D01*
X153302Y12540D01*
X153855Y13367D01*
X154049Y14343D01*
Y17830D01*
X154126Y17881D01*
X154626Y17614D01*
Y14098D01*
X160951D01*
Y11320D01*
X158444Y8813D01*
X129642D01*
X128666Y8619D01*
X128575Y8558D01*
X121190D01*
X116541Y13207D01*
X116631Y13747D01*
X116671Y13785D01*
X117500Y13676D01*
X118378Y13791D01*
X119196Y14130D01*
X119898Y14669D01*
X120437Y15371D01*
X120776Y16189D01*
X120891Y17067D01*
X120776Y17945D01*
X120437Y18763D01*
X119898Y19465D01*
X119196Y20004D01*
X118378Y20343D01*
X117500Y20458D01*
X116622Y20343D01*
X115804Y20004D01*
X115102Y19465D01*
X114563Y18763D01*
X114294Y18113D01*
X113794Y18213D01*
Y23264D01*
X113619Y24142D01*
X113122Y24886D01*
X100616Y37392D01*
X100793Y37922D01*
X101009Y37953D01*
X106251Y32711D01*
D02*
G37*
G36*
X109206Y22313D02*
Y15004D01*
X109381Y14126D01*
X109878Y13382D01*
X116548Y6712D01*
X116356Y6250D01*
X90398D01*
X90191Y6750D01*
X92302Y8861D01*
X92855Y9688D01*
X93049Y10664D01*
Y17673D01*
X93939Y18563D01*
X94363Y18280D01*
X94224Y17945D01*
X94109Y17067D01*
X94224Y16189D01*
X94563Y15371D01*
X95102Y14669D01*
X95804Y14130D01*
X96622Y13791D01*
X97500Y13676D01*
X98378Y13791D01*
X99196Y14130D01*
X99898Y14669D01*
X100437Y15371D01*
X100776Y16189D01*
X100891Y17067D01*
X100776Y17945D01*
X100437Y18763D01*
X99898Y19465D01*
X99196Y20004D01*
X98378Y20343D01*
X97500Y20458D01*
X96622Y20343D01*
X96014Y20090D01*
X95682Y20494D01*
X95855Y20753D01*
X96049Y21728D01*
X95855Y22704D01*
X95794Y22795D01*
Y35072D01*
X96256Y35263D01*
X109206Y22313D01*
D02*
G37*
G36*
X319970Y31802D02*
Y25004D01*
X320090Y24090D01*
X320443Y23239D01*
X321004Y22508D01*
X321735Y21947D01*
X322586Y21594D01*
X323180Y21516D01*
Y21012D01*
X322468Y20918D01*
X321507Y20520D01*
X320681Y19886D01*
X320047Y19060D01*
X319649Y18099D01*
X319513Y17067D01*
X319649Y16035D01*
X320047Y15074D01*
X320681Y14248D01*
X321507Y13614D01*
X322468Y13216D01*
X323500Y13080D01*
X324532Y13216D01*
X325493Y13614D01*
X326319Y14248D01*
X326953Y15074D01*
X327351Y16035D01*
X327487Y17067D01*
X327351Y18099D01*
X326953Y19060D01*
X326319Y19886D01*
X325493Y20520D01*
X324532Y20918D01*
X324108Y20974D01*
X324141Y21474D01*
X332859D01*
X332892Y20974D01*
X332468Y20918D01*
X331507Y20520D01*
X330681Y19886D01*
X330047Y19060D01*
X329649Y18099D01*
X329513Y17067D01*
X329649Y16035D01*
X330047Y15074D01*
X330681Y14248D01*
X331507Y13614D01*
X332468Y13216D01*
X333500Y13080D01*
X334532Y13216D01*
X335493Y13614D01*
X336319Y14248D01*
X336953Y15074D01*
X337351Y16035D01*
X337487Y17067D01*
X337351Y18099D01*
X336953Y19060D01*
X336319Y19886D01*
X335493Y20520D01*
X334532Y20918D01*
X334108Y20974D01*
X334141Y21474D01*
X342859D01*
X342892Y20974D01*
X342468Y20918D01*
X341507Y20520D01*
X340681Y19886D01*
X340047Y19060D01*
X339649Y18099D01*
X339513Y17067D01*
X339649Y16035D01*
X340047Y15074D01*
X340681Y14248D01*
X341507Y13614D01*
X342468Y13216D01*
X343500Y13080D01*
X344532Y13216D01*
X345493Y13614D01*
X346319Y14248D01*
X346953Y15074D01*
X347351Y16035D01*
X347487Y17067D01*
X347351Y18099D01*
X346953Y19060D01*
X346319Y19886D01*
X345493Y20520D01*
X344532Y20918D01*
X344108Y20974D01*
X344141Y21474D01*
X352859D01*
X352892Y20974D01*
X352468Y20918D01*
X351507Y20520D01*
X350681Y19886D01*
X350047Y19060D01*
X349649Y18099D01*
X349513Y17067D01*
X349649Y16035D01*
X350047Y15074D01*
X350681Y14248D01*
X351507Y13614D01*
X352468Y13216D01*
X353500Y13080D01*
X354532Y13216D01*
X355493Y13614D01*
X356319Y14248D01*
X356953Y15074D01*
X357351Y16035D01*
X357487Y17067D01*
X357351Y18099D01*
X356953Y19060D01*
X356319Y19886D01*
X355493Y20520D01*
X354532Y20918D01*
X354108Y20974D01*
X354141Y21474D01*
X359436D01*
X359547Y21020D01*
X359547D01*
Y17567D01*
X363500D01*
Y17067D01*
X364000D01*
Y13114D01*
X367453D01*
Y13734D01*
X371000D01*
Y6250D01*
X291500D01*
Y13076D01*
X292000Y13410D01*
X292468Y13216D01*
X293000Y13146D01*
Y17067D01*
X293500D01*
Y17567D01*
X297421D01*
X297351Y18099D01*
X296953Y19060D01*
X296319Y19886D01*
X295780Y20300D01*
Y25664D01*
X299970D01*
Y18873D01*
X299649Y18099D01*
X299513Y17067D01*
X299649Y16035D01*
X300047Y15074D01*
X300681Y14248D01*
X301507Y13614D01*
X302468Y13216D01*
X303500Y13080D01*
X304532Y13216D01*
X305493Y13614D01*
X306319Y14248D01*
X306953Y15074D01*
X307351Y16035D01*
X307487Y17067D01*
X307351Y18099D01*
X307030Y18873D01*
Y25664D01*
X313201D01*
Y21014D01*
X312468Y20918D01*
X311507Y20520D01*
X310681Y19886D01*
X310047Y19060D01*
X309649Y18099D01*
X309513Y17067D01*
X309649Y16035D01*
X310047Y15074D01*
X310681Y14248D01*
X311507Y13614D01*
X312468Y13216D01*
X313500Y13080D01*
X314532Y13216D01*
X315493Y13614D01*
X316319Y14248D01*
X316953Y15074D01*
X317351Y16035D01*
X317487Y17067D01*
X317442Y17404D01*
X317552Y17515D01*
X318105Y18341D01*
X318299Y19317D01*
Y25664D01*
X318875D01*
Y31834D01*
X319938D01*
X319970Y31802D01*
D02*
G37*
G36*
X433720Y22786D02*
X432869Y22674D01*
X432018Y22321D01*
X431287Y21760D01*
X428651Y19125D01*
X427766Y18758D01*
X426930Y18117D01*
X426289Y17281D01*
X425886Y16308D01*
X425748Y15264D01*
X425886Y14220D01*
X426289Y13247D01*
X426930Y12411D01*
X427117Y12267D01*
X426957Y11794D01*
X422962D01*
X418453Y16304D01*
Y19217D01*
X416869D01*
X416534Y19661D01*
X416534Y19716D01*
X417319Y20319D01*
X417953Y21144D01*
X418351Y22106D01*
X418421Y22638D01*
X414500D01*
Y23638D01*
X418421D01*
X418351Y24170D01*
X417953Y25131D01*
X417475Y25753D01*
X417722Y26253D01*
X433720D01*
Y22786D01*
D02*
G37*
G36*
X243884Y10275D02*
X243693Y9813D01*
X240931D01*
X230677Y20066D01*
X229851Y20619D01*
X228875Y20813D01*
X222056D01*
X221232Y21636D01*
X221424Y22098D01*
X232061D01*
X243884Y10275D01*
D02*
G37*
G36*
X474607Y10893D02*
X474727Y9979D01*
X475080Y9128D01*
X475641Y8397D01*
X477325Y6712D01*
X477134Y6250D01*
X471000D01*
Y14734D01*
X474607D01*
Y10893D01*
D02*
G37*
G36*
X468500Y5750D02*
X458805D01*
X458598Y6250D01*
X463246Y10898D01*
X463807Y11629D01*
X464160Y12481D01*
X464280Y13394D01*
Y14734D01*
X468500D01*
Y5750D01*
D02*
G37*
%LPC*%
G36*
X228453Y170217D02*
X225000D01*
Y166764D01*
X228453D01*
Y170217D01*
D02*
G37*
G36*
X205000Y170185D02*
Y166764D01*
X208421D01*
X208351Y167296D01*
X207953Y168257D01*
X207319Y169083D01*
X206493Y169717D01*
X205532Y170115D01*
X205000Y170185D01*
D02*
G37*
G36*
X204000Y170185D02*
X203468Y170115D01*
X202507Y169717D01*
X201681Y169083D01*
X201047Y168257D01*
X200649Y167296D01*
X200579Y166764D01*
X204000D01*
Y170185D01*
D02*
G37*
G36*
X224000Y170217D02*
X220547D01*
Y166764D01*
X224000D01*
Y170217D01*
D02*
G37*
G36*
X204000Y165764D02*
X200579D01*
X200649Y165232D01*
X201047Y164270D01*
X201681Y163445D01*
X202507Y162811D01*
X203468Y162413D01*
X204000Y162343D01*
Y165764D01*
D02*
G37*
G36*
X208421D02*
X205000D01*
Y162343D01*
X205532Y162413D01*
X206493Y162811D01*
X207319Y163445D01*
X207953Y164270D01*
X208351Y165232D01*
X208421Y165764D01*
D02*
G37*
G36*
X224000D02*
X220547D01*
Y162311D01*
X224000D01*
Y165764D01*
D02*
G37*
G36*
X274000Y165685D02*
Y162264D01*
X277421D01*
X277351Y162796D01*
X276953Y163757D01*
X276319Y164583D01*
X275493Y165217D01*
X274532Y165615D01*
X274000Y165685D01*
D02*
G37*
G36*
X273000Y165685D02*
X272468Y165615D01*
X271507Y165217D01*
X270681Y164583D01*
X270047Y163757D01*
X269649Y162796D01*
X269579Y162264D01*
X273000D01*
Y165685D01*
D02*
G37*
G36*
X294000Y165685D02*
Y162264D01*
X297421D01*
X297351Y162796D01*
X296953Y163757D01*
X296319Y164583D01*
X295493Y165217D01*
X294532Y165615D01*
X294000Y165685D01*
D02*
G37*
G36*
X556268Y165217D02*
X548362D01*
Y157311D01*
X550650D01*
Y152185D01*
X548835D01*
Y147823D01*
X556543D01*
Y152185D01*
X554728D01*
Y157311D01*
X556268D01*
Y165217D01*
D02*
G37*
G36*
X562064Y134864D02*
X559439D01*
Y131764D01*
X562064D01*
Y134864D01*
D02*
G37*
G36*
X538064D02*
X535439D01*
Y131764D01*
X538064D01*
Y134864D01*
D02*
G37*
G36*
X562237Y119764D02*
X559612D01*
Y116664D01*
X562237D01*
Y119764D01*
D02*
G37*
G36*
X538189D02*
X535564D01*
Y116664D01*
X538189D01*
Y119764D01*
D02*
G37*
G36*
X557000Y98185D02*
Y94764D01*
X560421D01*
X560351Y95296D01*
X559953Y96257D01*
X559319Y97083D01*
X558493Y97716D01*
X557532Y98115D01*
X557000Y98185D01*
D02*
G37*
G36*
X556000D02*
X555468Y98115D01*
X554507Y97716D01*
X553681Y97083D01*
X553047Y96257D01*
X552649Y95296D01*
X552579Y94764D01*
X556000D01*
Y98185D01*
D02*
G37*
G36*
X560421Y93764D02*
X557000D01*
Y90343D01*
X557532Y90413D01*
X558493Y90811D01*
X559319Y91445D01*
X559953Y92270D01*
X560351Y93232D01*
X560421Y93764D01*
D02*
G37*
G36*
X556000D02*
X552579D01*
X552649Y93232D01*
X553047Y92270D01*
X553681Y91445D01*
X554507Y90811D01*
X555468Y90413D01*
X556000Y90343D01*
Y93764D01*
D02*
G37*
G36*
X546500Y98251D02*
X545468Y98115D01*
X544507Y97716D01*
X543681Y97083D01*
X543047Y96257D01*
X542649Y95296D01*
X542513Y94264D01*
X542649Y93232D01*
X543047Y92270D01*
X543681Y91445D01*
X544507Y90811D01*
X545468Y90413D01*
X546500Y90277D01*
X547532Y90413D01*
X548493Y90811D01*
X549319Y91445D01*
X549953Y92270D01*
X550351Y93232D01*
X550487Y94264D01*
X550351Y95296D01*
X549953Y96257D01*
X549319Y97083D01*
X548493Y97716D01*
X547532Y98115D01*
X546500Y98251D01*
D02*
G37*
G36*
X536500D02*
X535468Y98115D01*
X534694Y97794D01*
X528876D01*
X527962Y97674D01*
X527111Y97321D01*
X526380Y96760D01*
X521531Y91911D01*
X513750D01*
Y88311D01*
Y84711D01*
X522625D01*
Y84781D01*
X522923D01*
X523837Y84901D01*
X524688Y85254D01*
X525420Y85815D01*
X530338Y90734D01*
X534694D01*
X535468Y90413D01*
X536500Y90277D01*
X537532Y90413D01*
X538493Y90811D01*
X539319Y91445D01*
X539953Y92270D01*
X540351Y93232D01*
X540487Y94264D01*
X540351Y95296D01*
X539953Y96257D01*
X539319Y97083D01*
X538493Y97716D01*
X537532Y98115D01*
X536500Y98251D01*
D02*
G37*
G36*
X512750Y91911D02*
X510125D01*
Y88811D01*
X512750D01*
Y91911D01*
D02*
G37*
G36*
Y87811D02*
X510125D01*
Y84711D01*
X512750D01*
Y87811D01*
D02*
G37*
G36*
X556500Y88251D02*
X555468Y88115D01*
X554507Y87717D01*
X553681Y87083D01*
X553047Y86257D01*
X552649Y85296D01*
X552513Y84264D01*
X552649Y83232D01*
X553047Y82270D01*
X553681Y81445D01*
X554507Y80811D01*
X555468Y80413D01*
X556500Y80277D01*
X557532Y80413D01*
X558493Y80811D01*
X559319Y81445D01*
X559953Y82270D01*
X560351Y83232D01*
X560487Y84264D01*
X560351Y85296D01*
X559953Y86257D01*
X559319Y87083D01*
X558493Y87717D01*
X557532Y88115D01*
X556500Y88251D01*
D02*
G37*
G36*
X546500D02*
X545468Y88115D01*
X544507Y87717D01*
X543681Y87083D01*
X543047Y86257D01*
X542649Y85296D01*
X542513Y84264D01*
X542649Y83232D01*
X543047Y82270D01*
X543681Y81445D01*
X544507Y80811D01*
X545468Y80413D01*
X546500Y80277D01*
X547532Y80413D01*
X548493Y80811D01*
X549319Y81445D01*
X549953Y82270D01*
X550351Y83232D01*
X550487Y84264D01*
X550351Y85296D01*
X549953Y86257D01*
X549319Y87083D01*
X548493Y87717D01*
X547532Y88115D01*
X546500Y88251D01*
D02*
G37*
G36*
X552189Y63384D02*
X549564D01*
Y60283D01*
X552189D01*
Y63384D01*
D02*
G37*
G36*
X552564Y48283D02*
X549939D01*
Y45184D01*
X552564D01*
Y48283D01*
D02*
G37*
G36*
X563168Y31965D02*
X555460D01*
Y27602D01*
X557275D01*
Y22476D01*
X555361D01*
Y14571D01*
X563267D01*
Y22476D01*
X561353D01*
Y27602D01*
X563168D01*
Y31965D01*
D02*
G37*
G36*
X538980Y31705D02*
X531272D01*
Y27343D01*
X533087D01*
Y22217D01*
X531173D01*
Y14311D01*
X539079D01*
Y22217D01*
X537165D01*
Y27343D01*
X538980D01*
Y31705D01*
D02*
G37*
G36*
X419000Y165185D02*
Y161764D01*
X422421D01*
X422351Y162296D01*
X421953Y163257D01*
X421319Y164083D01*
X420493Y164716D01*
X419532Y165115D01*
X419000Y165185D01*
D02*
G37*
G36*
X472453Y165217D02*
X469000D01*
Y161764D01*
X472453D01*
Y165217D01*
D02*
G37*
G36*
X418000Y165185D02*
X417468Y165115D01*
X416507Y164716D01*
X415681Y164083D01*
X415047Y163257D01*
X414649Y162296D01*
X414579Y161764D01*
X418000D01*
Y165185D01*
D02*
G37*
G36*
X468000Y165217D02*
X464547D01*
Y161764D01*
X468000D01*
Y165217D01*
D02*
G37*
G36*
X418000Y160764D02*
X414579D01*
X414649Y160232D01*
X415047Y159270D01*
X415681Y158445D01*
X416507Y157811D01*
X417468Y157413D01*
X418000Y157343D01*
Y160764D01*
D02*
G37*
G36*
X422421D02*
X419000D01*
Y157343D01*
X419532Y157413D01*
X420493Y157811D01*
X421319Y158445D01*
X421953Y159270D01*
X422351Y160232D01*
X422421Y160764D01*
D02*
G37*
G36*
X472453D02*
X469000D01*
Y157311D01*
X472453D01*
Y160764D01*
D02*
G37*
G36*
X468000D02*
X464547D01*
Y157311D01*
X468000D01*
Y160764D01*
D02*
G37*
G36*
X509403Y165217D02*
X501497D01*
Y157311D01*
X503411D01*
Y152185D01*
X501595D01*
Y147823D01*
X509304D01*
Y152185D01*
X507489D01*
Y157311D01*
X509403D01*
Y165217D01*
D02*
G37*
G36*
X486178D02*
X478273D01*
Y157311D01*
X479934D01*
Y152185D01*
X478119D01*
Y147823D01*
X485828D01*
Y152185D01*
X484013D01*
Y157311D01*
X486178D01*
Y165217D01*
D02*
G37*
G36*
X491137Y134604D02*
X488512D01*
Y131504D01*
X491137D01*
Y134604D01*
D02*
G37*
G36*
X491262Y119504D02*
X488637D01*
Y116404D01*
X491262D01*
Y119504D01*
D02*
G37*
G36*
X172374Y152602D02*
X163500D01*
X154626D01*
Y150134D01*
X159970D01*
Y147409D01*
X154626D01*
Y144941D01*
X163500D01*
X172374D01*
Y147409D01*
X167030D01*
Y150134D01*
X172374D01*
Y152602D01*
D02*
G37*
G36*
X237295Y138434D02*
X219547D01*
Y138014D01*
X210760D01*
Y138434D01*
X193012D01*
Y132497D01*
X210760D01*
Y132917D01*
X219547D01*
Y132497D01*
X237295D01*
Y138434D01*
D02*
G37*
G36*
X367453Y165717D02*
X364000D01*
Y162264D01*
X367453D01*
Y165717D01*
D02*
G37*
G36*
X363000D02*
X359547D01*
Y162264D01*
X363000D01*
Y165717D01*
D02*
G37*
G36*
X367453Y161264D02*
X364000D01*
Y157811D01*
X367453D01*
Y161264D01*
D02*
G37*
G36*
X363000D02*
X359547D01*
Y157811D01*
X363000D01*
Y161264D01*
D02*
G37*
G36*
X353500Y165751D02*
X352468Y165615D01*
X351507Y165217D01*
X350681Y164583D01*
X350047Y163757D01*
X349649Y162796D01*
X349513Y161764D01*
X349649Y160732D01*
X350047Y159770D01*
X350681Y158945D01*
X351507Y158311D01*
X352468Y157913D01*
X353500Y157777D01*
X354532Y157913D01*
X355493Y158311D01*
X356319Y158945D01*
X356953Y159770D01*
X357351Y160732D01*
X357487Y161764D01*
X357351Y162796D01*
X356953Y163757D01*
X356319Y164583D01*
X355493Y165217D01*
X354532Y165615D01*
X353500Y165751D01*
D02*
G37*
G36*
X343500D02*
X342468Y165615D01*
X341507Y165217D01*
X340681Y164583D01*
X340047Y163757D01*
X339649Y162796D01*
X339513Y161764D01*
X339649Y160732D01*
X340047Y159770D01*
X340681Y158945D01*
X341507Y158311D01*
X342468Y157913D01*
X343500Y157777D01*
X344532Y157913D01*
X345493Y158311D01*
X346319Y158945D01*
X346953Y159770D01*
X347351Y160732D01*
X347487Y161764D01*
X347351Y162796D01*
X346953Y163757D01*
X346319Y164583D01*
X345493Y165217D01*
X344532Y165615D01*
X343500Y165751D01*
D02*
G37*
G36*
X333500D02*
X332468Y165615D01*
X331507Y165217D01*
X330681Y164583D01*
X330047Y163757D01*
X329649Y162796D01*
X329513Y161764D01*
X329649Y160732D01*
X330047Y159770D01*
X330681Y158945D01*
X331507Y158311D01*
X332468Y157913D01*
X333500Y157777D01*
X334532Y157913D01*
X335493Y158311D01*
X336319Y158945D01*
X336953Y159770D01*
X337351Y160732D01*
X337487Y161764D01*
X337351Y162796D01*
X336953Y163757D01*
X336319Y164583D01*
X335493Y165217D01*
X334532Y165615D01*
X333500Y165751D01*
D02*
G37*
G36*
X323500D02*
X322468Y165615D01*
X321507Y165217D01*
X320681Y164583D01*
X320047Y163757D01*
X319649Y162796D01*
X319513Y161764D01*
X319649Y160732D01*
X320047Y159770D01*
X320681Y158945D01*
X321507Y158311D01*
X322468Y157913D01*
X323500Y157777D01*
X324532Y157913D01*
X325493Y158311D01*
X326319Y158945D01*
X326953Y159770D01*
X327351Y160732D01*
X327487Y161764D01*
X327351Y162796D01*
X326953Y163757D01*
X326319Y164583D01*
X325493Y165217D01*
X324532Y165615D01*
X323500Y165751D01*
D02*
G37*
G36*
X386421Y141890D02*
X383000D01*
Y138469D01*
X383532Y138539D01*
X384493Y138937D01*
X385319Y139571D01*
X385953Y140396D01*
X386351Y141358D01*
X386421Y141890D01*
D02*
G37*
G36*
X331461Y135950D02*
Y134000D01*
X333411D01*
X333316Y134476D01*
X332763Y135302D01*
X331936Y135855D01*
X331461Y135950D01*
D02*
G37*
G36*
X330461D02*
X329985Y135855D01*
X329159Y135302D01*
X328606Y134476D01*
X328512Y134000D01*
X330461D01*
Y135950D01*
D02*
G37*
G36*
X333411Y133000D02*
X331461D01*
Y131051D01*
X331936Y131145D01*
X332763Y131698D01*
X333316Y132525D01*
X333411Y133000D01*
D02*
G37*
G36*
X330461D02*
X328512D01*
X328606Y132525D01*
X329159Y131698D01*
X329985Y131145D01*
X330461Y131051D01*
Y133000D01*
D02*
G37*
G36*
X16453Y168966D02*
X13000D01*
Y165514D01*
X16453D01*
Y168966D01*
D02*
G37*
G36*
X12000D02*
X8547D01*
Y165514D01*
X12000D01*
Y168966D01*
D02*
G37*
G36*
X16453Y164514D02*
X13000D01*
Y161061D01*
X16453D01*
Y164514D01*
D02*
G37*
G36*
X12000D02*
X8547D01*
Y161061D01*
X12000D01*
Y164514D01*
D02*
G37*
G36*
X12500Y159001D02*
X11468Y158865D01*
X10507Y158466D01*
X9681Y157833D01*
X9047Y157007D01*
X8649Y156046D01*
X8513Y155014D01*
X8649Y153982D01*
X9047Y153020D01*
X9681Y152195D01*
X10507Y151561D01*
X11468Y151163D01*
X12500Y151027D01*
X13532Y151163D01*
X14493Y151561D01*
X15319Y152195D01*
X15953Y153020D01*
X16351Y153982D01*
X16487Y155014D01*
X16351Y156046D01*
X15953Y157007D01*
X15319Y157833D01*
X14493Y158466D01*
X13532Y158865D01*
X12500Y159001D01*
D02*
G37*
G36*
X13000Y148935D02*
Y145514D01*
X16421D01*
X16351Y146046D01*
X15953Y147007D01*
X15319Y147833D01*
X14493Y148467D01*
X13532Y148865D01*
X13000Y148935D01*
D02*
G37*
G36*
X12000D02*
X11468Y148865D01*
X10507Y148467D01*
X9681Y147833D01*
X9047Y147007D01*
X8649Y146046D01*
X8579Y145514D01*
X12000D01*
Y148935D01*
D02*
G37*
G36*
X16421Y144514D02*
X13000D01*
Y141093D01*
X13532Y141163D01*
X14493Y141561D01*
X15319Y142195D01*
X15953Y143020D01*
X16351Y143982D01*
X16421Y144514D01*
D02*
G37*
G36*
X12000D02*
X8579D01*
X8649Y143982D01*
X9047Y143020D01*
X9681Y142195D01*
X10507Y141561D01*
X11468Y141163D01*
X12000Y141093D01*
Y144514D01*
D02*
G37*
G36*
X14453Y42217D02*
X11000D01*
Y38764D01*
X14453D01*
Y42217D01*
D02*
G37*
G36*
X10000D02*
X6547D01*
Y38764D01*
X10000D01*
Y42217D01*
D02*
G37*
G36*
X14453Y37764D02*
X11000D01*
Y34311D01*
X14453D01*
Y37764D01*
D02*
G37*
G36*
X10000D02*
X6547D01*
Y34311D01*
X10000D01*
Y37764D01*
D02*
G37*
G36*
X11000Y22185D02*
Y18764D01*
X14421D01*
X14351Y19296D01*
X13953Y20257D01*
X13319Y21083D01*
X12493Y21716D01*
X11532Y22115D01*
X11000Y22185D01*
D02*
G37*
G36*
X10000D02*
X9468Y22115D01*
X8507Y21716D01*
X7681Y21083D01*
X7047Y20257D01*
X6649Y19296D01*
X6579Y18764D01*
X10000D01*
Y22185D01*
D02*
G37*
G36*
X14421Y17764D02*
X11000D01*
Y14343D01*
X11532Y14413D01*
X12493Y14811D01*
X13319Y15445D01*
X13953Y16270D01*
X14351Y17232D01*
X14421Y17764D01*
D02*
G37*
G36*
X10000D02*
X6579D01*
X6649Y17232D01*
X7047Y16270D01*
X7681Y15445D01*
X8507Y14811D01*
X9468Y14413D01*
X10000Y14343D01*
Y17764D01*
D02*
G37*
G36*
X41743Y30883D02*
X39852D01*
X39753Y30864D01*
X39653D01*
X37798Y30495D01*
X37705Y30456D01*
X37607Y30437D01*
X35860Y29713D01*
X35776Y29657D01*
X35684Y29619D01*
X34111Y28568D01*
X34040Y28497D01*
X33957Y28442D01*
X32620Y27104D01*
X32564Y27021D01*
X32493Y26950D01*
X31442Y25378D01*
X31404Y25285D01*
X31348Y25201D01*
X30624Y23454D01*
X30605Y23356D01*
X30566Y23263D01*
X30197Y21408D01*
Y21308D01*
X30178Y21209D01*
Y19318D01*
X30197Y19220D01*
Y19119D01*
X30566Y17265D01*
X30605Y17172D01*
X30624Y17073D01*
X31348Y15326D01*
X31404Y15243D01*
X31442Y15150D01*
X32493Y13578D01*
X32564Y13507D01*
X32620Y13423D01*
X33957Y12086D01*
X34040Y12030D01*
X34111Y11959D01*
X35684Y10909D01*
X35776Y10870D01*
X35860Y10814D01*
X37607Y10091D01*
X37705Y10071D01*
X37798Y10033D01*
X39653Y9664D01*
X39753D01*
X39852Y9644D01*
X41743D01*
X41841Y9664D01*
X41942D01*
X43796Y10033D01*
X43889Y10071D01*
X43988Y10091D01*
X45735Y10814D01*
X45818Y10870D01*
X45911Y10909D01*
X47483Y11959D01*
X47554Y12030D01*
X47638Y12086D01*
X48975Y13423D01*
X49031Y13507D01*
X49102Y13578D01*
X50152Y15150D01*
X50191Y15243D01*
X50247Y15326D01*
X50970Y17073D01*
X50990Y17172D01*
X51028Y17265D01*
X51397Y19119D01*
Y19220D01*
X51417Y19318D01*
Y21209D01*
X51397Y21308D01*
Y21408D01*
X51028Y23263D01*
X50990Y23356D01*
X50970Y23454D01*
X50247Y25201D01*
X50191Y25285D01*
X50152Y25378D01*
X49102Y26950D01*
X49031Y27021D01*
X48975Y27104D01*
X47638Y28442D01*
X47554Y28497D01*
X47483Y28568D01*
X45911Y29619D01*
X45818Y29657D01*
X45735Y29713D01*
X43988Y30437D01*
X43889Y30456D01*
X43796Y30495D01*
X41942Y30864D01*
X41841D01*
X41743Y30883D01*
D02*
G37*
G36*
X61685Y114913D02*
X51620D01*
X51689Y114562D01*
X52172Y113841D01*
X52893Y113359D01*
X53744Y113190D01*
X56147D01*
X56500Y113119D01*
X56991D01*
X60732Y109378D01*
X60882Y109278D01*
Y107441D01*
X63350D01*
Y111000D01*
Y114559D01*
X62040D01*
X61685Y114913D01*
D02*
G37*
G36*
X358000Y110514D02*
X354900D01*
Y107889D01*
X358000D01*
Y110514D01*
D02*
G37*
G36*
X410858Y116688D02*
Y114739D01*
X412808D01*
X412713Y115214D01*
X412161Y116041D01*
X411334Y116594D01*
X410858Y116688D01*
D02*
G37*
G36*
X401500Y107258D02*
X400725Y107156D01*
X400003Y106857D01*
X399383Y106381D01*
X398907Y105761D01*
X398608Y105039D01*
X398506Y104264D01*
X398608Y103489D01*
X398907Y102767D01*
X399383Y102147D01*
X400003Y101671D01*
X400725Y101372D01*
X401500Y101270D01*
X402275Y101372D01*
X402997Y101671D01*
X403617Y102147D01*
X404093Y102767D01*
X404392Y103489D01*
X404494Y104264D01*
X404392Y105039D01*
X404093Y105761D01*
X403617Y106381D01*
X402997Y106857D01*
X402275Y107156D01*
X401500Y107258D01*
D02*
G37*
G36*
X180750Y124199D02*
Y122250D01*
X182700D01*
X182605Y122725D01*
X182052Y123552D01*
X181226Y124105D01*
X180750Y124199D01*
D02*
G37*
G36*
X179750D02*
X179274Y124105D01*
X178448Y123552D01*
X177895Y122725D01*
X177801Y122250D01*
X179750D01*
Y124199D01*
D02*
G37*
G36*
X182700Y121250D02*
X180750D01*
Y119300D01*
X181226Y119395D01*
X182052Y119948D01*
X182605Y120774D01*
X182700Y121250D01*
D02*
G37*
G36*
X179750D02*
X177801D01*
X177895Y120774D01*
X178448Y119948D01*
X179274Y119395D01*
X179750Y119300D01*
Y121250D01*
D02*
G37*
G36*
X243250Y116544D02*
Y114595D01*
X245199D01*
X245105Y115070D01*
X244552Y115897D01*
X243725Y116449D01*
X243250Y116544D01*
D02*
G37*
G36*
X242250D02*
X241775Y116449D01*
X240948Y115897D01*
X240395Y115070D01*
X240300Y114595D01*
X242250D01*
Y116544D01*
D02*
G37*
G36*
X245199Y113595D02*
X243250D01*
Y111645D01*
X243725Y111740D01*
X244552Y112292D01*
X245105Y113119D01*
X245199Y113595D01*
D02*
G37*
G36*
X242250D02*
X240300D01*
X240395Y113119D01*
X240948Y112292D01*
X241775Y111740D01*
X242250Y111645D01*
Y113595D01*
D02*
G37*
G36*
X513451Y134864D02*
X510826D01*
Y131764D01*
X513451D01*
Y134864D01*
D02*
G37*
G36*
Y119764D02*
X510826D01*
Y116664D01*
X513451D01*
Y119764D01*
D02*
G37*
G36*
X271980Y109666D02*
Y107717D01*
X273930D01*
X273835Y108192D01*
X273283Y109019D01*
X272456Y109572D01*
X271980Y109666D01*
D02*
G37*
G36*
X270980D02*
X270505Y109572D01*
X269678Y109019D01*
X269125Y108192D01*
X269031Y107717D01*
X270980D01*
Y109666D01*
D02*
G37*
G36*
X454318Y109201D02*
Y107252D01*
X456268D01*
X456173Y107727D01*
X455620Y108554D01*
X454794Y109107D01*
X454318Y109201D01*
D02*
G37*
G36*
X453318D02*
X452843Y109107D01*
X452016Y108554D01*
X451463Y107727D01*
X451369Y107252D01*
X453318D01*
Y109201D01*
D02*
G37*
G36*
X456268Y106252D02*
X454318D01*
Y104302D01*
X454794Y104397D01*
X455620Y104949D01*
X456173Y105777D01*
X456268Y106252D01*
D02*
G37*
G36*
X453318D02*
X451369D01*
X451463Y105777D01*
X452016Y104949D01*
X452843Y104397D01*
X453318Y104302D01*
Y106252D01*
D02*
G37*
G36*
X455445Y97883D02*
X453554D01*
X453456Y97864D01*
X453356D01*
X451501Y97495D01*
X451408Y97456D01*
X451310Y97437D01*
X449563Y96713D01*
X449479Y96657D01*
X449386Y96619D01*
X447814Y95568D01*
X447743Y95497D01*
X447659Y95442D01*
X446322Y94104D01*
X446267Y94021D01*
X446195Y93950D01*
X445145Y92378D01*
X445106Y92285D01*
X445051Y92201D01*
X444327Y90454D01*
X444307Y90356D01*
X444269Y90263D01*
X443900Y88408D01*
Y88308D01*
X443880Y88209D01*
Y86318D01*
X443900Y86220D01*
Y86119D01*
X444269Y84265D01*
X444307Y84172D01*
X444327Y84073D01*
X445051Y82326D01*
X445106Y82243D01*
X445145Y82150D01*
X446195Y80578D01*
X446266Y80507D01*
X446322Y80423D01*
X447659Y79086D01*
X447743Y79030D01*
X447814Y78959D01*
X449386Y77909D01*
X449479Y77870D01*
X449563Y77814D01*
X451310Y77091D01*
X451408Y77071D01*
X451501Y77033D01*
X453356Y76664D01*
X453456D01*
X453554Y76644D01*
X455445D01*
X455544Y76664D01*
X455644D01*
X457499Y77033D01*
X457592Y77071D01*
X457690Y77091D01*
X459438Y77814D01*
X459521Y77870D01*
X459614Y77909D01*
X461186Y78959D01*
X461257Y79030D01*
X461341Y79086D01*
X462678Y80423D01*
X462734Y80507D01*
X462805Y80578D01*
X463855Y82150D01*
X463894Y82243D01*
X463949Y82326D01*
X464673Y84073D01*
X464693Y84172D01*
X464731Y84265D01*
X465100Y86119D01*
Y86220D01*
X465120Y86318D01*
Y88209D01*
X465100Y88308D01*
Y88408D01*
X464731Y90263D01*
X464693Y90356D01*
X464673Y90454D01*
X463949Y92201D01*
X463894Y92285D01*
X463855Y92378D01*
X462805Y93950D01*
X462734Y94021D01*
X462678Y94104D01*
X461341Y95442D01*
X461257Y95497D01*
X461186Y95568D01*
X459614Y96619D01*
X459521Y96657D01*
X459438Y96713D01*
X457690Y97437D01*
X457592Y97456D01*
X457499Y97495D01*
X455644Y97864D01*
X455544D01*
X455445Y97883D01*
D02*
G37*
G36*
X503750Y63124D02*
X501125D01*
Y60024D01*
X503750D01*
Y63124D01*
D02*
G37*
G36*
X481500D02*
X478875D01*
Y60024D01*
X481500D01*
Y63124D01*
D02*
G37*
G36*
X503750Y48024D02*
X501125D01*
Y44924D01*
X503750D01*
Y48024D01*
D02*
G37*
G36*
X481500D02*
X478875D01*
Y44924D01*
X481500D01*
Y48024D01*
D02*
G37*
G36*
X514354Y31705D02*
X506646D01*
Y27343D01*
X508461D01*
Y22217D01*
X506547D01*
Y14311D01*
X514453D01*
Y22217D01*
X512539D01*
Y27343D01*
X514354D01*
Y31705D01*
D02*
G37*
G36*
X492205D02*
X484496D01*
Y27343D01*
X486311D01*
Y22217D01*
X484184D01*
Y14311D01*
X492090D01*
Y22217D01*
X490390D01*
Y27343D01*
X492205D01*
Y31705D01*
D02*
G37*
G36*
X126063Y87650D02*
X125588Y87556D01*
X124761Y87003D01*
X124208Y86176D01*
X124114Y85701D01*
X126063D01*
Y87650D01*
D02*
G37*
G36*
Y84701D02*
X124114D01*
X124208Y84225D01*
X124761Y83398D01*
X125588Y82846D01*
X126063Y82751D01*
Y84701D01*
D02*
G37*
G36*
X242750Y79764D02*
X240125D01*
Y76664D01*
X242750D01*
Y79764D01*
D02*
G37*
G36*
X453818Y32764D02*
X445182D01*
X445265Y32129D01*
X445703Y31072D01*
X445970Y30725D01*
Y22864D01*
X444000D01*
Y19264D01*
Y15664D01*
X446625D01*
Y15734D01*
X451375D01*
Y15664D01*
X454000D01*
Y19264D01*
Y22864D01*
X453030D01*
Y30725D01*
X453297Y31072D01*
X453735Y32129D01*
X453818Y32764D01*
D02*
G37*
G36*
X103870Y82398D02*
X97933D01*
Y64650D01*
X103870D01*
Y82398D01*
D02*
G37*
G36*
X252244Y44514D02*
X248500D01*
X244900D01*
Y41889D01*
X248381D01*
X253485Y36784D01*
X254230Y36287D01*
X255107Y36112D01*
X255886D01*
X255977Y36051D01*
X256453Y35957D01*
Y38406D01*
Y40856D01*
X255994Y40764D01*
X252244Y44514D01*
D02*
G37*
G36*
X88250Y62627D02*
Y60677D01*
X90200D01*
X90105Y61153D01*
X89552Y61980D01*
X88726Y62532D01*
X88250Y62627D01*
D02*
G37*
G36*
X87250D02*
X86774Y62532D01*
X85948Y61980D01*
X85395Y61153D01*
X85300Y60677D01*
X87250D01*
Y62627D01*
D02*
G37*
G36*
X90200Y59677D02*
X88250D01*
Y57728D01*
X88726Y57823D01*
X89552Y58375D01*
X90105Y59202D01*
X90200Y59677D01*
D02*
G37*
G36*
X87250D02*
X85300D01*
X85395Y59202D01*
X85948Y58375D01*
X86774Y57823D01*
X87250Y57728D01*
Y59677D01*
D02*
G37*
G36*
X528376Y63124D02*
X525751D01*
Y60024D01*
X528376D01*
Y63124D01*
D02*
G37*
G36*
X528314Y48283D02*
X525689D01*
Y45184D01*
X528314D01*
Y48283D01*
D02*
G37*
G36*
X303000Y51764D02*
X301050D01*
X301145Y51288D01*
X301698Y50461D01*
X302525Y49909D01*
X303000Y49814D01*
Y51764D01*
D02*
G37*
G36*
X228421Y45920D02*
X201886D01*
X200972Y45800D01*
X200121Y45447D01*
X200005Y45358D01*
X193012D01*
Y39421D01*
X200005D01*
X200121Y39333D01*
X200972Y38980D01*
X201886Y38860D01*
X228421D01*
X229335Y38980D01*
X230186Y39333D01*
X230302Y39421D01*
X237295D01*
Y45358D01*
X230302D01*
X230186Y45447D01*
X229335Y45800D01*
X228421Y45920D01*
D02*
G37*
G36*
X172374Y37358D02*
X154626D01*
Y36939D01*
X150850D01*
X150675Y36904D01*
X150500Y36939D01*
X149525Y36745D01*
X148698Y36192D01*
X148145Y35365D01*
X147951Y34390D01*
X148145Y33414D01*
X148698Y32587D01*
X149525Y32035D01*
X150500Y31841D01*
X150675Y31876D01*
X150850Y31841D01*
X154626D01*
Y31421D01*
X172374D01*
Y37358D01*
D02*
G37*
G36*
X145839Y25228D02*
X136965D01*
X128091D01*
Y22760D01*
X133434D01*
Y20035D01*
X128091D01*
Y17567D01*
X136965D01*
X145839D01*
Y20035D01*
X140495D01*
Y22760D01*
X145839D01*
Y25228D01*
D02*
G37*
G36*
X228421Y11764D02*
X225000D01*
Y8343D01*
X225532Y8413D01*
X226493Y8811D01*
X227319Y9445D01*
X227953Y10270D01*
X228351Y11232D01*
X228421Y11764D01*
D02*
G37*
G36*
X224000D02*
X220579D01*
X220649Y11232D01*
X221047Y10270D01*
X221681Y9445D01*
X222507Y8811D01*
X223468Y8413D01*
X224000Y8343D01*
Y11764D01*
D02*
G37*
G36*
X208453D02*
X205000D01*
Y8311D01*
X208453D01*
Y11764D01*
D02*
G37*
G36*
X204000D02*
X200547D01*
Y8311D01*
X204000D01*
Y11764D01*
D02*
G37*
G36*
X254000Y20988D02*
Y17567D01*
X257421D01*
X257351Y18099D01*
X256953Y19060D01*
X256319Y19886D01*
X255493Y20520D01*
X254532Y20918D01*
X254000Y20988D01*
D02*
G37*
G36*
X253000Y20988D02*
X252468Y20918D01*
X251507Y20520D01*
X250681Y19886D01*
X250047Y19060D01*
X249649Y18099D01*
X249579Y17567D01*
X253000D01*
Y20988D01*
D02*
G37*
G36*
X277421Y16567D02*
X274000D01*
Y13146D01*
X274532Y13216D01*
X275493Y13614D01*
X276319Y14248D01*
X276953Y15074D01*
X277351Y16035D01*
X277421Y16567D01*
D02*
G37*
G36*
X105500Y15699D02*
Y13750D01*
X107449D01*
X107355Y14225D01*
X106802Y15052D01*
X105975Y15605D01*
X105500Y15699D01*
D02*
G37*
G36*
X104500D02*
X104025Y15605D01*
X103198Y15052D01*
X102645Y14225D01*
X102550Y13750D01*
X104500D01*
Y15699D01*
D02*
G37*
G36*
X107449Y12750D02*
X105500D01*
Y10801D01*
X105975Y10895D01*
X106802Y11448D01*
X107355Y12275D01*
X107449Y12750D01*
D02*
G37*
G36*
X104500D02*
X102550D01*
X102645Y12275D01*
X103198Y11448D01*
X104025Y10895D01*
X104500Y10801D01*
Y12750D01*
D02*
G37*
G36*
X297421Y16567D02*
X294000D01*
Y13146D01*
X294532Y13216D01*
X295493Y13614D01*
X296319Y14248D01*
X296953Y15074D01*
X297351Y16035D01*
X297421Y16567D01*
D02*
G37*
G36*
X363000D02*
X359547D01*
Y13114D01*
X363000D01*
Y16567D01*
D02*
G37*
%LPD*%
D12*
X305500Y54264D02*
X341248D01*
X303500Y52264D02*
X305500Y54264D01*
X341248D02*
X344500Y51012D01*
X383467Y121389D02*
X390617Y114239D01*
X410358D01*
X382500Y121264D02*
X383341D01*
X383467Y121389D01*
X354497Y125764D02*
X369020D01*
X365371Y82710D02*
X381558D01*
X352930Y70269D02*
X365371Y82710D01*
X364543Y84710D02*
X379547D01*
X349500Y96264D02*
Y120767D01*
X354497Y125764D01*
X337695Y84459D02*
X349500Y96264D01*
X347500Y97264D02*
Y121389D01*
X336695Y86459D02*
X347500Y97264D01*
X263447Y86459D02*
X336695D01*
X262619Y84459D02*
X337695D01*
X348149Y82459D02*
X360376Y94685D01*
X261790Y82459D02*
X348149D01*
X348978Y80459D02*
X361229Y92710D01*
X260962Y80459D02*
X348978D01*
X349806Y78459D02*
X362058Y90710D01*
X260134Y78459D02*
X349806D01*
X350635Y76459D02*
X362886Y88710D01*
X259305Y76459D02*
X350635D01*
X351463Y74459D02*
X363715Y86710D01*
X258305Y74459D02*
X351463D01*
X352102Y72269D02*
X364543Y84710D01*
X257495Y72269D02*
X352102D01*
X251980Y70269D02*
X352930D01*
X353759Y68269D02*
X366200Y80710D01*
X251152Y68269D02*
X353759D01*
X354587Y66269D02*
X367028Y78710D01*
X250323Y66269D02*
X354587D01*
X367857Y76710D02*
X391195D01*
X355415Y64269D02*
X367857Y76710D01*
X249495Y64269D02*
X355415D01*
X394535Y76809D02*
X401599D01*
X392634Y78710D02*
X394535Y76809D01*
X393096Y74809D02*
X403099D01*
X391195Y76710D02*
X393096Y74809D01*
X367028Y78710D02*
X392634D01*
X366200Y80710D02*
X383947D01*
X363715Y86710D02*
X368917D01*
X362058Y90710D02*
X367260D01*
X361229Y92710D02*
X366432D01*
X362886Y88710D02*
X368089D01*
X244063Y85701D02*
X257495Y72269D01*
X243126Y89638D02*
X258305Y74459D01*
X220421Y89638D02*
X243126D01*
X242189Y93575D02*
X259305Y76459D01*
X220421Y93575D02*
X242189D01*
X241080Y97512D02*
X260134Y78459D01*
X220421Y97512D02*
X241080D01*
X240157Y101264D02*
X260962Y80459D01*
X165126Y101264D02*
X240157D01*
X240674Y103575D02*
X261790Y82459D01*
X157831Y103575D02*
X240674D01*
X241503Y105575D02*
X262619Y84459D01*
X165540Y105575D02*
X241503D01*
X242331Y107575D02*
X263447Y86459D01*
X170608Y107575D02*
X242331D01*
X249690Y72559D02*
X251980Y70269D01*
X231750Y72559D02*
X249690D01*
X225388Y78921D02*
X231750Y72559D01*
X248862Y70559D02*
X251152Y68269D01*
X230922Y70559D02*
X248862D01*
X224559Y76921D02*
X230922Y70559D01*
X229328Y68559D02*
X248033D01*
X222966Y74921D02*
X229328Y68559D01*
X248033D02*
X250323Y66269D01*
X247205Y66559D02*
X249495Y64269D01*
X228500Y66559D02*
X247205D01*
X222138Y72921D02*
X228500Y66559D01*
X220421Y85701D02*
X244063D01*
X171795Y78921D02*
X225388D01*
X170966Y76921D02*
X224559D01*
X166734Y111449D02*
X170608Y107575D01*
X163603Y107512D02*
X165540Y105575D01*
X157831Y107512D02*
X163603D01*
X163500Y99638D02*
X165126Y101264D01*
X157831Y111449D02*
X166734D01*
X157831Y99638D02*
X163500D01*
X165515Y85201D02*
X171795Y78921D01*
X157831Y85201D02*
X165515D01*
X164851Y73390D02*
X165320Y72921D01*
X157831Y73390D02*
X164851D01*
X166624Y81264D02*
X170966Y76921D01*
X170138Y74921D02*
X222966D01*
X167732Y77327D02*
X170138Y74921D01*
X165320Y72921D02*
X222138D01*
X157831Y81264D02*
X166624D01*
X157831Y77327D02*
X167732D01*
D15*
X421500Y8264D02*
X437000D01*
X414500Y15264D02*
X421500Y8264D01*
X389000Y17264D02*
X394303D01*
X381500D02*
X389000D01*
X460750Y13394D02*
Y19264D01*
X455620Y8264D02*
X460750Y13394D01*
X437000Y8264D02*
X455620D01*
X429783Y15264D02*
X433783Y19264D01*
X437250D01*
X429783Y44484D02*
X442986D01*
X429783D02*
Y48783D01*
X424909Y38264D02*
X429783Y43138D01*
Y48783D02*
X436695Y55695D01*
X442986Y44484D02*
X446207Y41264D01*
X449500Y37971D01*
X446207Y41719D02*
X455500Y51012D01*
X446207Y41264D02*
Y41719D01*
X449500Y33264D02*
Y37971D01*
X242071Y156764D02*
X242331D01*
X316500Y35364D02*
X321400D01*
X370142Y72710D02*
X370696D01*
X436695Y75264D02*
Y80264D01*
Y55695D02*
Y70000D01*
Y75264D01*
X418500Y76725D02*
X421057Y79282D01*
X418500Y68264D02*
Y76725D01*
X292250Y29264D02*
Y30000D01*
Y18317D02*
Y29264D01*
X449000Y19264D02*
X454500D01*
X443500D02*
X449000D01*
X218799Y68264D02*
X221000D01*
X228421Y60843D01*
X385500Y64559D02*
X396500D01*
X449000Y19264D02*
X449500Y19764D01*
X519520Y105327D02*
Y140284D01*
X321400Y35364D02*
X323500Y33264D01*
Y25004D02*
Y33264D01*
X381500Y27264D02*
X394610D01*
Y23317D02*
Y27264D01*
Y23264D02*
Y23317D01*
X332984Y34514D02*
X364500D01*
X324234Y43264D02*
X332984Y34514D01*
X319500Y43264D02*
X324234D01*
X323500Y25004D02*
X362240D01*
X364500Y27264D01*
X327500Y50264D02*
X334626Y43138D01*
X313752Y50264D02*
X327500D01*
X309500Y46012D02*
X313752Y50264D01*
X436374Y80264D02*
X436695D01*
X354587Y138264D02*
X365521D01*
X369647Y142390D01*
X385500Y70809D02*
X396500D01*
X394610Y28264D02*
Y46264D01*
Y27264D02*
Y28264D01*
X405000D02*
X406520Y29783D01*
X394610Y28264D02*
X405000D01*
X500500Y8264D02*
Y18264D01*
Y7264D02*
Y8264D01*
X481766Y7264D02*
X500500D01*
X478137Y10893D02*
X481766Y7264D01*
X369647Y142390D02*
X382500D01*
X370696Y72710D02*
X378847Y64559D01*
X385500D01*
X128591Y35193D02*
X136161D01*
X136965Y34390D01*
X187890Y63153D02*
X192000Y67264D01*
X168500Y63153D02*
X187890D01*
X240000Y154693D02*
X242071Y156764D01*
X240000Y145014D02*
Y154693D01*
X153921Y161764D02*
X163500D01*
X364500Y50264D02*
X371669D01*
X384669Y37264D01*
X394500Y23317D02*
X394610D01*
X326663Y105427D02*
X330047D01*
X320375Y99139D02*
X326663Y105427D01*
X315500Y99139D02*
X320375D01*
X303446Y99085D02*
X303500Y99139D01*
X285240Y99085D02*
X303446D01*
X309500Y99139D02*
X315500D01*
X303500D02*
X309500D01*
X303500Y105389D02*
X305500Y107389D01*
X292250Y18317D02*
X293500Y17067D01*
X418500Y38264D02*
X424909D01*
X460750Y19264D02*
X461750Y18264D01*
X478137D01*
X201886Y42390D02*
X228421D01*
X193465Y33728D02*
X201886D01*
X188500Y28764D02*
X193465Y33728D01*
X188500Y21264D02*
Y28764D01*
Y21264D02*
X190500Y19264D01*
X212303D01*
X214500Y17067D01*
Y12264D02*
Y17067D01*
X303500Y29264D02*
X309500D01*
X298500D02*
X303500D01*
X298500D02*
Y33264D01*
X303500Y17067D02*
Y29264D01*
X521056Y144264D02*
Y152727D01*
X515450Y158334D02*
X521056Y152727D01*
X515450Y158334D02*
Y161264D01*
X519520Y30633D02*
Y71284D01*
Y30633D02*
X525126Y25027D01*
Y18264D02*
Y25027D01*
X528876Y94264D02*
X536500D01*
X522923Y88311D02*
X528876Y94264D01*
X519500Y88311D02*
X522923D01*
X515500Y169264D02*
X538500D01*
X496500D02*
X515500D01*
X515450Y169214D02*
X515500Y169264D01*
X515450Y161264D02*
Y169214D01*
X538500Y169264D02*
X558250D01*
X538500D02*
X538689Y169075D01*
Y161264D02*
Y169075D01*
X562315Y161264D02*
Y165199D01*
X558250Y169264D02*
X562315Y165199D01*
X492225Y164989D02*
X496500Y169264D01*
X492225Y161264D02*
Y164989D01*
X500500Y8264D02*
X525500D01*
X546500D01*
X525126Y8638D02*
X525500Y8264D01*
X525126Y8638D02*
Y18264D01*
X549314Y11078D02*
Y18524D01*
X546500Y8264D02*
X549314Y11078D01*
X478137Y10893D02*
Y18264D01*
X243500Y62264D02*
X247500Y58264D01*
X395545Y58264D01*
X396500Y57309D01*
X228421Y54988D02*
Y60843D01*
X305500Y107389D02*
Y121843D01*
X291921Y128264D02*
X305500Y141842D01*
X286500Y128264D02*
X291921D01*
X295671Y122014D02*
X305500Y131843D01*
X286500Y122014D02*
X295671D01*
X275500Y128264D02*
Y135264D01*
Y122264D02*
Y128264D01*
X286500D01*
X263500Y122264D02*
X275500D01*
X283500Y42264D02*
Y45014D01*
Y42264D02*
X289500Y36264D01*
X295500D01*
X298500Y33264D01*
X334626Y43138D02*
X344500D01*
X309500Y43264D02*
Y46012D01*
Y29264D02*
Y43264D01*
X221975Y112264D02*
X228421Y118710D01*
X201886Y59650D02*
X210500Y68264D01*
X206685Y113264D02*
X207685Y112264D01*
X201886Y118063D02*
X206685Y113264D01*
X207685Y112264D02*
X212350D01*
X218650D02*
X221975D01*
X163500Y153102D02*
Y161764D01*
Y144441D02*
Y153102D01*
X136965Y25728D02*
Y34390D01*
Y17067D02*
Y25728D01*
X210500Y68264D02*
X212500D01*
X201886Y54988D02*
Y59650D01*
X228421Y118710D02*
Y122867D01*
X201886Y118063D02*
Y122867D01*
X152650Y120264D02*
X156260D01*
X163500Y127504D01*
Y131843D01*
X143650Y120264D02*
X146350D01*
X136965Y126949D02*
X143650Y120264D01*
X136965Y126949D02*
Y131843D01*
X126500Y122413D02*
Y125413D01*
X120071Y131843D02*
X126500Y125413D01*
X113500Y131843D02*
X120071D01*
X118185Y105307D02*
X126500Y113622D01*
X113500Y105307D02*
X118185D01*
X163500Y46988D02*
Y51264D01*
X155500Y59264D02*
X163500Y51264D01*
X153650Y59264D02*
X155500D01*
X144000D02*
X147350D01*
X136965Y52228D02*
X144000Y59264D01*
X136965Y46988D02*
Y52228D01*
X126500Y63413D02*
Y66264D01*
X119240Y73524D02*
X126500Y66264D01*
X113500Y73524D02*
X119240D01*
X126500Y54559D02*
Y57114D01*
X118929Y46988D02*
X126500Y54559D01*
X113500Y46988D02*
X118929D01*
X402484Y46264D02*
X410484Y38264D01*
X418500D01*
X407500Y70809D02*
X415955D01*
X396500D02*
X407500D01*
X449500Y19764D02*
Y33264D01*
X410374Y23138D02*
X414500D01*
X404303Y17067D02*
X410374Y23138D01*
X394500Y17067D02*
X404303D01*
X437250Y31014D02*
X439500Y33264D01*
X436020Y29783D02*
X437250Y31014D01*
X406520Y29783D02*
X436020D01*
X437250Y19264D02*
Y31014D01*
X459500Y33264D02*
X460750Y32014D01*
Y19264D02*
Y32014D01*
X396500Y57309D02*
Y64559D01*
Y57309D02*
X402484Y51325D01*
Y46264D02*
Y51325D01*
X364500Y34514D02*
X370010D01*
X377260Y27264D01*
X381500D01*
X363697Y17264D02*
X364500Y18067D01*
X363500Y17067D02*
X363697Y17264D01*
X364500Y18067D02*
Y27264D01*
X363697Y17264D02*
X381500D01*
X394303D02*
X394500Y17067D01*
D40*
X34925Y130413D02*
D03*
D41*
Y125413D02*
D03*
Y120413D02*
D03*
Y115413D02*
D03*
X56500Y130413D02*
D03*
Y125413D02*
D03*
Y120413D02*
D03*
Y115413D02*
D03*
D42*
X418331Y115091D02*
D03*
Y113122D02*
D03*
Y111153D02*
D03*
Y107217D02*
D03*
Y109185D02*
D03*
Y105248D02*
D03*
Y103279D02*
D03*
Y99343D02*
D03*
Y101311D02*
D03*
Y97374D02*
D03*
Y95406D02*
D03*
Y93437D02*
D03*
X384669Y113122D02*
D03*
Y115091D02*
D03*
Y109185D02*
D03*
Y111153D02*
D03*
Y107217D02*
D03*
Y105248D02*
D03*
Y101311D02*
D03*
Y99343D02*
D03*
Y103279D02*
D03*
Y97374D02*
D03*
Y95406D02*
D03*
Y93437D02*
D03*
D43*
X412327Y121095D02*
D03*
X410358D02*
D03*
X406421D02*
D03*
X408390D02*
D03*
X402484D02*
D03*
X404453D02*
D03*
X410358Y87433D02*
D03*
X412327D02*
D03*
X408390D02*
D03*
X406421D02*
D03*
X404453D02*
D03*
X402484D02*
D03*
X398547Y121095D02*
D03*
X400516D02*
D03*
X392642D02*
D03*
X394610D02*
D03*
X390673D02*
D03*
X396579D02*
D03*
X400516Y87433D02*
D03*
X398547D02*
D03*
X396579D02*
D03*
X390673D02*
D03*
X394610D02*
D03*
X392642D02*
D03*
D44*
X401500Y104264D02*
D03*
D45*
X220421Y89638D02*
D03*
Y85701D02*
D03*
Y97512D02*
D03*
Y93575D02*
D03*
X199555Y97512D02*
D03*
Y93575D02*
D03*
Y89638D02*
D03*
Y85701D02*
D03*
Y81764D02*
D03*
X37500Y76559D02*
D03*
Y71559D02*
D03*
Y66559D02*
D03*
Y61559D02*
D03*
Y56559D02*
D03*
Y51559D02*
D03*
Y46559D02*
D03*
X58445Y76559D02*
D03*
Y71559D02*
D03*
Y66559D02*
D03*
Y61559D02*
D03*
Y56559D02*
D03*
Y51559D02*
D03*
X157831Y99638D02*
D03*
Y103575D02*
D03*
Y107512D02*
D03*
Y111449D02*
D03*
X136965Y95701D02*
D03*
Y99638D02*
D03*
Y103575D02*
D03*
Y107512D02*
D03*
Y111449D02*
D03*
X157831Y73390D02*
D03*
Y77327D02*
D03*
Y81264D02*
D03*
Y85201D02*
D03*
X136965Y69453D02*
D03*
Y73390D02*
D03*
Y77327D02*
D03*
Y81264D02*
D03*
Y85201D02*
D03*
D46*
X220421Y81764D02*
D03*
X58445Y46559D02*
D03*
X157831Y95701D02*
D03*
Y69453D02*
D03*
D47*
X239625Y80264D02*
D03*
X233375D02*
D03*
X519500Y88311D02*
D03*
X513250D02*
D03*
X488250Y48524D02*
D03*
X482000D02*
D03*
X488250Y59524D02*
D03*
X482000D02*
D03*
X488250Y70524D02*
D03*
X482000D02*
D03*
X510500Y48524D02*
D03*
X504250D02*
D03*
X510500Y59524D02*
D03*
X504250D02*
D03*
X510500Y70264D02*
D03*
X504250D02*
D03*
X535064Y48783D02*
D03*
X528814D02*
D03*
X535126Y59524D02*
D03*
X528876D02*
D03*
X535126Y70524D02*
D03*
X528876D02*
D03*
X559314Y48783D02*
D03*
X553064D02*
D03*
X558939Y59784D02*
D03*
X552689D02*
D03*
X558939Y70524D02*
D03*
X552689D02*
D03*
X528689Y131264D02*
D03*
X534939D02*
D03*
X528814Y120264D02*
D03*
X535064D02*
D03*
X528689Y109264D02*
D03*
X534939D02*
D03*
X552689Y131264D02*
D03*
X558939D02*
D03*
X552862Y120264D02*
D03*
X559112D02*
D03*
X552689Y109264D02*
D03*
X558939D02*
D03*
X482100Y109004D02*
D03*
X488350D02*
D03*
X481762Y131004D02*
D03*
X488012D02*
D03*
X481887Y120004D02*
D03*
X488137D02*
D03*
X504076Y120264D02*
D03*
X510326D02*
D03*
X504076Y109004D02*
D03*
X510326D02*
D03*
X504076Y131264D02*
D03*
X510326D02*
D03*
X30750Y145264D02*
D03*
X24500D02*
D03*
X454500Y19264D02*
D03*
X460750D02*
D03*
X443500D02*
D03*
X437250D02*
D03*
X455113Y119264D02*
D03*
X448863D02*
D03*
X421057Y79282D02*
D03*
X427307D02*
D03*
X438750Y119264D02*
D03*
X432500D02*
D03*
X298500Y29264D02*
D03*
X292250D02*
D03*
X309500D02*
D03*
X315750D02*
D03*
X285500Y146264D02*
D03*
X291750D02*
D03*
X88625Y30959D02*
D03*
X82375D02*
D03*
D48*
X174799Y95701D02*
D03*
X168500D02*
D03*
X212350Y112264D02*
D03*
X218650D02*
D03*
X146350Y120264D02*
D03*
X152650D02*
D03*
X153650Y59264D02*
D03*
X147350D02*
D03*
X218799Y68264D02*
D03*
X212500D02*
D03*
X70150Y111000D02*
D03*
X63850D02*
D03*
D49*
X113500Y131843D02*
D03*
X100902D02*
D03*
X92240D02*
D03*
X83579D02*
D03*
Y105307D02*
D03*
X92240D02*
D03*
X100902D02*
D03*
X113500D02*
D03*
Y73524D02*
D03*
X100902D02*
D03*
X92240D02*
D03*
X83579D02*
D03*
Y46988D02*
D03*
X92240D02*
D03*
X100902D02*
D03*
X113500D02*
D03*
D50*
X228421Y122867D02*
D03*
Y135466D02*
D03*
Y144127D02*
D03*
Y152788D02*
D03*
X201886D02*
D03*
Y144127D02*
D03*
Y135466D02*
D03*
Y122867D02*
D03*
Y54988D02*
D03*
Y42390D02*
D03*
Y33728D02*
D03*
Y25067D02*
D03*
X228421D02*
D03*
Y33728D02*
D03*
Y42390D02*
D03*
Y54988D02*
D03*
X136965Y46988D02*
D03*
Y34390D02*
D03*
Y25728D02*
D03*
Y17067D02*
D03*
X163500D02*
D03*
Y25728D02*
D03*
Y34390D02*
D03*
Y46988D02*
D03*
Y131843D02*
D03*
Y144441D02*
D03*
Y153102D02*
D03*
Y161764D02*
D03*
X136965D02*
D03*
Y153102D02*
D03*
Y144441D02*
D03*
Y131843D02*
D03*
D51*
X68500Y161264D02*
D03*
Y155014D02*
D03*
X23500Y77809D02*
D03*
Y71559D02*
D03*
X12500Y97264D02*
D03*
Y91014D02*
D03*
X66400Y123775D02*
D03*
Y130025D02*
D03*
X12500Y130538D02*
D03*
Y124288D02*
D03*
Y113538D02*
D03*
Y107288D02*
D03*
X24500Y130538D02*
D03*
Y124288D02*
D03*
Y113538D02*
D03*
Y107288D02*
D03*
X283500Y45014D02*
D03*
Y51264D02*
D03*
X394500Y17067D02*
D03*
Y23317D02*
D03*
X407500Y70809D02*
D03*
Y64559D02*
D03*
X385500Y70809D02*
D03*
Y64559D02*
D03*
X358500Y111014D02*
D03*
Y117264D02*
D03*
X396500Y64559D02*
D03*
Y70809D02*
D03*
X248500Y51264D02*
D03*
Y45014D02*
D03*
X272500Y51264D02*
D03*
Y45014D02*
D03*
X260500Y51264D02*
D03*
Y45014D02*
D03*
X364500Y34514D02*
D03*
Y28264D02*
D03*
X303500Y105389D02*
D03*
Y99139D02*
D03*
X315500Y105389D02*
D03*
Y99139D02*
D03*
X275500Y135264D02*
D03*
Y141514D02*
D03*
X286500Y122014D02*
D03*
Y128264D02*
D03*
X263500Y122264D02*
D03*
Y116014D02*
D03*
X275500Y122264D02*
D03*
Y116014D02*
D03*
X82500Y14014D02*
D03*
Y20264D02*
D03*
X23500Y61310D02*
D03*
Y55060D02*
D03*
Y45248D02*
D03*
Y38998D02*
D03*
X12500Y77809D02*
D03*
Y71559D02*
D03*
Y55309D02*
D03*
Y61559D02*
D03*
D52*
X168500Y63153D02*
D03*
Y69453D02*
D03*
X126500Y116114D02*
D03*
Y122413D02*
D03*
Y57114D02*
D03*
Y63413D02*
D03*
X67500Y83965D02*
D03*
Y90264D02*
D03*
D53*
X488350Y29524D02*
D03*
Y37004D02*
D03*
X479098Y33264D02*
D03*
X510500Y29524D02*
D03*
Y37004D02*
D03*
X501248Y33264D02*
D03*
X535126Y29524D02*
D03*
Y37004D02*
D03*
X525874Y33264D02*
D03*
X559314Y29783D02*
D03*
Y37264D02*
D03*
X550062Y33524D02*
D03*
X528689Y150004D02*
D03*
Y142524D02*
D03*
X537941Y146264D02*
D03*
X552689Y150004D02*
D03*
Y142524D02*
D03*
X561941Y146264D02*
D03*
X481973Y150004D02*
D03*
Y142524D02*
D03*
X491225Y146264D02*
D03*
X505450Y150004D02*
D03*
Y142524D02*
D03*
X514702Y146264D02*
D03*
D54*
X278500Y35264D02*
D03*
X282240Y27784D02*
D03*
X274760D02*
D03*
X261500Y35264D02*
D03*
X265240Y27784D02*
D03*
X257760D02*
D03*
X263500Y106565D02*
D03*
X267240Y99085D02*
D03*
X259760D02*
D03*
X281500Y106565D02*
D03*
X285240Y99085D02*
D03*
X277760D02*
D03*
D55*
X62000Y155014D02*
X68500D01*
X59000Y158014D02*
X62000Y155014D01*
X59000Y158014D02*
Y170000D01*
X389000Y17264D02*
X389350Y16914D01*
Y10000D02*
Y16914D01*
X43500Y115122D02*
Y120413D01*
X30750Y145264D02*
X50500D01*
X559112Y131091D02*
Y131264D01*
X136965Y111449D02*
Y114037D01*
X134888Y116114D02*
X136965Y114037D01*
X133000Y116114D02*
X134888D01*
X76174Y35264D02*
X76429D01*
X80734Y30959D01*
X553064Y48783D02*
Y59408D01*
X552689Y59784D02*
X553064Y59408D01*
X528876Y48845D02*
Y59524D01*
X504250Y48524D02*
Y59524D01*
X482000Y48524D02*
Y59524D01*
X534939Y131264D02*
X535064Y131139D01*
Y120264D02*
Y131139D01*
X559112Y120264D02*
Y131091D01*
X488012Y120129D02*
X488137Y120004D01*
X488012Y120129D02*
Y131004D01*
X248500Y45014D02*
X255107Y38406D01*
X256953D01*
X267697Y11264D02*
X273500Y17067D01*
X267500Y11264D02*
X267697D01*
X64762Y125413D02*
X66400Y123775D01*
X56500Y125413D02*
X64762D01*
X41000Y120413D02*
X43500D01*
X34925D02*
X41000D01*
X34925D02*
Y125413D01*
X62354Y111000D02*
X63850D01*
X57941Y115413D02*
X62354Y111000D01*
X70150D02*
Y112803D01*
Y105913D02*
Y111000D01*
Y112803D02*
X71559Y114213D01*
X67500Y103264D02*
X70150Y105913D01*
X71559Y114213D02*
Y147004D01*
X68500Y150063D02*
X71559Y147004D01*
X68500Y150063D02*
Y155014D01*
X79059Y91197D02*
Y148413D01*
X97909Y167264D01*
X153650Y59264D02*
Y63559D01*
X150850Y66358D02*
X153650Y63559D01*
X83579Y119185D02*
Y131843D01*
Y119185D02*
X87910Y114854D01*
Y87673D02*
Y114854D01*
X100902Y105307D02*
Y118862D01*
X98669Y121095D02*
X100902Y118862D01*
X89669Y121095D02*
X98669D01*
X87910Y122854D02*
X89669Y121095D01*
X83579Y83342D02*
X87910Y87673D01*
X120240Y6264D02*
X129642D01*
X111500Y15004D02*
X120240Y6264D01*
X111500Y15004D02*
Y23264D01*
X96571Y38193D02*
X111500Y23264D01*
X92240Y37524D02*
X93500Y36264D01*
Y21728D02*
Y36264D01*
X92240Y37524D02*
Y46988D01*
X80734Y30959D02*
X82375D01*
X30500Y63559D02*
X33500Y66559D01*
X30500Y59264D02*
Y63559D01*
Y59264D02*
X33205Y56559D01*
X37500D02*
X42953D01*
X48500Y51012D01*
X204224Y97512D02*
X204976Y98264D01*
X199555Y97512D02*
X204224D01*
X281500Y106565D02*
Y110014D01*
X43500Y120413D02*
X56500D01*
X6500Y92264D02*
X7750Y91014D01*
X6500Y92264D02*
Y112122D01*
X7750Y91014D02*
X12500D01*
X32916D01*
X6500Y112122D02*
X7916Y113538D01*
X12500Y97264D02*
Y107288D01*
X56500Y115413D02*
X57941D01*
X67500Y94764D02*
Y103264D01*
X7916Y113538D02*
X12500D01*
X50500Y72264D02*
Y76264D01*
X44795Y66559D02*
X50500Y72264D01*
X37500Y66559D02*
X44795D01*
X33205Y56559D02*
X37500D01*
X33500Y66559D02*
X37500D01*
X67500Y91413D02*
Y94764D01*
X47500D02*
X67500D01*
X47500Y91014D02*
Y94764D01*
X44797Y88311D02*
X47500Y91014D01*
X35619Y88311D02*
X44797D01*
X32916Y91014D02*
X35619Y88311D01*
X35666Y98723D02*
X39626Y94764D01*
X35666Y98723D02*
Y107288D01*
X43500Y115122D01*
X24500Y107288D02*
X35666D01*
X56500Y115413D02*
Y120413D01*
X12500Y107288D02*
X24500D01*
X96571Y38193D02*
Y61488D01*
X87910Y122854D02*
Y142673D01*
X192806Y148458D02*
X214306D01*
X528814Y48783D02*
X528876Y48845D01*
X558939Y131264D02*
X559112Y131091D01*
X488012Y131004D02*
X488137Y130879D01*
X231875Y81764D02*
X233375Y80264D01*
X275500Y116014D02*
X281500Y110014D01*
X263500Y106565D02*
Y116014D01*
X126563Y85201D02*
X136965D01*
X183500Y95701D02*
X185689D01*
X174799D02*
X183500D01*
X204976Y89638D02*
X209500Y85114D01*
X199555Y89638D02*
X204976D01*
X207189Y93575D02*
X210500Y90264D01*
X189500Y89264D02*
X189803D01*
X193366Y85701D01*
X199555D01*
X187500Y97512D02*
X199555D01*
X185689Y95701D02*
X187500Y97512D01*
X190500Y83264D02*
X192000Y81764D01*
X199555D01*
Y93575D02*
X207189D01*
X133592Y122413D02*
X143152Y112854D01*
X126500Y122413D02*
X133592D01*
X152650Y114841D02*
Y120264D01*
X150850Y113041D02*
X152650Y114841D01*
X150850Y101264D02*
Y113041D01*
X145287Y95701D02*
X150850Y101264D01*
X136965Y95701D02*
X145287D01*
X146350Y120264D02*
X146652Y119963D01*
Y103931D02*
Y119963D01*
X142358Y99638D02*
X146652Y103931D01*
X136965Y99638D02*
X142358D01*
X143152Y105726D02*
Y112854D01*
X141000Y103575D02*
X143152Y105726D01*
X136965Y103575D02*
X141000D01*
X126500Y113622D02*
X132610Y107512D01*
X136965D01*
X150850Y66358D02*
Y74158D01*
X144182Y80827D02*
X150850Y74158D01*
X137402Y80827D02*
X144182D01*
X136965Y81264D02*
X137402Y80827D01*
X147350Y59264D02*
Y72709D01*
X142732Y77327D02*
X147350Y72709D01*
X136965Y77327D02*
X142732D01*
X126500Y57114D02*
X128591D01*
X135240Y63764D01*
X138867D01*
X126500Y63413D02*
X132539Y69453D01*
X136965D01*
X138867Y63764D02*
X143152Y68048D01*
Y71238D01*
X141000Y73390D02*
X143152Y71238D01*
X136965Y73390D02*
X141000D01*
X220421Y81764D02*
X231875D01*
X157831Y95701D02*
X168500D01*
X157831Y69453D02*
X168500D01*
D56*
X43000Y153264D02*
X50500D01*
X28500D02*
X43000D01*
Y170000D01*
X427307Y57070D02*
Y79282D01*
X418500Y48264D02*
X427307Y57070D01*
X510326Y120264D02*
Y131264D01*
X271480Y100480D02*
Y107217D01*
X270085Y99085D02*
X271480Y100480D01*
X267240Y99085D02*
X270085D01*
X55343Y31264D02*
X56376D01*
X53000Y33607D02*
X55343Y31264D01*
X53000Y33607D02*
Y34640D01*
X48640Y39000D02*
X53000Y34640D01*
X32614Y39000D02*
X48640D01*
X56376Y31264D02*
X72362Y15278D01*
X60764Y35264D02*
X67500Y42000D01*
X57000Y35264D02*
X60764D01*
X72362Y13402D02*
Y15278D01*
X67500Y42000D02*
Y52560D01*
X79224Y46988D02*
X83579D01*
X67500Y35264D02*
X79224Y46988D01*
X67500Y33264D02*
Y35264D01*
X65500Y130413D02*
X66012D01*
X56500D02*
X65500D01*
X66012D02*
X66400Y130025D01*
X74750Y150526D02*
Y156514D01*
Y150526D02*
X75309Y149967D01*
Y95073D02*
Y149967D01*
X73500Y93264D02*
X75309Y95073D01*
X75059Y87197D02*
X79059Y91197D01*
X67500Y52560D02*
X70000Y55060D01*
X33114Y46559D02*
X37500D01*
X25553Y38998D02*
X33114Y46559D01*
X23500Y38998D02*
X25553D01*
X21877Y28264D02*
X32614Y39000D01*
X10500Y28264D02*
X21877D01*
X57000Y40000D02*
X58445Y41445D01*
Y46559D01*
X105500Y144441D02*
X136965D01*
X97417D02*
X105500D01*
X92240Y83772D02*
X97726Y89257D01*
X100994D01*
X105500Y93764D01*
X90500Y18728D02*
X93500Y21728D01*
X90500Y10664D02*
Y18728D01*
X88100Y8264D02*
X90500Y10664D01*
X77500Y8264D02*
X88100D01*
X124500Y14130D02*
X126563Y12067D01*
X124500Y14130D02*
Y25264D01*
X126563Y12067D02*
X149224D01*
X157965Y25728D02*
X163500D01*
X151500Y19264D02*
X157965Y25728D01*
X151500Y14343D02*
Y19264D01*
X149224Y12067D02*
X151500Y14343D01*
X275500Y144921D02*
X292343Y161764D01*
X292915Y155689D02*
X300925D01*
X285500Y148274D02*
X292915Y155689D01*
X285500Y146264D02*
Y148274D01*
X98339Y153102D02*
X136965D01*
X87910Y142673D02*
X98339Y153102D01*
X68500Y161264D02*
X70809D01*
X74750Y157323D01*
Y156514D02*
Y157323D01*
Y156514D02*
X80000Y161764D01*
X76174Y20264D02*
X82500D01*
X67500Y28938D02*
X76174Y20264D01*
X67500Y28938D02*
Y33264D01*
X72362Y13402D02*
X77500Y8264D01*
X37669Y46390D02*
X47500D01*
X37500Y46559D02*
X37669Y46390D01*
X115250Y34514D02*
X124500Y25264D01*
X108053Y34514D02*
X115250D01*
X100902Y41665D02*
X108053Y34514D01*
X129642Y6264D02*
X159500D01*
X438750Y119264D02*
X448863D01*
X427927Y88710D02*
X436374Y80264D01*
X365371Y118435D02*
X367100Y120164D01*
X365371Y114994D02*
Y118435D01*
X361392Y111014D02*
X365371Y114994D01*
X367100Y120164D02*
X370800D01*
X358500Y111014D02*
X361392D01*
X260500Y45014D02*
X262619Y42895D01*
Y36383D02*
Y42895D01*
X261500Y35264D02*
X262619Y36383D01*
X257697Y11264D02*
X263500Y17067D01*
X246500Y11264D02*
X257697D01*
X279500Y7264D02*
X283500Y11264D01*
X239875Y7264D02*
X279500D01*
X228875Y18264D02*
X239875Y7264D01*
X245789Y161764D02*
X251241Y156311D01*
X240000Y161764D02*
X245789D01*
X231025Y152788D02*
X240000Y161764D01*
X278047Y156311D02*
X283500Y161764D01*
X251241Y156311D02*
X278047D01*
X228421Y152788D02*
X231025D01*
X237375Y167264D02*
X258000D01*
X228375Y158264D02*
X237375Y167264D01*
X220500Y158264D02*
X228375D01*
X61500Y139264D02*
Y146264D01*
Y139264D02*
X65500Y135264D01*
Y130413D02*
Y135264D01*
X292343Y161764D02*
X293500D01*
X275500Y141514D02*
Y144921D01*
X382500Y150264D02*
Y157922D01*
X371159Y169264D02*
X382500Y157922D01*
X306500Y169264D02*
X371159D01*
X303500Y166264D02*
X306500Y169264D01*
X303500Y161764D02*
Y166264D01*
X60500Y83965D02*
X67500D01*
X41788Y130413D02*
X46500Y125701D01*
X34925Y130413D02*
X41788D01*
X24500Y149264D02*
X28500Y153264D01*
X24500Y145264D02*
Y149264D01*
Y130538D02*
Y145264D01*
X54646Y66559D02*
X58445D01*
X50500Y62413D02*
X54646Y66559D01*
X50500Y55309D02*
Y62413D01*
X51740Y83264D02*
X58445Y76559D01*
X80000Y161764D02*
X83579D01*
X78500Y77709D02*
X79059Y78268D01*
X74500Y79366D02*
X75059Y79925D01*
X79059Y78268D02*
Y84823D01*
X75059Y79925D02*
Y87197D01*
X79059Y84823D02*
X83579Y89342D01*
X74500Y53264D02*
Y79366D01*
X78500Y59264D02*
Y77709D01*
X65795Y56559D02*
X70500Y61264D01*
X58445Y56559D02*
X65795D01*
X67500Y65413D02*
Y83965D01*
X63646Y61559D02*
X67500Y65413D01*
X83579Y73524D02*
Y83342D01*
Y89342D02*
Y105307D01*
X58445Y61559D02*
X63646D01*
X58445Y46559D02*
Y51559D01*
Y71559D02*
Y76559D01*
X17992Y83264D02*
X51740D01*
X12537Y77809D02*
X17992Y83264D01*
X12500Y77809D02*
X12537D01*
X24500Y113538D02*
X26375Y115413D01*
X34925D01*
X34800Y130538D02*
X34925Y130413D01*
X24500Y130538D02*
X34800D01*
X12500D02*
X24500D01*
X12500Y113538D02*
Y124288D01*
X24500Y113538D02*
Y124288D01*
X23500Y77809D02*
X36250D01*
X37500Y76559D01*
X23500Y71559D02*
X37500D01*
X12500D02*
X23500D01*
X12500Y61559D02*
Y71559D01*
X23500Y51264D02*
Y55060D01*
Y45248D02*
Y51264D01*
X23795Y51559D01*
X37500D01*
X150850Y34390D02*
X163500D01*
X78500Y59264D02*
X83579Y54185D01*
X97909Y167264D02*
X109500D01*
X115000Y161764D01*
X136965D01*
X83579Y46988D02*
Y54185D01*
X68500Y161264D02*
X69000Y161764D01*
X100000D02*
X103579D01*
X83579Y145343D02*
X100000Y161764D01*
X83579Y131843D02*
Y145343D01*
X100902Y41665D02*
Y46988D01*
X163500Y10264D02*
Y17067D01*
X159500Y6264D02*
X163500Y10264D01*
X92240Y65819D02*
X96571Y61488D01*
X92240Y65819D02*
Y73524D01*
X105500Y93764D02*
Y144441D01*
X92240Y73524D02*
Y83772D01*
Y126548D02*
Y131843D01*
Y139264D01*
X97417Y144441D01*
X136965Y161764D02*
X146850D01*
X153350Y168264D01*
X174500D01*
X180500Y162264D01*
Y153453D02*
Y162264D01*
Y153453D02*
X189826Y144127D01*
X201886D01*
X258000Y167264D02*
X263500Y161764D01*
X215025Y152788D02*
X220500Y158264D01*
X201886Y152788D02*
X215025D01*
X218637Y144127D02*
X228421D01*
X214306Y148458D02*
X218637Y144127D01*
X189803Y151461D02*
X192806Y148458D01*
X189803Y151461D02*
Y156567D01*
X191500Y158264D01*
X211500D01*
X214500Y161264D01*
Y166264D01*
X201886Y135466D02*
X228421D01*
X163697Y17264D02*
X182500D01*
X163500Y17067D02*
X163697Y17264D01*
X213500Y33728D02*
X228421D01*
X232697Y25067D02*
X246500Y11264D01*
X228421Y25067D02*
X232697D01*
X283500Y11264D02*
Y17067D01*
X221000Y18264D02*
X228875D01*
X214197Y25067D02*
X221000Y18264D01*
X201886Y25067D02*
X214197D01*
X315750Y19317D02*
Y29264D01*
X313500Y17067D02*
X315750Y19317D01*
X310877Y131843D02*
X315500Y127219D01*
Y105389D02*
Y127219D01*
X285500Y142264D02*
Y146264D01*
Y142264D02*
X288374Y139390D01*
X294500D01*
X297500Y142390D01*
Y145589D01*
X299600Y147689D01*
X312075D01*
X313500Y146264D01*
X291750D02*
X297175Y151689D01*
X304185D01*
X313500Y161004D01*
X300925Y155689D02*
X303500Y158264D01*
X313500Y134466D02*
Y146264D01*
X310877Y131843D02*
X313500Y134466D01*
X305500Y131843D02*
X310877D01*
X313500Y161004D02*
Y161764D01*
X303500Y158264D02*
Y161764D01*
X291500Y51264D02*
X299500Y43264D01*
X283500Y51264D02*
X291500D01*
X272500Y37524D02*
Y45014D01*
Y37524D02*
X274760Y35264D01*
X278500D01*
X272500Y51264D02*
X283500D01*
X260500D02*
X272500D01*
X248500D02*
X260500D01*
X407500Y64559D02*
X413795Y58264D01*
X418500D01*
D57*
X285764Y29264D02*
X292250D01*
X284283Y27784D02*
X285764Y29264D01*
X282240Y27784D02*
X284283D01*
X280264Y23028D02*
X282240Y25004D01*
X265240Y25524D02*
X267736Y23028D01*
X280264D01*
X50500Y127264D02*
Y145264D01*
Y127264D02*
X52500Y125264D01*
X52650Y125413D01*
X56500D01*
X282240Y25004D02*
Y27784D01*
X265240Y25524D02*
Y27784D01*
X71000Y61764D02*
Y79264D01*
X70500Y61264D02*
X71000Y61764D01*
X524500Y141217D02*
X525807Y142524D01*
X524500Y124578D02*
Y141217D01*
Y124578D02*
X528814Y120264D01*
X514702Y141264D02*
Y146264D01*
X511702Y138264D02*
X514702Y141264D01*
X510500Y59524D02*
X514625Y55399D01*
X513500Y37004D02*
X514625Y38129D01*
Y55399D01*
X488137Y18264D02*
X488350Y18477D01*
Y29524D01*
X510500Y18264D02*
Y29524D01*
X535126Y18264D02*
Y29524D01*
X559314Y18524D02*
Y29783D01*
Y37264D02*
X562760D01*
X564500Y39004D01*
Y54223D01*
X558939Y59784D02*
X564500Y54223D01*
X535126Y37004D02*
X538429D01*
X540500Y39075D01*
Y54150D01*
X535126Y59524D02*
X540500Y54150D01*
X510500Y37004D02*
X513500D01*
X488350D02*
X492225D01*
X493500Y38278D01*
Y54274D01*
X488250Y59524D02*
X493500Y54274D01*
X550062Y33524D02*
Y38971D01*
X553355Y42264D01*
X556374D01*
X559314Y45204D01*
Y48783D01*
X525874Y33264D02*
Y38971D01*
X529293Y42390D01*
X532626D01*
X535064Y44828D01*
Y48783D01*
X501248Y33264D02*
Y39012D01*
X503500Y41264D01*
X506462D01*
X510500Y45302D01*
Y48524D01*
X479098Y33264D02*
Y39596D01*
X480766Y41264D01*
X484374D01*
X488250Y45140D01*
Y48524D01*
X558939Y59784D02*
Y70524D01*
X535126Y59524D02*
Y70524D01*
X510500Y59524D02*
Y70264D01*
X488250Y59524D02*
Y70524D01*
X552315Y161264D02*
X552689Y160890D01*
Y150004D02*
Y160890D01*
X528689Y150004D02*
Y161264D01*
X505450Y150004D02*
Y161264D01*
X481973Y161012D02*
X482225Y161264D01*
X481973Y150004D02*
Y161012D01*
X525807Y142524D02*
X528689D01*
X549500D02*
X552689D01*
X547500Y140524D02*
X549500Y142524D01*
X547500Y125626D02*
Y140524D01*
Y125626D02*
X552862Y120264D01*
X479760Y142524D02*
X481973D01*
X476500Y139264D02*
X479760Y142524D01*
X476500Y125391D02*
Y139264D01*
X502500Y142524D02*
X505450D01*
X499500Y139524D02*
X502500Y142524D01*
X499500Y124840D02*
Y139524D01*
Y124840D02*
X504076Y120264D01*
X476500Y125391D02*
X481887Y120004D01*
X561941Y140705D02*
Y146264D01*
X559500Y138264D02*
X561941Y140705D01*
X555500Y138264D02*
X559500D01*
X552689Y135453D02*
X555500Y138264D01*
X552689Y131264D02*
Y135453D01*
X537941Y141594D02*
Y146264D01*
X534611Y138264D02*
X537941Y141594D01*
X531500Y138264D02*
X534611D01*
X528689Y135453D02*
X531500Y138264D01*
X528689Y131264D02*
Y135453D01*
X506500Y138264D02*
X511702D01*
X504076Y135840D02*
X506500Y138264D01*
X504076Y131264D02*
Y135840D01*
X491225Y141153D02*
Y146264D01*
X488336Y138264D02*
X491225Y141153D01*
X484500Y138264D02*
X488336D01*
X481887Y135651D02*
X484500Y138264D01*
X481887Y131129D02*
Y135651D01*
X481762Y131004D02*
X481887Y131129D01*
X552689Y120091D02*
X552862Y120264D01*
X552689Y109264D02*
Y120091D01*
X528689Y120139D02*
X528814Y120264D01*
X528689Y109264D02*
Y120139D01*
X504076Y109004D02*
Y120264D01*
X481887Y120004D02*
X482100Y119790D01*
Y109004D02*
Y119790D01*
X534939Y105014D02*
Y109264D01*
Y104841D02*
Y105014D01*
X558939Y106014D02*
Y109264D01*
X555664Y102739D02*
X558939Y106014D01*
X537041Y102739D02*
X555664D01*
X534939Y104841D02*
X537041Y102739D01*
X510326Y104602D02*
Y109004D01*
X508462Y102739D02*
X510326Y104602D01*
X490336Y102739D02*
X508462D01*
X488350Y104724D02*
X490336Y102739D01*
X488350Y104724D02*
Y109004D01*
D58*
X368089Y107000D02*
Y107361D01*
X372177Y111449D01*
X371944Y105248D02*
X384669D01*
X368000Y101304D02*
X371944Y105248D01*
X368000Y100480D02*
Y101304D01*
X410358Y83786D02*
X412043Y82102D01*
X414500D01*
X424581Y86240D02*
Y90264D01*
Y86240D02*
X427307Y83514D01*
Y79282D02*
Y83514D01*
X266953Y37619D02*
X269500Y35071D01*
Y29764D02*
Y35071D01*
Y29764D02*
X271480Y27784D01*
X455113Y115600D02*
Y119264D01*
X453051Y113538D02*
X455113Y115600D01*
X439535Y113538D02*
X453051D01*
X425339Y99343D02*
X439535Y113538D01*
X433500Y110490D02*
Y113122D01*
X429257Y106247D02*
X433500Y110490D01*
X429257Y106212D02*
Y106247D01*
X424374Y101330D02*
X429257Y106212D01*
X421707Y101330D02*
X424374D01*
X421689Y101311D02*
X421707Y101330D01*
X418331Y101311D02*
X421689D01*
X466750Y102225D02*
Y116225D01*
X459512Y123464D02*
X466750Y116225D01*
X428700Y123464D02*
X459512D01*
X468700Y103033D02*
Y117033D01*
X460319Y125414D02*
X468700Y117033D01*
X427408Y125414D02*
X460319D01*
X470650Y103841D02*
Y117841D01*
X461127Y127364D02*
X470650Y117841D01*
X426600Y127364D02*
X461127D01*
X472600Y104648D02*
Y118648D01*
X461935Y129314D02*
X472600Y118648D01*
X425550Y129314D02*
X461935D01*
X474550Y105456D02*
Y119456D01*
X462742Y131264D02*
X474550Y119456D01*
X424500Y131264D02*
X462742D01*
X476500Y106264D02*
Y120264D01*
X463500Y133264D02*
X476500Y120264D01*
X422015Y133264D02*
X463500D01*
X430275Y117039D02*
X432500Y119264D01*
X430275Y110023D02*
Y117039D01*
X428325Y123089D02*
X428700Y123464D01*
X428325Y110831D02*
Y123089D01*
X426206Y124212D02*
X427408Y125414D01*
X426206Y112389D02*
Y124212D01*
X424256Y125020D02*
X426600Y127364D01*
X424256Y113197D02*
Y125020D01*
X422306Y126069D02*
X425550Y129314D01*
X422306Y114005D02*
Y126069D01*
X418331Y125094D02*
X424500Y131264D01*
X418331Y115091D02*
Y125094D01*
X427307Y107055D02*
X430275Y110023D01*
X427307Y107020D02*
Y107055D01*
X423566Y103279D02*
X427307Y107020D01*
X482000Y70524D02*
Y86975D01*
X466750Y102225D02*
X482000Y86975D01*
X495369Y76364D02*
X498150D01*
X468700Y103033D02*
X495369Y76364D01*
X496177Y78314D02*
X521086D01*
X470650Y103841D02*
X496177Y78314D01*
X496985Y80264D02*
X525563D01*
X472600Y104648D02*
X496985Y80264D01*
X479742Y100264D02*
X530189D01*
X474550Y105456D02*
X479742Y100264D01*
X412327Y123575D02*
X422015Y133264D01*
X476500Y106264D02*
X480500Y102264D01*
X493500Y97264D02*
X508328Y82435D01*
X410358Y108405D02*
Y114239D01*
Y108405D02*
X413516Y105248D01*
X418331D01*
X391769Y99283D02*
Y105427D01*
Y99283D02*
X398547Y92505D01*
Y87433D02*
Y92505D01*
X390617Y113644D02*
Y114239D01*
X388127Y111153D02*
X390617Y113644D01*
X384669Y111153D02*
X388127D01*
X391769Y107512D01*
Y105427D02*
Y107512D01*
X370800Y120164D02*
X371427D01*
X380437Y111153D01*
X259760Y98094D02*
X262207D01*
X377575Y118003D02*
Y120932D01*
X374932Y123575D02*
X377575Y120932D01*
X364811Y123575D02*
X374932D01*
X377575Y118003D02*
X380590Y114988D01*
X379525Y118847D02*
Y121878D01*
X375640Y125764D02*
X379525Y121878D01*
X369020Y125764D02*
X375640D01*
X379525Y118847D02*
X381109Y117264D01*
X380590Y113802D02*
Y114988D01*
Y113802D02*
X381270Y113122D01*
X358500Y117264D02*
X364811Y123575D01*
X381109Y117264D02*
X383500D01*
X384669Y116095D01*
Y115091D02*
Y116095D01*
X383324Y89257D02*
X386744D01*
X389350Y91864D01*
X395500D01*
X396579Y90785D01*
Y87433D02*
Y90785D01*
X389562Y87433D02*
X390673D01*
X386839Y84710D02*
X389562Y87433D01*
X379547Y84710D02*
X386839D01*
X381558Y82710D02*
X391012D01*
X391769Y80710D02*
X394573Y83514D01*
X394592Y83720D02*
Y87433D01*
X383947Y80710D02*
X391769D01*
X430715Y92441D02*
X432500Y94226D01*
X425500Y92441D02*
X430715D01*
X422535Y95406D02*
X425500Y92441D01*
X426390Y97374D02*
X427500Y96264D01*
X418331Y97374D02*
X426390D01*
X421408Y93437D02*
X424581Y90264D01*
X418331Y99343D02*
X425339D01*
X418331Y103279D02*
X423566D01*
X424711Y107217D02*
X428325Y110831D01*
X418331Y107217D02*
X424711D01*
X423020Y109204D02*
X426206Y112389D01*
X418349Y109204D02*
X423020D01*
X422212Y111153D02*
X424256Y113197D01*
X418331Y111153D02*
X422212D01*
X418331Y109185D02*
X418349Y109204D01*
Y113141D02*
X421405D01*
X418331Y113122D02*
X418349Y113141D01*
X421405D02*
X421423Y113122D01*
X422306Y114005D01*
X373500Y102017D02*
X374762Y103279D01*
X384669D01*
X360376Y94685D02*
X371348D01*
X377974Y101311D01*
X366432Y92710D02*
X372823D01*
X379449Y99336D01*
X367260Y90710D02*
X373927D01*
X380590Y97374D01*
X368089Y88710D02*
X374882D01*
X379449Y99336D02*
X384663D01*
X368917Y86710D02*
X376185D01*
X382911Y93437D01*
X373500Y108264D02*
X376812D01*
X377878Y107198D01*
X384651D01*
X372177Y111449D02*
X376726D01*
X378990Y109185D01*
X384669D01*
X384651Y95387D02*
X384669Y95406D01*
X374882Y88710D02*
X381558Y95387D01*
X384651D01*
X382911Y93437D02*
X384669D01*
X380590Y97374D02*
X384669D01*
X354351Y128411D02*
X386214D01*
X347500Y121560D02*
X354351Y128411D01*
X347500Y121389D02*
Y121560D01*
X352312Y130361D02*
X387022D01*
X345500Y123549D02*
X352312Y130361D01*
X345500Y98645D02*
Y123549D01*
X386214Y128411D02*
X390673Y123952D01*
Y121095D02*
Y123952D01*
X350716Y132311D02*
X387830D01*
X387022Y130361D02*
X392623Y124760D01*
X343500Y125095D02*
X350716Y132311D01*
X387830D02*
X394592Y125549D01*
X381270Y113122D02*
X384669D01*
X335288Y88434D02*
X345500Y98645D01*
X343500Y99426D02*
Y125095D01*
X334458Y90384D02*
X343500Y99426D01*
X330281Y92334D02*
X335500Y97553D01*
X279001Y92334D02*
X330281D01*
X276481Y94854D02*
X279001Y92334D01*
X326349Y94284D02*
X335345Y103279D01*
X279902Y94284D02*
X326349D01*
X277760Y96425D02*
X279902Y94284D01*
X276680Y90384D02*
X334458Y90384D01*
X335345Y103279D02*
X340500D01*
X397500Y81264D02*
X400516Y84280D01*
X396600Y81264D02*
X397500D01*
X394573Y83701D02*
X394592Y83720D01*
X394573Y83514D02*
Y83701D01*
X392642Y84527D02*
Y87433D01*
X392623Y84509D02*
X392642Y84527D01*
X392623Y84322D02*
Y84509D01*
X391012Y82710D02*
X392623Y84322D01*
X401400Y79825D02*
X402484Y80909D01*
X401599Y76809D02*
X403964D01*
X404453Y77298D01*
Y87433D01*
X403099Y74809D02*
X405500D01*
X406421Y75730D01*
X410358Y83786D02*
Y87433D01*
X408390Y82874D02*
X411500Y79764D01*
X408390Y82874D02*
Y87433D01*
X411500Y77845D02*
Y79764D01*
X406421Y75730D02*
Y87433D01*
X400516Y84280D02*
Y87433D01*
X402484Y80909D02*
Y87433D01*
X412327D02*
X418500D01*
X412327Y121095D02*
Y123575D01*
X418331Y95406D02*
X422535D01*
X271480Y27784D02*
X274760D01*
X251500Y29524D02*
X253240Y27784D01*
X257760D01*
X269500Y90264D02*
X271330Y88434D01*
X275200Y91864D02*
X276680Y90384D01*
X265448Y94854D02*
X276481D01*
X262207Y98094D02*
X265448Y94854D01*
X271330Y88434D02*
X335288Y88434D01*
X277760Y96425D02*
Y98094D01*
X394592Y121113D02*
Y125549D01*
Y121113D02*
X394610Y121095D01*
X392623Y121113D02*
Y124760D01*
Y121113D02*
X392642Y121095D01*
X377974Y101311D02*
X384669D01*
X380437Y111153D02*
X384669D01*
X384651Y107198D02*
X384669Y107217D01*
X384667Y105246D02*
X384669Y105248D01*
X403500Y161264D02*
X408500Y156264D01*
Y142264D02*
Y156264D01*
X398547Y132311D02*
X408500Y142264D01*
X396579Y121095D02*
X396597Y121113D01*
Y133119D01*
X403500Y140022D01*
Y151264D01*
X398547Y121095D02*
Y132311D01*
X418331Y93437D02*
X421408D01*
X394592Y87433D02*
X394610D01*
X384663Y99336D02*
X384669Y99343D01*
X508328Y82435D02*
X526672D01*
X528500Y84264D01*
X536500D01*
X530189Y100264D02*
X534939Y105014D01*
X546949Y76264D02*
X552689Y70524D01*
X529563Y76264D02*
X546949D01*
X525563Y80264D02*
X529563Y76264D01*
X498150Y76364D02*
X504250Y70264D01*
X521086Y78314D02*
X528876Y70524D01*
X488350Y104602D02*
Y104724D01*
X486012Y102264D02*
X488350Y104602D01*
X480500Y102264D02*
X486012D01*
X446439Y149202D02*
X458500Y161264D01*
X429133Y149202D02*
X446439D01*
X456489Y147252D02*
X458500Y149264D01*
X430489Y147252D02*
X456489D01*
X425258Y139264D02*
X458500D01*
X410377Y124383D02*
X425258Y139264D01*
X410377Y121113D02*
Y124383D01*
X410358Y121095D02*
X410377Y121113D01*
X408390Y125154D02*
X430489Y147252D01*
X408390Y121095D02*
Y125154D01*
X406421Y126491D02*
X429133Y149202D01*
X406421Y121095D02*
Y126491D01*
X438389Y151152D02*
X448500Y161264D01*
X428325Y151152D02*
X438389D01*
X404471Y127298D02*
X428325Y151152D01*
X404471Y121113D02*
Y127298D01*
X404453Y121095D02*
X404471Y121113D01*
X430339Y153102D02*
X438500Y161264D01*
X427518Y153102D02*
X430339D01*
X402503Y128088D02*
X427518Y153102D01*
X402503Y121113D02*
Y128088D01*
X402484Y121095D02*
X402503Y121113D01*
X400516Y121095D02*
Y128858D01*
X428500Y156843D01*
Y161264D01*
D59*
X519520Y140284D02*
X520500Y141264D01*
Y143708D01*
X521056Y144264D01*
D60*
X71809Y91573D02*
X73500Y93264D01*
X71809Y81271D02*
Y91573D01*
X71000Y80462D02*
X71809Y81271D01*
X71000Y79264D02*
Y80462D01*
D61*
X59000Y170000D02*
D03*
X43000D02*
D03*
X389350Y10000D02*
D03*
X437000Y8264D02*
D03*
X429783Y15264D02*
D03*
D62*
X459500Y33264D02*
D03*
X449500D02*
D03*
X319500Y43264D02*
D03*
X309500D02*
D03*
X305500Y121843D02*
D03*
Y131843D02*
D03*
D63*
X439500Y33264D02*
D03*
X299500Y43264D02*
D03*
D64*
X536500Y84264D02*
D03*
X47500Y94764D02*
D03*
X224500Y166264D02*
D03*
X204500Y12264D02*
D03*
X488137Y18264D02*
D03*
X510500D02*
D03*
X535126D02*
D03*
X559314Y18524D02*
D03*
X528689Y161264D02*
D03*
X552315D02*
D03*
X482225D02*
D03*
X505450D02*
D03*
X394610Y46264D02*
D03*
X468500Y161264D02*
D03*
X363500Y161764D02*
D03*
Y17067D02*
D03*
D65*
X536500Y94264D02*
D03*
X546500Y84264D02*
D03*
Y94264D02*
D03*
X556500Y84264D02*
D03*
Y94264D02*
D03*
X344500Y51012D02*
D03*
X12500Y145014D02*
D03*
Y155014D02*
D03*
X50500Y145390D02*
D03*
X39626Y94764D02*
D03*
X10500Y18264D02*
D03*
Y28264D02*
D03*
X204500Y166264D02*
D03*
X214500D02*
D03*
X224500Y12264D02*
D03*
X214500D02*
D03*
X478137Y18264D02*
D03*
X500500D02*
D03*
X525126D02*
D03*
X549314Y18524D02*
D03*
X538689Y161264D02*
D03*
X562315D02*
D03*
X492225D02*
D03*
X515450D02*
D03*
X381500Y17264D02*
D03*
X414500Y23138D02*
D03*
X402484Y46264D02*
D03*
X458500Y149264D02*
D03*
X418500Y161264D02*
D03*
X428500D02*
D03*
X438500D02*
D03*
X448500D02*
D03*
X458500D02*
D03*
X403500Y151264D02*
D03*
X382500Y142390D02*
D03*
X418500Y58264D02*
D03*
Y48264D02*
D03*
Y38264D02*
D03*
X353500Y161764D02*
D03*
X343500D02*
D03*
X333500D02*
D03*
X323500D02*
D03*
X313500D02*
D03*
X303500D02*
D03*
X293500D02*
D03*
X283500D02*
D03*
X273500D02*
D03*
X263500D02*
D03*
X253500D02*
D03*
X353500Y17067D02*
D03*
X343500D02*
D03*
X333500D02*
D03*
X323500D02*
D03*
X313500D02*
D03*
X303500D02*
D03*
X293500D02*
D03*
X283500D02*
D03*
X273500D02*
D03*
X263500D02*
D03*
X253500D02*
D03*
D66*
X344500Y43138D02*
D03*
X12500Y165014D02*
D03*
X50500Y153264D02*
D03*
X10500Y38264D02*
D03*
X381500Y27264D02*
D03*
X414500Y15264D02*
D03*
X458500Y139264D02*
D03*
X403500Y161264D02*
D03*
X382500Y150264D02*
D03*
X418500Y68264D02*
D03*
D67*
X305500Y141842D02*
D03*
D68*
X67500Y33264D02*
D03*
Y13264D02*
D03*
X83579Y161764D02*
D03*
X103579D02*
D03*
X97500Y17067D02*
D03*
X117500D02*
D03*
D69*
X453818Y106752D02*
D03*
X330961Y133500D02*
D03*
X242750Y114095D02*
D03*
X180250Y121750D02*
D03*
X105000Y13250D02*
D03*
X87750Y60177D02*
D03*
X133000Y116114D02*
D03*
X436695Y70000D02*
D03*
X37500Y61559D02*
D03*
X76174Y35264D02*
D03*
X368089Y107000D02*
D03*
X368000Y100480D02*
D03*
X414500Y82102D02*
D03*
X553064Y48783D02*
D03*
X528814D02*
D03*
X504250Y48524D02*
D03*
X482000D02*
D03*
X552689Y59784D02*
D03*
X528876Y59524D02*
D03*
X504250D02*
D03*
X482000D02*
D03*
X559112Y120264D02*
D03*
X558939Y131264D02*
D03*
X535064Y120264D02*
D03*
X488137Y120004D02*
D03*
X488012Y131004D02*
D03*
X510326Y131264D02*
D03*
X256953Y38406D02*
D03*
X292250Y30000D02*
D03*
X57000Y35264D02*
D03*
X218650Y112264D02*
D03*
X218799Y68264D02*
D03*
X443500Y19264D02*
D03*
X41000Y120413D02*
D03*
X63850Y111000D02*
D03*
X70000Y55060D02*
D03*
X12500Y55309D02*
D03*
X57000Y40000D02*
D03*
X88625Y30959D02*
D03*
X150500Y34390D02*
D03*
X316500Y35264D02*
D03*
X323500Y25004D02*
D03*
X303500Y52264D02*
D03*
X47500Y46390D02*
D03*
X48500Y51012D02*
D03*
X82500Y14014D02*
D03*
X438500Y119264D02*
D03*
X432500D02*
D03*
X436695Y75264D02*
D03*
X436374Y80264D02*
D03*
X455500Y51012D02*
D03*
X493500Y97264D02*
D03*
X396500Y64559D02*
D03*
X385500D02*
D03*
X163500Y144441D02*
D03*
X136965Y17067D02*
D03*
X136161Y35193D02*
D03*
X385500Y70809D02*
D03*
X433500Y113122D02*
D03*
X410358Y114239D02*
D03*
X391769Y105427D02*
D03*
X370800Y120164D02*
D03*
X382500Y121264D02*
D03*
X383324Y89257D02*
D03*
X358500Y117264D02*
D03*
X432500Y94226D02*
D03*
X427500Y96264D02*
D03*
X373500Y108264D02*
D03*
X354587Y138264D02*
D03*
X358500Y111014D02*
D03*
X396600Y81264D02*
D03*
X401400Y79825D02*
D03*
X411500Y77845D02*
D03*
X427927Y88710D02*
D03*
X370142Y73264D02*
D03*
X275500Y141514D02*
D03*
X267500Y11264D02*
D03*
X204976Y98264D02*
D03*
X128591Y35193D02*
D03*
X192000Y67264D02*
D03*
X242331Y157264D02*
D03*
X240000Y145014D02*
D03*
X153921Y161764D02*
D03*
X52500Y125264D02*
D03*
X418500Y87433D02*
D03*
X364500Y50264D02*
D03*
X384669Y37264D02*
D03*
X233375Y80264D02*
D03*
X168500Y95701D02*
D03*
Y69453D02*
D03*
X251500Y29524D02*
D03*
X266953Y37619D02*
D03*
X269500Y90264D02*
D03*
X275200Y91864D02*
D03*
X340500Y103279D02*
D03*
X335500Y97553D02*
D03*
X309500Y99139D02*
D03*
X330047Y105427D02*
D03*
X373500Y102017D02*
D03*
X61500Y146264D02*
D03*
X92240Y105307D02*
D03*
X60500Y83965D02*
D03*
X46500Y125701D02*
D03*
X23500Y61310D02*
D03*
Y77809D02*
D03*
X50500Y76264D02*
D03*
Y55309D02*
D03*
X74500Y53264D02*
D03*
X163500Y153102D02*
D03*
X182500Y17264D02*
D03*
X136965Y25728D02*
D03*
X213500Y33728D02*
D03*
X448863Y119264D02*
D03*
X519520Y105327D02*
D03*
X519500Y88311D02*
D03*
X519520Y71284D02*
D03*
X513250Y88311D02*
D03*
X534939Y131264D02*
D03*
X510326Y120264D02*
D03*
X271480Y107217D02*
D03*
X248500Y45014D02*
D03*
X243500Y62264D02*
D03*
X239625Y80264D02*
D03*
X126563Y85201D02*
D03*
X168500Y63153D02*
D03*
X183500Y95701D02*
D03*
X210500Y90264D02*
D03*
X209500Y85114D02*
D03*
X208500Y66358D02*
D03*
X206685Y113264D02*
D03*
X190500Y83264D02*
D03*
X189500Y89264D02*
D03*
M02*
