G04*
G04 #@! TF.GenerationSoftware,Altium Limited,Altium Designer,18.1.9 (240)*
G04*
G04 Layer_Physical_Order=2*
G04 Layer_Color=16711680*
%FSLAX25Y25*%
%MOIN*%
G70*
G01*
G75*
%ADD10C,0.05000*%
%ADD11C,0.05906*%
%ADD12R,0.05906X0.05906*%
G04:AMPARAMS|DCode=13|XSize=100mil|YSize=100mil|CornerRadius=25mil|HoleSize=0mil|Usage=FLASHONLY|Rotation=180.000|XOffset=0mil|YOffset=0mil|HoleType=Round|Shape=RoundedRectangle|*
%AMROUNDEDRECTD13*
21,1,0.10000,0.05000,0,0,180.0*
21,1,0.05000,0.10000,0,0,180.0*
1,1,0.05000,-0.02500,0.02500*
1,1,0.05000,0.02500,0.02500*
1,1,0.05000,0.02500,-0.02500*
1,1,0.05000,-0.02500,-0.02500*
%
%ADD13ROUNDEDRECTD13*%
%ADD14C,0.10000*%
%ADD15R,0.05906X0.05906*%
%ADD16R,0.18898X0.11024*%
%ADD17C,0.06693*%
%ADD18C,0.08000*%
G36*
X354453Y126000D02*
X354074Y125709D01*
X343376Y115012D01*
X330835D01*
Y113794D01*
X328887Y113518D01*
X328487Y114837D01*
X327837Y116053D01*
X326962Y117119D01*
X325896Y117994D01*
X324680Y118644D01*
X323360Y119044D01*
X321988Y119179D01*
X320616Y119044D01*
X319296Y118644D01*
X318080Y117994D01*
X317015Y117119D01*
X316658Y116684D01*
X263382D01*
X263025Y117119D01*
X261959Y117994D01*
X260743Y118644D01*
X259423Y119044D01*
X258051Y119179D01*
X256679Y119044D01*
X255359Y118644D01*
X254143Y117994D01*
X253078Y117119D01*
X252203Y116053D01*
X251553Y114837D01*
X251152Y113518D01*
X251017Y112146D01*
X251152Y110773D01*
X251553Y109454D01*
X252203Y108238D01*
X253078Y107172D01*
X253512Y106815D01*
Y92476D01*
X253078Y92119D01*
X252203Y91053D01*
X251553Y89837D01*
X251152Y88518D01*
X251017Y87146D01*
X251152Y85773D01*
X251553Y84454D01*
X252203Y83238D01*
X253078Y82172D01*
X254143Y81297D01*
X255359Y80647D01*
X256679Y80247D01*
X258051Y80112D01*
X259423Y80247D01*
X260743Y80647D01*
X261959Y81297D01*
X263025Y82172D01*
X263900Y83238D01*
X264550Y84454D01*
X264950Y85773D01*
X265085Y87146D01*
X264950Y88518D01*
X264550Y89837D01*
X263900Y91053D01*
X263025Y92119D01*
X262590Y92476D01*
Y106815D01*
X263025Y107172D01*
X263382Y107607D01*
X316658D01*
X317015Y107172D01*
X317449Y106815D01*
Y92509D01*
X316975Y92119D01*
X316100Y91053D01*
X315450Y89837D01*
X315050Y88518D01*
X314915Y87146D01*
X315050Y85773D01*
X315450Y84454D01*
X316100Y83238D01*
X316975Y82172D01*
X317410Y81815D01*
Y67476D01*
X316975Y67119D01*
X316100Y66053D01*
X315450Y64837D01*
X315050Y63518D01*
X314915Y62146D01*
X314970Y61586D01*
X296791Y43406D01*
X296539Y43078D01*
X294539Y43757D01*
Y48500D01*
X294384Y49675D01*
X293931Y50769D01*
X293209Y51709D01*
X279564Y65355D01*
X278624Y66076D01*
X277529Y66530D01*
X276354Y66685D01*
X264577D01*
X264482Y66915D01*
X263761Y67855D01*
X262821Y68576D01*
X261726Y69030D01*
X260551Y69184D01*
X255551D01*
X254376Y69030D01*
X253282Y68576D01*
X252342Y67855D01*
X251620Y66915D01*
X251167Y65820D01*
X251012Y64646D01*
Y59646D01*
X251167Y58471D01*
X251620Y57376D01*
X252342Y56436D01*
X253282Y55715D01*
X254376Y55261D01*
X255551Y55107D01*
X260551D01*
X261726Y55261D01*
X262821Y55715D01*
X263761Y56436D01*
X264482Y57376D01*
X264577Y57607D01*
X274474D01*
X285461Y46620D01*
Y21804D01*
X283793Y21137D01*
X283461Y21087D01*
X282498Y21826D01*
X281293Y22325D01*
X280000Y22496D01*
X278707Y22325D01*
X277502Y21826D01*
X276468Y21032D01*
X275674Y19998D01*
X275175Y18793D01*
X275005Y17500D01*
X275175Y16207D01*
X275461Y15516D01*
Y10500D01*
X275616Y9325D01*
X276069Y8231D01*
X276791Y7291D01*
X281581Y2500D01*
X281457Y1664D01*
X280839Y500D01*
X127500D01*
X126816Y2381D01*
X127269Y2569D01*
X128209Y3291D01*
X133209Y8291D01*
X133931Y9231D01*
X134384Y10325D01*
X134437Y10729D01*
X134953Y12547D01*
X134953Y12547D01*
X134953Y12547D01*
Y16034D01*
X155158Y36239D01*
X155880Y37179D01*
X156333Y38274D01*
X156488Y39449D01*
Y56421D01*
X156922Y56778D01*
X157797Y57844D01*
X158447Y59060D01*
X158847Y60380D01*
X158983Y61752D01*
X158847Y63124D01*
X158447Y64444D01*
X157797Y65660D01*
X156922Y66726D01*
X156488Y67083D01*
Y81421D01*
X156922Y81778D01*
X157797Y82844D01*
X158447Y84060D01*
X158847Y85380D01*
X158983Y86752D01*
X158847Y88124D01*
X158447Y89444D01*
X157797Y90660D01*
X156922Y91726D01*
X156527Y92050D01*
Y106421D01*
X156962Y106778D01*
X157837Y107844D01*
X158487Y109060D01*
X158887Y110380D01*
X159022Y111752D01*
X158887Y113124D01*
X158487Y114444D01*
X157837Y115660D01*
X156962Y116726D01*
X155896Y117600D01*
X154680Y118250D01*
X153360Y118651D01*
X151988Y118786D01*
X150616Y118651D01*
X149296Y118250D01*
X148080Y117600D01*
X147014Y116726D01*
X146658Y116291D01*
X93382D01*
X93025Y116726D01*
X91959Y117600D01*
X90743Y118250D01*
X89423Y118651D01*
X88051Y118786D01*
X86679Y118651D01*
X85359Y118250D01*
X84143Y117600D01*
X83078Y116726D01*
X82203Y115660D01*
X81553Y114444D01*
X81152Y113124D01*
X81017Y111752D01*
X81152Y110380D01*
X81553Y109060D01*
X82203Y107844D01*
X83078Y106778D01*
X83512Y106421D01*
Y92083D01*
X83078Y91726D01*
X82203Y90660D01*
X81553Y89444D01*
X81152Y88124D01*
X81017Y86752D01*
X81152Y85380D01*
X81553Y84060D01*
X82203Y82844D01*
X83078Y81778D01*
X84143Y80904D01*
X85359Y80253D01*
X86679Y79853D01*
X88051Y79718D01*
X89423Y79853D01*
X90743Y80253D01*
X91959Y80904D01*
X93025Y81778D01*
X93900Y82844D01*
X94550Y84060D01*
X94950Y85380D01*
X95085Y86752D01*
X94950Y88124D01*
X94550Y89444D01*
X93900Y90660D01*
X93025Y91726D01*
X92590Y92083D01*
Y106421D01*
X93025Y106778D01*
X93382Y107213D01*
X146658D01*
X147014Y106778D01*
X147449Y106421D01*
Y92115D01*
X146975Y91726D01*
X146100Y90660D01*
X145450Y89444D01*
X145050Y88124D01*
X144915Y86752D01*
X145050Y85380D01*
X145450Y84060D01*
X146100Y82844D01*
X146975Y81778D01*
X147410Y81421D01*
Y67083D01*
X146975Y66726D01*
X146100Y65660D01*
X145450Y64444D01*
X145050Y63124D01*
X144915Y61752D01*
X145050Y60380D01*
X145450Y59060D01*
X146100Y57844D01*
X146975Y56778D01*
X147410Y56421D01*
Y41329D01*
X128534Y22453D01*
X125047Y22453D01*
X124539Y24242D01*
Y50500D01*
X124384Y51675D01*
X123931Y52769D01*
X123209Y53709D01*
X111958Y64961D01*
X111017Y65683D01*
X109923Y66136D01*
X108748Y66291D01*
X94577D01*
X94482Y66521D01*
X93761Y67461D01*
X92821Y68183D01*
X91726Y68636D01*
X90551Y68791D01*
X85551D01*
X84376Y68636D01*
X83282Y68183D01*
X82342Y67461D01*
X81620Y66521D01*
X81167Y65427D01*
X81012Y64252D01*
Y59252D01*
X81167Y58077D01*
X81620Y56983D01*
X82342Y56042D01*
X83282Y55321D01*
X84376Y54868D01*
X85551Y54713D01*
X90551D01*
X91726Y54868D01*
X92821Y55321D01*
X93761Y56042D01*
X94482Y56983D01*
X94577Y57213D01*
X106868D01*
X115461Y48620D01*
Y21804D01*
X113794Y21137D01*
X113461Y21087D01*
X112498Y21826D01*
X111293Y22325D01*
X110000Y22496D01*
X108707Y22325D01*
X107502Y21826D01*
X106468Y21032D01*
X105674Y19998D01*
X105175Y18793D01*
X105005Y17500D01*
X105175Y16207D01*
X105461Y15516D01*
Y11500D01*
X105616Y10325D01*
X106069Y9231D01*
X106791Y8291D01*
X111791Y3291D01*
X112731Y2569D01*
X112898Y2500D01*
X112500Y500D01*
X50161D01*
X49543Y1664D01*
X49419Y2500D01*
X53209Y6290D01*
X53209Y6291D01*
X53931Y7231D01*
X54384Y8325D01*
X54539Y9500D01*
Y12547D01*
X54953D01*
Y22453D01*
X54539D01*
Y25123D01*
X56539Y25254D01*
X56577Y24966D01*
X56620Y24838D01*
X56629Y24704D01*
X57022Y23235D01*
X57082Y23115D01*
X57108Y22983D01*
X57690Y21578D01*
X57765Y21466D01*
X57808Y21339D01*
X58568Y20022D01*
X58657Y19921D01*
X58716Y19800D01*
X59642Y18594D01*
X59743Y18505D01*
X59818Y18393D01*
X60893Y17318D01*
X61005Y17243D01*
X61094Y17142D01*
X62300Y16217D01*
X62421Y16157D01*
X62522Y16068D01*
X63839Y15308D01*
X63966Y15265D01*
X64078Y15190D01*
X65483Y14608D01*
X65615Y14582D01*
X65736Y14522D01*
X67204Y14129D01*
X67339Y14120D01*
X67466Y14077D01*
X68973Y13878D01*
X69108Y13887D01*
X69240Y13861D01*
X70760D01*
X70892Y13887D01*
X71026Y13878D01*
X72534Y14077D01*
X72662Y14120D01*
X72796Y14129D01*
X74265Y14522D01*
X74385Y14582D01*
X74517Y14608D01*
X75922Y15190D01*
X76034Y15265D01*
X76161Y15308D01*
X77478Y16068D01*
X77579Y16157D01*
X77700Y16217D01*
X78906Y17142D01*
X78995Y17243D01*
X79107Y17318D01*
X80182Y18393D01*
X80257Y18505D01*
X80358Y18594D01*
X81283Y19800D01*
X81343Y19921D01*
X81432Y20022D01*
X82192Y21339D01*
X82235Y21466D01*
X82310Y21578D01*
X82892Y22983D01*
X82918Y23115D01*
X82978Y23235D01*
X83371Y24704D01*
X83380Y24838D01*
X83423Y24966D01*
X83622Y26474D01*
X83613Y26608D01*
X83639Y26740D01*
Y28260D01*
X83613Y28392D01*
X83622Y28526D01*
X83423Y30034D01*
X83380Y30161D01*
X83371Y30296D01*
X82978Y31765D01*
X82918Y31885D01*
X82892Y32017D01*
X82310Y33422D01*
X82235Y33534D01*
X82192Y33661D01*
X81432Y34978D01*
X81343Y35079D01*
X81283Y35200D01*
X80358Y36406D01*
X80257Y36495D01*
X80182Y36607D01*
X79107Y37682D01*
X78995Y37757D01*
X78906Y37858D01*
X77700Y38783D01*
X77579Y38843D01*
X77478Y38932D01*
X76161Y39692D01*
X76034Y39735D01*
X75922Y39810D01*
X74517Y40392D01*
X74385Y40418D01*
X74265Y40478D01*
X72796Y40871D01*
X72662Y40880D01*
X72534Y40923D01*
X71026Y41122D01*
X70892Y41113D01*
X70760Y41139D01*
X69240D01*
X69108Y41113D01*
X68973Y41122D01*
X67466Y40923D01*
X67339Y40880D01*
X67204Y40871D01*
X65736Y40478D01*
X65615Y40418D01*
X65483Y40392D01*
X64078Y39810D01*
X63966Y39735D01*
X63839Y39692D01*
X62522Y38932D01*
X62421Y38843D01*
X62300Y38783D01*
X61094Y37858D01*
X61005Y37757D01*
X60893Y37682D01*
X59818Y36607D01*
X59743Y36495D01*
X59642Y36406D01*
X58716Y35200D01*
X58657Y35079D01*
X58568Y34978D01*
X57808Y33661D01*
X57765Y33534D01*
X57690Y33422D01*
X57108Y32017D01*
X57082Y31885D01*
X57022Y31765D01*
X56629Y30296D01*
X56620Y30161D01*
X56577Y30034D01*
X56539Y29746D01*
X54539Y29877D01*
Y48620D01*
X63132Y57213D01*
X66618D01*
X66975Y56778D01*
X68041Y55904D01*
X69257Y55253D01*
X70577Y54853D01*
X71949Y54718D01*
X73321Y54853D01*
X74641Y55253D01*
X75857Y55904D01*
X76923Y56778D01*
X77797Y57844D01*
X78447Y59060D01*
X78847Y60380D01*
X78983Y61752D01*
X78847Y63124D01*
X78447Y64444D01*
X77797Y65660D01*
X76923Y66726D01*
X76488Y67083D01*
Y81421D01*
X76923Y81778D01*
X77797Y82844D01*
X78447Y84060D01*
X78847Y85380D01*
X78983Y86752D01*
X78847Y88124D01*
X78447Y89444D01*
X77797Y90660D01*
X76923Y91726D01*
X76527Y92050D01*
Y106421D01*
X76962Y106778D01*
X77837Y107844D01*
X78487Y109060D01*
X78887Y110380D01*
X79022Y111752D01*
X78887Y113124D01*
X78487Y114444D01*
X77837Y115660D01*
X76962Y116726D01*
X75896Y117600D01*
X74680Y118250D01*
X73360Y118651D01*
X71988Y118786D01*
X70616Y118651D01*
X69296Y118250D01*
X68080Y117600D01*
X67014Y116726D01*
X66658Y116291D01*
X13382D01*
X13025Y116726D01*
X11959Y117600D01*
X10743Y118250D01*
X9423Y118651D01*
X8051Y118786D01*
X6679Y118651D01*
X5359Y118250D01*
X4143Y117600D01*
X3077Y116726D01*
X2500Y116022D01*
X1120Y116291D01*
X500Y116653D01*
Y128000D01*
X353774D01*
X354453Y126000D01*
D02*
G37*
G36*
X3512Y105936D02*
Y92568D01*
X2500Y91668D01*
X500Y92479D01*
Y106025D01*
X2500Y106836D01*
X3512Y105936D01*
D02*
G37*
G36*
X500000Y500D02*
X299161D01*
X298543Y1664D01*
X298419Y2500D01*
X303209Y7291D01*
X303931Y8231D01*
X304384Y9325D01*
X304539Y10500D01*
X304539Y10500D01*
Y12547D01*
X304953D01*
Y22453D01*
X304539D01*
Y38317D01*
X321389Y55167D01*
X321949Y55112D01*
X323321Y55247D01*
X324641Y55647D01*
X325857Y56297D01*
X326922Y57172D01*
X327797Y58238D01*
X328447Y59454D01*
X328848Y60773D01*
X328983Y62146D01*
X328848Y63518D01*
X328447Y64837D01*
X327797Y66053D01*
X326922Y67119D01*
X326488Y67476D01*
Y81815D01*
X326922Y82172D01*
X327797Y83238D01*
X328447Y84454D01*
X328848Y85773D01*
X330835Y85571D01*
Y75972D01*
X353732D01*
Y85237D01*
X355732Y85916D01*
X355906Y85690D01*
X357105Y84769D01*
X358502Y84191D01*
X360000Y83994D01*
X361498Y84191D01*
X362895Y84769D01*
X364094Y85690D01*
X364268Y85916D01*
X366268Y85237D01*
Y75972D01*
X389165D01*
Y78945D01*
X405984D01*
X407159Y79100D01*
X408254Y79554D01*
X409194Y80275D01*
X410432Y81514D01*
X411176Y81587D01*
X412307Y81930D01*
X413349Y82487D01*
X414263Y83237D01*
X415013Y84150D01*
X415570Y85193D01*
X415913Y86324D01*
X416029Y87500D01*
X415913Y88676D01*
X415570Y89807D01*
X415013Y90850D01*
X414263Y91763D01*
X413349Y92513D01*
X412307Y93070D01*
X411176Y93413D01*
X410000Y93529D01*
X408824Y93413D01*
X407693Y93070D01*
X406650Y92513D01*
X405737Y91763D01*
X404987Y90850D01*
X404430Y89807D01*
X404087Y88676D01*
X404023Y88023D01*
X389165D01*
Y90996D01*
X382255D01*
Y99988D01*
X389165D01*
Y115012D01*
X366268D01*
Y111561D01*
X364268Y110882D01*
X363883Y111383D01*
X362746Y112256D01*
X361421Y112805D01*
X360000Y112992D01*
X358579Y112805D01*
X357254Y112256D01*
X356943Y112018D01*
X354769Y112687D01*
X354735Y112720D01*
X354586Y113384D01*
X359163Y117961D01*
X408120D01*
X410602Y115479D01*
X410196Y114164D01*
X409748Y113504D01*
X408824Y113413D01*
X407693Y113070D01*
X406650Y112513D01*
X405737Y111763D01*
X404987Y110849D01*
X404430Y109807D01*
X404087Y108676D01*
X403971Y107500D01*
X404087Y106324D01*
X404430Y105193D01*
X404987Y104150D01*
X405737Y103237D01*
X406650Y102487D01*
X407693Y101930D01*
X408824Y101587D01*
X410000Y101471D01*
X411176Y101587D01*
X412041Y101849D01*
X412609Y101745D01*
X414286Y100720D01*
X414473Y99888D01*
X414430Y99807D01*
X414087Y98676D01*
X413971Y97500D01*
X414087Y96324D01*
X414430Y95193D01*
X414987Y94151D01*
X415737Y93237D01*
X416650Y92487D01*
X417693Y91930D01*
X418824Y91587D01*
X420000Y91471D01*
X421176Y91587D01*
X422307Y91930D01*
X423350Y92487D01*
X424263Y93237D01*
X425013Y94151D01*
X425570Y95193D01*
X425913Y96324D01*
X426029Y97500D01*
X425913Y98676D01*
X425570Y99807D01*
X425013Y100849D01*
X424539Y101427D01*
Y112500D01*
X424539Y112500D01*
X424384Y113675D01*
X423931Y114769D01*
X423209Y115709D01*
X423209Y115709D01*
X413209Y125709D01*
X412831Y126000D01*
X413510Y128000D01*
X500000D01*
X500000Y500D01*
D02*
G37*
G36*
X356117Y103617D02*
X357254Y102744D01*
X358579Y102195D01*
X360000Y102008D01*
X361421Y102195D01*
X362746Y102744D01*
X363883Y103617D01*
X364268Y104118D01*
X366268Y103439D01*
Y99988D01*
X373178D01*
Y90996D01*
X367440D01*
X366106Y91202D01*
X365085Y92506D01*
X365014Y92678D01*
X364094Y93877D01*
X362895Y94797D01*
X361498Y95376D01*
X360000Y95573D01*
X358502Y95376D01*
X357105Y94797D01*
X355906Y93877D01*
X354986Y92678D01*
X354915Y92506D01*
X353894Y91202D01*
X352560Y90996D01*
X346822D01*
Y99988D01*
X353732D01*
Y103439D01*
X355732Y104118D01*
X356117Y103617D01*
D02*
G37*
G36*
X330835Y110498D02*
Y99988D01*
X337745D01*
Y90996D01*
X330835D01*
Y88720D01*
X328848Y88518D01*
X328447Y89837D01*
X327797Y91053D01*
X326922Y92119D01*
X326527Y92444D01*
Y106815D01*
X326962Y107172D01*
X327837Y108238D01*
X328487Y109454D01*
X328887Y110773D01*
X330835Y110498D01*
D02*
G37*
G36*
X67014Y106778D02*
X67449Y106421D01*
Y92115D01*
X66975Y91726D01*
X66100Y90660D01*
X65450Y89444D01*
X65050Y88124D01*
X64915Y86752D01*
X65050Y85380D01*
X65450Y84060D01*
X66100Y82844D01*
X66975Y81778D01*
X67410Y81421D01*
Y67083D01*
X66975Y66726D01*
X66618Y66291D01*
X61252D01*
X60077Y66136D01*
X58983Y65683D01*
X58043Y64961D01*
X46791Y53709D01*
X46069Y52769D01*
X45616Y51675D01*
X45461Y50500D01*
Y48060D01*
X43461Y47381D01*
X43209Y47709D01*
X25958Y64961D01*
X25017Y65683D01*
X23923Y66136D01*
X22748Y66291D01*
X14577D01*
X14482Y66521D01*
X13761Y67461D01*
X12821Y68183D01*
X11726Y68636D01*
X10551Y68791D01*
X5551D01*
X4376Y68636D01*
X3282Y68183D01*
X2500Y67583D01*
X1816Y67714D01*
X500Y68347D01*
Y81851D01*
X1120Y82213D01*
X2500Y82482D01*
X3077Y81778D01*
X4143Y80904D01*
X5359Y80253D01*
X6679Y79853D01*
X8051Y79718D01*
X9423Y79853D01*
X10743Y80253D01*
X11959Y80904D01*
X13025Y81778D01*
X13900Y82844D01*
X14550Y84060D01*
X14950Y85380D01*
X15085Y86752D01*
X14950Y88124D01*
X14550Y89444D01*
X13900Y90660D01*
X13025Y91726D01*
X12590Y92083D01*
Y106421D01*
X13025Y106778D01*
X13382Y107213D01*
X66658D01*
X67014Y106778D01*
D02*
G37*
G36*
X35461Y42620D02*
Y21804D01*
X33794Y21137D01*
X33461Y21087D01*
X32498Y21826D01*
X31293Y22325D01*
X30000Y22496D01*
X28707Y22325D01*
X27502Y21826D01*
X26468Y21032D01*
X25674Y19998D01*
X25175Y18793D01*
X25005Y17500D01*
X25175Y16207D01*
X25461Y15516D01*
Y9500D01*
X25616Y8325D01*
X26069Y7231D01*
X26791Y6291D01*
X30581Y2500D01*
X30457Y1664D01*
X29839Y500D01*
X500D01*
Y55157D01*
X1816Y55790D01*
X2500Y55921D01*
X3282Y55321D01*
X4376Y54868D01*
X5551Y54713D01*
X10551D01*
X11726Y54868D01*
X12821Y55321D01*
X13761Y56042D01*
X14482Y56983D01*
X14577Y57213D01*
X20868D01*
X35461Y42620D01*
D02*
G37*
G36*
X37502Y13174D02*
X38707Y12675D01*
X40000Y12505D01*
X41293Y12675D01*
X42498Y13174D01*
X43047Y13595D01*
X43426Y13463D01*
X45047Y12547D01*
X44751Y10670D01*
X44120Y10039D01*
X35966D01*
X34587Y11503D01*
X34765Y13286D01*
X36206Y13863D01*
X36539Y13913D01*
X37502Y13174D01*
D02*
G37*
%LPC*%
G36*
X241988Y119179D02*
X240616Y119044D01*
X239296Y118644D01*
X238080Y117994D01*
X237015Y117119D01*
X236658Y116684D01*
X183382D01*
X183025Y117119D01*
X181959Y117994D01*
X180743Y118644D01*
X179423Y119044D01*
X178051Y119179D01*
X176679Y119044D01*
X175359Y118644D01*
X174143Y117994D01*
X173077Y117119D01*
X172203Y116053D01*
X171553Y114837D01*
X171152Y113518D01*
X171017Y112146D01*
X171152Y110773D01*
X171553Y109454D01*
X172203Y108238D01*
X173077Y107172D01*
X173512Y106815D01*
Y92476D01*
X173077Y92119D01*
X172203Y91053D01*
X171553Y89837D01*
X171152Y88518D01*
X171017Y87146D01*
X171152Y85773D01*
X171553Y84454D01*
X172203Y83238D01*
X173077Y82172D01*
X174143Y81297D01*
X175359Y80647D01*
X176679Y80247D01*
X178051Y80112D01*
X179423Y80247D01*
X180743Y80647D01*
X181959Y81297D01*
X183025Y82172D01*
X183900Y83238D01*
X184550Y84454D01*
X184950Y85773D01*
X185085Y87146D01*
X184950Y88518D01*
X184550Y89837D01*
X183900Y91053D01*
X183025Y92119D01*
X182590Y92476D01*
Y106815D01*
X183025Y107172D01*
X183382Y107607D01*
X236658D01*
X237015Y107172D01*
X237449Y106815D01*
Y92509D01*
X236975Y92119D01*
X236100Y91053D01*
X235450Y89837D01*
X235050Y88518D01*
X234915Y87146D01*
X235050Y85773D01*
X235450Y84454D01*
X236100Y83238D01*
X236975Y82172D01*
X237410Y81815D01*
Y67476D01*
X236975Y67119D01*
X236100Y66053D01*
X235450Y64837D01*
X235050Y63518D01*
X234915Y62146D01*
X235050Y60773D01*
X235450Y59454D01*
X236100Y58238D01*
X236975Y57172D01*
X237410Y56815D01*
Y41329D01*
X218534Y22453D01*
X215047Y22453D01*
X214539Y24242D01*
Y48500D01*
X214384Y49675D01*
X213931Y50769D01*
X213209Y51709D01*
X199564Y65355D01*
X198624Y66076D01*
X197529Y66530D01*
X196354Y66685D01*
X184577D01*
X184482Y66915D01*
X183761Y67855D01*
X182821Y68576D01*
X181726Y69030D01*
X180551Y69184D01*
X175551D01*
X174376Y69030D01*
X173282Y68576D01*
X172342Y67855D01*
X171620Y66915D01*
X171167Y65820D01*
X171012Y64646D01*
Y59646D01*
X171167Y58471D01*
X171620Y57376D01*
X172342Y56436D01*
X173282Y55715D01*
X174376Y55261D01*
X175551Y55107D01*
X180551D01*
X181726Y55261D01*
X182821Y55715D01*
X183761Y56436D01*
X184482Y57376D01*
X184577Y57607D01*
X194474D01*
X205461Y46620D01*
Y21804D01*
X203794Y21137D01*
X203461Y21087D01*
X202498Y21826D01*
X201293Y22325D01*
X200000Y22496D01*
X198707Y22325D01*
X197502Y21826D01*
X196468Y21032D01*
X195674Y19998D01*
X195175Y18793D01*
X195004Y17500D01*
X195175Y16207D01*
X195461Y15516D01*
Y12500D01*
X195616Y11325D01*
X196069Y10231D01*
X196791Y9291D01*
X201791Y4291D01*
X202731Y3569D01*
X203825Y3116D01*
X205000Y2961D01*
X205000Y2961D01*
X217000D01*
X218175Y3116D01*
X219269Y3569D01*
X220209Y4291D01*
X223209Y7291D01*
X223931Y8231D01*
X224384Y9325D01*
X224539Y10500D01*
Y12547D01*
X224953D01*
Y16034D01*
X245158Y36239D01*
X245880Y37179D01*
X246333Y38274D01*
X246488Y39449D01*
Y56815D01*
X246922Y57172D01*
X247797Y58238D01*
X248447Y59454D01*
X248848Y60773D01*
X248983Y62146D01*
X248848Y63518D01*
X248447Y64837D01*
X247797Y66053D01*
X246922Y67119D01*
X246488Y67476D01*
Y81815D01*
X246922Y82172D01*
X247797Y83238D01*
X248447Y84454D01*
X248848Y85773D01*
X248983Y87146D01*
X248848Y88518D01*
X248447Y89837D01*
X247797Y91053D01*
X246922Y92119D01*
X246527Y92444D01*
Y106815D01*
X246962Y107172D01*
X247837Y108238D01*
X248487Y109454D01*
X248887Y110773D01*
X249022Y112146D01*
X248887Y113518D01*
X248487Y114837D01*
X247837Y116053D01*
X246962Y117119D01*
X245896Y117994D01*
X244680Y118644D01*
X243360Y119044D01*
X241988Y119179D01*
D02*
G37*
G36*
X480000Y113529D02*
X478824Y113413D01*
X477693Y113070D01*
X476650Y112513D01*
X475737Y111763D01*
X474987Y110849D01*
X474430Y109807D01*
X474087Y108676D01*
X473971Y107500D01*
X474087Y106324D01*
X474430Y105193D01*
X474987Y104150D01*
X475737Y103237D01*
X476650Y102487D01*
X477693Y101930D01*
X478824Y101587D01*
X480000Y101471D01*
X481176Y101587D01*
X482307Y101930D01*
X483350Y102487D01*
X484263Y103237D01*
X485013Y104150D01*
X485570Y105193D01*
X485913Y106324D01*
X486029Y107500D01*
X485913Y108676D01*
X485570Y109807D01*
X485013Y110849D01*
X484263Y111763D01*
X483350Y112513D01*
X482307Y113070D01*
X481176Y113413D01*
X480000Y113529D01*
D02*
G37*
G36*
X400000Y103529D02*
X398824Y103413D01*
X397693Y103070D01*
X396651Y102513D01*
X395737Y101763D01*
X394987Y100849D01*
X394430Y99807D01*
X394087Y98676D01*
X393971Y97500D01*
X394087Y96324D01*
X394430Y95193D01*
X394987Y94151D01*
X395737Y93237D01*
X396651Y92487D01*
X397693Y91930D01*
X398824Y91587D01*
X400000Y91471D01*
X401176Y91587D01*
X402307Y91930D01*
X403349Y92487D01*
X404263Y93237D01*
X405013Y94151D01*
X405570Y95193D01*
X405913Y96324D01*
X406029Y97500D01*
X405913Y98676D01*
X405570Y99807D01*
X405013Y100849D01*
X404263Y101763D01*
X403349Y102513D01*
X402307Y103070D01*
X401176Y103413D01*
X400000Y103529D01*
D02*
G37*
G36*
X371000Y59496D02*
X369707Y59325D01*
X369016Y59039D01*
X358268D01*
X357576Y59325D01*
X356283Y59496D01*
X354991Y59325D01*
X354299Y59039D01*
X348000D01*
X348000Y59039D01*
X346825Y58884D01*
X345731Y58431D01*
X344791Y57709D01*
X339791Y52709D01*
X339069Y51769D01*
X338616Y50675D01*
X338461Y49500D01*
Y35463D01*
X336461Y34927D01*
X336432Y34978D01*
X336343Y35079D01*
X336283Y35200D01*
X335358Y36406D01*
X335257Y36495D01*
X335182Y36607D01*
X334107Y37682D01*
X333995Y37757D01*
X333906Y37858D01*
X332700Y38783D01*
X332579Y38843D01*
X332478Y38932D01*
X331161Y39692D01*
X331034Y39735D01*
X330922Y39810D01*
X329517Y40392D01*
X329385Y40418D01*
X329264Y40478D01*
X327796Y40871D01*
X327661Y40880D01*
X327534Y40923D01*
X326027Y41122D01*
X325892Y41113D01*
X325760Y41139D01*
X324240D01*
X324108Y41113D01*
X323973Y41122D01*
X322466Y40923D01*
X322339Y40880D01*
X322204Y40871D01*
X320736Y40478D01*
X320615Y40418D01*
X320483Y40392D01*
X319078Y39810D01*
X318966Y39735D01*
X318839Y39692D01*
X317522Y38932D01*
X317421Y38843D01*
X317300Y38783D01*
X316094Y37858D01*
X316005Y37757D01*
X315893Y37682D01*
X314818Y36607D01*
X314743Y36495D01*
X314642Y36406D01*
X313717Y35200D01*
X313657Y35079D01*
X313568Y34978D01*
X312808Y33661D01*
X312765Y33534D01*
X312690Y33422D01*
X312108Y32017D01*
X312082Y31885D01*
X312022Y31765D01*
X311629Y30296D01*
X311620Y30161D01*
X311577Y30034D01*
X311378Y28526D01*
X311387Y28392D01*
X311361Y28260D01*
Y26740D01*
X311387Y26608D01*
X311378Y26474D01*
X311577Y24966D01*
X311620Y24838D01*
X311629Y24704D01*
X312022Y23235D01*
X312082Y23115D01*
X312108Y22983D01*
X312690Y21578D01*
X312765Y21466D01*
X312808Y21339D01*
X313568Y20022D01*
X313657Y19921D01*
X313717Y19800D01*
X314642Y18594D01*
X314743Y18505D01*
X314818Y18393D01*
X315893Y17318D01*
X316005Y17243D01*
X316094Y17142D01*
X317300Y16217D01*
X317421Y16157D01*
X317522Y16068D01*
X318839Y15308D01*
X318966Y15265D01*
X319078Y15190D01*
X320483Y14608D01*
X320615Y14582D01*
X320736Y14522D01*
X322204Y14129D01*
X322339Y14120D01*
X322466Y14077D01*
X323973Y13878D01*
X324108Y13887D01*
X324240Y13861D01*
X325760D01*
X325892Y13887D01*
X326027Y13878D01*
X327534Y14077D01*
X327661Y14120D01*
X327796Y14129D01*
X329264Y14522D01*
X329385Y14582D01*
X329517Y14608D01*
X330922Y15190D01*
X331034Y15265D01*
X331161Y15308D01*
X332478Y16068D01*
X332579Y16157D01*
X332700Y16217D01*
X333906Y17142D01*
X333995Y17243D01*
X334107Y17318D01*
X335182Y18393D01*
X335257Y18505D01*
X335358Y18594D01*
X336283Y19800D01*
X336343Y19921D01*
X336432Y20022D01*
X337192Y21339D01*
X337231Y21455D01*
X337376Y21525D01*
X337593Y21615D01*
X339508Y21659D01*
X339791Y21291D01*
X344791Y16291D01*
X345731Y15569D01*
X346825Y15116D01*
X348000Y14961D01*
X348000Y14961D01*
X354299D01*
X354991Y14675D01*
X356283Y14504D01*
X357576Y14675D01*
X358268Y14961D01*
X369016D01*
X369707Y14675D01*
X371000Y14504D01*
X372293Y14675D01*
X372985Y14961D01*
X383120D01*
X385790Y12291D01*
X385791Y12291D01*
X386731Y11569D01*
X387825Y11116D01*
X389000Y10961D01*
X438000D01*
X439175Y11116D01*
X440269Y11569D01*
X441209Y12291D01*
X460432Y31514D01*
X461176Y31587D01*
X462307Y31930D01*
X463349Y32487D01*
X464263Y33237D01*
X465013Y34150D01*
X465570Y35193D01*
X465913Y36324D01*
X466029Y37500D01*
X465913Y38676D01*
X465651Y39541D01*
X465755Y40110D01*
X466780Y41786D01*
X467612Y41973D01*
X467693Y41930D01*
X468824Y41587D01*
X470000Y41471D01*
X471176Y41587D01*
X472307Y41930D01*
X473350Y42487D01*
X474263Y43237D01*
X475013Y44151D01*
X475570Y45193D01*
X475913Y46324D01*
X476029Y47500D01*
X475913Y48676D01*
X475570Y49807D01*
X475013Y50849D01*
X474263Y51763D01*
X473350Y52513D01*
X472307Y53070D01*
X471176Y53413D01*
X470000Y53529D01*
X468824Y53413D01*
X467693Y53070D01*
X466650Y52513D01*
X466073Y52039D01*
X432000D01*
X430825Y51884D01*
X429731Y51431D01*
X428791Y50709D01*
X427120Y49039D01*
X375953D01*
Y49453D01*
X375791D01*
X375468Y49842D01*
X374905Y51453D01*
X375326Y52002D01*
X375825Y53207D01*
X375995Y54500D01*
X375825Y55793D01*
X375326Y56998D01*
X374532Y58032D01*
X373498Y58826D01*
X372293Y59325D01*
X371000Y59496D01*
D02*
G37*
G36*
X480000Y43529D02*
X478824Y43413D01*
X477693Y43070D01*
X476650Y42513D01*
X475737Y41763D01*
X474987Y40850D01*
X474430Y39807D01*
X474087Y38676D01*
X473971Y37500D01*
X474087Y36324D01*
X474430Y35193D01*
X474987Y34150D01*
X475737Y33237D01*
X476650Y32487D01*
X477693Y31930D01*
X478824Y31587D01*
X480000Y31471D01*
X481176Y31587D01*
X482307Y31930D01*
X483350Y32487D01*
X484263Y33237D01*
X485013Y34150D01*
X485570Y35193D01*
X485913Y36324D01*
X486029Y37500D01*
X485913Y38676D01*
X485570Y39807D01*
X485013Y40850D01*
X484263Y41763D01*
X483350Y42513D01*
X482307Y43070D01*
X481176Y43413D01*
X480000Y43529D01*
D02*
G37*
G36*
X470000Y33529D02*
X468824Y33413D01*
X467693Y33070D01*
X466650Y32513D01*
X465737Y31763D01*
X464987Y30849D01*
X464430Y29807D01*
X464087Y28676D01*
X463971Y27500D01*
X464087Y26324D01*
X464430Y25193D01*
X464987Y24150D01*
X465737Y23237D01*
X466650Y22487D01*
X467693Y21930D01*
X468824Y21587D01*
X470000Y21471D01*
X471176Y21587D01*
X472307Y21930D01*
X473350Y22487D01*
X474263Y23237D01*
X475013Y24150D01*
X475570Y25193D01*
X475913Y26324D01*
X476029Y27500D01*
X475913Y28676D01*
X475570Y29807D01*
X475013Y30849D01*
X474263Y31763D01*
X473350Y32513D01*
X472307Y33070D01*
X471176Y33413D01*
X470000Y33529D01*
D02*
G37*
%LPD*%
G36*
X351331Y48635D02*
Y39547D01*
X361236D01*
Y39961D01*
X366047D01*
Y39547D01*
X366461D01*
Y34453D01*
X366047D01*
Y34039D01*
X361236D01*
Y34453D01*
X351331D01*
Y25365D01*
X349331Y24588D01*
X347539Y26380D01*
Y47620D01*
X349331Y49412D01*
X351331Y48635D01*
D02*
G37*
G36*
X455079Y40961D02*
X454987Y40850D01*
X454430Y39807D01*
X454087Y38676D01*
X454014Y37932D01*
X436120Y20039D01*
X403496D01*
X403365Y20266D01*
X403350Y22487D01*
X404263Y23237D01*
X405013Y24150D01*
X405570Y25193D01*
X405913Y26324D01*
X406029Y27500D01*
X405913Y28676D01*
X405570Y29807D01*
X405013Y30849D01*
X404263Y31763D01*
X403349Y32513D01*
X402307Y33070D01*
X401176Y33413D01*
X400000Y33529D01*
X398824Y33413D01*
X397693Y33070D01*
X396651Y32513D01*
X395737Y31763D01*
X394987Y30849D01*
X394430Y29807D01*
X394087Y28676D01*
X393971Y27500D01*
X394087Y26324D01*
X394430Y25193D01*
X394987Y24150D01*
X395737Y23237D01*
X396650Y22487D01*
X396635Y20266D01*
X396504Y20039D01*
X390880D01*
X388209Y22709D01*
X387269Y23431D01*
X386175Y23884D01*
X385000Y24039D01*
X377742D01*
X375953Y24547D01*
Y34453D01*
X375539D01*
Y39547D01*
X375953D01*
Y39961D01*
X429000D01*
X430175Y40116D01*
X431269Y40569D01*
X432209Y41291D01*
X433880Y42961D01*
X454133D01*
X455079Y40961D01*
D02*
G37*
D10*
X280000Y10500D02*
Y17500D01*
Y10500D02*
X285000Y5500D01*
X295000D01*
X300000Y10500D01*
Y17500D01*
Y40197D01*
X321949Y62146D01*
X290000Y17500D02*
Y48500D01*
X276354Y62146D02*
X290000Y48500D01*
X258051Y62146D02*
X276354D01*
X210000Y17500D02*
Y48500D01*
X196354Y62146D02*
X210000Y48500D01*
X178051Y62146D02*
X196354D01*
X200000Y12500D02*
Y17500D01*
Y12500D02*
X205000Y7500D01*
X217000D01*
X220000Y10500D01*
Y17500D01*
X241949Y39449D01*
Y62146D01*
X130000Y11500D02*
Y17500D01*
X125000Y6500D02*
X130000Y11500D01*
X115000Y6500D02*
X125000D01*
X110000Y11500D02*
X115000Y6500D01*
X110000Y11500D02*
Y17500D01*
X130000D02*
X151949Y39449D01*
Y61752D01*
X120000Y17500D02*
Y50500D01*
X108748Y61752D02*
X120000Y50500D01*
X88051Y61752D02*
X108748D01*
X30000Y9500D02*
Y17500D01*
Y9500D02*
X34000Y5500D01*
X46000D01*
X50000Y9500D01*
Y17500D01*
X40000D02*
Y44500D01*
X22748Y61752D02*
X40000Y44500D01*
X8051Y61752D02*
X22748D01*
X50000Y17500D02*
Y50500D01*
X61252Y61752D01*
X71949D01*
X438000Y15500D02*
X460000Y37500D01*
X389000Y15500D02*
X438000D01*
X385000Y19500D02*
X389000Y15500D01*
X371000Y19500D02*
X385000D01*
X432000Y47500D02*
X470000D01*
X429000Y44500D02*
X432000Y47500D01*
X371000Y44500D02*
X429000D01*
X348000Y19500D02*
X356283D01*
X343000Y24500D02*
X348000Y19500D01*
X343000Y24500D02*
Y49500D01*
X348000Y54500D02*
X356283D01*
X343000Y49500D02*
X348000Y54500D01*
X356283Y19500D02*
X371000D01*
X356283Y54500D02*
X371000D01*
X356283Y44500D02*
X371000D01*
Y29500D02*
Y44500D01*
X356283Y29500D02*
X371000D01*
X342284Y107500D02*
X357283Y122500D01*
X410000D01*
X420000Y112500D01*
Y97500D02*
Y112500D01*
X342284Y83484D02*
Y107500D01*
X405984Y83484D02*
X410000Y87500D01*
X377716Y83484D02*
X405984D01*
X377716D02*
Y107500D01*
X321949Y62146D02*
Y87146D01*
X321988Y87185D01*
Y112146D01*
X258051D02*
X321988D01*
X258051Y87146D02*
Y112146D01*
X241949Y62146D02*
Y87146D01*
X241988Y87185D01*
Y112146D01*
X178051D02*
X241988D01*
X178051Y87146D02*
Y112146D01*
X151949Y61752D02*
Y86752D01*
X151988Y86791D01*
Y111752D01*
X88051D02*
X151988D01*
X88051Y86752D02*
Y111752D01*
X71949Y61752D02*
Y86752D01*
X71988Y86791D01*
Y111752D01*
X8051D02*
X71988D01*
X8051Y86752D02*
Y111752D01*
D11*
X371000Y19500D02*
D03*
X356283D02*
D03*
X40000Y17500D02*
D03*
X30000D02*
D03*
X210000D02*
D03*
X200000D02*
D03*
X120000D02*
D03*
X110000D02*
D03*
X371000Y54500D02*
D03*
X290000Y17500D02*
D03*
X280000D02*
D03*
X356283Y54500D02*
D03*
D12*
X371000Y29500D02*
D03*
X356283D02*
D03*
X371000Y44500D02*
D03*
X356283D02*
D03*
D13*
X258051Y62146D02*
D03*
X178051D02*
D03*
X88051Y61752D02*
D03*
X8051D02*
D03*
D14*
X258051Y112146D02*
D03*
X321988D02*
D03*
X321949Y87146D02*
D03*
Y62146D02*
D03*
X258051Y87146D02*
D03*
X178051Y112146D02*
D03*
X241988D02*
D03*
X241949Y87146D02*
D03*
Y62146D02*
D03*
X178051Y87146D02*
D03*
X88051Y111752D02*
D03*
X151988D02*
D03*
X151949Y86752D02*
D03*
Y61752D02*
D03*
X88051Y86752D02*
D03*
X8051Y111752D02*
D03*
X71988D02*
D03*
X71949Y86752D02*
D03*
Y61752D02*
D03*
X8051Y86752D02*
D03*
D15*
X50000Y17500D02*
D03*
X220000D02*
D03*
X130000D02*
D03*
X300000D02*
D03*
D16*
X377716Y83484D02*
D03*
Y107500D02*
D03*
X342284D02*
D03*
Y83484D02*
D03*
D17*
X360000Y107500D02*
D03*
Y89784D02*
D03*
D18*
X400000Y27500D02*
D03*
X470000D02*
D03*
X460000Y37500D02*
D03*
X480000D02*
D03*
X470000Y47500D02*
D03*
X400000Y97500D02*
D03*
X410000Y87500D02*
D03*
X420000Y97500D02*
D03*
X410000Y107500D02*
D03*
X480000D02*
D03*
M02*
