G04*
G04 #@! TF.GenerationSoftware,Altium Limited,Altium Designer,18.1.9 (240)*
G04*
G04 Layer_Physical_Order=2*
G04 Layer_Color=16711680*
%FSLAX25Y25*%
%MOIN*%
G70*
G01*
G75*
%ADD10C,0.05000*%
%ADD11R,0.18898X0.11024*%
%ADD12C,0.06693*%
%ADD13C,0.08000*%
G04:AMPARAMS|DCode=14|XSize=78.74mil|YSize=78.74mil|CornerRadius=19.68mil|HoleSize=0mil|Usage=FLASHONLY|Rotation=90.000|XOffset=0mil|YOffset=0mil|HoleType=Round|Shape=RoundedRectangle|*
%AMROUNDEDRECTD14*
21,1,0.07874,0.03937,0,0,90.0*
21,1,0.03937,0.07874,0,0,90.0*
1,1,0.03937,0.01968,0.01968*
1,1,0.03937,0.01968,-0.01968*
1,1,0.03937,-0.01968,-0.01968*
1,1,0.03937,-0.01968,0.01968*
%
%ADD14ROUNDEDRECTD14*%
%ADD15R,0.05906X0.05906*%
%ADD16C,0.05906*%
%ADD17R,0.05906X0.05906*%
G36*
X450500Y500D02*
X500D01*
Y150500D01*
X450500D01*
Y500D01*
D02*
G37*
%LPC*%
G36*
X202468Y137770D02*
X198531D01*
X197495Y137634D01*
X196530Y137234D01*
X195701Y136598D01*
X195502Y136338D01*
X160498D01*
X160299Y136598D01*
X159470Y137234D01*
X158504Y137634D01*
X157468Y137770D01*
X153532D01*
X152496Y137634D01*
X151530Y137234D01*
X150701Y136598D01*
X150065Y135769D01*
X149665Y134804D01*
X149529Y133768D01*
Y129831D01*
X149665Y128795D01*
X150065Y127829D01*
X150701Y127000D01*
X150961Y126801D01*
Y111798D01*
X150701Y111598D01*
X150065Y110769D01*
X149665Y109804D01*
X149529Y108768D01*
Y104831D01*
X149665Y103795D01*
X150065Y102829D01*
X150701Y102000D01*
X151530Y101364D01*
X152496Y100964D01*
X153532Y100828D01*
X157468D01*
X158504Y100964D01*
X159470Y101364D01*
X160299Y102000D01*
X160935Y102829D01*
X161335Y103795D01*
X161471Y104831D01*
Y108768D01*
X161335Y109804D01*
X160935Y110769D01*
X160299Y111598D01*
X160039Y111798D01*
Y126801D01*
X160299Y127000D01*
X160498Y127260D01*
X195502D01*
X195701Y127000D01*
X195961Y126801D01*
Y111798D01*
X195701Y111598D01*
X195065Y110769D01*
X194665Y109804D01*
X194529Y108768D01*
Y104831D01*
X194665Y103795D01*
X195065Y102829D01*
X195701Y102000D01*
X195961Y101801D01*
Y86798D01*
X195701Y86598D01*
X195065Y85769D01*
X194665Y84804D01*
X194529Y83768D01*
Y79831D01*
X194665Y78795D01*
X195065Y77829D01*
X195701Y77000D01*
X195961Y76801D01*
Y44457D01*
X186957Y35453D01*
X183470D01*
Y33202D01*
X182970Y32965D01*
X182962Y32972D01*
Y58876D01*
X182807Y60051D01*
X182353Y61146D01*
X181632Y62086D01*
X161471Y82247D01*
Y83768D01*
X161335Y84804D01*
X160935Y85769D01*
X160299Y86598D01*
X159470Y87234D01*
X158504Y87634D01*
X157468Y87770D01*
X153532D01*
X152496Y87634D01*
X151530Y87234D01*
X150701Y86598D01*
X150065Y85769D01*
X149665Y84804D01*
X149529Y83768D01*
Y79831D01*
X149665Y78795D01*
X150065Y77829D01*
X150701Y77000D01*
X151530Y76364D01*
X152496Y75964D01*
X153532Y75828D01*
X155052D01*
X173884Y56996D01*
Y32484D01*
X173693Y32024D01*
X173152D01*
X172749Y32998D01*
X171955Y34032D01*
X170921Y34826D01*
X169716Y35325D01*
X168423Y35495D01*
X167130Y35325D01*
X165925Y34826D01*
X164891Y34032D01*
X164097Y32998D01*
X163598Y31793D01*
X163427Y30500D01*
X163598Y29207D01*
X163884Y28515D01*
Y25577D01*
X164039Y24403D01*
X164492Y23308D01*
X165213Y22368D01*
X170791Y16791D01*
X170791Y16791D01*
X171731Y16069D01*
X172825Y15616D01*
X174000Y15461D01*
X174000Y15461D01*
X180000D01*
X181175Y15616D01*
X182269Y16069D01*
X183209Y16791D01*
X191632Y25213D01*
X191632Y25213D01*
X191888Y25547D01*
X193376D01*
Y29034D01*
X203709Y39368D01*
X203709Y39368D01*
X204431Y40308D01*
X204884Y41403D01*
X205039Y42577D01*
Y76801D01*
X205299Y77000D01*
X205935Y77829D01*
X206335Y78795D01*
X206471Y79831D01*
Y83768D01*
X206335Y84804D01*
X205935Y85769D01*
X205299Y86598D01*
X205039Y86798D01*
Y101801D01*
X205299Y102000D01*
X205935Y102829D01*
X206335Y103795D01*
X206471Y104831D01*
Y108768D01*
X206335Y109804D01*
X205935Y110769D01*
X205299Y111598D01*
X205039Y111798D01*
Y126801D01*
X205299Y127000D01*
X205935Y127829D01*
X206335Y128795D01*
X206471Y129831D01*
Y133768D01*
X206335Y134804D01*
X205935Y135769D01*
X205299Y136598D01*
X204470Y137234D01*
X203504Y137634D01*
X202468Y137770D01*
D02*
G37*
G36*
X82468D02*
X78531D01*
X77495Y137634D01*
X76530Y137234D01*
X75701Y136598D01*
X75502Y136338D01*
X40498D01*
X40299Y136598D01*
X39470Y137234D01*
X38504Y137634D01*
X37468Y137770D01*
X33531D01*
X32495Y137634D01*
X31530Y137234D01*
X30701Y136598D01*
X30065Y135769D01*
X29665Y134804D01*
X29529Y133768D01*
Y129831D01*
X29665Y128795D01*
X30065Y127829D01*
X30701Y127000D01*
X30961Y126801D01*
Y111798D01*
X30701Y111598D01*
X30065Y110769D01*
X29665Y109804D01*
X29529Y108768D01*
Y104831D01*
X29665Y103795D01*
X30065Y102829D01*
X30701Y102000D01*
X31530Y101364D01*
X32495Y100964D01*
X33531Y100828D01*
X37468D01*
X38504Y100964D01*
X39470Y101364D01*
X40299Y102000D01*
X40935Y102829D01*
X41335Y103795D01*
X41471Y104831D01*
Y108768D01*
X41335Y109804D01*
X40935Y110769D01*
X40299Y111598D01*
X40039Y111798D01*
Y126801D01*
X40299Y127000D01*
X40498Y127260D01*
X75502D01*
X75701Y127000D01*
X75961Y126801D01*
Y111798D01*
X75701Y111598D01*
X75065Y110769D01*
X74665Y109804D01*
X74529Y108768D01*
Y104831D01*
X74665Y103795D01*
X75065Y102829D01*
X75701Y102000D01*
X75961Y101801D01*
Y86798D01*
X75701Y86598D01*
X75065Y85769D01*
X74665Y84804D01*
X74529Y83768D01*
Y79831D01*
X74665Y78795D01*
X75065Y77829D01*
X75701Y77000D01*
X75961Y76801D01*
Y44457D01*
X66957Y35453D01*
X63470D01*
Y33202D01*
X62970Y32965D01*
X62962Y32972D01*
Y58876D01*
X62807Y60051D01*
X62353Y61146D01*
X61632Y62086D01*
X41471Y82247D01*
Y83768D01*
X41335Y84804D01*
X40935Y85769D01*
X40299Y86598D01*
X39470Y87234D01*
X38504Y87634D01*
X37468Y87770D01*
X33531D01*
X32495Y87634D01*
X31530Y87234D01*
X30701Y86598D01*
X30065Y85769D01*
X29665Y84804D01*
X29529Y83768D01*
Y79831D01*
X29665Y78795D01*
X30065Y77829D01*
X30701Y77000D01*
X31530Y76364D01*
X32495Y75964D01*
X33531Y75828D01*
X35052D01*
X53884Y56996D01*
Y32484D01*
X53693Y32024D01*
X53152D01*
X52749Y32998D01*
X51955Y34032D01*
X50920Y34826D01*
X49716Y35325D01*
X48423Y35495D01*
X47130Y35325D01*
X45925Y34826D01*
X44890Y34032D01*
X44097Y32998D01*
X43597Y31793D01*
X43427Y30500D01*
X43597Y29207D01*
X43884Y28515D01*
Y24577D01*
X44039Y23403D01*
X44492Y22308D01*
X45213Y21368D01*
X48291Y18291D01*
X49231Y17569D01*
X50325Y17116D01*
X51500Y16961D01*
X65500D01*
X66675Y17116D01*
X67769Y17569D01*
X68709Y18291D01*
X71632Y21213D01*
X72354Y22153D01*
X72807Y23248D01*
X72962Y24423D01*
Y25547D01*
X73375D01*
Y29034D01*
X83709Y39368D01*
X83709Y39368D01*
X84431Y40308D01*
X84884Y41403D01*
X85039Y42577D01*
Y76801D01*
X85299Y77000D01*
X85935Y77829D01*
X86335Y78795D01*
X86471Y79831D01*
Y83768D01*
X86335Y84804D01*
X85935Y85769D01*
X85299Y86598D01*
X85039Y86798D01*
Y101801D01*
X85299Y102000D01*
X85935Y102829D01*
X86335Y103795D01*
X86471Y104831D01*
Y108768D01*
X86335Y109804D01*
X85935Y110769D01*
X85299Y111598D01*
X85039Y111798D01*
Y126801D01*
X85299Y127000D01*
X85935Y127829D01*
X86335Y128795D01*
X86471Y129831D01*
Y133768D01*
X86335Y134804D01*
X85935Y135769D01*
X85299Y136598D01*
X84470Y137234D01*
X83504Y137634D01*
X82468Y137770D01*
D02*
G37*
G36*
X280500Y137291D02*
X279079Y137104D01*
X277754Y136555D01*
X276617Y135682D01*
X275744Y134545D01*
X275195Y133221D01*
X275008Y131799D01*
X275195Y130378D01*
X275744Y129053D01*
X276617Y127916D01*
X277754Y127043D01*
X279079Y126495D01*
X280500Y126307D01*
X281921Y126495D01*
X283246Y127043D01*
X284383Y127916D01*
X285256Y129053D01*
X285805Y130378D01*
X285992Y131799D01*
X285805Y133221D01*
X285256Y134545D01*
X284383Y135682D01*
X283246Y136555D01*
X281921Y137104D01*
X280500Y137291D01*
D02*
G37*
G36*
X420500Y136529D02*
X419324Y136413D01*
X418193Y136070D01*
X417150Y135513D01*
X416237Y134763D01*
X415487Y133850D01*
X414930Y132807D01*
X414587Y131676D01*
X414471Y130500D01*
X414587Y129324D01*
X414930Y128193D01*
X415487Y127150D01*
X416237Y126237D01*
X417150Y125487D01*
X418193Y124930D01*
X419324Y124587D01*
X420500Y124471D01*
X421676Y124587D01*
X422807Y124930D01*
X423849Y125487D01*
X424763Y126237D01*
X425513Y127150D01*
X426070Y128193D01*
X426413Y129324D01*
X426529Y130500D01*
X426413Y131676D01*
X426070Y132807D01*
X425513Y133850D01*
X424763Y134763D01*
X423849Y135513D01*
X422807Y136070D01*
X421676Y136413D01*
X420500Y136529D01*
D02*
G37*
G36*
X350500D02*
X349324Y136413D01*
X348193Y136070D01*
X347150Y135513D01*
X346237Y134763D01*
X345487Y133850D01*
X344930Y132807D01*
X344587Y131676D01*
X344471Y130500D01*
X344587Y129324D01*
X344930Y128193D01*
X345487Y127150D01*
X346237Y126237D01*
X347150Y125487D01*
X348193Y124930D01*
X349324Y124587D01*
X350500Y124471D01*
X351676Y124587D01*
X352807Y124930D01*
X353850Y125487D01*
X354763Y126237D01*
X355513Y127150D01*
X356070Y128193D01*
X356413Y129324D01*
X356529Y130500D01*
X356413Y131676D01*
X356070Y132807D01*
X355513Y133850D01*
X354763Y134763D01*
X353850Y135513D01*
X352807Y136070D01*
X351676Y136413D01*
X350500Y136529D01*
D02*
G37*
G36*
X340500Y126529D02*
X339324Y126413D01*
X338193Y126070D01*
X337151Y125513D01*
X336237Y124763D01*
X335487Y123849D01*
X334930Y122807D01*
X334587Y121676D01*
X334471Y120500D01*
X334587Y119324D01*
X334930Y118193D01*
X335487Y117150D01*
X336237Y116237D01*
X337151Y115487D01*
X338193Y114930D01*
X339324Y114587D01*
X340500Y114471D01*
X341676Y114587D01*
X342807Y114930D01*
X343849Y115487D01*
X344763Y116237D01*
X345513Y117150D01*
X346070Y118193D01*
X346413Y119324D01*
X346529Y120500D01*
X346413Y121676D01*
X346070Y122807D01*
X345513Y123849D01*
X344763Y124763D01*
X343849Y125513D01*
X342807Y126070D01*
X341676Y126413D01*
X340500Y126529D01*
D02*
G37*
G36*
X309665Y139311D02*
X286768D01*
Y124287D01*
X293678D01*
Y115295D01*
X286768D01*
Y114384D01*
X286757Y114366D01*
X286251Y114374D01*
X286092Y115581D01*
X285514Y116978D01*
X284594Y118177D01*
X283395Y119097D01*
X281998Y119675D01*
X280500Y119872D01*
X279001Y119675D01*
X277605Y119097D01*
X276406Y118177D01*
X275486Y116978D01*
X274908Y115581D01*
X274749Y114374D01*
X274243Y114366D01*
X274232Y114384D01*
Y115295D01*
X267322D01*
Y124287D01*
X274232D01*
Y139311D01*
X251335D01*
Y124287D01*
X258245D01*
Y115295D01*
X251335D01*
Y100272D01*
X267309D01*
X277291Y90291D01*
X278231Y89569D01*
X279325Y89116D01*
X280500Y88961D01*
X353500D01*
X354675Y89116D01*
X355769Y89569D01*
X356709Y90291D01*
X363709Y97290D01*
X363709Y97291D01*
X364431Y98231D01*
X364884Y99325D01*
X365039Y100500D01*
Y116573D01*
X365513Y117150D01*
X366070Y118193D01*
X366413Y119324D01*
X366529Y120500D01*
X366413Y121676D01*
X366070Y122807D01*
X365513Y123849D01*
X364763Y124763D01*
X363849Y125513D01*
X362807Y126070D01*
X361676Y126413D01*
X360500Y126529D01*
X359324Y126413D01*
X358193Y126070D01*
X357151Y125513D01*
X356237Y124763D01*
X355487Y123849D01*
X354930Y122807D01*
X354587Y121676D01*
X354471Y120500D01*
X354587Y119324D01*
X354930Y118193D01*
X355487Y117150D01*
X355961Y116573D01*
Y113963D01*
X355461Y113913D01*
X354763Y114763D01*
X353850Y115513D01*
X352807Y116070D01*
X351676Y116413D01*
X350500Y116529D01*
X349324Y116413D01*
X348193Y116070D01*
X347150Y115513D01*
X346237Y114763D01*
X345487Y113849D01*
X344930Y112807D01*
X344783Y112322D01*
X309665D01*
Y115295D01*
X302755D01*
Y124287D01*
X309665D01*
Y139311D01*
D02*
G37*
G36*
X410500Y56529D02*
X409324Y56413D01*
X408193Y56070D01*
X407151Y55513D01*
X406237Y54763D01*
X405487Y53850D01*
X404930Y52807D01*
X404587Y51676D01*
X404471Y50500D01*
X404587Y49324D01*
X404930Y48193D01*
X405487Y47150D01*
X406237Y46237D01*
X407151Y45487D01*
X408193Y44930D01*
X409324Y44587D01*
X410500Y44471D01*
X411676Y44587D01*
X412807Y44930D01*
X413849Y45487D01*
X414763Y46237D01*
X415513Y47150D01*
X416070Y48193D01*
X416413Y49324D01*
X416529Y50500D01*
X416413Y51676D01*
X416070Y52807D01*
X415513Y53850D01*
X414763Y54763D01*
X413849Y55513D01*
X412807Y56070D01*
X411676Y56413D01*
X410500Y56529D01*
D02*
G37*
G36*
X340500D02*
X339324Y56413D01*
X338193Y56070D01*
X337151Y55513D01*
X336237Y54763D01*
X335487Y53850D01*
X334930Y52807D01*
X334587Y51676D01*
X334471Y50500D01*
X334587Y49324D01*
X334930Y48193D01*
X335487Y47150D01*
X336237Y46237D01*
X337151Y45487D01*
X338193Y44930D01*
X339324Y44587D01*
X340500Y44471D01*
X341676Y44587D01*
X342807Y44930D01*
X343849Y45487D01*
X344763Y46237D01*
X345513Y47150D01*
X346070Y48193D01*
X346413Y49324D01*
X346529Y50500D01*
X346413Y51676D01*
X346070Y52807D01*
X345513Y53850D01*
X344763Y54763D01*
X343849Y55513D01*
X342807Y56070D01*
X341676Y56413D01*
X340500Y56529D01*
D02*
G37*
G36*
X434500Y90039D02*
X407500D01*
X406325Y89884D01*
X405231Y89431D01*
X404291Y88709D01*
X404290Y88709D01*
X397291Y81709D01*
X396569Y80769D01*
X396116Y79675D01*
X395961Y78500D01*
Y64427D01*
X395487Y63850D01*
X394930Y62807D01*
X394587Y61676D01*
X394471Y60500D01*
X394587Y59324D01*
X394930Y58193D01*
X395487Y57151D01*
X396237Y56237D01*
X397150Y55487D01*
X398193Y54930D01*
X399324Y54587D01*
X400500Y54471D01*
X401676Y54587D01*
X402807Y54930D01*
X403850Y55487D01*
X404763Y56237D01*
X405513Y57151D01*
X406070Y58193D01*
X406413Y59324D01*
X406529Y60500D01*
X406413Y61676D01*
X406070Y62807D01*
X405513Y63850D01*
X405039Y64427D01*
Y67037D01*
X405539Y67087D01*
X406237Y66237D01*
X407151Y65487D01*
X408193Y64930D01*
X409324Y64587D01*
X410500Y64471D01*
X411676Y64587D01*
X412807Y64930D01*
X413849Y65487D01*
X414427Y65961D01*
X417037D01*
X417087Y65461D01*
X416237Y64763D01*
X415487Y63850D01*
X414930Y62807D01*
X414587Y61676D01*
X414471Y60500D01*
X414587Y59324D01*
X414930Y58193D01*
X415487Y57151D01*
X416237Y56237D01*
X417150Y55487D01*
X418193Y54930D01*
X419324Y54587D01*
X420500Y54471D01*
X421676Y54587D01*
X422807Y54930D01*
X423849Y55487D01*
X424763Y56237D01*
X425513Y57151D01*
X426070Y58193D01*
X426413Y59324D01*
X426529Y60500D01*
X426413Y61676D01*
X426070Y62807D01*
X425513Y63850D01*
X424763Y64763D01*
X423913Y65461D01*
X423963Y65961D01*
X425620D01*
X427961Y63620D01*
Y44380D01*
X409034Y25453D01*
X405547D01*
Y25039D01*
X375453D01*
Y25453D01*
X365547D01*
Y25039D01*
X335453D01*
Y25453D01*
X325547D01*
Y25039D01*
X295453D01*
Y25453D01*
X285547D01*
Y15547D01*
X288436D01*
X288536Y15047D01*
X288002Y14826D01*
X286968Y14032D01*
X286174Y12998D01*
X285675Y11793D01*
X285505Y10500D01*
X285675Y9207D01*
X286174Y8002D01*
X286968Y6968D01*
X288002Y6174D01*
X289207Y5675D01*
X290500Y5505D01*
X291793Y5675D01*
X292484Y5961D01*
X328516D01*
X329207Y5675D01*
X330500Y5505D01*
X331793Y5675D01*
X332485Y5961D01*
X368515D01*
X369207Y5675D01*
X370500Y5505D01*
X371793Y5675D01*
X372484Y5961D01*
X408516D01*
X409207Y5675D01*
X410500Y5505D01*
X411793Y5675D01*
X412485Y5961D01*
X425500D01*
X426675Y6116D01*
X427769Y6569D01*
X428709Y7291D01*
X446709Y25291D01*
X446709Y25291D01*
X447431Y26231D01*
X447884Y27325D01*
X448039Y28500D01*
Y76500D01*
X447884Y77675D01*
X447431Y78769D01*
X446709Y79709D01*
X437709Y88709D01*
X436769Y89431D01*
X435675Y89884D01*
X434500Y90039D01*
D02*
G37*
%LPD*%
G36*
X274749Y113791D02*
X274908Y112584D01*
X275486Y111188D01*
X276406Y109989D01*
X277605Y109069D01*
X279001Y108490D01*
X280500Y108293D01*
X281998Y108490D01*
X283395Y109069D01*
X284594Y109989D01*
X285514Y111188D01*
X286092Y112584D01*
X286251Y113791D01*
X286757Y113800D01*
X286768Y113781D01*
Y100272D01*
X309665D01*
Y103245D01*
X347783D01*
X348958Y103399D01*
X350053Y103853D01*
X350911Y104511D01*
X351676Y104587D01*
X352807Y104930D01*
X353850Y105487D01*
X354763Y106237D01*
X355461Y107087D01*
X355961Y107037D01*
Y102380D01*
X351620Y98039D01*
X282380D01*
X274232Y106187D01*
Y113781D01*
X274243Y113800D01*
X274749Y113791D01*
D02*
G37*
G36*
X438961Y74620D02*
Y30380D01*
X423620Y15039D01*
X412972D01*
X412965Y15047D01*
X413202Y15547D01*
X415453D01*
Y19034D01*
X435709Y39291D01*
X436431Y40231D01*
X436884Y41325D01*
X437039Y42500D01*
Y65500D01*
X437039Y65500D01*
X436884Y66675D01*
X436431Y67769D01*
X435709Y68709D01*
X430709Y73709D01*
X429769Y74431D01*
X428675Y74884D01*
X427500Y75039D01*
X414427D01*
X413849Y75513D01*
X412807Y76070D01*
X411676Y76413D01*
X410500Y76529D01*
X409324Y76413D01*
X408193Y76070D01*
X407151Y75513D01*
X406237Y74763D01*
X405539Y73913D01*
X405039Y73963D01*
Y76620D01*
X409380Y80961D01*
X432620D01*
X438961Y74620D01*
D02*
G37*
G36*
X405547Y15547D02*
X407798D01*
X408035Y15047D01*
X408028Y15039D01*
X372972D01*
X372965Y15047D01*
X373202Y15547D01*
X375453D01*
Y15961D01*
X405547D01*
Y15547D01*
D02*
G37*
G36*
X365547D02*
X367798D01*
X368035Y15047D01*
X368028Y15039D01*
X332972D01*
X332965Y15047D01*
X333202Y15547D01*
X335453D01*
Y15961D01*
X365547D01*
Y15547D01*
D02*
G37*
G36*
X325547D02*
X327798D01*
X328035Y15047D01*
X328028Y15039D01*
X292972D01*
X292965Y15047D01*
X293202Y15547D01*
X295453D01*
Y15961D01*
X325547D01*
Y15547D01*
D02*
G37*
D10*
X180000Y20000D02*
X188423Y28423D01*
X174000Y20000D02*
X180000D01*
X168423Y25577D02*
X174000Y20000D01*
X407500Y85500D02*
X434500D01*
X400500Y78500D02*
X407500Y85500D01*
X400500Y60500D02*
Y78500D01*
X434500Y85500D02*
X443500Y76500D01*
X410500Y10500D02*
X425500D01*
X443500Y28500D01*
Y76500D01*
X410500Y20500D02*
X432500Y42500D01*
Y65500D01*
X427500Y70500D02*
X432500Y65500D01*
X410500Y70500D02*
X427500D01*
X262784Y107783D02*
X266216D01*
X280500Y93500D01*
X353500D01*
X360500Y100500D01*
Y120500D01*
X298217Y107783D02*
X347783D01*
X350500Y110500D01*
X262784Y107783D02*
Y131799D01*
X298217Y107783D02*
Y131799D01*
X155500Y106799D02*
Y131799D01*
X200500D01*
Y106799D02*
Y131799D01*
Y81799D02*
Y106799D01*
Y42577D02*
Y81799D01*
X188423Y30500D02*
X200500Y42577D01*
X35500Y106799D02*
Y131799D01*
X80500D01*
Y106799D02*
Y131799D01*
Y81799D02*
Y106799D01*
Y42577D02*
Y81799D01*
X68423Y30500D02*
X80500Y42577D01*
X155500Y81799D02*
X178423Y58876D01*
Y30500D02*
Y58876D01*
X35500Y81799D02*
X58423Y58876D01*
Y30500D02*
Y58876D01*
X370500Y20500D02*
X410500D01*
X330500D02*
X370500D01*
X290500D02*
X330500D01*
X370500Y10500D02*
X410500D01*
X330500D02*
X370500D01*
X290500D02*
X330500D01*
X188423Y28423D02*
Y30500D01*
X168423Y25577D02*
Y30500D01*
X68423Y24423D02*
Y30500D01*
X65500Y21500D02*
X68423Y24423D01*
X51500Y21500D02*
X65500D01*
X48423Y24577D02*
X51500Y21500D01*
X48423Y24577D02*
Y30500D01*
D11*
X298217Y107783D02*
D03*
Y131799D02*
D03*
X262784D02*
D03*
Y107783D02*
D03*
D12*
X280500Y131799D02*
D03*
Y114083D02*
D03*
D13*
X340500Y50500D02*
D03*
X410500D02*
D03*
X400500Y60500D02*
D03*
X420500D02*
D03*
X410500Y70500D02*
D03*
X340500Y120500D02*
D03*
X350500Y110500D02*
D03*
X360500Y120500D02*
D03*
X350500Y130500D02*
D03*
X420500D02*
D03*
D14*
X200500Y131799D02*
D03*
Y106799D02*
D03*
Y81799D02*
D03*
X155500D02*
D03*
Y106799D02*
D03*
Y131799D02*
D03*
X80500D02*
D03*
Y106799D02*
D03*
Y81799D02*
D03*
X35500D02*
D03*
Y106799D02*
D03*
Y131799D02*
D03*
D15*
X188423Y30500D02*
D03*
X68423D02*
D03*
D16*
X178423D02*
D03*
X168423D02*
D03*
X410500Y10500D02*
D03*
X370500D02*
D03*
X58423Y30500D02*
D03*
X48423D02*
D03*
X330500Y10500D02*
D03*
X290500D02*
D03*
D17*
X410500Y20500D02*
D03*
X370500D02*
D03*
X330500D02*
D03*
X290500D02*
D03*
M02*
