M48
;Layer_Color=9474304
;FILE_FORMAT=2:5
INCH,LZ
;TYPE=PLATED
T1F00S00C0.03543
T2F00S00C0.04000
T3F00S00C0.06000
T4F00S00C0.06890
T5F00S00C0.07480
;TYPE=NON_PLATED
%
T01
X003Y00175
X004
X005
X011
X012
X013
X02
X021
X022
X028
X029
X03
X0356283Y00195
Y00295
X0371
Y00195
Y00445
Y00545
X0356283
Y00445
T02
X04Y00275
X046Y00375
X041Y00875
X04Y00975
X042
X041Y01075
X048
Y00375
X047Y00275
Y00475
T03
X0008051Y0061752
Y0086752
Y0111752
X0071988
X0088051
Y0086752
X0071949
Y0061752
X0088051
X0151949
Y0086752
X0151988Y0111752
X0178051Y0112146
Y0087146
Y0062146
X0241949
X0258051
Y0087146
X0241949
X0241988Y0112146
X0258051
X0321988
X0321949Y0087146
Y0062146
T04
X036Y01075
T05
X036Y0089784
M30
