M48
;Layer_Color=9474304
;FILE_FORMAT=2:5
INCH,LZ
;TYPE=PLATED
T1F00S00C0.03543
T2F00S00C0.04000
T3F00S00C0.06299
T4F00S00C0.06890
T5F00S00C0.07480
;TYPE=NON_PLATED
%
T01
X0048423Y00305
X0058423
X0068423
X0168423
X0178423
X0188423
X02905Y00205
Y00105
X03305
Y00205
X03705
Y00105
X04105
Y00205
T02
X03405Y00505
X04105
X04005Y00605
X04205
X04105Y00705
X04205Y01305
X03605Y01205
X03405
X03505Y01105
Y01305
T03
X00355Y0081799
Y0106799
Y0131799
X00805
Y0106799
Y0081799
X01555
Y0106799
Y0131799
X02005
Y0106799
Y0081799
T04
X02805Y0131799
T05
X02805Y0114083
M30
