M48
;Layer_Color=9474304
;FILE_FORMAT=2:5
INCH,LZ
T6F00S00C0.03200
%
G90
G05
T06
G00X0326955Y0017671
M15
G01X0328221Y001801
G01X0329432Y0018512
G01X0330568Y0019167
G01X0331608Y0019965
G01X0332535Y0020892
G01X0333333Y0021932
G01X0333988Y0023068
G01X033449Y0024279
G01X0334829Y0025545
G01X0335Y0026845
G01X0335Y0028155
G01X0334829Y0029455
G01X033449Y0030721
G01X0333988Y0031932
G01X0333333Y0033068
G01X0332535Y0034108
G01X0331608Y0035035
G01X0330568Y0035833
G01X0329432Y0036488
G01X0328221Y003699
G01X0326955Y0037329
G01X0325655Y00375
G01X0324345Y00375
G01X0323045Y0037329
G01X0321779Y003699
G01X0320568Y0036488
G01X0319432Y0035833
G01X0318392Y0035035
G01X0317465Y0034108
G01X0316667Y0033068
G01X0316012Y0031932
G01X031551Y0030721
G01X0315171Y0029455
G01X0315Y0028155
G01X0315Y0026845
G01X0315171Y0025545
G01X031551Y0024279
G01X0316012Y0023068
G01X0316667Y0021932
G01X0317465Y0020892
G01X0318392Y0019965
G01X0319432Y0019167
G01X0320568Y0018512
G01X0321779Y001801
G01X0323045Y0017671
G01X0324345Y00175
G01X0325655Y00175
G01X0326955Y0017671
M16
G00X0071955Y0017671
M15
G01X0073221Y001801
G01X0074432Y0018512
G01X0075568Y0019167
G01X0076608Y0019965
G01X0077535Y0020892
G01X0078333Y0021932
G01X0078988Y0023068
G01X007949Y0024279
G01X0079829Y0025545
G01X008Y0026845
G01X008Y0028155
G01X0079829Y0029455
G01X007949Y0030721
G01X0078988Y0031932
G01X0078333Y0033068
G01X0077535Y0034108
G01X0076608Y0035035
G01X0075568Y0035833
G01X0074432Y0036488
G01X0073221Y003699
G01X0071955Y0037329
G01X0070655Y00375
G01X0069345Y00375
G01X0068045Y0037329
G01X0066779Y003699
G01X0065568Y0036488
G01X0064432Y0035833
G01X0063392Y0035035
G01X0062465Y0034108
G01X0061667Y0033068
G01X0061012Y0031932
G01X006051Y0030721
G01X0060171Y0029455
G01X006Y0028155
G01X006Y0026845
G01X0060171Y0025545
G01X006051Y0024279
G01X0061012Y0023068
G01X0061667Y0021932
G01X0062465Y0020892
G01X0063392Y0019965
G01X0064432Y0019167
G01X0065568Y0018512
G01X0066779Y001801
G01X0068045Y0017671
G01X0069345Y00175
G01X0070655Y00175
G01X0071955Y0017671
M16
G00X0500769Y-0000903
M15
G01X0501349Y-0000361
G01X05016Y00005
G01X05016Y0128
G01X0501403Y0128769
G01X0500861Y0129349
G01X05Y01296
G01X00005Y01296
G01X-0000269Y0129403
G01X-0000849Y0128861
G01X-00011Y0128
G01X-00011Y00005
G01X-0000903Y-0000269
G01X-0000361Y-0000849
G01X00005Y-00011
G01X05Y-00011
G01X0500769Y-0000903
M16
M17
M30
