G04*
G04 #@! TF.GenerationSoftware,Altium Limited,Altium Designer,18.1.9 (240)*
G04*
G04 Layer_Physical_Order=1*
G04 Layer_Color=255*
%FSLAX23Y23*%
%MOIN*%
G70*
G01*
G75*
%ADD10R,0.047X0.055*%
%ADD11R,0.043X0.055*%
%ADD12R,0.055X0.024*%
%ADD13R,0.055X0.043*%
%ADD14O,0.091X0.024*%
%ADD15R,0.023X0.046*%
%ADD16O,0.023X0.046*%
%ADD17C,0.020*%
%ADD18C,0.030*%
%ADD19C,0.050*%
%ADD20C,0.040*%
%ADD21R,0.059X0.059*%
%ADD22C,0.059*%
%ADD23R,0.040X0.040*%
%ADD24C,0.040*%
G04:AMPARAMS|DCode=25|XSize=79mil|YSize=79mil|CornerRadius=20mil|HoleSize=0mil|Usage=FLASHONLY|Rotation=90.000|XOffset=0mil|YOffset=0mil|HoleType=Round|Shape=RoundedRectangle|*
%AMROUNDEDRECTD25*
21,1,0.079,0.039,0,0,90.0*
21,1,0.039,0.079,0,0,90.0*
1,1,0.039,0.020,0.020*
1,1,0.039,0.020,-0.020*
1,1,0.039,-0.020,-0.020*
1,1,0.039,-0.020,0.020*
%
%ADD25ROUNDEDRECTD25*%
G04:AMPARAMS|DCode=26|XSize=71mil|YSize=177mil|CornerRadius=18mil|HoleSize=0mil|Usage=FLASHONLY|Rotation=270.000|XOffset=0mil|YOffset=0mil|HoleType=Round|Shape=RoundedRectangle|*
%AMROUNDEDRECTD26*
21,1,0.071,0.142,0,0,270.0*
21,1,0.035,0.177,0,0,270.0*
1,1,0.035,-0.071,-0.018*
1,1,0.035,-0.071,0.018*
1,1,0.035,0.071,0.018*
1,1,0.035,0.071,-0.018*
%
%ADD26ROUNDEDRECTD26*%
G04:AMPARAMS|DCode=27|XSize=63mil|YSize=157mil|CornerRadius=16mil|HoleSize=0mil|Usage=FLASHONLY|Rotation=270.000|XOffset=0mil|YOffset=0mil|HoleType=Round|Shape=RoundedRectangle|*
%AMROUNDEDRECTD27*
21,1,0.063,0.126,0,0,270.0*
21,1,0.031,0.157,0,0,270.0*
1,1,0.031,-0.063,-0.016*
1,1,0.031,-0.063,0.016*
1,1,0.031,0.063,0.016*
1,1,0.031,0.063,-0.016*
%
%ADD27ROUNDEDRECTD27*%
%ADD28R,0.067X0.067*%
%ADD29C,0.067*%
%ADD30R,0.067X0.067*%
%ADD31R,0.059X0.059*%
%ADD32C,0.116*%
%ADD33C,0.060*%
G36*
X5000Y0D02*
X0D01*
Y3000D01*
X5000D01*
Y0D01*
D02*
G37*
%LPC*%
G36*
X4167Y2838D02*
X4153D01*
X4145Y2837D01*
X4138Y2834D01*
X4132Y2829D01*
X4129Y2825D01*
X3766D01*
X3763Y2829D01*
X3757Y2834D01*
X3750Y2837D01*
X3742Y2838D01*
X3727D01*
Y2788D01*
X3722D01*
Y2783D01*
X3673D01*
Y2768D01*
X3674Y2761D01*
X3677Y2753D01*
X3682Y2747D01*
X3685Y2744D01*
Y2582D01*
X3682Y2579D01*
X3679Y2575D01*
X3252D01*
X3252Y2575D01*
X2797D01*
X2674Y2698D01*
X2666Y2704D01*
X2657Y2708D01*
X2647Y2709D01*
X2576D01*
X2575Y2710D01*
X2569Y2713D01*
X2562Y2714D01*
X2504D01*
Y2672D01*
Y2630D01*
X2562D01*
X2569Y2631D01*
X2575Y2634D01*
X2576Y2635D01*
X2632D01*
X2755Y2512D01*
X2762Y2506D01*
X2771Y2502D01*
X2781Y2501D01*
X3221D01*
Y2450D01*
X3156D01*
Y2437D01*
X2739D01*
X2732Y2436D01*
X2726Y2434D01*
X2720Y2429D01*
X2675Y2384D01*
X2644Y2384D01*
X2636Y2392D01*
X2626Y2412D01*
X2628Y2420D01*
X2630Y2436D01*
X2628Y2451D01*
X2623Y2467D01*
X2616Y2481D01*
X2606Y2493D01*
X2594Y2503D01*
X2579Y2511D01*
X2564Y2515D01*
X2548Y2517D01*
X2450D01*
X2434Y2515D01*
X2419Y2511D01*
X2405Y2503D01*
X2392Y2493D01*
X2388Y2487D01*
X2364Y2482D01*
X2350Y2483D01*
X2159Y2674D01*
X2153Y2678D01*
X2146Y2681D01*
X2139Y2682D01*
X2128D01*
Y2688D01*
X2049D01*
Y2688D01*
X2039Y2688D01*
Y2688D01*
X2019Y2688D01*
X1960D01*
Y2682D01*
X1797D01*
Y2706D01*
X1706D01*
Y2615D01*
X1683Y2598D01*
X1606D01*
X1606Y2679D01*
X1685Y2758D01*
X2239D01*
X2351Y2645D01*
X2359Y2640D01*
X2368Y2636D01*
X2377Y2635D01*
X2422D01*
X2423Y2634D01*
X2429Y2631D01*
X2436Y2630D01*
X2494D01*
Y2672D01*
Y2714D01*
X2436D01*
X2429Y2713D01*
X2423Y2710D01*
X2422Y2709D01*
X2393D01*
X2281Y2821D01*
X2273Y2827D01*
X2264Y2831D01*
X2254Y2832D01*
X1670D01*
X1660Y2831D01*
X1651Y2827D01*
X1644Y2821D01*
X1543Y2721D01*
X1537Y2713D01*
X1533Y2704D01*
X1532Y2694D01*
X1532Y2598D01*
X1490D01*
X1480Y2597D01*
X1471Y2593D01*
X1464Y2587D01*
X1452Y2575D01*
X1208D01*
X1205Y2579D01*
X1202Y2582D01*
Y2744D01*
X1205Y2747D01*
X1210Y2753D01*
X1213Y2761D01*
X1214Y2768D01*
Y2783D01*
X1164D01*
Y2788D01*
X1159D01*
Y2838D01*
X1145D01*
X1137Y2837D01*
X1130Y2834D01*
X1124Y2829D01*
X1121Y2825D01*
X758D01*
X755Y2829D01*
X749Y2834D01*
X742Y2837D01*
X734Y2838D01*
X719D01*
Y2788D01*
X714D01*
Y2783D01*
X665D01*
Y2768D01*
X666Y2761D01*
X669Y2753D01*
X674Y2747D01*
X677Y2744D01*
Y2582D01*
X674Y2579D01*
X669Y2573D01*
X666Y2565D01*
X665Y2558D01*
Y2543D01*
X714D01*
X764D01*
Y2558D01*
X763Y2565D01*
X760Y2573D01*
X755Y2579D01*
X752Y2582D01*
Y2744D01*
X755Y2747D01*
X758Y2751D01*
X1121D01*
X1124Y2747D01*
X1127Y2744D01*
Y2582D01*
X1124Y2579D01*
X1119Y2573D01*
X1116Y2565D01*
X1115Y2558D01*
Y2543D01*
X1164D01*
Y2533D01*
X1115D01*
Y2518D01*
X1116Y2511D01*
X1119Y2503D01*
X1124Y2497D01*
X1127Y2494D01*
Y2332D01*
X1124Y2329D01*
X1119Y2323D01*
X1116Y2315D01*
X1115Y2308D01*
Y2293D01*
X1164D01*
X1214D01*
Y2308D01*
X1213Y2315D01*
X1210Y2323D01*
X1205Y2329D01*
X1202Y2332D01*
Y2494D01*
X1205Y2497D01*
X1208Y2501D01*
X1467D01*
X1477Y2502D01*
X1486Y2506D01*
X1502Y2481D01*
X1501Y2480D01*
X1400Y2379D01*
X1396Y2374D01*
X1393Y2367D01*
X1392Y2360D01*
Y2141D01*
X1386Y2137D01*
X1362Y2129D01*
X1214Y2277D01*
Y2283D01*
X1169D01*
Y2238D01*
X1176D01*
X1322Y2092D01*
Y1961D01*
X1312D01*
Y1934D01*
X1349D01*
Y1924D01*
X1312D01*
Y1904D01*
X1310D01*
Y1836D01*
X1321D01*
X1334Y1806D01*
X1230Y1702D01*
X1055D01*
X1050Y1710D01*
X1045Y1713D01*
X1043Y1730D01*
X1045Y1747D01*
X1050Y1750D01*
X1056Y1759D01*
X1060Y1769D01*
X1062Y1780D01*
X1060Y1791D01*
X1056Y1801D01*
X1050Y1810D01*
X1042Y1816D01*
Y1880D01*
X1040Y1889D01*
X1035Y1896D01*
X986Y1945D01*
X979Y1950D01*
X970Y1951D01*
X808D01*
X800Y1950D01*
X792Y1945D01*
X673Y1826D01*
X668Y1819D01*
X667Y1810D01*
Y1550D01*
X668Y1541D01*
X673Y1534D01*
X783Y1424D01*
X791Y1419D01*
X799Y1418D01*
X1144D01*
X1153Y1419D01*
X1160Y1424D01*
X1414Y1678D01*
X1430Y1674D01*
X1444Y1666D01*
X1445Y1661D01*
X1446Y1645D01*
X1445Y1629D01*
X1443Y1620D01*
X1445Y1611D01*
X1446Y1595D01*
X1445Y1579D01*
X1443Y1570D01*
X1445Y1561D01*
X1446Y1545D01*
X1445Y1529D01*
X1443Y1520D01*
X1445Y1511D01*
X1446Y1495D01*
X1445Y1479D01*
X1443Y1470D01*
X1445Y1461D01*
X1446Y1445D01*
X1445Y1429D01*
X1443Y1420D01*
X1445Y1411D01*
X1450Y1403D01*
X1458Y1398D01*
X1467Y1396D01*
X1534D01*
X1544Y1398D01*
X1551Y1403D01*
X1557Y1411D01*
X1559Y1420D01*
X1557Y1429D01*
X1556Y1445D01*
X1557Y1461D01*
X1559Y1470D01*
X1557Y1479D01*
X1556Y1495D01*
X1557Y1511D01*
X1559Y1520D01*
X1557Y1529D01*
X1556Y1545D01*
X1557Y1561D01*
X1559Y1570D01*
X1557Y1579D01*
X1556Y1595D01*
X1557Y1611D01*
X1559Y1620D01*
X1557Y1629D01*
X1556Y1645D01*
X1557Y1661D01*
X1559Y1670D01*
X1557Y1679D01*
X1556Y1695D01*
X1557Y1711D01*
X1559Y1720D01*
X1557Y1729D01*
X1556Y1745D01*
X1557Y1761D01*
X1559Y1770D01*
X1557Y1779D01*
X1556Y1795D01*
X1557Y1811D01*
X1559Y1820D01*
X1557Y1829D01*
X1551Y1837D01*
X1551Y1853D01*
X1557Y1861D01*
X1559Y1870D01*
X1559Y1870D01*
X1557Y1879D01*
X1551Y1887D01*
X1544Y1892D01*
X1544Y1892D01*
X1541Y1893D01*
X1534Y1894D01*
X1467D01*
X1446Y1918D01*
Y2349D01*
X1531Y2433D01*
X1715D01*
X1719Y2428D01*
X1729Y2421D01*
X1740Y2416D01*
X1752Y2415D01*
X1763Y2416D01*
X1774Y2421D01*
X1784Y2428D01*
X1788Y2433D01*
X1960D01*
Y2427D01*
X2039D01*
Y2433D01*
X2193D01*
X2291Y2336D01*
X2296Y2331D01*
X2303Y2329D01*
X2310Y2328D01*
X2684D01*
X2691Y2329D01*
X2698Y2331D01*
X2703Y2336D01*
X2750Y2383D01*
X2884D01*
X2896Y2353D01*
X2791Y2247D01*
X2323D01*
X2220Y2351D01*
X2213Y2356D01*
X2204Y2357D01*
X1790D01*
X1781Y2356D01*
X1774Y2351D01*
X1604Y2181D01*
X1599Y2174D01*
X1598Y2165D01*
Y1745D01*
X1599Y1736D01*
X1604Y1729D01*
X1679Y1654D01*
X1686Y1649D01*
X1695Y1648D01*
X1779D01*
X1785Y1643D01*
X1801Y1620D01*
X1802Y1618D01*
X1803Y1611D01*
X1804Y1595D01*
X1803Y1579D01*
X1801Y1570D01*
X1803Y1561D01*
X1804Y1545D01*
X1803Y1529D01*
X1801Y1520D01*
X1803Y1511D01*
X1804Y1495D01*
X1803Y1479D01*
X1801Y1470D01*
X1803Y1461D01*
X1804Y1445D01*
X1803Y1429D01*
X1801Y1420D01*
X1803Y1411D01*
X1809Y1403D01*
X1816Y1398D01*
X1826Y1396D01*
X1838D01*
Y765D01*
X1839Y756D01*
X1844Y749D01*
X1979Y614D01*
X1986Y609D01*
X1995Y608D01*
X2920D01*
X2929Y609D01*
X2936Y614D01*
X2966Y644D01*
X2971Y651D01*
X2972Y660D01*
Y677D01*
X2973Y677D01*
X2978Y684D01*
X2981Y692D01*
X2982Y700D01*
X2981Y708D01*
X2978Y716D01*
X2973Y723D01*
X2966Y728D01*
X2958Y731D01*
X2950Y732D01*
X2942Y731D01*
X2934Y728D01*
X2927Y723D01*
X2922Y716D01*
X2919Y708D01*
X2918Y700D01*
X2919Y692D01*
X2922Y684D01*
X2922Y684D01*
X2906Y657D01*
X2887Y657D01*
X2876Y685D01*
X2879Y692D01*
X2880Y695D01*
X2850D01*
Y700D01*
X2845D01*
Y730D01*
X2845Y730D01*
X2842Y732D01*
X2836Y763D01*
X3161Y1089D01*
X3167Y1096D01*
X3171Y1105D01*
X3172Y1115D01*
Y1415D01*
X3213Y1456D01*
X3225Y1456D01*
X3228Y1453D01*
X3236Y1438D01*
X3238Y1426D01*
X3234Y1416D01*
X3232Y1405D01*
X3234Y1394D01*
X3238Y1384D01*
X3245Y1375D01*
X3253Y1369D01*
X3263Y1365D01*
X3274Y1363D01*
X3285Y1365D01*
X3295Y1369D01*
X3304Y1375D01*
X3310Y1384D01*
X3315Y1394D01*
X3316Y1405D01*
X3315Y1416D01*
X3310Y1426D01*
X3304Y1435D01*
X3299Y1438D01*
X3297Y1455D01*
X3299Y1472D01*
X3304Y1475D01*
X3310Y1484D01*
X3315Y1494D01*
X3316Y1505D01*
X3315Y1516D01*
X3310Y1526D01*
X3304Y1535D01*
X3300Y1538D01*
X3302Y1556D01*
X3308Y1568D01*
X3564D01*
X3574Y1569D01*
X3583Y1573D01*
X3591Y1579D01*
X3749Y1737D01*
X3755Y1745D01*
X3758Y1754D01*
X3760Y1763D01*
Y2242D01*
X3765Y2246D01*
X3770Y2252D01*
X3773Y2260D01*
X3774Y2268D01*
Y2308D01*
X3773Y2316D01*
X3770Y2324D01*
X3765Y2330D01*
X3758Y2335D01*
X3750Y2339D01*
X3742Y2340D01*
X3703D01*
X3694Y2339D01*
X3687Y2335D01*
X3680Y2330D01*
X3675Y2324D01*
X3672Y2316D01*
X3671Y2308D01*
Y2268D01*
X3672Y2260D01*
X3675Y2252D01*
X3680Y2246D01*
X3685Y2242D01*
Y1779D01*
X3549Y1642D01*
X3308D01*
X3302Y1654D01*
X3300Y1672D01*
X3304Y1675D01*
X3310Y1684D01*
X3315Y1694D01*
X3316Y1705D01*
X3315Y1716D01*
X3310Y1726D01*
X3304Y1735D01*
X3299Y1738D01*
X3297Y1755D01*
X3299Y1772D01*
X3304Y1775D01*
X3310Y1784D01*
X3315Y1794D01*
X3315Y1801D01*
X3367Y1852D01*
X3372Y1859D01*
X3375Y1867D01*
X3376Y1875D01*
Y2025D01*
X3375Y2033D01*
X3372Y2041D01*
X3367Y2048D01*
X3360Y2053D01*
X3352Y2056D01*
X3344Y2057D01*
X3344Y2057D01*
X3255Y2146D01*
X3254Y2146D01*
X3247Y2172D01*
X3247Y2181D01*
X3265Y2199D01*
X3269Y2206D01*
X3271Y2215D01*
Y2372D01*
X3280D01*
Y2405D01*
X3249D01*
Y2415D01*
X3280D01*
Y2448D01*
X3276D01*
Y2501D01*
X3679D01*
X3682Y2497D01*
X3688Y2492D01*
X3695Y2489D01*
X3703Y2488D01*
X3717D01*
Y2538D01*
X3722D01*
Y2543D01*
X3772D01*
Y2558D01*
X3771Y2565D01*
X3768Y2573D01*
X3763Y2579D01*
X3760Y2582D01*
Y2744D01*
X3763Y2747D01*
X3766Y2751D01*
X4129D01*
X4132Y2747D01*
X4135Y2744D01*
Y2582D01*
X4132Y2579D01*
X4127Y2573D01*
X4124Y2565D01*
X4123Y2558D01*
Y2543D01*
X4172D01*
X4222D01*
Y2558D01*
X4221Y2565D01*
X4218Y2573D01*
X4213Y2579D01*
X4210Y2582D01*
Y2744D01*
X4213Y2747D01*
X4218Y2753D01*
X4221Y2761D01*
X4222Y2768D01*
Y2783D01*
X4172D01*
Y2788D01*
X4167D01*
Y2838D01*
D02*
G37*
G36*
X1184D02*
X1169D01*
Y2793D01*
X1214D01*
Y2808D01*
X1213Y2815D01*
X1210Y2823D01*
X1205Y2829D01*
X1199Y2834D01*
X1192Y2837D01*
X1184Y2838D01*
D02*
G37*
G36*
X709D02*
X695D01*
X687Y2837D01*
X680Y2834D01*
X674Y2829D01*
X669Y2823D01*
X666Y2815D01*
X665Y2808D01*
Y2793D01*
X709D01*
Y2838D01*
D02*
G37*
G36*
X4192D02*
X4177D01*
Y2793D01*
X4222D01*
Y2808D01*
X4221Y2815D01*
X4218Y2823D01*
X4213Y2829D01*
X4207Y2834D01*
X4200Y2837D01*
X4192Y2838D01*
D02*
G37*
G36*
X3717D02*
X3703D01*
X3695Y2837D01*
X3688Y2834D01*
X3682Y2829D01*
X3677Y2823D01*
X3674Y2815D01*
X3673Y2808D01*
Y2793D01*
X3717D01*
Y2838D01*
D02*
G37*
G36*
X4750Y2820D02*
X4736Y2819D01*
X4723Y2815D01*
X4711Y2808D01*
X4700Y2800D01*
X4692Y2789D01*
X4685Y2777D01*
X4681Y2764D01*
X4680Y2750D01*
X4681Y2736D01*
X4685Y2723D01*
X4692Y2711D01*
X4700Y2700D01*
X4711Y2692D01*
X4723Y2685D01*
X4736Y2681D01*
X4750Y2680D01*
X4764Y2681D01*
X4777Y2685D01*
X4789Y2692D01*
X4800Y2700D01*
X4808Y2711D01*
X4815Y2723D01*
X4819Y2736D01*
X4820Y2750D01*
X4819Y2764D01*
X4815Y2777D01*
X4808Y2789D01*
X4800Y2800D01*
X4789Y2808D01*
X4777Y2815D01*
X4764Y2819D01*
X4750Y2820D01*
D02*
G37*
G36*
X250D02*
X236Y2819D01*
X223Y2815D01*
X211Y2808D01*
X200Y2800D01*
X192Y2789D01*
X185Y2777D01*
X181Y2764D01*
X180Y2750D01*
X181Y2736D01*
X185Y2723D01*
X192Y2711D01*
X200Y2700D01*
X211Y2692D01*
X223Y2685D01*
X236Y2681D01*
X250Y2680D01*
X264Y2681D01*
X277Y2685D01*
X289Y2692D01*
X300Y2700D01*
X308Y2711D01*
X315Y2723D01*
X319Y2736D01*
X320Y2750D01*
X319Y2764D01*
X315Y2777D01*
X308Y2789D01*
X300Y2800D01*
X289Y2808D01*
X277Y2815D01*
X264Y2819D01*
X250Y2820D01*
D02*
G37*
G36*
X3772Y2533D02*
X3727D01*
Y2488D01*
X3742D01*
X3750Y2489D01*
X3757Y2492D01*
X3763Y2497D01*
X3768Y2503D01*
X3771Y2511D01*
X3772Y2518D01*
Y2533D01*
D02*
G37*
G36*
X764Y2533D02*
X719D01*
Y2488D01*
X734D01*
X742Y2489D01*
X749Y2492D01*
X755Y2497D01*
X760Y2503D01*
X763Y2511D01*
X764Y2518D01*
Y2533D01*
D02*
G37*
G36*
X709D02*
X665D01*
Y2518D01*
X666Y2511D01*
X669Y2503D01*
X674Y2497D01*
X680Y2492D01*
X687Y2489D01*
X695Y2488D01*
X709D01*
Y2533D01*
D02*
G37*
G36*
X4222Y2533D02*
X4172D01*
X4123D01*
Y2518D01*
X4124Y2511D01*
X4127Y2503D01*
X4132Y2497D01*
X4135Y2494D01*
Y2332D01*
X4132Y2329D01*
X4127Y2323D01*
X4124Y2315D01*
X4123Y2308D01*
Y2293D01*
X4172D01*
Y2288D01*
D01*
Y2293D01*
X4222D01*
Y2308D01*
X4221Y2315D01*
X4218Y2323D01*
X4213Y2329D01*
X4210Y2332D01*
Y2494D01*
X4213Y2497D01*
X4218Y2503D01*
X4221Y2511D01*
X4222Y2518D01*
Y2533D01*
D02*
G37*
G36*
Y2283D02*
X4177D01*
Y2238D01*
X4192D01*
X4200Y2239D01*
X4207Y2242D01*
X4213Y2247D01*
X4218Y2253D01*
X4221Y2261D01*
X4222Y2268D01*
Y2283D01*
D02*
G37*
G36*
X4167D02*
X4123D01*
Y2268D01*
X4124Y2261D01*
X4127Y2253D01*
X4132Y2247D01*
X4138Y2242D01*
X4145Y2239D01*
X4153Y2238D01*
X4167D01*
Y2283D01*
D02*
G37*
G36*
X1159Y2283D02*
X1115D01*
Y2268D01*
X1116Y2261D01*
X1119Y2253D01*
X1124Y2247D01*
X1130Y2242D01*
X1137Y2239D01*
X1145Y2238D01*
X1159D01*
Y2283D01*
D02*
G37*
G36*
X734Y2340D02*
X695D01*
X687Y2339D01*
X679Y2335D01*
X672Y2330D01*
X667Y2324D01*
X664Y2316D01*
X663Y2308D01*
Y2268D01*
X664Y2260D01*
X667Y2252D01*
X672Y2246D01*
X679Y2241D01*
X687Y2237D01*
X695Y2236D01*
X734D01*
X742Y2237D01*
X750Y2241D01*
X757Y2246D01*
X762Y2252D01*
X765Y2260D01*
X766Y2268D01*
Y2308D01*
X765Y2316D01*
X762Y2324D01*
X757Y2330D01*
X750Y2335D01*
X742Y2339D01*
X734Y2340D01*
D02*
G37*
G36*
X2855Y730D02*
Y705D01*
X2880D01*
X2879Y708D01*
X2876Y715D01*
X2871Y721D01*
X2865Y726D01*
X2858Y729D01*
X2855Y730D01*
D02*
G37*
G36*
X4750Y320D02*
X4736Y319D01*
X4723Y315D01*
X4711Y308D01*
X4700Y300D01*
X4692Y289D01*
X4685Y277D01*
X4681Y264D01*
X4680Y250D01*
X4681Y236D01*
X4685Y223D01*
X4692Y211D01*
X4700Y200D01*
X4711Y192D01*
X4723Y185D01*
X4736Y181D01*
X4750Y180D01*
X4764Y181D01*
X4777Y185D01*
X4789Y192D01*
X4800Y200D01*
X4808Y211D01*
X4815Y223D01*
X4819Y236D01*
X4820Y250D01*
X4819Y264D01*
X4815Y277D01*
X4808Y289D01*
X4800Y300D01*
X4789Y308D01*
X4777Y315D01*
X4764Y319D01*
X4750Y320D01*
D02*
G37*
G36*
X250D02*
X236Y319D01*
X223Y315D01*
X211Y308D01*
X200Y300D01*
X192Y289D01*
X185Y277D01*
X181Y264D01*
X180Y250D01*
X181Y236D01*
X185Y223D01*
X192Y211D01*
X200Y200D01*
X211Y192D01*
X223Y185D01*
X236Y181D01*
X250Y180D01*
X264Y181D01*
X277Y185D01*
X289Y192D01*
X300Y200D01*
X308Y211D01*
X315Y223D01*
X319Y236D01*
X320Y250D01*
X319Y264D01*
X315Y277D01*
X308Y289D01*
X300Y300D01*
X289Y308D01*
X277Y315D01*
X264Y319D01*
X250Y320D01*
D02*
G37*
%LPD*%
G36*
X1940Y2618D02*
X1926Y2588D01*
X1831D01*
X1816Y2618D01*
X1822Y2627D01*
X1932D01*
X1940Y2618D01*
D02*
G37*
G36*
X2327Y2429D02*
X2318Y2395D01*
X2310Y2393D01*
X2223Y2480D01*
X2218Y2484D01*
X2211Y2487D01*
X2204Y2488D01*
X2039D01*
Y2494D01*
X2037D01*
Y2515D01*
X1999D01*
Y2525D01*
X2037D01*
Y2540D01*
X2046Y2556D01*
X2062Y2564D01*
X2084D01*
Y2595D01*
X2094D01*
Y2564D01*
X2126D01*
Y2587D01*
X2156Y2600D01*
X2327Y2429D01*
D02*
G37*
G36*
X1694Y2493D02*
X1690Y2488D01*
X1528D01*
X1515Y2506D01*
X1512Y2517D01*
X1516Y2523D01*
X1564D01*
X1569Y2523D01*
X1574Y2523D01*
X1678D01*
X1694Y2493D01*
D02*
G37*
G36*
X1945Y2503D02*
X1932Y2488D01*
X1805D01*
X1792Y2516D01*
X1793Y2520D01*
X1805Y2533D01*
X1931D01*
X1945Y2503D01*
D02*
G37*
G36*
X2209Y2244D02*
X2195Y2216D01*
X2063D01*
Y2202D01*
X2034Y2200D01*
Y2200D01*
X1959D01*
Y2238D01*
X1880D01*
Y2236D01*
X1874D01*
X1865Y2235D01*
X1858Y2230D01*
X1748Y2120D01*
X1715Y2130D01*
X1714Y2137D01*
X1849Y2273D01*
X2181D01*
X2209Y2244D01*
D02*
G37*
G36*
X3003Y2279D02*
X3014Y2260D01*
Y2180D01*
Y2073D01*
X2651D01*
X2642Y2071D01*
X2635Y2066D01*
X2542Y1974D01*
X2537Y1967D01*
X2536Y1958D01*
Y1938D01*
X2533Y1910D01*
X2465D01*
Y1830D01*
X2472D01*
Y1705D01*
X2442Y1692D01*
X2426Y1707D01*
Y1790D01*
X2425Y1797D01*
X2423Y1804D01*
X2420Y1807D01*
X2406Y1830D01*
Y1910D01*
X2264D01*
Y1892D01*
X2205D01*
Y1910D01*
X2192D01*
Y1948D01*
X2205D01*
Y2027D01*
X2192D01*
Y2137D01*
X2205D01*
Y2206D01*
X2233Y2220D01*
X2289Y2164D01*
X2296Y2159D01*
X2305Y2158D01*
X2812D01*
X2821Y2159D01*
X2828Y2164D01*
X2951Y2288D01*
X2987D01*
X3003Y2279D01*
D02*
G37*
G36*
X3140Y2128D02*
X3138Y2126D01*
X3133Y2119D01*
X3132Y2111D01*
X3132Y2110D01*
X3115Y2086D01*
X3106Y2084D01*
X3095Y2080D01*
X3085Y2084D01*
X3075Y2086D01*
X3058Y2113D01*
Y2158D01*
X3128D01*
X3140Y2128D01*
D02*
G37*
G36*
X1996Y2059D02*
X2004Y2058D01*
X2037D01*
X2043Y2050D01*
X2040Y2015D01*
X2037Y2012D01*
X2034Y2011D01*
Y2011D01*
X1959D01*
Y2049D01*
X1959D01*
X1959Y2051D01*
X1981Y2061D01*
X1990Y2063D01*
X1996Y2059D01*
D02*
G37*
G36*
X3041Y2018D02*
X3044Y2019D01*
X3059Y2022D01*
X3059D01*
X3063Y2019D01*
X3066Y2017D01*
X3066Y2017D01*
X3075Y2015D01*
X3085Y2017D01*
X3085Y2017D01*
X3085Y2017D01*
X3095Y2021D01*
X3106Y2017D01*
X3106Y2017D01*
X3106Y2017D01*
X3115Y2015D01*
X3124Y2017D01*
X3124Y2017D01*
X3136Y2009D01*
X3141Y1972D01*
X3015Y1847D01*
X2933D01*
Y1763D01*
X2933D01*
X2943Y1739D01*
X2944Y1733D01*
X2938Y1726D01*
X2934Y1716D01*
X2932Y1705D01*
X2934Y1694D01*
X2938Y1684D01*
X2945Y1675D01*
X2949Y1672D01*
X2951Y1655D01*
X2949Y1638D01*
X2945Y1635D01*
X2938Y1626D01*
X2934Y1616D01*
X2932Y1605D01*
X2934Y1594D01*
X2938Y1584D01*
X2945Y1575D01*
X2949Y1572D01*
X2951Y1555D01*
X2949Y1538D01*
X2945Y1535D01*
X2938Y1526D01*
X2934Y1516D01*
X2932Y1505D01*
X2934Y1494D01*
X2938Y1484D01*
X2945Y1475D01*
X2949Y1472D01*
X2951Y1455D01*
X2949Y1438D01*
X2945Y1435D01*
X2938Y1426D01*
X2934Y1416D01*
X2932Y1405D01*
X2934Y1394D01*
X2938Y1384D01*
X2945Y1375D01*
X2953Y1369D01*
X2963Y1365D01*
X2974Y1363D01*
X2985Y1365D01*
X2995Y1369D01*
X3004Y1375D01*
X3010Y1384D01*
X3015Y1394D01*
X3016Y1405D01*
X3015Y1416D01*
X3010Y1426D01*
X3004Y1435D01*
X2999Y1438D01*
X2997Y1455D01*
X2999Y1472D01*
X3004Y1475D01*
X3010Y1484D01*
X3015Y1494D01*
X3016Y1505D01*
X3015Y1516D01*
X3010Y1526D01*
X3004Y1535D01*
X2999Y1538D01*
X2997Y1555D01*
X2999Y1572D01*
X3004Y1575D01*
X3010Y1584D01*
X3015Y1594D01*
X3016Y1605D01*
X3015Y1616D01*
X3010Y1626D01*
X3004Y1635D01*
X3000Y1638D01*
X3002Y1656D01*
X3008Y1668D01*
X3240D01*
X3246Y1656D01*
X3249Y1638D01*
X3245Y1635D01*
X3238Y1626D01*
X3234Y1616D01*
X3232Y1605D01*
X3234Y1594D01*
X3238Y1584D01*
X3245Y1575D01*
X3249Y1572D01*
X3246Y1554D01*
X3240Y1542D01*
X3209D01*
X3199Y1541D01*
X3190Y1537D01*
X3183Y1531D01*
X3108Y1456D01*
X3102Y1449D01*
X3098Y1440D01*
X3097Y1430D01*
X3098Y1423D01*
Y1130D01*
X2724Y756D01*
X2718Y749D01*
X2714Y740D01*
X2713Y730D01*
Y700D01*
X2714Y690D01*
X2711Y686D01*
X2697Y673D01*
X2688Y682D01*
X2681Y692D01*
X2682Y700D01*
X2681Y708D01*
X2678Y716D01*
X2677Y717D01*
Y1345D01*
X2676Y1352D01*
X2674Y1359D01*
X2669Y1364D01*
X2599Y1434D01*
X2594Y1439D01*
X2587Y1441D01*
X2580Y1442D01*
X2506D01*
Y1455D01*
X2457D01*
X2433Y1470D01*
Y1550D01*
X2426D01*
Y1614D01*
X2432Y1618D01*
X2436Y1619D01*
X2462D01*
X2467Y1618D01*
X2476Y1610D01*
X2487Y1606D01*
X2499Y1604D01*
X2511Y1606D01*
X2522Y1610D01*
X2532Y1618D01*
X2539Y1627D01*
X2543Y1638D01*
X2545Y1650D01*
X2543Y1662D01*
X2539Y1673D01*
X2532Y1683D01*
X2526Y1687D01*
Y1830D01*
X2533D01*
Y1832D01*
X2553D01*
Y1870D01*
X2558D01*
Y1875D01*
X2590D01*
Y1908D01*
X2581D01*
Y1949D01*
X2660Y2028D01*
X3017D01*
X3021Y2023D01*
X3028Y2019D01*
X3031Y2018D01*
Y2051D01*
X3041D01*
Y2018D01*
D02*
G37*
G36*
X1882Y2148D02*
Y2144D01*
X1919D01*
Y2134D01*
X1882D01*
Y2117D01*
X1909D01*
X1942Y2084D01*
X1950Y2079D01*
X1952Y2079D01*
X1949Y2049D01*
X1880D01*
Y2047D01*
X1830D01*
X1821Y2046D01*
X1814Y2041D01*
X1772Y1999D01*
X1742Y2012D01*
Y2051D01*
X1852Y2160D01*
X1882Y2148D01*
D02*
G37*
G36*
X1880Y2001D02*
X1880D01*
X1882Y1972D01*
X1882D01*
Y1955D01*
X1919D01*
X1957D01*
Y1964D01*
X2034D01*
Y1964D01*
X2063Y1962D01*
Y1948D01*
X2122D01*
X2128Y1938D01*
X2110Y1908D01*
X2103D01*
Y1870D01*
X2093D01*
Y1908D01*
X2065D01*
Y1892D01*
X1942D01*
Y1928D01*
X1957D01*
Y1945D01*
X1919D01*
X1882D01*
Y1928D01*
X1897D01*
Y1892D01*
X1859D01*
X1858Y1892D01*
X1826D01*
X1817Y1891D01*
X1792Y1900D01*
X1787Y1904D01*
Y1951D01*
X1839Y2003D01*
X1880D01*
Y2001D01*
D02*
G37*
G36*
X997Y1871D02*
Y1814D01*
X990Y1810D01*
X986Y1803D01*
X969Y1801D01*
X952Y1803D01*
X948Y1808D01*
X940Y1815D01*
X930Y1819D01*
X925Y1819D01*
Y1780D01*
X920D01*
Y1775D01*
X881D01*
X881Y1770D01*
X885Y1760D01*
X892Y1752D01*
X897Y1748D01*
X899Y1731D01*
X897Y1714D01*
X890Y1710D01*
X884Y1701D01*
X880Y1691D01*
X878Y1680D01*
X880Y1669D01*
X884Y1659D01*
X890Y1650D01*
X895Y1647D01*
X897Y1630D01*
X895Y1613D01*
X890Y1610D01*
X884Y1601D01*
X880Y1591D01*
X878Y1580D01*
X880Y1569D01*
X884Y1559D01*
X890Y1550D01*
X899Y1544D01*
X909Y1540D01*
X920Y1538D01*
X931Y1540D01*
X941Y1544D01*
X948Y1550D01*
X954Y1549D01*
X978Y1539D01*
Y1538D01*
X1062D01*
Y1558D01*
X1188D01*
X1200Y1528D01*
X1135Y1462D01*
X808D01*
X712Y1559D01*
Y1801D01*
X817Y1907D01*
X961D01*
X997Y1871D01*
D02*
G37*
G36*
X3312Y2025D02*
X3312Y2025D01*
Y1888D01*
X3270Y1846D01*
X3263Y1845D01*
X3253Y1841D01*
X3245Y1835D01*
X3238Y1826D01*
X3234Y1816D01*
X3232Y1805D01*
X3234Y1794D01*
X3238Y1784D01*
X3245Y1775D01*
X3249Y1772D01*
X3246Y1754D01*
X3240Y1742D01*
X3061D01*
X3058Y1744D01*
X3038Y1772D01*
X3041Y1781D01*
X3042Y1782D01*
X3216Y1957D01*
X3221Y1963D01*
X3225Y1971D01*
X3226Y1979D01*
X3225Y1988D01*
X3221Y1996D01*
X3216Y2002D01*
X3216Y2002D01*
Y2031D01*
X3217Y2039D01*
Y2062D01*
X3234Y2085D01*
X3240Y2089D01*
X3247Y2090D01*
X3312Y2025D01*
D02*
G37*
G36*
X2264Y1830D02*
X2272D01*
Y1696D01*
X2254D01*
Y1605D01*
X2345D01*
Y1605D01*
X2372Y1598D01*
Y1550D01*
X2366D01*
Y1548D01*
X2345D01*
Y1510D01*
Y1469D01*
X2364Y1455D01*
Y1375D01*
X2372D01*
X2372Y1369D01*
Y1350D01*
X2373Y1343D01*
X2376Y1337D01*
X2352Y1319D01*
X2085Y1586D01*
X2078Y1591D01*
X2069Y1592D01*
X1939D01*
X1933Y1597D01*
X1917Y1620D01*
X1916Y1622D01*
X1915Y1629D01*
X1914Y1645D01*
X1915Y1661D01*
X1917Y1670D01*
X1915Y1679D01*
X1910Y1687D01*
X1910Y1703D01*
X1915Y1711D01*
X1917Y1720D01*
X1915Y1729D01*
X1914Y1745D01*
X1915Y1761D01*
X1917Y1770D01*
X1915Y1779D01*
X1910Y1787D01*
X1910Y1803D01*
X1915Y1811D01*
X1917Y1820D01*
X1933Y1843D01*
X1939Y1848D01*
X2065D01*
Y1832D01*
X2078D01*
Y1758D01*
X2071Y1754D01*
X2065Y1745D01*
X2061Y1735D01*
X2060Y1730D01*
X2140D01*
X2139Y1735D01*
X2135Y1745D01*
X2129Y1754D01*
X2122Y1758D01*
Y1805D01*
X2134Y1830D01*
X2205D01*
Y1848D01*
X2264D01*
Y1830D01*
D02*
G37*
G36*
X1230Y1628D02*
X1205Y1602D01*
X1071D01*
X1064Y1627D01*
X1072Y1647D01*
X1079Y1657D01*
X1079Y1658D01*
X1218D01*
X1230Y1628D01*
D02*
G37*
G36*
X1968Y1403D02*
Y760D01*
X1969Y751D01*
X1974Y744D01*
X2009Y709D01*
X2007Y692D01*
X1975Y681D01*
X1882Y774D01*
Y1396D01*
X1893D01*
X1902Y1398D01*
X1910Y1403D01*
X1915Y1411D01*
X1916Y1418D01*
X1917Y1420D01*
X1920Y1425D01*
X1941Y1427D01*
X1968Y1403D01*
D02*
G37*
G36*
X2423Y1289D02*
Y717D01*
X2422Y716D01*
X2419Y708D01*
X2418Y700D01*
X2419Y692D01*
X2419Y690D01*
X2407Y665D01*
X2404Y661D01*
X2396D01*
X2393Y665D01*
X2381Y690D01*
X2381Y692D01*
X2382Y700D01*
X2381Y708D01*
X2378Y716D01*
X2373Y723D01*
X2372Y723D01*
Y1289D01*
X2371Y1298D01*
X2369Y1300D01*
X2393Y1319D01*
X2423Y1289D01*
D02*
G37*
G36*
X2328Y1280D02*
Y723D01*
X2327Y723D01*
X2322Y716D01*
X2319Y708D01*
X2318Y700D01*
X2319Y692D01*
X2319Y690D01*
X2307Y665D01*
X2304Y661D01*
X2296D01*
X2293Y665D01*
X2281Y690D01*
X2281Y692D01*
X2282Y700D01*
X2281Y708D01*
X2278Y716D01*
X2273Y723D01*
X2272Y723D01*
Y1269D01*
X2271Y1278D01*
X2266Y1285D01*
X2051Y1500D01*
X2061Y1532D01*
X2073Y1535D01*
X2328Y1280D01*
D02*
G37*
G36*
X2228Y1260D02*
Y723D01*
X2227Y723D01*
X2222Y716D01*
X2219Y708D01*
X2218Y700D01*
X2219Y692D01*
X2219Y690D01*
X2207Y665D01*
X2204Y661D01*
X2196D01*
X2193Y665D01*
X2181Y690D01*
X2181Y692D01*
X2182Y700D01*
X2181Y708D01*
X2178Y716D01*
X2173Y723D01*
X2166Y728D01*
X2158Y731D01*
X2150Y732D01*
X2142Y731D01*
X2134Y728D01*
X2127Y723D01*
X2122Y716D01*
X2119Y708D01*
X2118Y700D01*
X2119Y692D01*
X2122Y684D01*
X2109Y674D01*
X2100Y677D01*
X2082Y692D01*
Y732D01*
X2050D01*
X2012Y769D01*
Y1430D01*
X2012Y1433D01*
X2027Y1446D01*
X2037Y1451D01*
X2228Y1260D01*
D02*
G37*
G36*
X2623Y1334D02*
Y717D01*
X2622Y716D01*
X2619Y708D01*
X2618Y700D01*
X2619Y692D01*
X2622Y685D01*
X2609Y658D01*
X2589Y658D01*
X2577Y686D01*
X2579Y692D01*
X2580Y695D01*
X2520D01*
X2521Y692D01*
X2523Y686D01*
X2511Y658D01*
X2491Y658D01*
X2478Y685D01*
X2481Y692D01*
X2482Y700D01*
X2481Y708D01*
X2478Y716D01*
X2477Y717D01*
Y1300D01*
X2476Y1307D01*
X2474Y1314D01*
X2469Y1319D01*
X2443Y1345D01*
X2455Y1375D01*
X2506D01*
Y1388D01*
X2569D01*
X2623Y1334D01*
D02*
G37*
%LPC*%
G36*
X2590Y1865D02*
X2563D01*
Y1832D01*
X2590D01*
Y1865D01*
D02*
G37*
G36*
X915Y1819D02*
X910Y1819D01*
X900Y1815D01*
X892Y1808D01*
X885Y1800D01*
X881Y1790D01*
X881Y1785D01*
X915D01*
Y1819D01*
D02*
G37*
G36*
X2140Y1720D02*
X2060D01*
X2061Y1715D01*
X2065Y1705D01*
X2071Y1696D01*
X2078Y1692D01*
Y1650D01*
X2079Y1641D01*
X2084Y1634D01*
X2224Y1494D01*
X2231Y1489D01*
X2240Y1488D01*
X2309D01*
Y1472D01*
X2335D01*
Y1510D01*
Y1548D01*
X2309D01*
Y1532D01*
X2249D01*
X2122Y1659D01*
Y1692D01*
X2129Y1696D01*
X2135Y1705D01*
X2139Y1715D01*
X2140Y1720D01*
D02*
G37*
G36*
X2555Y730D02*
Y705D01*
X2580D01*
X2579Y708D01*
X2576Y715D01*
X2571Y721D01*
X2565Y726D01*
X2558Y729D01*
X2555Y730D01*
D02*
G37*
G36*
X2545D02*
X2542Y729D01*
X2535Y726D01*
X2529Y721D01*
X2524Y715D01*
X2521Y708D01*
X2520Y705D01*
X2545D01*
Y730D01*
D02*
G37*
%LPD*%
D10*
X2470Y1415D02*
D03*
X2400D02*
D03*
X2299Y1870D02*
D03*
X2370D02*
D03*
X2098D02*
D03*
X2169D02*
D03*
X2098Y1988D02*
D03*
X2169D02*
D03*
X2098Y2176D02*
D03*
X2169D02*
D03*
D11*
X2400Y1510D02*
D03*
X2340D02*
D03*
X2499Y1870D02*
D03*
X2558D02*
D03*
X3249Y2410D02*
D03*
X3190D02*
D03*
D12*
X1919Y2214D02*
D03*
Y2139D02*
D03*
X1994Y2176D02*
D03*
X1919Y2025D02*
D03*
Y1950D02*
D03*
X1994Y1988D02*
D03*
D13*
X1349Y1870D02*
D03*
Y1929D02*
D03*
X1999Y2461D02*
D03*
Y2520D02*
D03*
Y2655D02*
D03*
Y2596D02*
D03*
X2089Y2655D02*
D03*
Y2595D02*
D03*
D14*
X1859Y1420D02*
D03*
Y1470D02*
D03*
Y1520D02*
D03*
Y1570D02*
D03*
Y1620D02*
D03*
Y1670D02*
D03*
Y1720D02*
D03*
Y1770D02*
D03*
Y1820D02*
D03*
Y1870D02*
D03*
X1501Y1420D02*
D03*
Y1470D02*
D03*
Y1520D02*
D03*
Y1570D02*
D03*
Y1620D02*
D03*
Y1670D02*
D03*
Y1720D02*
D03*
Y1770D02*
D03*
Y1820D02*
D03*
Y1870D02*
D03*
D15*
X3194Y2260D02*
D03*
D16*
X3154D02*
D03*
X3115D02*
D03*
X3075D02*
D03*
X3036D02*
D03*
X3194Y2051D02*
D03*
X3154D02*
D03*
X3115D02*
D03*
X3075D02*
D03*
X3036D02*
D03*
D17*
X1745Y1720D02*
X1859D01*
X1780Y1770D02*
X1859D01*
X1792Y1820D02*
X1859D01*
X1790Y2335D02*
X2204D01*
X1620Y2165D02*
X1790Y2335D01*
X1620Y1745D02*
Y2165D01*
X2100Y1725D02*
Y1870D01*
Y1650D02*
X2240Y1510D01*
X2100Y1650D02*
Y1725D01*
X1984Y2100D02*
X2004Y2080D01*
X2100D01*
X1999Y1520D02*
X2250Y1269D01*
Y700D02*
Y1269D01*
X2350Y700D02*
Y1289D01*
X2069Y1570D02*
X2350Y1289D01*
X2240Y1510D02*
X2340D01*
X1919Y1870D02*
X2098D01*
X1919Y2139D02*
X1958Y2100D01*
X1984D01*
X3194Y2260D02*
Y2406D01*
X3190Y2410D02*
X3194Y2406D01*
X2651Y2051D02*
X3036D01*
X2558Y1958D02*
X2651Y2051D01*
X2558Y1870D02*
Y1958D01*
X1695Y1670D02*
X1859D01*
X1620Y1745D02*
X1695Y1670D01*
X1675Y1790D02*
X1745Y1720D01*
X1675Y1790D02*
Y2130D01*
X1720Y1830D02*
X1780Y1770D01*
X1720Y1830D02*
Y2060D01*
X1874Y2214D01*
X1919D01*
X1765Y1847D02*
X1792Y1820D01*
X1765Y1847D02*
Y1960D01*
X1830Y2025D01*
X1919D01*
X2204Y2335D02*
X2314Y2225D01*
X2800D01*
X2925Y2350D01*
X3125D01*
X3154Y2321D01*
Y2260D02*
Y2321D01*
X1675Y2130D02*
X1840Y2295D01*
X2190D01*
X2305Y2180D01*
X2812D01*
X2942Y2310D01*
X3105D01*
X3115Y2300D01*
Y2260D02*
Y2300D01*
X1919Y1870D02*
X1919Y1870D01*
Y1950D01*
X2169Y1987D02*
X2169Y1988D01*
X2169Y1870D02*
Y1987D01*
X1859Y1570D02*
X2069D01*
X1859Y1520D02*
X1999D01*
X1990Y760D02*
X2050Y700D01*
X1990Y760D02*
Y1430D01*
X1949Y1470D02*
X1989Y1430D01*
X1859Y1470D02*
X1949D01*
X2950Y660D02*
Y700D01*
X2920Y630D02*
X2950Y660D01*
X1995Y630D02*
X2920D01*
X1860Y765D02*
X1995Y630D01*
X1860Y765D02*
Y1420D01*
X1419Y1870D02*
X1501D01*
X1349D02*
X1419D01*
X1019Y1780D02*
Y1880D01*
X970Y1929D02*
X1019Y1880D01*
X808Y1929D02*
X970D01*
X689Y1810D02*
X808Y1929D01*
X689Y1550D02*
Y1810D01*
Y1550D02*
X799Y1440D01*
X1144D01*
X1424Y1720D01*
X1501D01*
X1019Y1580D02*
X1214D01*
X1404Y1770D01*
X1501D01*
X1019Y1680D02*
X1239D01*
X1379Y1820D01*
X1501D01*
X1994Y2176D02*
X2098D01*
X1994Y1988D02*
X2098D01*
X1859Y1870D02*
X1919D01*
X2169D02*
X2299D01*
X2169Y1988D02*
Y2176D01*
X3036Y2180D02*
Y2260D01*
Y2051D02*
Y2180D01*
X3214D02*
X3249Y2215D01*
X3036Y2180D02*
X3214D01*
X3249Y2215D02*
Y2410D01*
X3194Y1979D02*
Y2051D01*
X3154Y2110D02*
X3174Y2130D01*
X3239D01*
X3344Y2025D01*
X3154Y2051D02*
Y2110D01*
X3036Y2260D02*
X3075D01*
X1999Y2596D02*
X1999Y2595D01*
D18*
X2399Y1495D02*
Y1650D01*
X2399Y1376D02*
Y1495D01*
X2450Y700D02*
Y1300D01*
X2400Y1350D02*
X2450Y1300D01*
X2400Y1350D02*
Y1375D01*
X2470Y1415D02*
X2580D01*
X2650Y1345D01*
Y700D02*
Y1345D01*
X2310Y2355D02*
X2684D01*
X2204Y2461D02*
X2310Y2355D01*
X1999Y2461D02*
X2204D01*
X3252Y2538D02*
Y2538D01*
X3249Y2535D02*
X3252Y2538D01*
X3249Y2410D02*
Y2535D01*
X2739Y2410D02*
X3190D01*
X2684Y2355D02*
X2739Y2410D01*
X1419Y1870D02*
Y2360D01*
X1520Y2461D01*
X1752D01*
X1164Y2288D02*
X1349Y2103D01*
Y1929D02*
Y2103D01*
X2399Y1650D02*
Y1790D01*
X2370Y1819D02*
X2399Y1790D01*
X2370Y1819D02*
Y1870D01*
X2299Y1650D02*
Y1870D01*
X2499Y1650D02*
Y1870D01*
X2399Y1376D02*
X2400Y1375D01*
X2399Y1495D02*
X2399Y1495D01*
X1999Y2595D02*
X2089D01*
X2359Y2436D02*
X2499D01*
X2139Y2655D02*
X2359Y2436D01*
X1999Y2655D02*
X2139D01*
X1752Y2461D02*
X1999D01*
X1752Y2561D02*
X1964D01*
Y2555D02*
X1999Y2520D01*
X1964Y2555D02*
Y2561D01*
X1999Y2596D01*
X1752Y2661D02*
X1757Y2655D01*
X1999D01*
D19*
X1670Y2795D02*
X2254D01*
X1569Y2694D02*
X1670Y2795D01*
X1569Y2694D02*
X1569Y2561D01*
X2254Y2795D02*
X2377Y2672D01*
X3135Y1115D02*
Y1430D01*
X2750Y730D02*
X3135Y1115D01*
X2750Y700D02*
Y730D01*
X1569Y2561D02*
X1752D01*
X1490D02*
X1569D01*
Y2560D02*
Y2561D01*
X2499Y2672D02*
X2647D01*
X2377D02*
X2499D01*
X3252Y2538D02*
X3722D01*
X2781Y2538D02*
X3252D01*
X2647Y2672D02*
X2781Y2538D01*
X3209Y1505D02*
X3274D01*
X3134Y1430D02*
X3209Y1505D01*
X3274Y1605D02*
X3564D01*
X3722Y1763D01*
X2974Y1705D02*
X3274D01*
X4172Y2288D02*
Y2538D01*
Y2788D01*
X3722D02*
X4172D01*
X3722Y2538D02*
Y2788D01*
X714Y2538D02*
Y2788D01*
X1164D01*
Y2538D02*
Y2788D01*
Y2288D02*
Y2538D01*
X1467D01*
X1490Y2561D01*
X3722Y1763D02*
Y2288D01*
D20*
X2974Y1805D02*
X3019D01*
X3194Y1979D01*
X3344Y1875D02*
Y2025D01*
X3274Y1805D02*
X3344Y1875D01*
D21*
X1020Y1580D02*
D03*
D22*
X920D02*
D03*
X1020Y1680D02*
D03*
X920D02*
D03*
X1020Y1780D02*
D03*
X920D02*
D03*
X3274Y1805D02*
D03*
Y1705D02*
D03*
Y1605D02*
D03*
Y1505D02*
D03*
Y1405D02*
D03*
X2974D02*
D03*
Y1505D02*
D03*
Y1605D02*
D03*
Y1705D02*
D03*
D23*
X2050Y700D02*
D03*
D24*
X2150D02*
D03*
X2250D02*
D03*
X2350D02*
D03*
X2450D02*
D03*
X2550D02*
D03*
X2650D02*
D03*
X2750D02*
D03*
X2850D02*
D03*
X2950D02*
D03*
D25*
X714Y2788D02*
D03*
Y2538D02*
D03*
Y2288D02*
D03*
X1164D02*
D03*
Y2538D02*
D03*
Y2788D02*
D03*
X3722D02*
D03*
Y2538D02*
D03*
Y2288D02*
D03*
X4172D02*
D03*
Y2538D02*
D03*
Y2788D02*
D03*
D26*
X2499Y2436D02*
D03*
D27*
Y2672D02*
D03*
D28*
X2299Y1650D02*
D03*
D29*
X2399D02*
D03*
X2499D02*
D03*
X1752Y2461D02*
D03*
Y2561D02*
D03*
D30*
Y2661D02*
D03*
D31*
X2974Y1805D02*
D03*
D32*
X4750Y2750D02*
D03*
Y250D02*
D03*
X250D02*
D03*
Y2750D02*
D03*
D33*
X2100Y1725D02*
D03*
Y2080D02*
D03*
M02*
