G04*
G04 #@! TF.GenerationSoftware,Altium Limited,Altium Designer,18.1.9 (240)*
G04*
G04 Layer_Color=2752767*
%FSLAX23Y23*%
%MOIN*%
G70*
G01*
G75*
%ADD34C,0.002*%
%ADD35C,0.003*%
D34*
X1012Y1572D02*
Y1588D01*
X1028D01*
Y1572D01*
X1012D01*
X912D02*
Y1588D01*
X928D01*
Y1572D01*
X912D01*
X1012Y1672D02*
Y1688D01*
X1028D01*
Y1672D01*
X1012D01*
X912D02*
Y1688D01*
X928D01*
Y1672D01*
X912D01*
X1012Y1772D02*
Y1788D01*
X1028D01*
Y1772D01*
X1012D01*
X912D02*
Y1788D01*
X928D01*
Y1772D01*
X912D01*
X714Y2780D02*
X706Y2796D01*
X722D01*
X714Y2780D01*
Y2530D02*
X706Y2546D01*
X722D01*
X714Y2530D01*
Y2280D02*
X706Y2296D01*
X722D01*
X714Y2280D01*
X1164D02*
X1156Y2296D01*
X1172D01*
X1164Y2280D01*
Y2530D02*
X1156Y2546D01*
X1172D01*
X1164Y2530D01*
Y2780D02*
X1156Y2796D01*
X1172D01*
X1164Y2780D01*
X3722D02*
X3714Y2796D01*
X3730D01*
X3722Y2780D01*
Y2530D02*
X3714Y2546D01*
X3730D01*
X3722Y2530D01*
Y2280D02*
X3714Y2296D01*
X3730D01*
X3722Y2280D01*
X4172D02*
X4164Y2296D01*
X4180D01*
X4172Y2280D01*
Y2530D02*
X4164Y2546D01*
X4180D01*
X4172Y2530D01*
Y2780D02*
X4164Y2796D01*
X4180D01*
X4172Y2780D01*
X2499Y2428D02*
X2503Y2432D01*
X2507D01*
X2503Y2436D01*
X2507Y2440D01*
X2503D01*
X2499Y2444D01*
X2495Y2440D01*
X2491D01*
X2495Y2436D01*
X2491Y2432D01*
X2495D01*
X2499Y2428D01*
X2491Y2664D02*
X2495Y2672D01*
X2491Y2680D01*
X2499Y2676D01*
X2507Y2680D01*
X2503Y2672D01*
X2507Y2664D01*
X2499Y2668D01*
X2491Y2664D01*
X2295Y1646D02*
Y1642D01*
X2303D01*
Y1646D01*
X2307D01*
Y1654D01*
X2303D01*
Y1658D01*
X2295D01*
Y1654D01*
X2291D01*
Y1646D01*
X2295D01*
X2395D02*
Y1642D01*
X2403D01*
Y1646D01*
X2407D01*
Y1654D01*
X2403D01*
Y1658D01*
X2395D01*
Y1654D01*
X2391D01*
Y1646D01*
X2395D01*
X2495D02*
Y1642D01*
X2503D01*
Y1646D01*
X2507D01*
Y1654D01*
X2503D01*
Y1658D01*
X2495D01*
Y1654D01*
X2491D01*
Y1646D01*
X2495D01*
X1748Y2457D02*
Y2453D01*
X1756D01*
Y2457D01*
X1760D01*
Y2465D01*
X1756D01*
Y2469D01*
X1748D01*
Y2465D01*
X1744D01*
Y2457D01*
X1748D01*
Y2557D02*
Y2553D01*
X1756D01*
Y2557D01*
X1760D01*
Y2565D01*
X1756D01*
Y2569D01*
X1748D01*
Y2565D01*
X1744D01*
Y2557D01*
X1748D01*
Y2657D02*
Y2653D01*
X1756D01*
Y2657D01*
X1760D01*
Y2665D01*
X1756D01*
Y2669D01*
X1748D01*
Y2665D01*
X1744D01*
Y2657D01*
X1748D01*
X3266Y1797D02*
X3270D01*
X3274Y1801D01*
X3278Y1797D01*
X3282D01*
Y1801D01*
X3278Y1805D01*
X3282Y1809D01*
Y1813D01*
X3278D01*
X3274Y1809D01*
X3270Y1813D01*
X3266D01*
Y1809D01*
X3270Y1805D01*
X3266Y1801D01*
Y1797D01*
Y1697D02*
X3270D01*
X3274Y1701D01*
X3278Y1697D01*
X3282D01*
Y1701D01*
X3278Y1705D01*
X3282Y1709D01*
Y1713D01*
X3278D01*
X3274Y1709D01*
X3270Y1713D01*
X3266D01*
Y1709D01*
X3270Y1705D01*
X3266Y1701D01*
Y1697D01*
Y1597D02*
X3270D01*
X3274Y1601D01*
X3278Y1597D01*
X3282D01*
Y1601D01*
X3278Y1605D01*
X3282Y1609D01*
Y1613D01*
X3278D01*
X3274Y1609D01*
X3270Y1613D01*
X3266D01*
Y1609D01*
X3270Y1605D01*
X3266Y1601D01*
Y1597D01*
Y1497D02*
X3270D01*
X3274Y1501D01*
X3278Y1497D01*
X3282D01*
Y1501D01*
X3278Y1505D01*
X3282Y1509D01*
Y1513D01*
X3278D01*
X3274Y1509D01*
X3270Y1513D01*
X3266D01*
Y1509D01*
X3270Y1505D01*
X3266Y1501D01*
Y1497D01*
Y1397D02*
X3270D01*
X3274Y1401D01*
X3278Y1397D01*
X3282D01*
Y1401D01*
X3278Y1405D01*
X3282Y1409D01*
Y1413D01*
X3278D01*
X3274Y1409D01*
X3270Y1413D01*
X3266D01*
Y1409D01*
X3270Y1405D01*
X3266Y1401D01*
Y1397D01*
X2966D02*
X2970D01*
X2974Y1401D01*
X2978Y1397D01*
X2982D01*
Y1401D01*
X2978Y1405D01*
X2982Y1409D01*
Y1413D01*
X2978D01*
X2974Y1409D01*
X2970Y1413D01*
X2966D01*
Y1409D01*
X2970Y1405D01*
X2966Y1401D01*
Y1397D01*
Y1497D02*
X2970D01*
X2974Y1501D01*
X2978Y1497D01*
X2982D01*
Y1501D01*
X2978Y1505D01*
X2982Y1509D01*
Y1513D01*
X2978D01*
X2974Y1509D01*
X2970Y1513D01*
X2966D01*
Y1509D01*
X2970Y1505D01*
X2966Y1501D01*
Y1497D01*
Y1597D02*
X2970D01*
X2974Y1601D01*
X2978Y1597D01*
X2982D01*
Y1601D01*
X2978Y1605D01*
X2982Y1609D01*
Y1613D01*
X2978D01*
X2974Y1609D01*
X2970Y1613D01*
X2966D01*
Y1609D01*
X2970Y1605D01*
X2966Y1601D01*
Y1597D01*
Y1697D02*
X2970D01*
X2974Y1701D01*
X2978Y1697D01*
X2982D01*
Y1701D01*
X2978Y1705D01*
X2982Y1709D01*
Y1713D01*
X2978D01*
X2974Y1709D01*
X2970Y1713D01*
X2966D01*
Y1709D01*
X2970Y1705D01*
X2966Y1701D01*
Y1697D01*
Y1797D02*
X2970D01*
X2974Y1801D01*
X2978Y1797D01*
X2982D01*
Y1801D01*
X2978Y1805D01*
X2982Y1809D01*
Y1813D01*
X2978D01*
X2974Y1809D01*
X2970Y1813D01*
X2966D01*
Y1809D01*
X2970Y1805D01*
X2966Y1801D01*
Y1797D01*
X4742Y2750D02*
X4750Y2758D01*
X4758Y2750D01*
X4750Y2742D01*
X4742Y2750D01*
Y250D02*
X4750Y258D01*
X4758Y250D01*
X4750Y242D01*
X4742Y250D01*
X242D02*
X250Y258D01*
X258Y250D01*
X250Y242D01*
X242Y250D01*
Y2750D02*
X250Y2758D01*
X258Y2750D01*
X250Y2742D01*
X242Y2750D01*
X2092Y1717D02*
Y1733D01*
X2108D01*
Y1717D01*
X2092D01*
X2096Y1721D02*
Y1729D01*
X2104D01*
Y1721D01*
X2096D01*
X2092Y2072D02*
Y2088D01*
X2108D01*
Y2072D01*
X2092D01*
X2096Y2076D02*
Y2084D01*
X2104D01*
Y2076D01*
X2096D01*
D35*
X2058Y700D02*
G03*
X2058Y700I-8J0D01*
G01*
X2158D02*
G03*
X2158Y700I-8J0D01*
G01*
X2258D02*
G03*
X2258Y700I-8J0D01*
G01*
X2358D02*
G03*
X2358Y700I-8J0D01*
G01*
X2458D02*
G03*
X2458Y700I-8J0D01*
G01*
X2558D02*
G03*
X2558Y700I-8J0D01*
G01*
X2658D02*
G03*
X2658Y700I-8J0D01*
G01*
X2758D02*
G03*
X2758Y700I-8J0D01*
G01*
X2858D02*
G03*
X2858Y700I-8J0D01*
G01*
X2958D02*
G03*
X2958Y700I-8J0D01*
G01*
M02*
