G04*
G04 #@! TF.GenerationSoftware,Altium Limited,Altium Designer,18.1.9 (240)*
G04*
G04 Layer_Physical_Order=2*
G04 Layer_Color=16711680*
%FSLAX23Y23*%
%MOIN*%
G70*
G01*
G75*
%ADD19C,0.050*%
%ADD21R,0.059X0.059*%
%ADD22C,0.059*%
%ADD23R,0.040X0.040*%
%ADD24C,0.040*%
G04:AMPARAMS|DCode=25|XSize=79mil|YSize=79mil|CornerRadius=20mil|HoleSize=0mil|Usage=FLASHONLY|Rotation=90.000|XOffset=0mil|YOffset=0mil|HoleType=Round|Shape=RoundedRectangle|*
%AMROUNDEDRECTD25*
21,1,0.079,0.039,0,0,90.0*
21,1,0.039,0.079,0,0,90.0*
1,1,0.039,0.020,0.020*
1,1,0.039,0.020,-0.020*
1,1,0.039,-0.020,-0.020*
1,1,0.039,-0.020,0.020*
%
%ADD25ROUNDEDRECTD25*%
G04:AMPARAMS|DCode=26|XSize=71mil|YSize=177mil|CornerRadius=18mil|HoleSize=0mil|Usage=FLASHONLY|Rotation=270.000|XOffset=0mil|YOffset=0mil|HoleType=Round|Shape=RoundedRectangle|*
%AMROUNDEDRECTD26*
21,1,0.071,0.142,0,0,270.0*
21,1,0.035,0.177,0,0,270.0*
1,1,0.035,-0.071,-0.018*
1,1,0.035,-0.071,0.018*
1,1,0.035,0.071,0.018*
1,1,0.035,0.071,-0.018*
%
%ADD26ROUNDEDRECTD26*%
G04:AMPARAMS|DCode=27|XSize=63mil|YSize=157mil|CornerRadius=16mil|HoleSize=0mil|Usage=FLASHONLY|Rotation=270.000|XOffset=0mil|YOffset=0mil|HoleType=Round|Shape=RoundedRectangle|*
%AMROUNDEDRECTD27*
21,1,0.063,0.126,0,0,270.0*
21,1,0.031,0.157,0,0,270.0*
1,1,0.031,-0.063,-0.016*
1,1,0.031,-0.063,0.016*
1,1,0.031,0.063,0.016*
1,1,0.031,0.063,-0.016*
%
%ADD27ROUNDEDRECTD27*%
%ADD28R,0.067X0.067*%
%ADD29C,0.067*%
%ADD30R,0.067X0.067*%
%ADD31R,0.059X0.059*%
%ADD32C,0.116*%
%ADD33C,0.060*%
G36*
X5000Y0D02*
X0D01*
Y3000D01*
X5000D01*
Y0D01*
D02*
G37*
%LPC*%
G36*
X1184Y2838D02*
X1169D01*
Y2793D01*
X1214D01*
Y2808D01*
X1213Y2815D01*
X1210Y2823D01*
X1205Y2829D01*
X1199Y2834D01*
X1192Y2837D01*
X1184Y2838D01*
D02*
G37*
G36*
X734D02*
X719D01*
Y2793D01*
X764D01*
Y2808D01*
X763Y2815D01*
X760Y2823D01*
X755Y2829D01*
X749Y2834D01*
X742Y2837D01*
X734Y2838D01*
D02*
G37*
G36*
X1159D02*
X1145D01*
X1137Y2837D01*
X1130Y2834D01*
X1124Y2829D01*
X1119Y2823D01*
X1116Y2815D01*
X1115Y2808D01*
Y2793D01*
X1159D01*
Y2838D01*
D02*
G37*
G36*
X709D02*
X695D01*
X687Y2837D01*
X680Y2834D01*
X674Y2829D01*
X669Y2823D01*
X666Y2815D01*
X665Y2808D01*
Y2793D01*
X709D01*
Y2838D01*
D02*
G37*
G36*
X4192D02*
X4177D01*
Y2793D01*
X4222D01*
Y2808D01*
X4221Y2815D01*
X4218Y2823D01*
X4213Y2829D01*
X4207Y2834D01*
X4200Y2837D01*
X4192Y2838D01*
D02*
G37*
G36*
X3742D02*
X3727D01*
Y2793D01*
X3772D01*
Y2808D01*
X3771Y2815D01*
X3768Y2823D01*
X3763Y2829D01*
X3757Y2834D01*
X3750Y2837D01*
X3742Y2838D01*
D02*
G37*
G36*
X4167D02*
X4153D01*
X4145Y2837D01*
X4138Y2834D01*
X4132Y2829D01*
X4127Y2823D01*
X4124Y2815D01*
X4123Y2808D01*
Y2793D01*
X4167D01*
Y2838D01*
D02*
G37*
G36*
X3717D02*
X3703D01*
X3695Y2837D01*
X3688Y2834D01*
X3682Y2829D01*
X3677Y2823D01*
X3674Y2815D01*
X3673Y2808D01*
Y2793D01*
X3717D01*
Y2838D01*
D02*
G37*
G36*
X4222Y2783D02*
X4177D01*
Y2738D01*
X4192D01*
X4200Y2739D01*
X4207Y2742D01*
X4213Y2747D01*
X4218Y2753D01*
X4221Y2761D01*
X4222Y2768D01*
Y2783D01*
D02*
G37*
G36*
X4167D02*
X4123D01*
Y2768D01*
X4124Y2761D01*
X4127Y2753D01*
X4132Y2747D01*
X4138Y2742D01*
X4145Y2739D01*
X4153Y2738D01*
X4167D01*
Y2783D01*
D02*
G37*
G36*
X3772D02*
X3727D01*
Y2738D01*
X3742D01*
X3750Y2739D01*
X3757Y2742D01*
X3763Y2747D01*
X3768Y2753D01*
X3771Y2761D01*
X3772Y2768D01*
Y2783D01*
D02*
G37*
G36*
X3717D02*
X3673D01*
Y2768D01*
X3674Y2761D01*
X3677Y2753D01*
X3682Y2747D01*
X3688Y2742D01*
X3695Y2739D01*
X3703Y2738D01*
X3717D01*
Y2783D01*
D02*
G37*
G36*
X1214Y2783D02*
X1169D01*
Y2738D01*
X1184D01*
X1192Y2739D01*
X1199Y2742D01*
X1205Y2747D01*
X1210Y2753D01*
X1213Y2761D01*
X1214Y2768D01*
Y2783D01*
D02*
G37*
G36*
X1159D02*
X1115D01*
Y2768D01*
X1116Y2761D01*
X1119Y2753D01*
X1124Y2747D01*
X1130Y2742D01*
X1137Y2739D01*
X1145Y2738D01*
X1159D01*
Y2783D01*
D02*
G37*
G36*
X764D02*
X719D01*
Y2738D01*
X734D01*
X742Y2739D01*
X749Y2742D01*
X755Y2747D01*
X760Y2753D01*
X763Y2761D01*
X764Y2768D01*
Y2783D01*
D02*
G37*
G36*
X709D02*
X665D01*
Y2768D01*
X666Y2761D01*
X669Y2753D01*
X674Y2747D01*
X680Y2742D01*
X687Y2739D01*
X695Y2738D01*
X709D01*
Y2783D01*
D02*
G37*
G36*
X4750Y2820D02*
X4736Y2819D01*
X4723Y2815D01*
X4711Y2808D01*
X4700Y2800D01*
X4692Y2789D01*
X4685Y2777D01*
X4681Y2764D01*
X4680Y2750D01*
X4681Y2736D01*
X4685Y2723D01*
X4692Y2711D01*
X4700Y2700D01*
X4711Y2692D01*
X4723Y2685D01*
X4736Y2681D01*
X4750Y2680D01*
X4764Y2681D01*
X4777Y2685D01*
X4789Y2692D01*
X4800Y2700D01*
X4808Y2711D01*
X4815Y2723D01*
X4819Y2736D01*
X4820Y2750D01*
X4819Y2764D01*
X4815Y2777D01*
X4808Y2789D01*
X4800Y2800D01*
X4789Y2808D01*
X4777Y2815D01*
X4764Y2819D01*
X4750Y2820D01*
D02*
G37*
G36*
X250D02*
X236Y2819D01*
X223Y2815D01*
X211Y2808D01*
X200Y2800D01*
X192Y2789D01*
X185Y2777D01*
X181Y2764D01*
X180Y2750D01*
X181Y2736D01*
X185Y2723D01*
X192Y2711D01*
X200Y2700D01*
X211Y2692D01*
X223Y2685D01*
X236Y2681D01*
X250Y2680D01*
X264Y2681D01*
X277Y2685D01*
X289Y2692D01*
X300Y2700D01*
X308Y2711D01*
X315Y2723D01*
X319Y2736D01*
X320Y2750D01*
X319Y2764D01*
X315Y2777D01*
X308Y2789D01*
X300Y2800D01*
X289Y2808D01*
X277Y2815D01*
X264Y2819D01*
X250Y2820D01*
D02*
G37*
G36*
X2562Y2714D02*
X2504D01*
Y2677D01*
X2588D01*
Y2688D01*
X2587Y2694D01*
X2585Y2701D01*
X2580Y2706D01*
X2575Y2710D01*
X2569Y2713D01*
X2562Y2714D01*
D02*
G37*
G36*
X2494D02*
X2436D01*
X2429Y2713D01*
X2423Y2710D01*
X2418Y2706D01*
X2414Y2701D01*
X2411Y2694D01*
X2410Y2688D01*
Y2677D01*
X2494D01*
Y2714D01*
D02*
G37*
G36*
X2588Y2667D02*
X2504D01*
Y2630D01*
X2562D01*
X2569Y2631D01*
X2575Y2634D01*
X2580Y2638D01*
X2585Y2643D01*
X2587Y2649D01*
X2588Y2656D01*
Y2667D01*
D02*
G37*
G36*
X2494D02*
X2410D01*
Y2656D01*
X2411Y2649D01*
X2414Y2643D01*
X2418Y2638D01*
X2423Y2634D01*
X2429Y2631D01*
X2436Y2630D01*
X2494D01*
Y2667D01*
D02*
G37*
G36*
X1797Y2706D02*
X1706D01*
Y2618D01*
X1706Y2615D01*
X1716Y2585D01*
X1714Y2583D01*
X1709Y2572D01*
X1708Y2566D01*
X1752D01*
X1795D01*
X1794Y2572D01*
X1790Y2583D01*
X1787Y2585D01*
X1797Y2615D01*
X1797Y2618D01*
Y2706D01*
D02*
G37*
G36*
X734Y2588D02*
X719D01*
Y2543D01*
X764D01*
Y2558D01*
X763Y2565D01*
X760Y2573D01*
X755Y2579D01*
X749Y2584D01*
X742Y2587D01*
X734Y2588D01*
D02*
G37*
G36*
X709D02*
X695D01*
X687Y2587D01*
X680Y2584D01*
X674Y2579D01*
X669Y2573D01*
X666Y2565D01*
X665Y2558D01*
Y2543D01*
X709D01*
Y2588D01*
D02*
G37*
G36*
X4192D02*
X4177D01*
Y2543D01*
X4222D01*
Y2558D01*
X4221Y2565D01*
X4218Y2573D01*
X4213Y2579D01*
X4207Y2584D01*
X4200Y2587D01*
X4192Y2588D01*
D02*
G37*
G36*
X3742D02*
X3727D01*
Y2543D01*
X3772D01*
Y2558D01*
X3771Y2565D01*
X3768Y2573D01*
X3763Y2579D01*
X3757Y2584D01*
X3750Y2587D01*
X3742Y2588D01*
D02*
G37*
G36*
X4167D02*
X4153D01*
X4145Y2587D01*
X4138Y2584D01*
X4132Y2579D01*
X4127Y2573D01*
X4124Y2565D01*
X4123Y2558D01*
Y2543D01*
X4167D01*
Y2588D01*
D02*
G37*
G36*
X3717D02*
X3703D01*
X3695Y2587D01*
X3688Y2584D01*
X3682Y2579D01*
X3677Y2573D01*
X3674Y2565D01*
X3673Y2558D01*
Y2543D01*
X3717D01*
Y2588D01*
D02*
G37*
G36*
X4222Y2533D02*
X4177D01*
Y2488D01*
X4192D01*
X4200Y2489D01*
X4207Y2492D01*
X4213Y2497D01*
X4218Y2503D01*
X4221Y2511D01*
X4222Y2518D01*
Y2533D01*
D02*
G37*
G36*
X4167D02*
X4123D01*
Y2518D01*
X4124Y2511D01*
X4127Y2503D01*
X4132Y2497D01*
X4138Y2492D01*
X4145Y2489D01*
X4153Y2488D01*
X4167D01*
Y2533D01*
D02*
G37*
G36*
X3772D02*
X3727D01*
Y2488D01*
X3742D01*
X3750Y2489D01*
X3757Y2492D01*
X3763Y2497D01*
X3768Y2503D01*
X3771Y2511D01*
X3772Y2518D01*
Y2533D01*
D02*
G37*
G36*
X3717D02*
X3673D01*
Y2518D01*
X3674Y2511D01*
X3677Y2503D01*
X3682Y2497D01*
X3688Y2492D01*
X3695Y2489D01*
X3703Y2488D01*
X3717D01*
Y2533D01*
D02*
G37*
G36*
X1214Y2533D02*
X1169D01*
Y2488D01*
X1184D01*
X1192Y2489D01*
X1199Y2492D01*
X1205Y2497D01*
X1210Y2503D01*
X1213Y2511D01*
X1214Y2518D01*
Y2533D01*
D02*
G37*
G36*
X1159D02*
X1115D01*
Y2518D01*
X1116Y2511D01*
X1119Y2503D01*
X1124Y2497D01*
X1130Y2492D01*
X1137Y2489D01*
X1145Y2488D01*
X1159D01*
Y2533D01*
D02*
G37*
G36*
X764D02*
X719D01*
Y2488D01*
X734D01*
X742Y2489D01*
X749Y2492D01*
X755Y2497D01*
X760Y2503D01*
X763Y2511D01*
X764Y2518D01*
Y2533D01*
D02*
G37*
G36*
X709D02*
X665D01*
Y2518D01*
X666Y2511D01*
X669Y2503D01*
X674Y2497D01*
X680Y2492D01*
X687Y2489D01*
X695Y2488D01*
X709D01*
Y2533D01*
D02*
G37*
G36*
X1795Y2556D02*
X1752D01*
X1708D01*
X1709Y2549D01*
X1714Y2539D01*
X1721Y2530D01*
X1721Y2530D01*
X1722Y2525D01*
X1714Y2498D01*
X1529D01*
X1519Y2497D01*
X1510Y2493D01*
X1503Y2487D01*
X1463Y2447D01*
X1119D01*
X1109Y2446D01*
X1100Y2442D01*
X1093Y2436D01*
X783Y2126D01*
X777Y2119D01*
X773Y2110D01*
X772Y2100D01*
Y1630D01*
X773Y1620D01*
X777Y1611D01*
X783Y1604D01*
X833Y1554D01*
X840Y1548D01*
X849Y1544D01*
X859Y1543D01*
X902D01*
X909Y1540D01*
X920Y1538D01*
X931Y1540D01*
X941Y1544D01*
X948Y1550D01*
X954Y1549D01*
X978Y1539D01*
Y1538D01*
X1062D01*
Y1622D01*
X1061D01*
X1051Y1646D01*
X1050Y1652D01*
X1056Y1659D01*
X1060Y1669D01*
X1062Y1680D01*
X1060Y1691D01*
X1056Y1701D01*
X1050Y1710D01*
X1045Y1713D01*
X1043Y1730D01*
X1045Y1747D01*
X1050Y1750D01*
X1056Y1759D01*
X1060Y1769D01*
X1062Y1780D01*
X1060Y1791D01*
X1056Y1801D01*
X1050Y1810D01*
X1041Y1816D01*
X1031Y1820D01*
X1020Y1822D01*
X1009Y1820D01*
X999Y1816D01*
X990Y1810D01*
X986Y1803D01*
X969Y1801D01*
X952Y1803D01*
X948Y1808D01*
X940Y1815D01*
X930Y1819D01*
X925Y1819D01*
Y1780D01*
X920D01*
Y1775D01*
X881D01*
X881Y1770D01*
X885Y1760D01*
X892Y1752D01*
X897Y1748D01*
X899Y1731D01*
X897Y1714D01*
X890Y1710D01*
X884Y1701D01*
X880Y1691D01*
X878Y1680D01*
X880Y1669D01*
X884Y1659D01*
X873Y1636D01*
X869Y1632D01*
X846Y1646D01*
Y2085D01*
X1088Y2326D01*
X1106Y2319D01*
X1115Y2311D01*
X1115Y2308D01*
Y2293D01*
X1164D01*
X1214D01*
Y2308D01*
X1213Y2315D01*
X1210Y2323D01*
X1205Y2329D01*
X1199Y2334D01*
X1192Y2337D01*
X1184Y2338D01*
X1166D01*
X1164Y2339D01*
X1151Y2368D01*
X1155Y2373D01*
X1479D01*
X1488Y2374D01*
X1497Y2378D01*
X1505Y2384D01*
X1545Y2423D01*
X1725D01*
X1729Y2421D01*
X1740Y2416D01*
X1752Y2415D01*
X1763Y2416D01*
X1774Y2421D01*
X1784Y2428D01*
X1791Y2438D01*
X1796Y2449D01*
X1797Y2461D01*
X1796Y2472D01*
X1791Y2484D01*
X1784Y2493D01*
X1783Y2494D01*
X1780Y2502D01*
X1780Y2521D01*
X1782Y2530D01*
X1783Y2530D01*
X1790Y2539D01*
X1794Y2549D01*
X1795Y2556D01*
D02*
G37*
G36*
X4192Y2338D02*
X4177D01*
Y2293D01*
X4222D01*
Y2308D01*
X4221Y2315D01*
X4218Y2323D01*
X4213Y2329D01*
X4207Y2334D01*
X4200Y2337D01*
X4192Y2338D01*
D02*
G37*
G36*
X4167D02*
X4153D01*
X4145Y2337D01*
X4138Y2334D01*
X4132Y2329D01*
X4127Y2323D01*
X4124Y2315D01*
X4123Y2308D01*
Y2293D01*
X4167D01*
Y2338D01*
D02*
G37*
G36*
X4222Y2283D02*
X4177D01*
Y2238D01*
X4192D01*
X4200Y2239D01*
X4207Y2242D01*
X4213Y2247D01*
X4218Y2253D01*
X4221Y2261D01*
X4222Y2268D01*
Y2283D01*
D02*
G37*
G36*
X4167D02*
X4123D01*
Y2268D01*
X4124Y2261D01*
X4127Y2253D01*
X4132Y2247D01*
X4138Y2242D01*
X4145Y2239D01*
X4153Y2238D01*
X4167D01*
Y2283D01*
D02*
G37*
G36*
X1214Y2283D02*
X1169D01*
Y2238D01*
X1184D01*
X1192Y2239D01*
X1199Y2242D01*
X1205Y2247D01*
X1210Y2253D01*
X1213Y2261D01*
X1214Y2268D01*
Y2283D01*
D02*
G37*
G36*
X1159D02*
X1115D01*
Y2268D01*
X1116Y2261D01*
X1119Y2253D01*
X1124Y2247D01*
X1130Y2242D01*
X1137Y2239D01*
X1145Y2238D01*
X1159D01*
Y2283D01*
D02*
G37*
G36*
X3742Y2340D02*
X3703D01*
X3694Y2339D01*
X3687Y2335D01*
X3680Y2330D01*
X3675Y2324D01*
X3672Y2316D01*
X3671Y2308D01*
Y2268D01*
X3672Y2260D01*
X3675Y2252D01*
X3680Y2246D01*
X3687Y2241D01*
X3694Y2237D01*
X3703Y2236D01*
X3742D01*
X3750Y2237D01*
X3758Y2241D01*
X3765Y2246D01*
X3770Y2252D01*
X3773Y2260D01*
X3774Y2268D01*
Y2308D01*
X3773Y2316D01*
X3770Y2324D01*
X3765Y2330D01*
X3758Y2335D01*
X3750Y2339D01*
X3742Y2340D01*
D02*
G37*
G36*
X2105Y2120D02*
Y2085D01*
X2140D01*
X2139Y2090D01*
X2135Y2100D01*
X2129Y2109D01*
X2120Y2115D01*
X2110Y2119D01*
X2105Y2120D01*
D02*
G37*
G36*
X2095D02*
X2090Y2119D01*
X2080Y2115D01*
X2071Y2109D01*
X2065Y2100D01*
X2061Y2090D01*
X2060Y2085D01*
X2095D01*
Y2120D01*
D02*
G37*
G36*
X2140Y2075D02*
X2105D01*
Y2040D01*
X2110Y2041D01*
X2120Y2045D01*
X2129Y2051D01*
X2135Y2060D01*
X2139Y2070D01*
X2140Y2075D01*
D02*
G37*
G36*
X2095D02*
X2060D01*
X2061Y2070D01*
X2065Y2060D01*
X2071Y2051D01*
X2080Y2045D01*
X2090Y2041D01*
X2095Y2040D01*
Y2075D01*
D02*
G37*
G36*
X915Y1819D02*
X910Y1819D01*
X900Y1815D01*
X892Y1808D01*
X885Y1800D01*
X881Y1790D01*
X881Y1785D01*
X915D01*
Y1819D01*
D02*
G37*
G36*
X2105Y1765D02*
Y1730D01*
X2140D01*
X2139Y1735D01*
X2135Y1745D01*
X2129Y1754D01*
X2120Y1760D01*
X2110Y1764D01*
X2105Y1765D01*
D02*
G37*
G36*
X2095D02*
X2090Y1764D01*
X2080Y1760D01*
X2071Y1754D01*
X2065Y1745D01*
X2061Y1735D01*
X2060Y1730D01*
X2095D01*
Y1765D01*
D02*
G37*
G36*
X2140Y1720D02*
X2105D01*
Y1685D01*
X2110Y1686D01*
X2120Y1690D01*
X2129Y1696D01*
X2135Y1705D01*
X2139Y1715D01*
X2140Y1720D01*
D02*
G37*
G36*
X2095D02*
X2060D01*
X2061Y1715D01*
X2065Y1705D01*
X2071Y1696D01*
X2080Y1690D01*
X2090Y1686D01*
X2095Y1685D01*
Y1720D01*
D02*
G37*
G36*
X3274Y1847D02*
X3263Y1845D01*
X3253Y1841D01*
X3245Y1835D01*
X3238Y1826D01*
X3234Y1816D01*
X3232Y1805D01*
X3234Y1794D01*
X3238Y1784D01*
X3245Y1775D01*
X3249Y1772D01*
X3251Y1755D01*
X3249Y1738D01*
X3245Y1735D01*
X3238Y1726D01*
X3234Y1716D01*
X3232Y1705D01*
X3234Y1694D01*
X3238Y1684D01*
X3245Y1675D01*
X3249Y1672D01*
X3251Y1655D01*
X3249Y1638D01*
X3245Y1635D01*
X3238Y1626D01*
X3234Y1616D01*
X3232Y1605D01*
X3234Y1594D01*
X3238Y1584D01*
X3245Y1575D01*
X3249Y1572D01*
X3251Y1555D01*
X3249Y1538D01*
X3245Y1535D01*
X3238Y1526D01*
X3234Y1516D01*
X3232Y1505D01*
X3234Y1494D01*
X3238Y1484D01*
X3245Y1475D01*
X3249Y1472D01*
X3251Y1455D01*
X3249Y1438D01*
X3245Y1435D01*
X3238Y1426D01*
X3234Y1416D01*
X3232Y1405D01*
X3234Y1394D01*
X3238Y1384D01*
X3245Y1375D01*
X3253Y1369D01*
X3263Y1365D01*
X3274Y1363D01*
X3285Y1365D01*
X3295Y1369D01*
X3304Y1375D01*
X3310Y1384D01*
X3315Y1394D01*
X3316Y1405D01*
X3315Y1416D01*
X3310Y1426D01*
X3304Y1435D01*
X3299Y1438D01*
X3297Y1455D01*
X3299Y1472D01*
X3304Y1475D01*
X3310Y1484D01*
X3315Y1494D01*
X3316Y1505D01*
X3315Y1516D01*
X3310Y1526D01*
X3304Y1535D01*
X3299Y1538D01*
X3297Y1555D01*
X3299Y1572D01*
X3304Y1575D01*
X3310Y1584D01*
X3315Y1594D01*
X3316Y1605D01*
X3315Y1616D01*
X3310Y1626D01*
X3304Y1635D01*
X3299Y1638D01*
X3297Y1655D01*
X3299Y1672D01*
X3304Y1675D01*
X3310Y1684D01*
X3315Y1694D01*
X3316Y1705D01*
X3315Y1716D01*
X3310Y1726D01*
X3304Y1735D01*
X3299Y1738D01*
X3297Y1755D01*
X3299Y1772D01*
X3304Y1775D01*
X3310Y1784D01*
X3315Y1794D01*
X3316Y1805D01*
X3315Y1816D01*
X3310Y1826D01*
X3304Y1835D01*
X3295Y1841D01*
X3285Y1845D01*
X3274Y1847D01*
D02*
G37*
G36*
X2165Y2832D02*
X1514Y2832D01*
X1505Y2831D01*
X1496Y2827D01*
X1488Y2821D01*
X1354Y2687D01*
X1076D01*
X1067Y2686D01*
X1058Y2682D01*
X1050Y2676D01*
X713Y2340D01*
X695D01*
X687Y2339D01*
X679Y2335D01*
X672Y2330D01*
X667Y2324D01*
X664Y2316D01*
X663Y2308D01*
Y2268D01*
X664Y2260D01*
X667Y2252D01*
X672Y2246D01*
X679Y2241D01*
X687Y2237D01*
X695Y2236D01*
X734D01*
X742Y2237D01*
X750Y2241D01*
X757Y2246D01*
X762Y2252D01*
X765Y2260D01*
X766Y2268D01*
Y2287D01*
X1092Y2612D01*
X1121Y2609D01*
X1129Y2586D01*
X1129Y2583D01*
X1124Y2579D01*
X1119Y2573D01*
X1116Y2565D01*
X1115Y2558D01*
Y2543D01*
X1164D01*
X1214D01*
Y2558D01*
X1213Y2565D01*
X1210Y2573D01*
X1205Y2579D01*
X1200Y2583D01*
X1200Y2586D01*
X1210Y2613D01*
X1369D01*
X1379Y2614D01*
X1388Y2618D01*
X1396Y2624D01*
X1530Y2758D01*
X2150Y2758D01*
X2383Y2524D01*
X2384Y2523D01*
X2388Y2510D01*
X2389Y2496D01*
X2388Y2490D01*
X2387Y2487D01*
X2382Y2481D01*
X2375Y2467D01*
X2370Y2451D01*
X2369Y2436D01*
X2370Y2420D01*
X2375Y2405D01*
X2382Y2390D01*
X2392Y2378D01*
X2405Y2368D01*
X2419Y2361D01*
X2434Y2356D01*
X2450Y2354D01*
X2462D01*
Y1692D01*
X2432Y1682D01*
X2432Y1683D01*
X2422Y1690D01*
X2411Y1694D01*
X2399Y1696D01*
X2387Y1694D01*
X2376Y1690D01*
X2375Y1689D01*
X2345Y1696D01*
X2339Y1696D01*
X2254D01*
Y1605D01*
X2339D01*
X2345Y1605D01*
X2375Y1612D01*
X2376Y1610D01*
X2387Y1606D01*
X2399Y1604D01*
X2411Y1606D01*
X2422Y1610D01*
X2432Y1618D01*
X2436Y1619D01*
X2462D01*
X2467Y1618D01*
X2476Y1610D01*
X2487Y1606D01*
X2499Y1604D01*
X2511Y1606D01*
X2522Y1610D01*
X2532Y1618D01*
X2539Y1627D01*
X2543Y1638D01*
X2545Y1650D01*
X2543Y1662D01*
X2539Y1673D01*
X2536Y1676D01*
Y2354D01*
X2548D01*
X2564Y2356D01*
X2579Y2361D01*
X2594Y2368D01*
X2606Y2378D01*
X2616Y2390D01*
X2623Y2405D01*
X2627Y2417D01*
X2635Y2422D01*
X2659Y2428D01*
X2697Y2390D01*
Y1676D01*
X2698Y1666D01*
X2702Y1657D01*
X2708Y1649D01*
X2779Y1579D01*
X2786Y1573D01*
X2795Y1569D01*
X2805Y1568D01*
X2891D01*
X2902Y1540D01*
X2896Y1537D01*
X2889Y1531D01*
X2819Y1461D01*
X2813Y1454D01*
X2809Y1445D01*
X2808Y1435D01*
Y1100D01*
X2750Y1042D01*
X2195D01*
X2185Y1041D01*
X2176Y1037D01*
X2169Y1031D01*
X2124Y986D01*
X2118Y979D01*
X2114Y970D01*
X2113Y960D01*
Y700D01*
X2114Y690D01*
X2118Y681D01*
X2124Y674D01*
X2131Y668D01*
X2140Y664D01*
X2150Y663D01*
X2160Y664D01*
X2169Y668D01*
X2176Y674D01*
X2182Y681D01*
X2186Y690D01*
X2187Y700D01*
Y945D01*
X2210Y968D01*
X2765D01*
X2775Y969D01*
X2784Y973D01*
X2791Y979D01*
X2871Y1059D01*
X2877Y1066D01*
X2881Y1075D01*
X2882Y1085D01*
Y1420D01*
X2915Y1452D01*
X2921Y1453D01*
X2922Y1451D01*
X2926Y1445D01*
X2934Y1416D01*
X2934Y1416D01*
X2932Y1405D01*
X2934Y1394D01*
X2938Y1384D01*
X2945Y1375D01*
X2953Y1369D01*
X2963Y1365D01*
X2974Y1363D01*
X2985Y1365D01*
X2995Y1369D01*
X3004Y1375D01*
X3010Y1384D01*
X3015Y1394D01*
X3016Y1405D01*
X3015Y1416D01*
X3010Y1426D01*
X3004Y1435D01*
X2999Y1438D01*
X2997Y1455D01*
X2999Y1472D01*
X3004Y1475D01*
X3010Y1484D01*
X3015Y1494D01*
X3016Y1505D01*
X3015Y1516D01*
X3010Y1526D01*
X3004Y1535D01*
X2999Y1538D01*
X2997Y1555D01*
X2999Y1572D01*
X3004Y1575D01*
X3010Y1584D01*
X3015Y1594D01*
X3016Y1605D01*
X3015Y1616D01*
X3010Y1626D01*
X3004Y1635D01*
X2999Y1638D01*
X2997Y1655D01*
X2999Y1672D01*
X3004Y1675D01*
X3010Y1684D01*
X3015Y1694D01*
X3016Y1705D01*
X3015Y1716D01*
X3010Y1726D01*
X3005Y1733D01*
X3005Y1739D01*
X3015Y1763D01*
X3016D01*
Y1847D01*
X2933D01*
Y1763D01*
X2933D01*
X2943Y1739D01*
X2944Y1733D01*
X2938Y1726D01*
X2934Y1716D01*
X2932Y1705D01*
X2934Y1694D01*
X2938Y1684D01*
X2945Y1675D01*
X2949Y1672D01*
X2946Y1654D01*
X2940Y1642D01*
X2820D01*
X2771Y1691D01*
Y2406D01*
X2770Y2416D01*
X2766Y2425D01*
X2761Y2432D01*
X2616Y2576D01*
X2609Y2582D01*
X2600Y2586D01*
X2590Y2587D01*
X2425D01*
X2191Y2821D01*
X2184Y2827D01*
X2175Y2831D01*
X2165Y2832D01*
D02*
G37*
G36*
X2855Y730D02*
Y705D01*
X2880D01*
X2879Y708D01*
X2876Y715D01*
X2871Y721D01*
X2865Y726D01*
X2858Y729D01*
X2855Y730D01*
D02*
G37*
G36*
X2845D02*
X2842Y729D01*
X2835Y726D01*
X2829Y721D01*
X2824Y715D01*
X2821Y708D01*
X2820Y705D01*
X2845D01*
Y730D01*
D02*
G37*
G36*
X2555D02*
Y705D01*
X2580D01*
X2579Y708D01*
X2576Y715D01*
X2571Y721D01*
X2565Y726D01*
X2558Y729D01*
X2555Y730D01*
D02*
G37*
G36*
X2545D02*
X2542Y729D01*
X2535Y726D01*
X2529Y721D01*
X2524Y715D01*
X2521Y708D01*
X2520Y705D01*
X2545D01*
Y730D01*
D02*
G37*
G36*
X2880Y695D02*
X2855D01*
Y670D01*
X2858Y671D01*
X2865Y674D01*
X2871Y679D01*
X2876Y685D01*
X2879Y692D01*
X2880Y695D01*
D02*
G37*
G36*
X2845D02*
X2820D01*
X2821Y692D01*
X2824Y685D01*
X2829Y679D01*
X2835Y674D01*
X2842Y671D01*
X2845Y670D01*
Y695D01*
D02*
G37*
G36*
X2580D02*
X2555D01*
Y670D01*
X2558Y671D01*
X2565Y674D01*
X2571Y679D01*
X2576Y685D01*
X2579Y692D01*
X2580Y695D01*
D02*
G37*
G36*
X2545D02*
X2520D01*
X2521Y692D01*
X2524Y685D01*
X2529Y679D01*
X2535Y674D01*
X2542Y671D01*
X2545Y670D01*
Y695D01*
D02*
G37*
G36*
X2082Y732D02*
X2018D01*
Y668D01*
X2082D01*
Y732D01*
D02*
G37*
G36*
X2950Y732D02*
X2942Y731D01*
X2934Y728D01*
X2927Y723D01*
X2922Y716D01*
X2919Y708D01*
X2918Y700D01*
X2919Y692D01*
X2922Y684D01*
X2927Y677D01*
X2934Y672D01*
X2942Y669D01*
X2950Y668D01*
X2958Y669D01*
X2966Y672D01*
X2973Y677D01*
X2978Y684D01*
X2981Y692D01*
X2982Y700D01*
X2981Y708D01*
X2978Y716D01*
X2973Y723D01*
X2966Y728D01*
X2958Y731D01*
X2950Y732D01*
D02*
G37*
G36*
X2750D02*
X2742Y731D01*
X2734Y728D01*
X2727Y723D01*
X2722Y716D01*
X2719Y708D01*
X2718Y700D01*
X2719Y692D01*
X2722Y684D01*
X2727Y677D01*
X2734Y672D01*
X2742Y669D01*
X2750Y668D01*
X2758Y669D01*
X2766Y672D01*
X2773Y677D01*
X2778Y684D01*
X2781Y692D01*
X2782Y700D01*
X2781Y708D01*
X2778Y716D01*
X2773Y723D01*
X2766Y728D01*
X2758Y731D01*
X2750Y732D01*
D02*
G37*
G36*
X2650D02*
X2642Y731D01*
X2634Y728D01*
X2627Y723D01*
X2622Y716D01*
X2619Y708D01*
X2618Y700D01*
X2619Y692D01*
X2622Y684D01*
X2627Y677D01*
X2634Y672D01*
X2642Y669D01*
X2650Y668D01*
X2658Y669D01*
X2666Y672D01*
X2673Y677D01*
X2678Y684D01*
X2681Y692D01*
X2682Y700D01*
X2681Y708D01*
X2678Y716D01*
X2673Y723D01*
X2666Y728D01*
X2658Y731D01*
X2650Y732D01*
D02*
G37*
G36*
X2450D02*
X2442Y731D01*
X2434Y728D01*
X2427Y723D01*
X2422Y716D01*
X2419Y708D01*
X2418Y700D01*
X2419Y692D01*
X2422Y684D01*
X2427Y677D01*
X2434Y672D01*
X2442Y669D01*
X2450Y668D01*
X2458Y669D01*
X2466Y672D01*
X2473Y677D01*
X2478Y684D01*
X2481Y692D01*
X2482Y700D01*
X2481Y708D01*
X2478Y716D01*
X2473Y723D01*
X2466Y728D01*
X2458Y731D01*
X2450Y732D01*
D02*
G37*
G36*
X2350D02*
X2342Y731D01*
X2334Y728D01*
X2327Y723D01*
X2322Y716D01*
X2319Y708D01*
X2318Y700D01*
X2319Y692D01*
X2322Y684D01*
X2327Y677D01*
X2334Y672D01*
X2342Y669D01*
X2350Y668D01*
X2358Y669D01*
X2366Y672D01*
X2373Y677D01*
X2378Y684D01*
X2381Y692D01*
X2382Y700D01*
X2381Y708D01*
X2378Y716D01*
X2373Y723D01*
X2366Y728D01*
X2358Y731D01*
X2350Y732D01*
D02*
G37*
G36*
X2250D02*
X2242Y731D01*
X2234Y728D01*
X2227Y723D01*
X2222Y716D01*
X2219Y708D01*
X2218Y700D01*
X2219Y692D01*
X2222Y684D01*
X2227Y677D01*
X2234Y672D01*
X2242Y669D01*
X2250Y668D01*
X2258Y669D01*
X2266Y672D01*
X2273Y677D01*
X2278Y684D01*
X2281Y692D01*
X2282Y700D01*
X2281Y708D01*
X2278Y716D01*
X2273Y723D01*
X2266Y728D01*
X2258Y731D01*
X2250Y732D01*
D02*
G37*
G36*
X4750Y320D02*
X4736Y319D01*
X4723Y315D01*
X4711Y308D01*
X4700Y300D01*
X4692Y289D01*
X4685Y277D01*
X4681Y264D01*
X4680Y250D01*
X4681Y236D01*
X4685Y223D01*
X4692Y211D01*
X4700Y200D01*
X4711Y192D01*
X4723Y185D01*
X4736Y181D01*
X4750Y180D01*
X4764Y181D01*
X4777Y185D01*
X4789Y192D01*
X4800Y200D01*
X4808Y211D01*
X4815Y223D01*
X4819Y236D01*
X4820Y250D01*
X4819Y264D01*
X4815Y277D01*
X4808Y289D01*
X4800Y300D01*
X4789Y308D01*
X4777Y315D01*
X4764Y319D01*
X4750Y320D01*
D02*
G37*
G36*
X250D02*
X236Y319D01*
X223Y315D01*
X211Y308D01*
X200Y300D01*
X192Y289D01*
X185Y277D01*
X181Y264D01*
X180Y250D01*
X181Y236D01*
X185Y223D01*
X192Y211D01*
X200Y200D01*
X211Y192D01*
X223Y185D01*
X236Y181D01*
X250Y180D01*
X264Y181D01*
X277Y185D01*
X289Y192D01*
X300Y200D01*
X308Y211D01*
X315Y223D01*
X319Y236D01*
X320Y250D01*
X319Y264D01*
X315Y277D01*
X308Y289D01*
X300Y300D01*
X289Y308D01*
X277Y315D01*
X264Y319D01*
X250Y320D01*
D02*
G37*
%LPD*%
D19*
X919Y1780D02*
Y2043D01*
X2100Y1725D02*
Y2080D01*
X1959Y2561D02*
X2100Y2420D01*
Y2080D02*
Y2420D01*
X1752Y2561D02*
X1959D01*
X2820Y815D02*
X3095Y1090D01*
Y2225D01*
X2648Y2672D02*
X3095Y2225D01*
X2499Y2672D02*
X2648D01*
X2410Y2550D02*
X2590D01*
X2165Y2795D02*
X2410Y2550D01*
X1514Y2795D02*
X2165Y2795D01*
X2590Y2550D02*
X2734Y2406D01*
X1369Y2650D02*
X1514Y2795D01*
X2734Y1676D02*
Y2406D01*
X2805Y1605D02*
X2974D01*
X2734Y1676D02*
X2805Y1605D01*
X2845Y1085D02*
Y1435D01*
X2765Y1005D02*
X2845Y1085D01*
X2195Y1005D02*
X2765D01*
X2150Y960D02*
X2195Y1005D01*
X2150Y700D02*
Y960D01*
X2845Y1435D02*
X2915Y1505D01*
X2974D01*
X2820Y815D02*
X2850Y785D01*
X2585Y815D02*
X2820D01*
X2550Y780D02*
X2585Y815D01*
X2850Y700D02*
Y785D01*
X2550Y700D02*
Y780D01*
X2499Y1650D02*
Y2436D01*
X1529Y2461D02*
X1752D01*
X1479Y2410D02*
X1529Y2461D01*
X1119Y2410D02*
X1479D01*
X809Y2100D02*
X1119Y2410D01*
X809Y1630D02*
Y2100D01*
Y1630D02*
X859Y1580D01*
X919D01*
Y2043D02*
X1164Y2288D01*
X706Y2530D02*
X714Y2538D01*
Y2288D02*
X1076Y2650D01*
X1369D01*
D21*
X1020Y1580D02*
D03*
D22*
X920D02*
D03*
X1020Y1680D02*
D03*
X920D02*
D03*
X1020Y1780D02*
D03*
X920D02*
D03*
X3274Y1805D02*
D03*
Y1705D02*
D03*
Y1605D02*
D03*
Y1505D02*
D03*
Y1405D02*
D03*
X2974D02*
D03*
Y1505D02*
D03*
Y1605D02*
D03*
Y1705D02*
D03*
D23*
X2050Y700D02*
D03*
D24*
X2150D02*
D03*
X2250D02*
D03*
X2350D02*
D03*
X2450D02*
D03*
X2550D02*
D03*
X2650D02*
D03*
X2750D02*
D03*
X2850D02*
D03*
X2950D02*
D03*
D25*
X714Y2788D02*
D03*
Y2538D02*
D03*
Y2288D02*
D03*
X1164D02*
D03*
Y2538D02*
D03*
Y2788D02*
D03*
X3722D02*
D03*
Y2538D02*
D03*
Y2288D02*
D03*
X4172D02*
D03*
Y2538D02*
D03*
Y2788D02*
D03*
D26*
X2499Y2436D02*
D03*
D27*
Y2672D02*
D03*
D28*
X2299Y1650D02*
D03*
D29*
X2399D02*
D03*
X2499D02*
D03*
X1752Y2461D02*
D03*
Y2561D02*
D03*
D30*
Y2661D02*
D03*
D31*
X2974Y1805D02*
D03*
D32*
X4750Y2750D02*
D03*
Y250D02*
D03*
X250D02*
D03*
Y2750D02*
D03*
D33*
X2100Y1725D02*
D03*
Y2080D02*
D03*
M02*
