M48
;Layer_Color=9474304
;FILE_FORMAT=2:5
INCH,LZ
T2F00S00C0.03100
%
G90
G05
T02
G00X0165756Y-0001353
M15
G01X016632Y-0000813
G01X016655Y0
G01X016655Y002895
G01X017055Y002895
G01X0171306Y0029147
G01X017187Y0029687
G01X01721Y00305
G01X01721Y007895
G01X017355Y007895
G01X0174306Y0079147
G01X017487Y0079687
G01X01751Y00805
G01X01751Y01
G01X0174903Y0100756
G01X0174363Y010132
G01X017355Y010155
G01X014755Y010155
G01X0146794Y0101353
G01X014623Y0100813
G01X0146Y01
G01X0146Y00805
G01X0146197Y0079744
G01X0146737Y007918
G01X014755Y007895
G01X0149Y007895
G01X0149Y00305
G01X0149197Y0029744
G01X0149737Y002918
G01X015055Y002895
G01X015495Y002895
G01X015495Y0025142
G01X0151358Y002155
G01X0140142Y002155
G01X013705Y0024642
G01X013705Y002895
G01X014105Y002895
G01X0141806Y0029147
G01X014237Y0029687
G01X01426Y00305
G01X01426Y007895
G01X014405Y007895
G01X0144806Y0079147
G01X014537Y0079687
G01X01456Y00805
G01X01456Y01
G01X0145403Y0100756
G01X0144863Y010132
G01X014405Y010155
G01X011805Y010155
G01X0117294Y0101353
G01X011673Y0100813
G01X0116552Y0100184
G01X0116403Y0100756
G01X0115863Y010132
G01X011505Y010155
G01X008905Y010155
G01X0088294Y0101353
G01X008773Y0100813
G01X00875Y01
G01X00875Y00805
G01X0087697Y0079744
G01X0088237Y007918
G01X008905Y007895
G01X00905Y007895
G01X00905Y00305
G01X0090697Y0029744
G01X0091237Y002918
G01X009205Y002895
G01X009695Y002895
G01X009695Y0024642
G01X0092858Y002055
G01X0081642Y002055
G01X007755Y0024642
G01X007755Y002895
G01X008255Y002895
G01X0083306Y0029147
G01X008387Y0029687
G01X00841Y00305
G01X00841Y007895
G01X008555Y007895
G01X0086306Y0079147
G01X008687Y0079687
G01X00871Y00805
G01X00871Y01
G01X0086903Y0100756
G01X0086363Y010132
G01X008555Y010155
G01X005955Y010155
G01X0058794Y0101353
G01X005823Y0100813
G01X0058Y01
G01X0058Y00805
G01X0058197Y0079744
G01X0058737Y007918
G01X005955Y007895
G01X0061Y007895
G01X0061Y00305
G01X0061197Y0029744
G01X0061737Y002918
G01X006255Y002895
G01X006795Y002895
G01X006795Y0024642
G01X0064358Y002105
G01X0052642Y002105
G01X004755Y0026142
G01X004755Y002895
G01X005305Y002895
G01X0053806Y0029147
G01X005437Y0029687
G01X00546Y00305
G01X00546Y007895
G01X005605Y007895
G01X0056806Y0079147
G01X005737Y0079687
G01X00576Y00805
G01X00576Y01
G01X0057403Y0100756
G01X0056863Y010132
G01X005605Y010155
G01X003005Y010155
G01X0029294Y0101353
G01X002873Y0100813
G01X00285Y01
G01X00285Y00805
G01X0028697Y0079744
G01X0029237Y007918
G01X003005Y007895
G01X00315Y007895
G01X00315Y00305
G01X0031697Y0029744
G01X0032237Y002918
G01X003305Y002895
G01X003845Y002895
G01X003845Y0025642
G01X0034858Y002205
G01X0024142Y002205
G01X001855Y0027642
G01X001855Y002895
G01X002355Y002895
G01X0024306Y0029147
G01X002487Y0029687
G01X00251Y00305
G01X00251Y007895
G01X002655Y007895
G01X0027306Y0079147
G01X002787Y0079687
G01X00281Y00805
G01X00281Y01
G01X0027903Y0100756
G01X0027363Y010132
G01X002655Y010155
G01X000055Y010155
G01X-0000206Y0101353
G01X-000077Y0100813
G01X-0001Y01
G01X-0001Y00805
G01X-0000803Y0079744
G01X-0000263Y007918
G01X000055Y007895
G01X0002Y007895
G01X0002Y00305
G01X0002197Y0029744
G01X0002737Y002918
G01X000355Y002895
G01X000845Y002895
G01X000845Y0027642
G01X-0001096Y0018096
G01X-0001491Y0017422
G01X-000155Y0017
G01X-000155Y0
G01X-0001353Y-0000756
G01X-0000813Y-000132
G01X0Y-000155
G01X0165Y-000155
G01X0165756Y-0001353
M16
G00X0109142Y002205
M15
G01X010705Y0024142
G01X010705Y002895
G01X011205Y002895
G01X0112806Y0029147
G01X011337Y0029687
G01X01136Y00305
G01X01136Y007895
G01X011505Y007895
G01X0115806Y0079147
G01X011637Y0079687
G01X0116548Y0080316
G01X0116697Y0079744
G01X0117237Y007918
G01X011805Y007895
G01X01195Y007895
G01X01195Y00305
G01X0119697Y0029744
G01X0120237Y002918
G01X012105Y002895
G01X012645Y002895
G01X012645Y0025142
G01X0123358Y002205
G01X0109142Y002205
M16
M17
M30
