M48
;Layer_Color=9474304
;FILE_FORMAT=2:5
INCH,LZ
T2F00S00C0.03200
%
G90
G05
T02
G00X0024269Y-0000903
M15
G01X0024849Y-0000361
G01X00251Y00005
G01X00251Y00489
G01X00265Y00489
G01X0027269Y0049097
G01X0027849Y0049639
G01X00281Y00505
G01X00281Y00755
G01X0027903Y0076269
G01X0027361Y0076849
G01X00265Y00771
G01X00005Y00771
G01X-0000269Y0076903
G01X-0000849Y0076361
G01X-00011Y00755
G01X-00011Y00505
G01X-0000903Y0049731
G01X-0000361Y0049151
G01X00005Y00489
G01X00019Y00489
G01X00019Y00005
G01X0002097Y-0000269
G01X0002639Y-0000849
G01X00035Y-00011
G01X00235Y-00011
G01X0024269Y-0000903
M16
M17
M30
