M48
;Layer_Color=9474304
;FILE_FORMAT=2:5
INCH,LZ
T3F00S00C0.03200
%
G90
G05
T03
G00X0090856Y0023645
M15
G01X0091375Y002386
G01X0091842Y0024172
G01X0092239Y0024569
G01X0092551Y0025035
G01X0092765Y0025554
G01X0092875Y0026105
G01X0092875Y0026666
G01X0092765Y0027217
G01X0092551Y0027735
G01X0092239Y0028202
G01X0091842Y0028599
G01X0091375Y0028911
G01X0090856Y0029126
G01X0090306Y0029235
G01X0089744Y0029235
G01X0089194Y0029126
G01X0088675Y0028911
G01X0088208Y0028599
G01X0087811Y0028202
G01X0087499Y0027735
G01X0087285Y0027217
G01X0087175Y0026666
G01X0087175Y0026105
G01X0087285Y0025554
G01X0087499Y0025035
G01X0087811Y0024569
G01X0088208Y0024172
G01X0088675Y002386
G01X0089194Y0023645
G01X0089744Y0023535
G01X0090306Y0023535
G01X0090856Y0023645
M16
G00X0154496Y0087285
M15
G01X0155015Y0087499
G01X0155481Y0087811
G01X0155878Y0088208
G01X015619Y0088675
G01X0156405Y0089194
G01X0156515Y0089744
G01X0156515Y0090306
G01X0156405Y0090856
G01X015619Y0091375
G01X0155878Y0091842
G01X0155481Y0092239
G01X0155015Y0092551
G01X0154496Y0092765
G01X0153945Y0092875
G01X0153384Y0092875
G01X0152833Y0092765
G01X0152315Y0092551
G01X0151848Y0092239
G01X0151451Y0091842
G01X0151139Y0091375
G01X0150924Y0090856
G01X0150815Y0090306
G01X0150815Y0089744
G01X0150924Y0089194
G01X0151139Y0088675
G01X0151451Y0088208
G01X0151848Y0087811
G01X0152315Y0087499
G01X0152833Y0087285
G01X0153384Y0087175
G01X0153945Y0087175
G01X0154496Y0087285
M16
G00X0027217Y0087285
M15
G01X0027735Y0087499
G01X0028202Y0087811
G01X0028599Y0088208
G01X0028911Y0088675
G01X0029126Y0089194
G01X0029235Y0089744
G01X0029235Y0090306
G01X0029126Y0090856
G01X0028911Y0091375
G01X0028599Y0091842
G01X0028202Y0092239
G01X0027735Y0092551
G01X0027217Y0092765
G01X0026666Y0092875
G01X0026105Y0092875
G01X0025554Y0092765
G01X0025035Y0092551
G01X0024569Y0092239
G01X0024172Y0091842
G01X002386Y0091375
G01X0023645Y0090856
G01X0023535Y0090306
G01X0023535Y0089744
G01X0023645Y0089194
G01X002386Y0088675
G01X0024172Y0088208
G01X0024569Y0087811
G01X0025035Y0087499
G01X0025554Y0087285
G01X0026105Y0087175
G01X0026666Y0087175
G01X0027217Y0087285
M16
G00X0090856Y0150924
M15
G01X0091375Y0151139
G01X0091842Y0151451
G01X0092239Y0151848
G01X0092551Y0152315
G01X0092765Y0152833
G01X0092875Y0153384
G01X0092875Y0153945
G01X0092765Y0154496
G01X0092551Y0155015
G01X0092239Y0155481
G01X0091842Y0155878
G01X0091375Y015619
G01X0090856Y0156405
G01X0090306Y0156515
G01X0089744Y0156515
G01X0089194Y0156405
G01X0088675Y015619
G01X0088208Y0155878
G01X0087811Y0155481
G01X0087499Y0155015
G01X0087285Y0154496
G01X0087175Y0153945
G01X0087175Y0153384
G01X0087285Y0152833
G01X0087499Y0152315
G01X0087811Y0151848
G01X0088208Y0151451
G01X0088675Y0151139
G01X0089194Y0150924
G01X0089744Y0150815
G01X0090306Y0150815
G01X0090856Y0150924
M16
G00X0167516Y-0001575
M15
G01X0167651Y-0001609
G01X016986Y-0001415
G01X0172012Y-0000878
G01X0174053Y-0000011
G01X0175934Y0001164
G01X0177608Y000262
G01X0179033Y0004319
G01X0180175Y000622
G01X0181006Y0008277
G01X0181504Y0010438
G01X0181664Y0012525
G01X0181625Y0167516
G01X0181659Y0167651
G01X0181465Y016986
G01X0180928Y0172012
G01X0180061Y0174053
G01X0178886Y0175934
G01X017743Y0177608
G01X0175731Y0179033
G01X017383Y0180175
G01X0171773Y0181006
G01X0169612Y0181504
G01X0167525Y0181664
G01X0012534Y0181625
G01X0012399Y0181659
G01X001019Y0181465
G01X0008038Y0180928
G01X0005997Y0180061
G01X0004116Y0178886
G01X0002442Y017743
G01X0001017Y0175731
G01X-0000125Y017383
G01X-0000956Y0171773
G01X-0001454Y0169612
G01X-0001614Y0167525
G01X-0001575Y0012534
G01X-0001609Y0012399
G01X-0001415Y001019
G01X-0000878Y0008038
G01X-0000011Y0005997
G01X0001164Y0004116
G01X000262Y0002442
G01X0004319Y0001017
G01X000622Y-0000125
G01X0008277Y-0000956
G01X0010438Y-0001454
G01X0012525Y-0001614
G01X0167516Y-0001575
M16
M17
M30
