M48
;Layer_Color=9474304
;FILE_FORMAT=2:5
INCH,LZ
T3F00S00C0.03200
%
G90
G05
T03
G00X0090856Y0022285
M15
G01X0091375Y0022499
G01X0091842Y0022811
G01X0092239Y0023208
G01X0092551Y0023675
G01X0092765Y0024194
G01X0092875Y0024744
G01X0092875Y0025306
G01X0092765Y0025856
G01X0092551Y0026375
G01X0092239Y0026842
G01X0091842Y0027239
G01X0091375Y0027551
G01X0090856Y0027765
G01X0090306Y0027875
G01X0089744Y0027875
G01X0089194Y0027765
G01X0088675Y0027551
G01X0088208Y0027239
G01X0087811Y0026842
G01X0087499Y0026375
G01X0087285Y0025856
G01X0087175Y0025306
G01X0087175Y0024744
G01X0087285Y0024194
G01X0087499Y0023675
G01X0087811Y0023208
G01X0088208Y0022811
G01X0088675Y0022499
G01X0089194Y0022285
G01X0089744Y0022175
G01X0090306Y0022175
G01X0090856Y0022285
M16
G00X0010856Y0022285
M15
G01X0011375Y0022499
G01X0011842Y0022811
G01X0012239Y0023208
G01X0012551Y0023675
G01X0012765Y0024194
G01X0012875Y0024744
G01X0012875Y0025306
G01X0012765Y0025856
G01X0012551Y0026375
G01X0012239Y0026842
G01X0011842Y0027239
G01X0011375Y0027551
G01X0010856Y0027765
G01X0010306Y0027875
G01X0009744Y0027875
G01X0009194Y0027765
G01X0008675Y0027551
G01X0008208Y0027239
G01X0007811Y0026842
G01X0007499Y0026375
G01X0007285Y0025856
G01X0007175Y0025306
G01X0007175Y0024744
G01X0007285Y0024194
G01X0007499Y0023675
G01X0007811Y0023208
G01X0008208Y0022811
G01X0008675Y0022499
G01X0009194Y0022285
G01X0009744Y0022175
G01X0010306Y0022175
G01X0010856Y0022285
M16
G00X0087516Y-0001575
M15
G01X0087651Y-0001609
G01X008986Y-0001415
G01X0092012Y-0000878
G01X0094053Y-0000011
G01X0095934Y0001164
G01X0097608Y000262
G01X0099033Y0004319
G01X0100175Y000622
G01X0101006Y0008277
G01X0101504Y0010438
G01X0101664Y0012527
G01X0101625Y0037516
G01X0101659Y0037651
G01X0101465Y003986
G01X0100928Y0042012
G01X0100061Y0044053
G01X0098886Y0045934
G01X009743Y0047608
G01X0095731Y0049033
G01X009383Y0050175
G01X0091773Y0051006
G01X0089612Y0051504
G01X0087524Y0051664
G01X0012534Y0051625
G01X0012399Y0051659
G01X001019Y0051465
G01X0008038Y0050928
G01X0005997Y0050061
G01X0004116Y0048886
G01X0002442Y004743
G01X0001017Y0045731
G01X-0000125Y004383
G01X-0000956Y0041773
G01X-0001454Y0039612
G01X-0001614Y0037523
G01X-0001575Y0012534
G01X-0001609Y0012399
G01X-0001415Y001019
G01X-0000878Y0008038
G01X-0000011Y0005997
G01X0001164Y0004116
G01X000262Y0002442
G01X0004319Y0001017
G01X000622Y-0000125
G01X0008277Y-0000956
G01X0010438Y-0001454
G01X0012526Y-0001614
G01X0087516Y-0001575
M16
M17
M30
