G04*
G04 #@! TF.GenerationSoftware,Altium Limited,Altium Designer,18.1.9 (240)*
G04*
G04 Layer_Physical_Order=2*
G04 Layer_Color=16711680*
%FSLAX25Y25*%
%MOIN*%
G70*
G01*
G75*
%ADD10C,0.03200*%
%ADD11R,0.05906X0.05906*%
%ADD12C,0.05906*%
%ADD13R,0.07874X0.07874*%
%ADD14C,0.07874*%
G36*
X89969Y49811D02*
X91552Y49387D01*
X93066Y48760D01*
X94485Y47941D01*
X95784Y46943D01*
X96943Y45785D01*
X97941Y44484D01*
X98760Y43066D01*
X99387Y41552D01*
X99811Y39969D01*
X100025Y38344D01*
Y35056D01*
X98025Y34215D01*
X97193Y34925D01*
X95556Y35929D01*
X93782Y36664D01*
X91914Y37112D01*
X90000Y37263D01*
X88086Y37112D01*
X86218Y36664D01*
X84444Y35929D01*
X82807Y34925D01*
X81347Y33678D01*
X80099Y32218D01*
X79593Y31392D01*
X78532Y30607D01*
X76972Y30680D01*
X76866Y30737D01*
X76100Y30969D01*
Y25025D01*
X72900D01*
Y30969D01*
X72134Y30737D01*
X71065Y30166D01*
X70701Y29866D01*
X65102D01*
X64914Y30096D01*
X63827Y30988D01*
X62587Y31651D01*
X61443Y31998D01*
Y25025D01*
X59842D01*
Y23425D01*
X52782D01*
X51666Y21401D01*
X51477Y21294D01*
X50834Y21195D01*
X47295Y24735D01*
Y32162D01*
X33020D01*
Y17888D01*
X40448D01*
X46734Y11602D01*
X47737Y10832D01*
X48904Y10349D01*
X50157Y10184D01*
X68347D01*
Y8872D01*
X80653D01*
Y14334D01*
X82653Y15256D01*
X82807Y15124D01*
X84444Y14121D01*
X86218Y13386D01*
X88086Y12938D01*
X90000Y12787D01*
X91914Y12938D01*
X93782Y13386D01*
X95556Y14121D01*
X97193Y15124D01*
X98025Y15835D01*
X100025Y14994D01*
Y11706D01*
X99811Y10081D01*
X99387Y8498D01*
X98760Y6984D01*
X97941Y5565D01*
X96943Y4265D01*
X95784Y3107D01*
X94485Y2109D01*
X93066Y1290D01*
X91552Y663D01*
X89969Y239D01*
X88344Y25D01*
X11706D01*
X10081Y239D01*
X8498Y663D01*
X6984Y1290D01*
X5565Y2109D01*
X4265Y3107D01*
X3107Y4265D01*
X2109Y5565D01*
X1290Y6984D01*
X663Y8498D01*
X239Y10081D01*
X25Y11706D01*
Y12525D01*
Y37525D01*
Y38344D01*
X239Y39969D01*
X663Y41552D01*
X1290Y43066D01*
X2109Y44484D01*
X3107Y45785D01*
X4265Y46943D01*
X5565Y47941D01*
X6984Y48760D01*
X8498Y49387D01*
X10081Y49811D01*
X11706Y50025D01*
X88344D01*
X89969Y49811D01*
D02*
G37*
%LPC*%
G36*
X58242Y31998D02*
X57098Y31651D01*
X55858Y30988D01*
X54772Y30096D01*
X53880Y29009D01*
X53217Y27769D01*
X52870Y26625D01*
X58242D01*
Y31998D01*
D02*
G37*
G36*
X10463Y32703D02*
X9587D01*
X9273Y32661D01*
X8957Y32641D01*
X8097Y32470D01*
X7797Y32368D01*
X7492Y32286D01*
X6682Y31951D01*
X6408Y31792D01*
X6124Y31652D01*
X5395Y31165D01*
X5157Y30957D01*
X4906Y30764D01*
X4286Y30144D01*
X4094Y29893D01*
X3885Y29655D01*
X3398Y28926D01*
X3258Y28642D01*
X3100Y28368D01*
X2764Y27558D01*
X2682Y27252D01*
X2580Y26953D01*
X2409Y26093D01*
X2389Y25777D01*
X2347Y25463D01*
Y24587D01*
X2389Y24273D01*
X2409Y23957D01*
X2580Y23097D01*
X2682Y22798D01*
X2764Y22492D01*
X3100Y21682D01*
X3258Y21408D01*
X3398Y21124D01*
X3885Y20395D01*
X4093Y20157D01*
X4286Y19906D01*
X4906Y19286D01*
X5157Y19094D01*
X5395Y18885D01*
X6124Y18398D01*
X6408Y18258D01*
X6682Y18100D01*
X7492Y17764D01*
X7798Y17682D01*
X8097Y17580D01*
X8957Y17409D01*
X9273Y17389D01*
X9587Y17347D01*
X10463D01*
X10777Y17389D01*
X11093Y17409D01*
X11953Y17580D01*
X12252Y17682D01*
X12558Y17764D01*
X13368Y18100D01*
X13642Y18258D01*
X13926Y18398D01*
X14655Y18885D01*
X14893Y19094D01*
X15144Y19286D01*
X15764Y19906D01*
X15956Y20157D01*
X16165Y20395D01*
X16652Y21124D01*
X16792Y21408D01*
X16951Y21682D01*
X17286Y22492D01*
X17368Y22797D01*
X17470Y23097D01*
X17641Y23957D01*
X17661Y24273D01*
X17703Y24587D01*
Y25463D01*
X17661Y25777D01*
X17641Y26093D01*
X17470Y26953D01*
X17368Y27253D01*
X17286Y27558D01*
X16951Y28368D01*
X16792Y28642D01*
X16652Y28926D01*
X16165Y29655D01*
X15957Y29893D01*
X15764Y30144D01*
X15144Y30764D01*
X14893Y30956D01*
X14655Y31165D01*
X13926Y31652D01*
X13642Y31792D01*
X13368Y31951D01*
X12558Y32286D01*
X12252Y32368D01*
X11953Y32470D01*
X11093Y32641D01*
X10777Y32661D01*
X10463Y32703D01*
D02*
G37*
%LPD*%
D10*
X40157Y25025D02*
X50157Y15025D01*
X74500D01*
X59842Y25025D02*
X74500D01*
D11*
Y15025D02*
D03*
D12*
Y25025D02*
D03*
D13*
X40157D02*
D03*
D14*
X59842D02*
D03*
M02*
